G04 #@! TF.GenerationSoftware,KiCad,Pcbnew,5.1.5+dfsg1-2build2*
G04 #@! TF.CreationDate,2023-02-09T08:11:11+00:00*
G04 #@! TF.ProjectId,video-ram-replacement,76696465-6f2d-4726-916d-2d7265706c61,rev?*
G04 #@! TF.SameCoordinates,Original*
G04 #@! TF.FileFunction,Legend,Bot*
G04 #@! TF.FilePolarity,Positive*
%FSLAX46Y46*%
G04 Gerber Fmt 4.6, Leading zero omitted, Abs format (unit mm)*
G04 Created by KiCad (PCBNEW 5.1.5+dfsg1-2build2) date 2023-02-09 08:11:11*
%MOMM*%
%LPD*%
G04 APERTURE LIST*
%ADD10C,0.150000*%
%ADD11C,0.120000*%
G04 APERTURE END LIST*
D10*
X179021333Y-150518000D02*
X179021333Y-150051333D01*
X178854666Y-150784666D02*
X178688000Y-150284666D01*
X179121333Y-150284666D01*
X179521333Y-150751333D02*
X179588000Y-150751333D01*
X179654666Y-150718000D01*
X179688000Y-150684666D01*
X179721333Y-150618000D01*
X179754666Y-150484666D01*
X179754666Y-150318000D01*
X179721333Y-150184666D01*
X179688000Y-150118000D01*
X179654666Y-150084666D01*
X179588000Y-150051333D01*
X179521333Y-150051333D01*
X179454666Y-150084666D01*
X179421333Y-150118000D01*
X179388000Y-150184666D01*
X179354666Y-150318000D01*
X179354666Y-150484666D01*
X179388000Y-150618000D01*
X179421333Y-150684666D01*
X179454666Y-150718000D01*
X179521333Y-150751333D01*
X180354666Y-150518000D02*
X180354666Y-150051333D01*
X180188000Y-150784666D02*
X180021333Y-150284666D01*
X180454666Y-150284666D01*
X181021333Y-150518000D02*
X181021333Y-150051333D01*
X180854666Y-150784666D02*
X180688000Y-150284666D01*
X181121333Y-150284666D01*
X181921333Y-150418000D02*
X182154666Y-150418000D01*
X182254666Y-150051333D02*
X181921333Y-150051333D01*
X181921333Y-150751333D01*
X182254666Y-150751333D01*
X182554666Y-150051333D02*
X182554666Y-150518000D01*
X182554666Y-150451333D02*
X182588000Y-150484666D01*
X182654666Y-150518000D01*
X182754666Y-150518000D01*
X182821333Y-150484666D01*
X182854666Y-150418000D01*
X182854666Y-150051333D01*
X182854666Y-150418000D02*
X182888000Y-150484666D01*
X182954666Y-150518000D01*
X183054666Y-150518000D01*
X183121333Y-150484666D01*
X183154666Y-150418000D01*
X183154666Y-150051333D01*
X183788000Y-150518000D02*
X183788000Y-150051333D01*
X183488000Y-150518000D02*
X183488000Y-150151333D01*
X183521333Y-150084666D01*
X183588000Y-150051333D01*
X183688000Y-150051333D01*
X183754666Y-150084666D01*
X183788000Y-150118000D01*
X184221333Y-150051333D02*
X184154666Y-150084666D01*
X184121333Y-150151333D01*
X184121333Y-150751333D01*
X184788000Y-150051333D02*
X184788000Y-150418000D01*
X184754666Y-150484666D01*
X184688000Y-150518000D01*
X184554666Y-150518000D01*
X184488000Y-150484666D01*
X184788000Y-150084666D02*
X184721333Y-150051333D01*
X184554666Y-150051333D01*
X184488000Y-150084666D01*
X184454666Y-150151333D01*
X184454666Y-150218000D01*
X184488000Y-150284666D01*
X184554666Y-150318000D01*
X184721333Y-150318000D01*
X184788000Y-150351333D01*
X185021333Y-150518000D02*
X185288000Y-150518000D01*
X185121333Y-150751333D02*
X185121333Y-150151333D01*
X185154666Y-150084666D01*
X185221333Y-150051333D01*
X185288000Y-150051333D01*
X185621333Y-150051333D02*
X185554666Y-150084666D01*
X185521333Y-150118000D01*
X185488000Y-150184666D01*
X185488000Y-150384666D01*
X185521333Y-150451333D01*
X185554666Y-150484666D01*
X185621333Y-150518000D01*
X185721333Y-150518000D01*
X185788000Y-150484666D01*
X185821333Y-150451333D01*
X185854666Y-150384666D01*
X185854666Y-150184666D01*
X185821333Y-150118000D01*
X185788000Y-150084666D01*
X185721333Y-150051333D01*
X185621333Y-150051333D01*
X186154666Y-150051333D02*
X186154666Y-150518000D01*
X186154666Y-150384666D02*
X186188000Y-150451333D01*
X186221333Y-150484666D01*
X186288000Y-150518000D01*
X186354666Y-150518000D01*
X187021333Y-150751333D02*
X187254666Y-150051333D01*
X187488000Y-150751333D01*
X187688000Y-150684666D02*
X187721333Y-150718000D01*
X187788000Y-150751333D01*
X187954666Y-150751333D01*
X188021333Y-150718000D01*
X188054666Y-150684666D01*
X188088000Y-150618000D01*
X188088000Y-150551333D01*
X188054666Y-150451333D01*
X187654666Y-150051333D01*
X188088000Y-150051333D01*
D11*
X180613164Y-151862200D02*
X180828836Y-151862200D01*
X180613164Y-152582200D02*
X180828836Y-152582200D01*
X182139000Y-147935836D02*
X182139000Y-147720164D01*
X182859000Y-147935836D02*
X182859000Y-147720164D01*
X184177000Y-127642252D02*
X184177000Y-127119748D01*
X185647000Y-127642252D02*
X185647000Y-127119748D01*
X182726000Y-127246748D02*
X182726000Y-127769252D01*
X181256000Y-127246748D02*
X181256000Y-127769252D01*
X185314000Y-154489036D02*
X185314000Y-154273364D01*
X186034000Y-154489036D02*
X186034000Y-154273364D01*
X183915164Y-130069000D02*
X184130836Y-130069000D01*
X183915164Y-130789000D02*
X184130836Y-130789000D01*
X185146836Y-157281200D02*
X184931164Y-157281200D01*
X185146836Y-156561200D02*
X184931164Y-156561200D01*
X183308164Y-144166000D02*
X183523836Y-144166000D01*
X183308164Y-144886000D02*
X183523836Y-144886000D01*
X182391164Y-135453800D02*
X182606836Y-135453800D01*
X182391164Y-136173800D02*
X182606836Y-136173800D01*
X183790000Y-136378836D02*
X183790000Y-136163164D01*
X184510000Y-136378836D02*
X184510000Y-136163164D01*
X179978164Y-154021200D02*
X180193836Y-154021200D01*
X179978164Y-154741200D02*
X180193836Y-154741200D01*
X180615000Y-157283036D02*
X180615000Y-157067364D01*
X181335000Y-157283036D02*
X181335000Y-157067364D01*
X182391164Y-157196200D02*
X182606836Y-157196200D01*
X182391164Y-157916200D02*
X182606836Y-157916200D01*
D10*
X182615666Y-152523000D02*
X182649000Y-152556333D01*
X182749000Y-152589666D01*
X182815666Y-152589666D01*
X182915666Y-152556333D01*
X182982333Y-152489666D01*
X183015666Y-152423000D01*
X183049000Y-152289666D01*
X183049000Y-152189666D01*
X183015666Y-152056333D01*
X182982333Y-151989666D01*
X182915666Y-151923000D01*
X182815666Y-151889666D01*
X182749000Y-151889666D01*
X182649000Y-151923000D01*
X182615666Y-151956333D01*
X182215666Y-152189666D02*
X182282333Y-152156333D01*
X182315666Y-152123000D01*
X182349000Y-152056333D01*
X182349000Y-152023000D01*
X182315666Y-151956333D01*
X182282333Y-151923000D01*
X182215666Y-151889666D01*
X182082333Y-151889666D01*
X182015666Y-151923000D01*
X181982333Y-151956333D01*
X181949000Y-152023000D01*
X181949000Y-152056333D01*
X181982333Y-152123000D01*
X182015666Y-152156333D01*
X182082333Y-152189666D01*
X182215666Y-152189666D01*
X182282333Y-152223000D01*
X182315666Y-152256333D01*
X182349000Y-152323000D01*
X182349000Y-152456333D01*
X182315666Y-152523000D01*
X182282333Y-152556333D01*
X182215666Y-152589666D01*
X182082333Y-152589666D01*
X182015666Y-152556333D01*
X181982333Y-152523000D01*
X181949000Y-152456333D01*
X181949000Y-152323000D01*
X181982333Y-152256333D01*
X182015666Y-152223000D01*
X182082333Y-152189666D01*
X182749000Y-145933333D02*
X182782333Y-145900000D01*
X182815666Y-145800000D01*
X182815666Y-145733333D01*
X182782333Y-145633333D01*
X182715666Y-145566666D01*
X182649000Y-145533333D01*
X182515666Y-145500000D01*
X182415666Y-145500000D01*
X182282333Y-145533333D01*
X182215666Y-145566666D01*
X182149000Y-145633333D01*
X182115666Y-145733333D01*
X182115666Y-145800000D01*
X182149000Y-145900000D01*
X182182333Y-145933333D01*
X182115666Y-146166666D02*
X182115666Y-146633333D01*
X182815666Y-146333333D01*
X185162000Y-124137000D02*
X185195333Y-124103666D01*
X185228666Y-124003666D01*
X185228666Y-123937000D01*
X185195333Y-123837000D01*
X185128666Y-123770333D01*
X185062000Y-123737000D01*
X184928666Y-123703666D01*
X184828666Y-123703666D01*
X184695333Y-123737000D01*
X184628666Y-123770333D01*
X184562000Y-123837000D01*
X184528666Y-123937000D01*
X184528666Y-124003666D01*
X184562000Y-124103666D01*
X184595333Y-124137000D01*
X185228666Y-124803666D02*
X185228666Y-124403666D01*
X185228666Y-124603666D02*
X184528666Y-124603666D01*
X184628666Y-124537000D01*
X184695333Y-124470333D01*
X184728666Y-124403666D01*
X184528666Y-125037000D02*
X184528666Y-125503666D01*
X185228666Y-125203666D01*
X182241000Y-124264000D02*
X182274333Y-124230666D01*
X182307666Y-124130666D01*
X182307666Y-124064000D01*
X182274333Y-123964000D01*
X182207666Y-123897333D01*
X182141000Y-123864000D01*
X182007666Y-123830666D01*
X181907666Y-123830666D01*
X181774333Y-123864000D01*
X181707666Y-123897333D01*
X181641000Y-123964000D01*
X181607666Y-124064000D01*
X181607666Y-124130666D01*
X181641000Y-124230666D01*
X181674333Y-124264000D01*
X182307666Y-124930666D02*
X182307666Y-124530666D01*
X182307666Y-124730666D02*
X181607666Y-124730666D01*
X181707666Y-124664000D01*
X181774333Y-124597333D01*
X181807666Y-124530666D01*
X181607666Y-125530666D02*
X181607666Y-125397333D01*
X181641000Y-125330666D01*
X181674333Y-125297333D01*
X181774333Y-125230666D01*
X181907666Y-125197333D01*
X182174333Y-125197333D01*
X182241000Y-125230666D01*
X182274333Y-125264000D01*
X182307666Y-125330666D01*
X182307666Y-125464000D01*
X182274333Y-125530666D01*
X182241000Y-125564000D01*
X182174333Y-125597333D01*
X182007666Y-125597333D01*
X181941000Y-125564000D01*
X181907666Y-125530666D01*
X181874333Y-125464000D01*
X181874333Y-125330666D01*
X181907666Y-125264000D01*
X181941000Y-125230666D01*
X182007666Y-125197333D01*
X185924000Y-151823000D02*
X185957333Y-151789666D01*
X185990666Y-151689666D01*
X185990666Y-151623000D01*
X185957333Y-151523000D01*
X185890666Y-151456333D01*
X185824000Y-151423000D01*
X185690666Y-151389666D01*
X185590666Y-151389666D01*
X185457333Y-151423000D01*
X185390666Y-151456333D01*
X185324000Y-151523000D01*
X185290666Y-151623000D01*
X185290666Y-151689666D01*
X185324000Y-151789666D01*
X185357333Y-151823000D01*
X185990666Y-152489666D02*
X185990666Y-152089666D01*
X185990666Y-152289666D02*
X185290666Y-152289666D01*
X185390666Y-152223000D01*
X185457333Y-152156333D01*
X185490666Y-152089666D01*
X185290666Y-153123000D02*
X185290666Y-152789666D01*
X185624000Y-152756333D01*
X185590666Y-152789666D01*
X185557333Y-152856333D01*
X185557333Y-153023000D01*
X185590666Y-153089666D01*
X185624000Y-153123000D01*
X185690666Y-153156333D01*
X185857333Y-153156333D01*
X185924000Y-153123000D01*
X185957333Y-153089666D01*
X185990666Y-153023000D01*
X185990666Y-152856333D01*
X185957333Y-152789666D01*
X185924000Y-152756333D01*
X182314000Y-130679000D02*
X182347333Y-130712333D01*
X182447333Y-130745666D01*
X182514000Y-130745666D01*
X182614000Y-130712333D01*
X182680666Y-130645666D01*
X182714000Y-130579000D01*
X182747333Y-130445666D01*
X182747333Y-130345666D01*
X182714000Y-130212333D01*
X182680666Y-130145666D01*
X182614000Y-130079000D01*
X182514000Y-130045666D01*
X182447333Y-130045666D01*
X182347333Y-130079000D01*
X182314000Y-130112333D01*
X181647333Y-130745666D02*
X182047333Y-130745666D01*
X181847333Y-130745666D02*
X181847333Y-130045666D01*
X181914000Y-130145666D01*
X181980666Y-130212333D01*
X182047333Y-130245666D01*
X181047333Y-130279000D02*
X181047333Y-130745666D01*
X181214000Y-130012333D02*
X181380666Y-130512333D01*
X180947333Y-130512333D01*
X187648000Y-157222000D02*
X187681333Y-157255333D01*
X187781333Y-157288666D01*
X187848000Y-157288666D01*
X187948000Y-157255333D01*
X188014666Y-157188666D01*
X188048000Y-157122000D01*
X188081333Y-156988666D01*
X188081333Y-156888666D01*
X188048000Y-156755333D01*
X188014666Y-156688666D01*
X187948000Y-156622000D01*
X187848000Y-156588666D01*
X187781333Y-156588666D01*
X187681333Y-156622000D01*
X187648000Y-156655333D01*
X186981333Y-157288666D02*
X187381333Y-157288666D01*
X187181333Y-157288666D02*
X187181333Y-156588666D01*
X187248000Y-156688666D01*
X187314666Y-156755333D01*
X187381333Y-156788666D01*
X186748000Y-156588666D02*
X186314666Y-156588666D01*
X186548000Y-156855333D01*
X186448000Y-156855333D01*
X186381333Y-156888666D01*
X186348000Y-156922000D01*
X186314666Y-156988666D01*
X186314666Y-157155333D01*
X186348000Y-157222000D01*
X186381333Y-157255333D01*
X186448000Y-157288666D01*
X186648000Y-157288666D01*
X186714666Y-157255333D01*
X186748000Y-157222000D01*
X183838000Y-143760000D02*
X183871333Y-143793333D01*
X183971333Y-143826666D01*
X184038000Y-143826666D01*
X184138000Y-143793333D01*
X184204666Y-143726666D01*
X184238000Y-143660000D01*
X184271333Y-143526666D01*
X184271333Y-143426666D01*
X184238000Y-143293333D01*
X184204666Y-143226666D01*
X184138000Y-143160000D01*
X184038000Y-143126666D01*
X183971333Y-143126666D01*
X183871333Y-143160000D01*
X183838000Y-143193333D01*
X183171333Y-143826666D02*
X183571333Y-143826666D01*
X183371333Y-143826666D02*
X183371333Y-143126666D01*
X183438000Y-143226666D01*
X183504666Y-143293333D01*
X183571333Y-143326666D01*
X182904666Y-143193333D02*
X182871333Y-143160000D01*
X182804666Y-143126666D01*
X182638000Y-143126666D01*
X182571333Y-143160000D01*
X182538000Y-143193333D01*
X182504666Y-143260000D01*
X182504666Y-143326666D01*
X182538000Y-143426666D01*
X182938000Y-143826666D01*
X182504666Y-143826666D01*
X182695000Y-137156000D02*
X182728333Y-137189333D01*
X182828333Y-137222666D01*
X182895000Y-137222666D01*
X182995000Y-137189333D01*
X183061666Y-137122666D01*
X183095000Y-137056000D01*
X183128333Y-136922666D01*
X183128333Y-136822666D01*
X183095000Y-136689333D01*
X183061666Y-136622666D01*
X182995000Y-136556000D01*
X182895000Y-136522666D01*
X182828333Y-136522666D01*
X182728333Y-136556000D01*
X182695000Y-136589333D01*
X182028333Y-137222666D02*
X182428333Y-137222666D01*
X182228333Y-137222666D02*
X182228333Y-136522666D01*
X182295000Y-136622666D01*
X182361666Y-136689333D01*
X182428333Y-136722666D01*
X181361666Y-137222666D02*
X181761666Y-137222666D01*
X181561666Y-137222666D02*
X181561666Y-136522666D01*
X181628333Y-136622666D01*
X181695000Y-136689333D01*
X181761666Y-136722666D01*
X184400000Y-133789000D02*
X184433333Y-133755666D01*
X184466666Y-133655666D01*
X184466666Y-133589000D01*
X184433333Y-133489000D01*
X184366666Y-133422333D01*
X184300000Y-133389000D01*
X184166666Y-133355666D01*
X184066666Y-133355666D01*
X183933333Y-133389000D01*
X183866666Y-133422333D01*
X183800000Y-133489000D01*
X183766666Y-133589000D01*
X183766666Y-133655666D01*
X183800000Y-133755666D01*
X183833333Y-133789000D01*
X184466666Y-134455666D02*
X184466666Y-134055666D01*
X184466666Y-134255666D02*
X183766666Y-134255666D01*
X183866666Y-134189000D01*
X183933333Y-134122333D01*
X183966666Y-134055666D01*
X183766666Y-134889000D02*
X183766666Y-134955666D01*
X183800000Y-135022333D01*
X183833333Y-135055666D01*
X183900000Y-135089000D01*
X184033333Y-135122333D01*
X184200000Y-135122333D01*
X184333333Y-135089000D01*
X184400000Y-135055666D01*
X184433333Y-135022333D01*
X184466666Y-134955666D01*
X184466666Y-134889000D01*
X184433333Y-134822333D01*
X184400000Y-134789000D01*
X184333333Y-134755666D01*
X184200000Y-134722333D01*
X184033333Y-134722333D01*
X183900000Y-134755666D01*
X183833333Y-134789000D01*
X183800000Y-134822333D01*
X183766666Y-134889000D01*
X181853666Y-154555000D02*
X181887000Y-154588333D01*
X181987000Y-154621666D01*
X182053666Y-154621666D01*
X182153666Y-154588333D01*
X182220333Y-154521666D01*
X182253666Y-154455000D01*
X182287000Y-154321666D01*
X182287000Y-154221666D01*
X182253666Y-154088333D01*
X182220333Y-154021666D01*
X182153666Y-153955000D01*
X182053666Y-153921666D01*
X181987000Y-153921666D01*
X181887000Y-153955000D01*
X181853666Y-153988333D01*
X181520333Y-154621666D02*
X181387000Y-154621666D01*
X181320333Y-154588333D01*
X181287000Y-154555000D01*
X181220333Y-154455000D01*
X181187000Y-154321666D01*
X181187000Y-154055000D01*
X181220333Y-153988333D01*
X181253666Y-153955000D01*
X181320333Y-153921666D01*
X181453666Y-153921666D01*
X181520333Y-153955000D01*
X181553666Y-153988333D01*
X181587000Y-154055000D01*
X181587000Y-154221666D01*
X181553666Y-154288333D01*
X181520333Y-154321666D01*
X181453666Y-154355000D01*
X181320333Y-154355000D01*
X181253666Y-154321666D01*
X181220333Y-154288333D01*
X181187000Y-154221666D01*
X181225000Y-158760333D02*
X181258333Y-158727000D01*
X181291666Y-158627000D01*
X181291666Y-158560333D01*
X181258333Y-158460333D01*
X181191666Y-158393666D01*
X181125000Y-158360333D01*
X180991666Y-158327000D01*
X180891666Y-158327000D01*
X180758333Y-158360333D01*
X180691666Y-158393666D01*
X180625000Y-158460333D01*
X180591666Y-158560333D01*
X180591666Y-158627000D01*
X180625000Y-158727000D01*
X180658333Y-158760333D01*
X180591666Y-159360333D02*
X180591666Y-159227000D01*
X180625000Y-159160333D01*
X180658333Y-159127000D01*
X180758333Y-159060333D01*
X180891666Y-159027000D01*
X181158333Y-159027000D01*
X181225000Y-159060333D01*
X181258333Y-159093666D01*
X181291666Y-159160333D01*
X181291666Y-159293666D01*
X181258333Y-159360333D01*
X181225000Y-159393666D01*
X181158333Y-159427000D01*
X180991666Y-159427000D01*
X180925000Y-159393666D01*
X180891666Y-159360333D01*
X180858333Y-159293666D01*
X180858333Y-159160333D01*
X180891666Y-159093666D01*
X180925000Y-159060333D01*
X180991666Y-159027000D01*
X182869666Y-156841000D02*
X182903000Y-156874333D01*
X183003000Y-156907666D01*
X183069666Y-156907666D01*
X183169666Y-156874333D01*
X183236333Y-156807666D01*
X183269666Y-156741000D01*
X183303000Y-156607666D01*
X183303000Y-156507666D01*
X183269666Y-156374333D01*
X183236333Y-156307666D01*
X183169666Y-156241000D01*
X183069666Y-156207666D01*
X183003000Y-156207666D01*
X182903000Y-156241000D01*
X182869666Y-156274333D01*
X182236333Y-156207666D02*
X182569666Y-156207666D01*
X182603000Y-156541000D01*
X182569666Y-156507666D01*
X182503000Y-156474333D01*
X182336333Y-156474333D01*
X182269666Y-156507666D01*
X182236333Y-156541000D01*
X182203000Y-156607666D01*
X182203000Y-156774333D01*
X182236333Y-156841000D01*
X182269666Y-156874333D01*
X182336333Y-156907666D01*
X182503000Y-156907666D01*
X182569666Y-156874333D01*
X182603000Y-156841000D01*
M02*
