G04 #@! TF.GenerationSoftware,KiCad,Pcbnew,5.1.5+dfsg1-2build2*
G04 #@! TF.CreationDate,2023-02-09T08:11:11+00:00*
G04 #@! TF.ProjectId,video-ram-replacement,76696465-6f2d-4726-916d-2d7265706c61,rev?*
G04 #@! TF.SameCoordinates,Original*
G04 #@! TF.FileFunction,Copper,L2,Inr*
G04 #@! TF.FilePolarity,Positive*
%FSLAX46Y46*%
G04 Gerber Fmt 4.6, Leading zero omitted, Abs format (unit mm)*
G04 Created by KiCad (PCBNEW 5.1.5+dfsg1-2build2) date 2023-02-09 08:11:11*
%MOMM*%
%LPD*%
G04 APERTURE LIST*
%ADD10R,1.000000X1.000000*%
%ADD11O,1.600000X1.600000*%
%ADD12R,1.600000X1.600000*%
%ADD13C,0.400000*%
%ADD14C,0.200000*%
%ADD15C,0.250000*%
%ADD16C,0.254000*%
G04 APERTURE END LIST*
D10*
X185166000Y-161163000D03*
X181991000Y-161290000D03*
X180721000Y-163068000D03*
X178816000Y-163068000D03*
X180086000Y-161290000D03*
X182626000Y-163068000D03*
X188341000Y-163068000D03*
X184531000Y-163068000D03*
X186436000Y-163068000D03*
D11*
X187176000Y-126732000D03*
X179556000Y-147052000D03*
X187176000Y-129272000D03*
X179556000Y-144512000D03*
X187176000Y-131812000D03*
X179556000Y-141972000D03*
X187176000Y-134352000D03*
X179556000Y-139432000D03*
X187176000Y-136892000D03*
X179556000Y-136892000D03*
X187176000Y-139432000D03*
X179556000Y-134352000D03*
X187176000Y-141972000D03*
X179556000Y-131812000D03*
X187176000Y-144512000D03*
X179556000Y-129272000D03*
X187176000Y-147052000D03*
D12*
X179556000Y-126732000D03*
D13*
X184912000Y-126431000D03*
X185688002Y-130110001D03*
X182979000Y-135813800D03*
X182245000Y-156718000D03*
X183388000Y-155270200D03*
X187336549Y-149744549D03*
X179367772Y-150056347D03*
X183885330Y-142911999D03*
X183482402Y-147308989D03*
X181229000Y-160477200D03*
X182803800Y-160477200D03*
X186791600Y-160477200D03*
X184912000Y-128331000D03*
X182894614Y-130028586D03*
X184759601Y-138455400D03*
X182019000Y-135813800D03*
X183289658Y-152766671D03*
X178725000Y-154432000D03*
X179625012Y-158496000D03*
X187725850Y-154598343D03*
X183668368Y-157356420D03*
X182753000Y-148709000D03*
X182019000Y-157556200D03*
X181188381Y-155969074D03*
X181406800Y-144399000D03*
X185434827Y-133859202D03*
X185978800Y-159577189D03*
X181991000Y-126558000D03*
X184191126Y-157650913D03*
X184302400Y-140597000D03*
X180675152Y-160246430D03*
X180670200Y-138734800D03*
X182829200Y-138684000D03*
X184404000Y-159577189D03*
X184785340Y-157734047D03*
X184759600Y-141097000D03*
X181559200Y-140893800D03*
X182803800Y-133934200D03*
X184835800Y-133967600D03*
X185168307Y-159593475D03*
X185877200Y-157657800D03*
X185293000Y-134442200D03*
X184048400Y-134467600D03*
X180175152Y-150360000D03*
X178225000Y-160990077D03*
X182644555Y-153215552D03*
X182118000Y-159577190D03*
X187291600Y-159639000D03*
X187235111Y-151218982D03*
X180975000Y-129286000D03*
X181575162Y-150021838D03*
X180092555Y-148850555D03*
X178725000Y-151910584D03*
X178225000Y-153810202D03*
X187368796Y-150578204D03*
X182094265Y-150396670D03*
X182008000Y-134097668D03*
X187776001Y-143383000D03*
X188160643Y-157888307D03*
X181991000Y-153162000D03*
X186640162Y-151296680D03*
X179470958Y-151869048D03*
X187776001Y-140471231D03*
X186574010Y-146013919D03*
X179578000Y-150622000D03*
X184234601Y-137930740D03*
X178725000Y-152570200D03*
X188404990Y-135636000D03*
X178225000Y-153035000D03*
X183515000Y-141498998D03*
X178625010Y-149352000D03*
X188805000Y-130810000D03*
X188160642Y-157288306D03*
X187904990Y-153403987D03*
X180018495Y-148217507D03*
X186628546Y-148778454D03*
X178861446Y-155275554D03*
X188805000Y-159385000D03*
X188290200Y-125399800D03*
X188805000Y-154178000D03*
X183885330Y-153266671D03*
X183896000Y-161544000D03*
X186436000Y-161671000D03*
X188404990Y-158859531D03*
X187983901Y-155857649D03*
X188004981Y-155129462D03*
X178308000Y-156845000D03*
X178275684Y-157498787D03*
D14*
X183885330Y-146906061D02*
X183482402Y-147308989D01*
X183885330Y-142911999D02*
X183885330Y-146906061D01*
D15*
X183214414Y-130028586D02*
X182894614Y-130028586D01*
X184912000Y-128331000D02*
X183214414Y-130028586D01*
D14*
X183653011Y-152403318D02*
X183289658Y-152766671D01*
X183653011Y-147966011D02*
X183653011Y-152403318D01*
X184759601Y-138455400D02*
X183870600Y-138455400D01*
X183870600Y-138455400D02*
X183329201Y-138996799D01*
X183329201Y-139336241D02*
X182859221Y-139806221D01*
X183329201Y-138996799D02*
X183329201Y-139336241D01*
X182859221Y-139806221D02*
X182859221Y-141465179D01*
X182859221Y-141465179D02*
X182604511Y-141719889D01*
X183106831Y-143661932D02*
X183106831Y-145753868D01*
X183495989Y-147808989D02*
X183653011Y-147966011D01*
X183106831Y-145753868D02*
X182675202Y-146185496D01*
X182604511Y-141719889D02*
X182604511Y-143159612D01*
X182604511Y-143159612D02*
X183106831Y-143661932D01*
X182675202Y-146185496D02*
X182675202Y-147750202D01*
X182675202Y-147750202D02*
X182733989Y-147808989D01*
X182733989Y-147808989D02*
X183495989Y-147808989D01*
X178924999Y-154631999D02*
X178725000Y-154432000D01*
X179570001Y-155277001D02*
X178924999Y-154631999D01*
X179570001Y-156240001D02*
X179570001Y-155277001D01*
X179570001Y-158440989D02*
X179625012Y-158496000D01*
X179570001Y-156240001D02*
X179570001Y-158440989D01*
X181744999Y-155677151D02*
X181744999Y-156972199D01*
X181744999Y-156972199D02*
X182019000Y-157246200D01*
X181475172Y-152957226D02*
X181475172Y-155407324D01*
X181567199Y-152865199D02*
X181475172Y-152957226D01*
X181567199Y-152413999D02*
X181567199Y-152865199D01*
X182019000Y-157246200D02*
X182019000Y-157556200D01*
X181475172Y-155407324D02*
X181744999Y-155677151D01*
X181880217Y-152100981D02*
X181567199Y-152413999D01*
X182753000Y-151997628D02*
X182649647Y-152100981D01*
X182649647Y-152100981D02*
X181880217Y-152100981D01*
X182753000Y-148709000D02*
X182753000Y-151997628D01*
X181188381Y-155686232D02*
X181075162Y-155573013D01*
X181188381Y-155969074D02*
X181188381Y-155686232D01*
X181075162Y-153210813D02*
X181075162Y-144449800D01*
X181356000Y-144449800D02*
X181406800Y-144399000D01*
X181075162Y-144449800D02*
X181356000Y-144449800D01*
X181075162Y-153210813D02*
X181075162Y-155575000D01*
X186074010Y-135324810D02*
X186059619Y-135310419D01*
X185558543Y-133859202D02*
X185434827Y-133859202D01*
X186074010Y-134374669D02*
X185558543Y-133859202D01*
X186074010Y-135324810D02*
X186074010Y-134374669D01*
X185978800Y-159635558D02*
X186004200Y-159660958D01*
X185978800Y-158296202D02*
X185978800Y-159635558D01*
X186377201Y-157417799D02*
X186377201Y-157897801D01*
X186117201Y-157157799D02*
X186377201Y-157417799D01*
X186117201Y-147991801D02*
X186117201Y-157157799D01*
X186074010Y-147948610D02*
X186117201Y-147991801D01*
X186377201Y-157897801D02*
X185978800Y-158296202D01*
X186074010Y-135324810D02*
X186074010Y-147948610D01*
D15*
X186376001Y-127531999D02*
X187176000Y-126732000D01*
X182716000Y-126558000D02*
X183689999Y-127531999D01*
X183689999Y-127531999D02*
X186376001Y-127531999D01*
X181991000Y-126558000D02*
X182716000Y-126558000D01*
D14*
X184385330Y-157173867D02*
X184191126Y-157368071D01*
X184385330Y-141655800D02*
X184385330Y-157173867D01*
X184259599Y-140639801D02*
X184259599Y-141530069D01*
X184191126Y-157368071D02*
X184191126Y-157650913D01*
X184259599Y-141530069D02*
X184385330Y-141655800D01*
X184302400Y-140597000D02*
X184259599Y-140639801D01*
X180675152Y-138739752D02*
X180670200Y-138734800D01*
X180675152Y-157884230D02*
X180675152Y-160246430D01*
X180670200Y-139945802D02*
X180084001Y-140532001D01*
X180670200Y-138734800D02*
X180670200Y-139945802D01*
X180084001Y-140532001D02*
X180084001Y-140871999D01*
X180656001Y-141443999D02*
X180656001Y-142812999D01*
X180084001Y-140871999D02*
X180656001Y-141443999D01*
X180675152Y-144003150D02*
X180675152Y-157884230D01*
X180467000Y-143794998D02*
X180675152Y-144003150D01*
X180467000Y-143002000D02*
X180467000Y-143794998D01*
X180656001Y-142812999D02*
X180467000Y-143002000D01*
X184785340Y-141122740D02*
X184759600Y-141097000D01*
X184785340Y-155371847D02*
X184785340Y-141122740D01*
X184785340Y-155371847D02*
X184785340Y-157734047D01*
X185168307Y-158091082D02*
X185168307Y-159593475D01*
X185285341Y-157974048D02*
X185168307Y-158091082D01*
X185285341Y-157494046D02*
X185285341Y-157974048D01*
X184635801Y-134525003D02*
X185259601Y-135148803D01*
X185259601Y-157468306D02*
X185285341Y-157494046D01*
X184635801Y-134167599D02*
X184635801Y-134525003D01*
X185259601Y-135148803D02*
X185259601Y-157468306D01*
X184835800Y-133967600D02*
X184635801Y-134167599D01*
X185750200Y-157530800D02*
X185877200Y-157657800D01*
X185685349Y-157530800D02*
X185750200Y-157530800D01*
X185685349Y-157328356D02*
X185685349Y-157530800D01*
X185659611Y-157302617D02*
X185685349Y-157328356D01*
X185659611Y-154446389D02*
X185659611Y-157302617D01*
X185674000Y-138404600D02*
X185674000Y-154432000D01*
X185674000Y-154432000D02*
X185659611Y-154446389D01*
X185659609Y-138390209D02*
X185674000Y-138404600D01*
X185659609Y-134525967D02*
X185659609Y-138390209D01*
X185575842Y-134442200D02*
X185659609Y-134525967D01*
X185293000Y-134442200D02*
X185575842Y-134442200D01*
X180175152Y-150360000D02*
X180175152Y-158787848D01*
X180175152Y-158787848D02*
X179959000Y-159004000D01*
X178435000Y-159004000D02*
X178181000Y-159258000D01*
X179959000Y-159004000D02*
X178435000Y-159004000D01*
X178225000Y-159302000D02*
X178225000Y-160990077D01*
X178181000Y-159258000D02*
X178225000Y-159302000D01*
X182118000Y-158286798D02*
X182118000Y-159577190D01*
X182745001Y-156111454D02*
X182745001Y-157570201D01*
X182073202Y-158242000D02*
X182118000Y-158286798D01*
X181875182Y-154420818D02*
X181875182Y-155241636D01*
X181964949Y-154331051D02*
X181875182Y-154420818D01*
X181964949Y-154178000D02*
X181964949Y-154331051D01*
X181875182Y-155241636D02*
X182745001Y-156111454D01*
X182644555Y-153498394D02*
X181964949Y-154178000D01*
X182745001Y-157570201D02*
X182073202Y-158242000D01*
X182644555Y-153215552D02*
X182644555Y-153498394D01*
X181575162Y-149451990D02*
X181475172Y-149352000D01*
X181475172Y-149352000D02*
X181475172Y-144899001D01*
X181906801Y-144158999D02*
X181638802Y-143891000D01*
X181906801Y-144639001D02*
X181906801Y-144158999D01*
X181646801Y-144899001D02*
X181906801Y-144639001D01*
X181475172Y-144899001D02*
X181646801Y-144899001D01*
X181356000Y-143891000D02*
X181075162Y-143610162D01*
X181638802Y-143891000D02*
X181356000Y-143891000D01*
X181075162Y-143610162D02*
X181102000Y-143583324D01*
X181102000Y-143583324D02*
X181102000Y-141478000D01*
X180975000Y-140206701D02*
X181070210Y-140111491D01*
X180975000Y-141049602D02*
X180975000Y-140206701D01*
X181102000Y-141176602D02*
X180975000Y-141049602D01*
X181102000Y-141478000D02*
X181102000Y-141176602D01*
X181170201Y-138494799D02*
X180851402Y-138176000D01*
X181170201Y-138974801D02*
X181170201Y-138494799D01*
X181070210Y-139074792D02*
X181170201Y-138974801D01*
X181070210Y-140111491D02*
X181070210Y-139074792D01*
X180851402Y-129409598D02*
X180975000Y-129286000D01*
X180851402Y-138176000D02*
X180851402Y-129409598D01*
X181575162Y-150021838D02*
X181575162Y-149451990D01*
X180086000Y-148857110D02*
X180092555Y-148850555D01*
X178805386Y-151910584D02*
X178725000Y-151910584D01*
X179225001Y-152330199D02*
X178805386Y-151910584D01*
X179225001Y-152810201D02*
X179225001Y-152330199D01*
X178225000Y-153810202D02*
X179225001Y-152810201D01*
X182094265Y-150396670D02*
X182094265Y-149405394D01*
X182094265Y-149405394D02*
X181875182Y-149186311D01*
X181875182Y-149186311D02*
X181975172Y-149286301D01*
X182306811Y-143993310D02*
X181804491Y-143490990D01*
X182306811Y-144804690D02*
X182306811Y-143993310D01*
X181875182Y-145236319D02*
X182306811Y-144804690D01*
X181875182Y-148571184D02*
X181875182Y-145236319D01*
X181804491Y-142688491D02*
X181502010Y-142386010D01*
X181804491Y-143490990D02*
X181804491Y-142688491D01*
X181502010Y-142386010D02*
X181502010Y-141393801D01*
X181799201Y-141393801D02*
X182059201Y-141133801D01*
X181502010Y-141393801D02*
X181799201Y-141393801D01*
X182059201Y-140653799D02*
X181740402Y-140335000D01*
X182059201Y-141133801D02*
X182059201Y-140653799D01*
X181740402Y-140335000D02*
X181483000Y-140335000D01*
X181483000Y-140208000D02*
X181470220Y-140195220D01*
X181483000Y-140335000D02*
X181483000Y-140208000D01*
X181570211Y-139140490D02*
X181570211Y-138329111D01*
X181470220Y-139240481D02*
X181570211Y-139140490D01*
X181470220Y-140195220D02*
X181470220Y-139240481D01*
X181518999Y-134586669D02*
X182008000Y-134097668D01*
X181518999Y-138277899D02*
X181518999Y-134586669D01*
X181570211Y-138329111D02*
X181518999Y-138277899D01*
X181875182Y-149186311D02*
X181875182Y-148590000D01*
X188904990Y-155242928D02*
X188904990Y-157634010D01*
X188304999Y-154642937D02*
X188904990Y-155242928D01*
X188904990Y-153338008D02*
X188304999Y-153937999D01*
X188904990Y-143438990D02*
X188904990Y-153338008D01*
X188849000Y-143383000D02*
X188904990Y-143438990D01*
X188304999Y-153937999D02*
X188304999Y-154642937D01*
X187776001Y-143383000D02*
X188849000Y-143383000D01*
X188650693Y-157888307D02*
X188160643Y-157888307D01*
X188904990Y-157634010D02*
X188650693Y-157888307D01*
X183049657Y-152266670D02*
X182753000Y-152563327D01*
X183253001Y-152237630D02*
X183223961Y-152266670D01*
X183253001Y-148468999D02*
X183253001Y-152237630D01*
X182993001Y-148208999D02*
X183253001Y-148468999D01*
X182275192Y-148112190D02*
X182372001Y-148208999D01*
X183223961Y-152266670D02*
X183049657Y-152266670D01*
X182275192Y-146019808D02*
X182275192Y-148112190D01*
X187176000Y-134344000D02*
X186191201Y-133359201D01*
X183479001Y-136053801D02*
X182118000Y-137414802D01*
X182118000Y-137414802D02*
X182118000Y-139827000D01*
X184416797Y-133359201D02*
X183479001Y-134296997D01*
X183479001Y-134296997D02*
X183479001Y-136053801D01*
X187176000Y-134352000D02*
X187176000Y-134344000D01*
X182118000Y-139827000D02*
X182459211Y-140168211D01*
X182706821Y-145588179D02*
X182275192Y-146019808D01*
X182459211Y-140168211D02*
X182459211Y-141299490D01*
X182204501Y-141554199D02*
X182204501Y-143325302D01*
X182372001Y-148208999D02*
X182993001Y-148208999D01*
X182459211Y-141299490D02*
X182204501Y-141554199D01*
X182204501Y-143325302D02*
X182706821Y-143827621D01*
X186191201Y-133359201D02*
X184416797Y-133359201D01*
X182706821Y-143827621D02*
X182706821Y-145588179D01*
X182589673Y-152563327D02*
X181991000Y-153162000D01*
X181991000Y-153162000D02*
X181991000Y-153289000D01*
X182753000Y-152563327D02*
X182589673Y-152563327D01*
X179225001Y-151670583D02*
X179226535Y-151669049D01*
X178384582Y-151511000D02*
X178484999Y-151410583D01*
X178308000Y-151511000D02*
X178384582Y-151511000D01*
X178125010Y-151328010D02*
X178308000Y-151511000D01*
X179226535Y-151669049D02*
X179270959Y-151669049D01*
X178965001Y-151410583D02*
X179225001Y-151670583D01*
X178125010Y-140009990D02*
X178125010Y-151328010D01*
X178484999Y-151410583D02*
X178965001Y-151410583D01*
X178703000Y-139432000D02*
X178125010Y-140009990D01*
X179270959Y-151669049D02*
X179470958Y-151869048D01*
X179556000Y-139432000D02*
X178703000Y-139432000D01*
X187975999Y-137691999D02*
X187176000Y-136892000D01*
X188276001Y-137992001D02*
X187975999Y-137691999D01*
X188276001Y-139971231D02*
X188276001Y-137992001D01*
X187776001Y-140471231D02*
X188276001Y-139971231D01*
X187133306Y-157288306D02*
X188160642Y-157288306D01*
X186658319Y-151796681D02*
X186517211Y-151937789D01*
X186690000Y-156845000D02*
X187133306Y-157288306D01*
X187868797Y-151325298D02*
X187397414Y-151796681D01*
X186517211Y-156845000D02*
X186690000Y-156845000D01*
X187868797Y-147919203D02*
X187868797Y-151325298D01*
X188404990Y-147451012D02*
X188336988Y-147451012D01*
X188404990Y-144609620D02*
X188404990Y-147451012D01*
X187397414Y-151796681D02*
X186658319Y-151796681D01*
X188336988Y-147451012D02*
X187868797Y-147919203D01*
X188307370Y-144512000D02*
X188404990Y-144609620D01*
X186517211Y-151937789D02*
X186517211Y-156845000D01*
X187176000Y-144512000D02*
X188307370Y-144512000D01*
X188004980Y-153303997D02*
X187904990Y-153403987D01*
X183888001Y-156396785D02*
X183168367Y-157116419D01*
X183888001Y-153552184D02*
X183888001Y-156396785D01*
X183885330Y-153549513D02*
X183888001Y-153552184D01*
X183885330Y-153266671D02*
X183885330Y-153549513D01*
X183168367Y-157596421D02*
X183896000Y-158324054D01*
X183168367Y-157116419D02*
X183168367Y-157596421D01*
X183896000Y-158324054D02*
X183896000Y-161544000D01*
X184531000Y-162368000D02*
X184531000Y-163068000D01*
X186579003Y-162267999D02*
X184631001Y-162267999D01*
X186936001Y-161361603D02*
X186936001Y-161911001D01*
X187291601Y-161006003D02*
X186936001Y-161361603D01*
X184631001Y-162267999D02*
X184531000Y-162368000D01*
X186936001Y-161911001D02*
X186579003Y-162267999D01*
X187291601Y-160379001D02*
X187291601Y-161006003D01*
X187791601Y-159879001D02*
X187291601Y-160379001D01*
X187791601Y-159472920D02*
X187791601Y-159879001D01*
X188404990Y-158859531D02*
X187791601Y-159472920D01*
D16*
G36*
X181218000Y-156946309D02*
G01*
X181215450Y-156972199D01*
X181225625Y-157075508D01*
X181255760Y-157174848D01*
X181304298Y-157265657D01*
X181304696Y-157266401D01*
X181370552Y-157346647D01*
X181390661Y-157363150D01*
X181413561Y-157386050D01*
X181392000Y-157494446D01*
X181392000Y-157617954D01*
X181416095Y-157739089D01*
X181463360Y-157853196D01*
X181531977Y-157955889D01*
X181594927Y-158018839D01*
X181583963Y-158039351D01*
X181553828Y-158138691D01*
X181543653Y-158242000D01*
X181553828Y-158345309D01*
X181583963Y-158444649D01*
X181591000Y-158457815D01*
X181591001Y-159237330D01*
X181562360Y-159280194D01*
X181515095Y-159394301D01*
X181491000Y-159515436D01*
X181491000Y-159638944D01*
X181515095Y-159760079D01*
X181562360Y-159874186D01*
X181630977Y-159976879D01*
X181718311Y-160064213D01*
X181821004Y-160132830D01*
X181935111Y-160180095D01*
X182056246Y-160204190D01*
X182179754Y-160204190D01*
X182300889Y-160180095D01*
X182414996Y-160132830D01*
X182517689Y-160064213D01*
X182605023Y-159976879D01*
X182673640Y-159874186D01*
X182720905Y-159760079D01*
X182745000Y-159638944D01*
X182745000Y-159515436D01*
X182720905Y-159394301D01*
X182673640Y-159280194D01*
X182645000Y-159237331D01*
X182645000Y-158415491D01*
X182943574Y-158116917D01*
X183369000Y-158542344D01*
X183369001Y-161204140D01*
X183340360Y-161247004D01*
X183293095Y-161361111D01*
X183269000Y-161482246D01*
X183269000Y-161605754D01*
X183293095Y-161726889D01*
X183340360Y-161840996D01*
X183408977Y-161943689D01*
X183496311Y-162031023D01*
X183599004Y-162099640D01*
X183713111Y-162146905D01*
X183834246Y-162171000D01*
X183868765Y-162171000D01*
X183866804Y-162171595D01*
X183792624Y-162211245D01*
X183727605Y-162264605D01*
X183674245Y-162329624D01*
X183634595Y-162403804D01*
X183610178Y-162484293D01*
X183601934Y-162568000D01*
X183601934Y-163568000D01*
X183608237Y-163632000D01*
X183548763Y-163632000D01*
X183555066Y-163568000D01*
X183555066Y-162568000D01*
X183546822Y-162484293D01*
X183522405Y-162403804D01*
X183482755Y-162329624D01*
X183429395Y-162264605D01*
X183364376Y-162211245D01*
X183290196Y-162171595D01*
X183209707Y-162147178D01*
X183126000Y-162138934D01*
X182738906Y-162138934D01*
X182794395Y-162093395D01*
X182847755Y-162028376D01*
X182887405Y-161954196D01*
X182911822Y-161873707D01*
X182920066Y-161790000D01*
X182920066Y-160790000D01*
X182911822Y-160706293D01*
X182887405Y-160625804D01*
X182847755Y-160551624D01*
X182794395Y-160486605D01*
X182729376Y-160433245D01*
X182655196Y-160393595D01*
X182574707Y-160369178D01*
X182491000Y-160360934D01*
X181491000Y-160360934D01*
X181407293Y-160369178D01*
X181326804Y-160393595D01*
X181280209Y-160418501D01*
X181302152Y-160308184D01*
X181302152Y-160184676D01*
X181278057Y-160063541D01*
X181230792Y-159949434D01*
X181202152Y-159906571D01*
X181202152Y-156596074D01*
X181218000Y-156596074D01*
X181218000Y-156946309D01*
G37*
X181218000Y-156946309D02*
X181215450Y-156972199D01*
X181225625Y-157075508D01*
X181255760Y-157174848D01*
X181304298Y-157265657D01*
X181304696Y-157266401D01*
X181370552Y-157346647D01*
X181390661Y-157363150D01*
X181413561Y-157386050D01*
X181392000Y-157494446D01*
X181392000Y-157617954D01*
X181416095Y-157739089D01*
X181463360Y-157853196D01*
X181531977Y-157955889D01*
X181594927Y-158018839D01*
X181583963Y-158039351D01*
X181553828Y-158138691D01*
X181543653Y-158242000D01*
X181553828Y-158345309D01*
X181583963Y-158444649D01*
X181591000Y-158457815D01*
X181591001Y-159237330D01*
X181562360Y-159280194D01*
X181515095Y-159394301D01*
X181491000Y-159515436D01*
X181491000Y-159638944D01*
X181515095Y-159760079D01*
X181562360Y-159874186D01*
X181630977Y-159976879D01*
X181718311Y-160064213D01*
X181821004Y-160132830D01*
X181935111Y-160180095D01*
X182056246Y-160204190D01*
X182179754Y-160204190D01*
X182300889Y-160180095D01*
X182414996Y-160132830D01*
X182517689Y-160064213D01*
X182605023Y-159976879D01*
X182673640Y-159874186D01*
X182720905Y-159760079D01*
X182745000Y-159638944D01*
X182745000Y-159515436D01*
X182720905Y-159394301D01*
X182673640Y-159280194D01*
X182645000Y-159237331D01*
X182645000Y-158415491D01*
X182943574Y-158116917D01*
X183369000Y-158542344D01*
X183369001Y-161204140D01*
X183340360Y-161247004D01*
X183293095Y-161361111D01*
X183269000Y-161482246D01*
X183269000Y-161605754D01*
X183293095Y-161726889D01*
X183340360Y-161840996D01*
X183408977Y-161943689D01*
X183496311Y-162031023D01*
X183599004Y-162099640D01*
X183713111Y-162146905D01*
X183834246Y-162171000D01*
X183868765Y-162171000D01*
X183866804Y-162171595D01*
X183792624Y-162211245D01*
X183727605Y-162264605D01*
X183674245Y-162329624D01*
X183634595Y-162403804D01*
X183610178Y-162484293D01*
X183601934Y-162568000D01*
X183601934Y-163568000D01*
X183608237Y-163632000D01*
X183548763Y-163632000D01*
X183555066Y-163568000D01*
X183555066Y-162568000D01*
X183546822Y-162484293D01*
X183522405Y-162403804D01*
X183482755Y-162329624D01*
X183429395Y-162264605D01*
X183364376Y-162211245D01*
X183290196Y-162171595D01*
X183209707Y-162147178D01*
X183126000Y-162138934D01*
X182738906Y-162138934D01*
X182794395Y-162093395D01*
X182847755Y-162028376D01*
X182887405Y-161954196D01*
X182911822Y-161873707D01*
X182920066Y-161790000D01*
X182920066Y-160790000D01*
X182911822Y-160706293D01*
X182887405Y-160625804D01*
X182847755Y-160551624D01*
X182794395Y-160486605D01*
X182729376Y-160433245D01*
X182655196Y-160393595D01*
X182574707Y-160369178D01*
X182491000Y-160360934D01*
X181491000Y-160360934D01*
X181407293Y-160369178D01*
X181326804Y-160393595D01*
X181280209Y-160418501D01*
X181302152Y-160308184D01*
X181302152Y-160184676D01*
X181278057Y-160063541D01*
X181230792Y-159949434D01*
X181202152Y-159906571D01*
X181202152Y-156596074D01*
X181218000Y-156596074D01*
X181218000Y-156946309D01*
G36*
X186930656Y-157777545D02*
G01*
X187029996Y-157807680D01*
X187107425Y-157815306D01*
X187107427Y-157815306D01*
X187133305Y-157817855D01*
X187159183Y-157815306D01*
X187535880Y-157815306D01*
X187533643Y-157826553D01*
X187533643Y-157950061D01*
X187557738Y-158071196D01*
X187605003Y-158185303D01*
X187673620Y-158287996D01*
X187760954Y-158375330D01*
X187863647Y-158443947D01*
X187914510Y-158465015D01*
X187849350Y-158562535D01*
X187802085Y-158676642D01*
X187792028Y-158727204D01*
X187480604Y-159038628D01*
X187474489Y-159036095D01*
X187353354Y-159012000D01*
X187229846Y-159012000D01*
X187108711Y-159036095D01*
X186994604Y-159083360D01*
X186891911Y-159151977D01*
X186804577Y-159239311D01*
X186735960Y-159342004D01*
X186688695Y-159456111D01*
X186664600Y-159577246D01*
X186664600Y-159700754D01*
X186688695Y-159821889D01*
X186735960Y-159935996D01*
X186804577Y-160038689D01*
X186851085Y-160085197D01*
X186804045Y-160173203D01*
X186802362Y-160176352D01*
X186772227Y-160275692D01*
X186762052Y-160379001D01*
X186764601Y-160404882D01*
X186764601Y-160787713D01*
X186581667Y-160970648D01*
X186561553Y-160987155D01*
X186512495Y-161046932D01*
X186497754Y-161044000D01*
X186374246Y-161044000D01*
X186253111Y-161068095D01*
X186139004Y-161115360D01*
X186095066Y-161144718D01*
X186095066Y-160663000D01*
X186086822Y-160579293D01*
X186062405Y-160498804D01*
X186022755Y-160424624D01*
X185969395Y-160359605D01*
X185904376Y-160306245D01*
X185830196Y-160266595D01*
X185749707Y-160242178D01*
X185666000Y-160233934D01*
X184666000Y-160233934D01*
X184582293Y-160242178D01*
X184501804Y-160266595D01*
X184427624Y-160306245D01*
X184423000Y-160310040D01*
X184423000Y-160204189D01*
X184465754Y-160204189D01*
X184586889Y-160180094D01*
X184700996Y-160132829D01*
X184773967Y-160084072D01*
X184871311Y-160149115D01*
X184985418Y-160196380D01*
X185106553Y-160220475D01*
X185230061Y-160220475D01*
X185351196Y-160196380D01*
X185465303Y-160149115D01*
X185567996Y-160080498D01*
X185582211Y-160066283D01*
X185681804Y-160132829D01*
X185795911Y-160180094D01*
X185917046Y-160204189D01*
X186040554Y-160204189D01*
X186161689Y-160180094D01*
X186275796Y-160132829D01*
X186378489Y-160064212D01*
X186465823Y-159976878D01*
X186534440Y-159874185D01*
X186581705Y-159760078D01*
X186605800Y-159638943D01*
X186605800Y-159515435D01*
X186581705Y-159394300D01*
X186534440Y-159280193D01*
X186505800Y-159237330D01*
X186505800Y-158514491D01*
X186731540Y-158288752D01*
X186751649Y-158272249D01*
X186817505Y-158192003D01*
X186866440Y-158100451D01*
X186896575Y-158001111D01*
X186899668Y-157969709D01*
X186906750Y-157897802D01*
X186904201Y-157871921D01*
X186904201Y-157763405D01*
X186930656Y-157777545D01*
G37*
X186930656Y-157777545D02*
X187029996Y-157807680D01*
X187107425Y-157815306D01*
X187107427Y-157815306D01*
X187133305Y-157817855D01*
X187159183Y-157815306D01*
X187535880Y-157815306D01*
X187533643Y-157826553D01*
X187533643Y-157950061D01*
X187557738Y-158071196D01*
X187605003Y-158185303D01*
X187673620Y-158287996D01*
X187760954Y-158375330D01*
X187863647Y-158443947D01*
X187914510Y-158465015D01*
X187849350Y-158562535D01*
X187802085Y-158676642D01*
X187792028Y-158727204D01*
X187480604Y-159038628D01*
X187474489Y-159036095D01*
X187353354Y-159012000D01*
X187229846Y-159012000D01*
X187108711Y-159036095D01*
X186994604Y-159083360D01*
X186891911Y-159151977D01*
X186804577Y-159239311D01*
X186735960Y-159342004D01*
X186688695Y-159456111D01*
X186664600Y-159577246D01*
X186664600Y-159700754D01*
X186688695Y-159821889D01*
X186735960Y-159935996D01*
X186804577Y-160038689D01*
X186851085Y-160085197D01*
X186804045Y-160173203D01*
X186802362Y-160176352D01*
X186772227Y-160275692D01*
X186762052Y-160379001D01*
X186764601Y-160404882D01*
X186764601Y-160787713D01*
X186581667Y-160970648D01*
X186561553Y-160987155D01*
X186512495Y-161046932D01*
X186497754Y-161044000D01*
X186374246Y-161044000D01*
X186253111Y-161068095D01*
X186139004Y-161115360D01*
X186095066Y-161144718D01*
X186095066Y-160663000D01*
X186086822Y-160579293D01*
X186062405Y-160498804D01*
X186022755Y-160424624D01*
X185969395Y-160359605D01*
X185904376Y-160306245D01*
X185830196Y-160266595D01*
X185749707Y-160242178D01*
X185666000Y-160233934D01*
X184666000Y-160233934D01*
X184582293Y-160242178D01*
X184501804Y-160266595D01*
X184427624Y-160306245D01*
X184423000Y-160310040D01*
X184423000Y-160204189D01*
X184465754Y-160204189D01*
X184586889Y-160180094D01*
X184700996Y-160132829D01*
X184773967Y-160084072D01*
X184871311Y-160149115D01*
X184985418Y-160196380D01*
X185106553Y-160220475D01*
X185230061Y-160220475D01*
X185351196Y-160196380D01*
X185465303Y-160149115D01*
X185567996Y-160080498D01*
X185582211Y-160066283D01*
X185681804Y-160132829D01*
X185795911Y-160180094D01*
X185917046Y-160204189D01*
X186040554Y-160204189D01*
X186161689Y-160180094D01*
X186275796Y-160132829D01*
X186378489Y-160064212D01*
X186465823Y-159976878D01*
X186534440Y-159874185D01*
X186581705Y-159760078D01*
X186605800Y-159638943D01*
X186605800Y-159515435D01*
X186581705Y-159394300D01*
X186534440Y-159280193D01*
X186505800Y-159237330D01*
X186505800Y-158514491D01*
X186731540Y-158288752D01*
X186751649Y-158272249D01*
X186817505Y-158192003D01*
X186866440Y-158100451D01*
X186896575Y-158001111D01*
X186899668Y-157969709D01*
X186906750Y-157897802D01*
X186904201Y-157871921D01*
X186904201Y-157763405D01*
X186930656Y-157777545D01*
G36*
X179648153Y-158477000D02*
G01*
X178460880Y-158477000D01*
X178434999Y-158474451D01*
X178358078Y-158482027D01*
X178331690Y-158484626D01*
X178252000Y-158508800D01*
X178252000Y-158125787D01*
X178337438Y-158125787D01*
X178458573Y-158101692D01*
X178572680Y-158054427D01*
X178675373Y-157985810D01*
X178762707Y-157898476D01*
X178831324Y-157795783D01*
X178878589Y-157681676D01*
X178902684Y-157560541D01*
X178902684Y-157437033D01*
X178878589Y-157315898D01*
X178831324Y-157201791D01*
X178827505Y-157196076D01*
X178863640Y-157141996D01*
X178910905Y-157027889D01*
X178935000Y-156906754D01*
X178935000Y-156783246D01*
X178910905Y-156662111D01*
X178863640Y-156548004D01*
X178795023Y-156445311D01*
X178707689Y-156357977D01*
X178604996Y-156289360D01*
X178490889Y-156242095D01*
X178369754Y-156218000D01*
X178252000Y-156218000D01*
X178252000Y-155425559D01*
X178258541Y-155458443D01*
X178305806Y-155572550D01*
X178374423Y-155675243D01*
X178461757Y-155762577D01*
X178564450Y-155831194D01*
X178678557Y-155878459D01*
X178799692Y-155902554D01*
X178923200Y-155902554D01*
X179044335Y-155878459D01*
X179158442Y-155831194D01*
X179261135Y-155762577D01*
X179348469Y-155675243D01*
X179417086Y-155572550D01*
X179464351Y-155458443D01*
X179488446Y-155337308D01*
X179488446Y-155213800D01*
X179464351Y-155092665D01*
X179417086Y-154978558D01*
X179348469Y-154875865D01*
X179261135Y-154788531D01*
X179158442Y-154719914D01*
X179044335Y-154672649D01*
X178923200Y-154648554D01*
X178799692Y-154648554D01*
X178678557Y-154672649D01*
X178564450Y-154719914D01*
X178461757Y-154788531D01*
X178374423Y-154875865D01*
X178305806Y-154978558D01*
X178258541Y-155092665D01*
X178252000Y-155125549D01*
X178252000Y-154437202D01*
X178286754Y-154437202D01*
X178407889Y-154413107D01*
X178521996Y-154365842D01*
X178624689Y-154297225D01*
X178712023Y-154209891D01*
X178780640Y-154107198D01*
X178827905Y-153993091D01*
X178837962Y-153942529D01*
X179579340Y-153201152D01*
X179599449Y-153184649D01*
X179648152Y-153125304D01*
X179648153Y-158477000D01*
G37*
X179648153Y-158477000D02*
X178460880Y-158477000D01*
X178434999Y-158474451D01*
X178358078Y-158482027D01*
X178331690Y-158484626D01*
X178252000Y-158508800D01*
X178252000Y-158125787D01*
X178337438Y-158125787D01*
X178458573Y-158101692D01*
X178572680Y-158054427D01*
X178675373Y-157985810D01*
X178762707Y-157898476D01*
X178831324Y-157795783D01*
X178878589Y-157681676D01*
X178902684Y-157560541D01*
X178902684Y-157437033D01*
X178878589Y-157315898D01*
X178831324Y-157201791D01*
X178827505Y-157196076D01*
X178863640Y-157141996D01*
X178910905Y-157027889D01*
X178935000Y-156906754D01*
X178935000Y-156783246D01*
X178910905Y-156662111D01*
X178863640Y-156548004D01*
X178795023Y-156445311D01*
X178707689Y-156357977D01*
X178604996Y-156289360D01*
X178490889Y-156242095D01*
X178369754Y-156218000D01*
X178252000Y-156218000D01*
X178252000Y-155425559D01*
X178258541Y-155458443D01*
X178305806Y-155572550D01*
X178374423Y-155675243D01*
X178461757Y-155762577D01*
X178564450Y-155831194D01*
X178678557Y-155878459D01*
X178799692Y-155902554D01*
X178923200Y-155902554D01*
X179044335Y-155878459D01*
X179158442Y-155831194D01*
X179261135Y-155762577D01*
X179348469Y-155675243D01*
X179417086Y-155572550D01*
X179464351Y-155458443D01*
X179488446Y-155337308D01*
X179488446Y-155213800D01*
X179464351Y-155092665D01*
X179417086Y-154978558D01*
X179348469Y-154875865D01*
X179261135Y-154788531D01*
X179158442Y-154719914D01*
X179044335Y-154672649D01*
X178923200Y-154648554D01*
X178799692Y-154648554D01*
X178678557Y-154672649D01*
X178564450Y-154719914D01*
X178461757Y-154788531D01*
X178374423Y-154875865D01*
X178305806Y-154978558D01*
X178258541Y-155092665D01*
X178252000Y-155125549D01*
X178252000Y-154437202D01*
X178286754Y-154437202D01*
X178407889Y-154413107D01*
X178521996Y-154365842D01*
X178624689Y-154297225D01*
X178712023Y-154209891D01*
X178780640Y-154107198D01*
X178827905Y-153993091D01*
X178837962Y-153942529D01*
X179579340Y-153201152D01*
X179599449Y-153184649D01*
X179648152Y-153125304D01*
X179648153Y-158477000D01*
G36*
X188377991Y-152928371D02*
G01*
X188299181Y-152863694D01*
X188207628Y-152814758D01*
X188108289Y-152784623D01*
X188004979Y-152774448D01*
X187970869Y-152777808D01*
X187966744Y-152776987D01*
X187843236Y-152776987D01*
X187722101Y-152801082D01*
X187607994Y-152848347D01*
X187505301Y-152916964D01*
X187417967Y-153004298D01*
X187349350Y-153106991D01*
X187302085Y-153221098D01*
X187277990Y-153342233D01*
X187277990Y-153465741D01*
X187302085Y-153586876D01*
X187349350Y-153700983D01*
X187417967Y-153803676D01*
X187505301Y-153891010D01*
X187607994Y-153959627D01*
X187722101Y-154006892D01*
X187777999Y-154018011D01*
X187777999Y-154544821D01*
X187707985Y-154573822D01*
X187605292Y-154642439D01*
X187517958Y-154729773D01*
X187449341Y-154832466D01*
X187402076Y-154946573D01*
X187377981Y-155067708D01*
X187377981Y-155191216D01*
X187402076Y-155312351D01*
X187449341Y-155426458D01*
X187483634Y-155477781D01*
X187428261Y-155560653D01*
X187380996Y-155674760D01*
X187356901Y-155795895D01*
X187356901Y-155919403D01*
X187380996Y-156040538D01*
X187428261Y-156154645D01*
X187496878Y-156257338D01*
X187584212Y-156344672D01*
X187686905Y-156413289D01*
X187801012Y-156460554D01*
X187922147Y-156484649D01*
X188045655Y-156484649D01*
X188166790Y-156460554D01*
X188280897Y-156413289D01*
X188377990Y-156348413D01*
X188377991Y-156699675D01*
X188343531Y-156685401D01*
X188222396Y-156661306D01*
X188098888Y-156661306D01*
X187977753Y-156685401D01*
X187863646Y-156732666D01*
X187820783Y-156761306D01*
X187351596Y-156761306D01*
X187080955Y-156490666D01*
X187064448Y-156470552D01*
X187044211Y-156453944D01*
X187044211Y-152323681D01*
X187371533Y-152323681D01*
X187397414Y-152326230D01*
X187423295Y-152323681D01*
X187500724Y-152316055D01*
X187600064Y-152285920D01*
X187691616Y-152236985D01*
X187771862Y-152171129D01*
X187788369Y-152151015D01*
X188223136Y-151716249D01*
X188243245Y-151699746D01*
X188309101Y-151619500D01*
X188358036Y-151527948D01*
X188377991Y-151462167D01*
X188377991Y-152928371D01*
G37*
X188377991Y-152928371D02*
X188299181Y-152863694D01*
X188207628Y-152814758D01*
X188108289Y-152784623D01*
X188004979Y-152774448D01*
X187970869Y-152777808D01*
X187966744Y-152776987D01*
X187843236Y-152776987D01*
X187722101Y-152801082D01*
X187607994Y-152848347D01*
X187505301Y-152916964D01*
X187417967Y-153004298D01*
X187349350Y-153106991D01*
X187302085Y-153221098D01*
X187277990Y-153342233D01*
X187277990Y-153465741D01*
X187302085Y-153586876D01*
X187349350Y-153700983D01*
X187417967Y-153803676D01*
X187505301Y-153891010D01*
X187607994Y-153959627D01*
X187722101Y-154006892D01*
X187777999Y-154018011D01*
X187777999Y-154544821D01*
X187707985Y-154573822D01*
X187605292Y-154642439D01*
X187517958Y-154729773D01*
X187449341Y-154832466D01*
X187402076Y-154946573D01*
X187377981Y-155067708D01*
X187377981Y-155191216D01*
X187402076Y-155312351D01*
X187449341Y-155426458D01*
X187483634Y-155477781D01*
X187428261Y-155560653D01*
X187380996Y-155674760D01*
X187356901Y-155795895D01*
X187356901Y-155919403D01*
X187380996Y-156040538D01*
X187428261Y-156154645D01*
X187496878Y-156257338D01*
X187584212Y-156344672D01*
X187686905Y-156413289D01*
X187801012Y-156460554D01*
X187922147Y-156484649D01*
X188045655Y-156484649D01*
X188166790Y-156460554D01*
X188280897Y-156413289D01*
X188377990Y-156348413D01*
X188377991Y-156699675D01*
X188343531Y-156685401D01*
X188222396Y-156661306D01*
X188098888Y-156661306D01*
X187977753Y-156685401D01*
X187863646Y-156732666D01*
X187820783Y-156761306D01*
X187351596Y-156761306D01*
X187080955Y-156490666D01*
X187064448Y-156470552D01*
X187044211Y-156453944D01*
X187044211Y-152323681D01*
X187371533Y-152323681D01*
X187397414Y-152326230D01*
X187423295Y-152323681D01*
X187500724Y-152316055D01*
X187600064Y-152285920D01*
X187691616Y-152236985D01*
X187771862Y-152171129D01*
X187788369Y-152151015D01*
X188223136Y-151716249D01*
X188243245Y-151699746D01*
X188309101Y-151619500D01*
X188358036Y-151527948D01*
X188377991Y-151462167D01*
X188377991Y-152928371D01*
G36*
X183858331Y-152639671D02*
G01*
X183823576Y-152639671D01*
X183702441Y-152663766D01*
X183588334Y-152711031D01*
X183485641Y-152779648D01*
X183398307Y-152866982D01*
X183329690Y-152969675D01*
X183282425Y-153083782D01*
X183270027Y-153146114D01*
X183247460Y-153032663D01*
X183200195Y-152918556D01*
X183177310Y-152884306D01*
X183269924Y-152791692D01*
X183327271Y-152786044D01*
X183426611Y-152755909D01*
X183518163Y-152706974D01*
X183598409Y-152641118D01*
X183611499Y-152625168D01*
X183627449Y-152612078D01*
X183693305Y-152531832D01*
X183742240Y-152440280D01*
X183772375Y-152340940D01*
X183780001Y-152263511D01*
X183782550Y-152237630D01*
X183780001Y-152211749D01*
X183780001Y-148494880D01*
X183782550Y-148468999D01*
X183772375Y-148365689D01*
X183770500Y-148359507D01*
X183742240Y-148266349D01*
X183693305Y-148174797D01*
X183627449Y-148094551D01*
X183607339Y-148078048D01*
X183465280Y-147935989D01*
X183544156Y-147935989D01*
X183665291Y-147911894D01*
X183779398Y-147864629D01*
X183858330Y-147811888D01*
X183858331Y-152639671D01*
G37*
X183858331Y-152639671D02*
X183823576Y-152639671D01*
X183702441Y-152663766D01*
X183588334Y-152711031D01*
X183485641Y-152779648D01*
X183398307Y-152866982D01*
X183329690Y-152969675D01*
X183282425Y-153083782D01*
X183270027Y-153146114D01*
X183247460Y-153032663D01*
X183200195Y-152918556D01*
X183177310Y-152884306D01*
X183269924Y-152791692D01*
X183327271Y-152786044D01*
X183426611Y-152755909D01*
X183518163Y-152706974D01*
X183598409Y-152641118D01*
X183611499Y-152625168D01*
X183627449Y-152612078D01*
X183693305Y-152531832D01*
X183742240Y-152440280D01*
X183772375Y-152340940D01*
X183780001Y-152263511D01*
X183782550Y-152237630D01*
X183780001Y-152211749D01*
X183780001Y-148494880D01*
X183782550Y-148468999D01*
X183772375Y-148365689D01*
X183770500Y-148359507D01*
X183742240Y-148266349D01*
X183693305Y-148174797D01*
X183627449Y-148094551D01*
X183607339Y-148078048D01*
X183465280Y-147935989D01*
X183544156Y-147935989D01*
X183665291Y-147911894D01*
X183779398Y-147864629D01*
X183858330Y-147811888D01*
X183858331Y-152639671D01*
G36*
X182912095Y-141681887D02*
G01*
X182959360Y-141795994D01*
X183027977Y-141898687D01*
X183115311Y-141986021D01*
X183218004Y-142054638D01*
X183332111Y-142101903D01*
X183453246Y-142125998D01*
X183576754Y-142125998D01*
X183697889Y-142101903D01*
X183811996Y-142054638D01*
X183858330Y-142023679D01*
X183858330Y-142284999D01*
X183823576Y-142284999D01*
X183702441Y-142309094D01*
X183588334Y-142356359D01*
X183485641Y-142424976D01*
X183398307Y-142512310D01*
X183329690Y-142615003D01*
X183282425Y-142729110D01*
X183258330Y-142850245D01*
X183258330Y-142973753D01*
X183282425Y-143094888D01*
X183329690Y-143208995D01*
X183358330Y-143251858D01*
X183358331Y-146687770D01*
X183350075Y-146696027D01*
X183299513Y-146706084D01*
X183185406Y-146753349D01*
X183082713Y-146821966D01*
X182995379Y-146909300D01*
X182926762Y-147011993D01*
X182879497Y-147126100D01*
X182855402Y-147247235D01*
X182855402Y-147370743D01*
X182879497Y-147491878D01*
X182926762Y-147605985D01*
X182976909Y-147681035D01*
X182967120Y-147681999D01*
X182802192Y-147681999D01*
X182802192Y-146238098D01*
X183061165Y-145979126D01*
X183081269Y-145962627D01*
X183147125Y-145882381D01*
X183196060Y-145790829D01*
X183226195Y-145691489D01*
X183233821Y-145614060D01*
X183236370Y-145588179D01*
X183233821Y-145562298D01*
X183233821Y-143853501D01*
X183236370Y-143827620D01*
X183226195Y-143724310D01*
X183196060Y-143624971D01*
X183192795Y-143618862D01*
X183147125Y-143533419D01*
X183081269Y-143453173D01*
X183061165Y-143436674D01*
X182731501Y-143107011D01*
X182731501Y-141772489D01*
X182813549Y-141690442D01*
X182833659Y-141673938D01*
X182895520Y-141598560D01*
X182912095Y-141681887D01*
G37*
X182912095Y-141681887D02*
X182959360Y-141795994D01*
X183027977Y-141898687D01*
X183115311Y-141986021D01*
X183218004Y-142054638D01*
X183332111Y-142101903D01*
X183453246Y-142125998D01*
X183576754Y-142125998D01*
X183697889Y-142101903D01*
X183811996Y-142054638D01*
X183858330Y-142023679D01*
X183858330Y-142284999D01*
X183823576Y-142284999D01*
X183702441Y-142309094D01*
X183588334Y-142356359D01*
X183485641Y-142424976D01*
X183398307Y-142512310D01*
X183329690Y-142615003D01*
X183282425Y-142729110D01*
X183258330Y-142850245D01*
X183258330Y-142973753D01*
X183282425Y-143094888D01*
X183329690Y-143208995D01*
X183358330Y-143251858D01*
X183358331Y-146687770D01*
X183350075Y-146696027D01*
X183299513Y-146706084D01*
X183185406Y-146753349D01*
X183082713Y-146821966D01*
X182995379Y-146909300D01*
X182926762Y-147011993D01*
X182879497Y-147126100D01*
X182855402Y-147247235D01*
X182855402Y-147370743D01*
X182879497Y-147491878D01*
X182926762Y-147605985D01*
X182976909Y-147681035D01*
X182967120Y-147681999D01*
X182802192Y-147681999D01*
X182802192Y-146238098D01*
X183061165Y-145979126D01*
X183081269Y-145962627D01*
X183147125Y-145882381D01*
X183196060Y-145790829D01*
X183226195Y-145691489D01*
X183233821Y-145614060D01*
X183236370Y-145588179D01*
X183233821Y-145562298D01*
X183233821Y-143853501D01*
X183236370Y-143827620D01*
X183226195Y-143724310D01*
X183196060Y-143624971D01*
X183192795Y-143618862D01*
X183147125Y-143533419D01*
X183081269Y-143453173D01*
X183061165Y-143436674D01*
X182731501Y-143107011D01*
X182731501Y-141772489D01*
X182813549Y-141690442D01*
X182833659Y-141673938D01*
X182895520Y-141598560D01*
X182912095Y-141681887D01*
G36*
X184732601Y-135367093D02*
G01*
X184732601Y-137547479D01*
X184721624Y-137531051D01*
X184634290Y-137443717D01*
X184531597Y-137375100D01*
X184417490Y-137327835D01*
X184296355Y-137303740D01*
X184172847Y-137303740D01*
X184051712Y-137327835D01*
X183937605Y-137375100D01*
X183834912Y-137443717D01*
X183747578Y-137531051D01*
X183678961Y-137633744D01*
X183631696Y-137747851D01*
X183607601Y-137868986D01*
X183607601Y-137992494D01*
X183631696Y-138113629D01*
X183678961Y-138227736D01*
X183747578Y-138330429D01*
X183834912Y-138417763D01*
X183937605Y-138486380D01*
X184051712Y-138533645D01*
X184172847Y-138557740D01*
X184296355Y-138557740D01*
X184417490Y-138533645D01*
X184531597Y-138486380D01*
X184634290Y-138417763D01*
X184721624Y-138330429D01*
X184732601Y-138314000D01*
X184732601Y-140140489D01*
X184702089Y-140109977D01*
X184599396Y-140041360D01*
X184485289Y-139994095D01*
X184364154Y-139970000D01*
X184240646Y-139970000D01*
X184119511Y-139994095D01*
X184005404Y-140041360D01*
X183902711Y-140109977D01*
X183815377Y-140197311D01*
X183746760Y-140300004D01*
X183699495Y-140414111D01*
X183675400Y-140535246D01*
X183675400Y-140658754D01*
X183699495Y-140779889D01*
X183732599Y-140859809D01*
X183732599Y-140910470D01*
X183697889Y-140896093D01*
X183576754Y-140871998D01*
X183453246Y-140871998D01*
X183332111Y-140896093D01*
X183218004Y-140943358D01*
X183115311Y-141011975D01*
X183027977Y-141099309D01*
X182986211Y-141161816D01*
X182986211Y-140194091D01*
X182988760Y-140168210D01*
X182978585Y-140064901D01*
X182948450Y-139965561D01*
X182929608Y-139930310D01*
X182899515Y-139874009D01*
X182833659Y-139793763D01*
X182813545Y-139777256D01*
X182645000Y-139608711D01*
X182645000Y-139286362D01*
X182646311Y-139286905D01*
X182767446Y-139311000D01*
X182890954Y-139311000D01*
X183012089Y-139286905D01*
X183126196Y-139239640D01*
X183228889Y-139171023D01*
X183316223Y-139083689D01*
X183384840Y-138980996D01*
X183432105Y-138866889D01*
X183456200Y-138745754D01*
X183456200Y-138622246D01*
X183432105Y-138501111D01*
X183384840Y-138387004D01*
X183316223Y-138284311D01*
X183228889Y-138196977D01*
X183126196Y-138128360D01*
X183012089Y-138081095D01*
X182890954Y-138057000D01*
X182767446Y-138057000D01*
X182646311Y-138081095D01*
X182645000Y-138081638D01*
X182645000Y-137633091D01*
X183833340Y-136444752D01*
X183853449Y-136428249D01*
X183919305Y-136348003D01*
X183968240Y-136256451D01*
X183998375Y-136157111D01*
X184006001Y-136079682D01*
X184008550Y-136053802D01*
X184006001Y-136027921D01*
X184006001Y-135094600D01*
X184110154Y-135094600D01*
X184231289Y-135070505D01*
X184345396Y-135023240D01*
X184371384Y-135005875D01*
X184732601Y-135367093D01*
G37*
X184732601Y-135367093D02*
X184732601Y-137547479D01*
X184721624Y-137531051D01*
X184634290Y-137443717D01*
X184531597Y-137375100D01*
X184417490Y-137327835D01*
X184296355Y-137303740D01*
X184172847Y-137303740D01*
X184051712Y-137327835D01*
X183937605Y-137375100D01*
X183834912Y-137443717D01*
X183747578Y-137531051D01*
X183678961Y-137633744D01*
X183631696Y-137747851D01*
X183607601Y-137868986D01*
X183607601Y-137992494D01*
X183631696Y-138113629D01*
X183678961Y-138227736D01*
X183747578Y-138330429D01*
X183834912Y-138417763D01*
X183937605Y-138486380D01*
X184051712Y-138533645D01*
X184172847Y-138557740D01*
X184296355Y-138557740D01*
X184417490Y-138533645D01*
X184531597Y-138486380D01*
X184634290Y-138417763D01*
X184721624Y-138330429D01*
X184732601Y-138314000D01*
X184732601Y-140140489D01*
X184702089Y-140109977D01*
X184599396Y-140041360D01*
X184485289Y-139994095D01*
X184364154Y-139970000D01*
X184240646Y-139970000D01*
X184119511Y-139994095D01*
X184005404Y-140041360D01*
X183902711Y-140109977D01*
X183815377Y-140197311D01*
X183746760Y-140300004D01*
X183699495Y-140414111D01*
X183675400Y-140535246D01*
X183675400Y-140658754D01*
X183699495Y-140779889D01*
X183732599Y-140859809D01*
X183732599Y-140910470D01*
X183697889Y-140896093D01*
X183576754Y-140871998D01*
X183453246Y-140871998D01*
X183332111Y-140896093D01*
X183218004Y-140943358D01*
X183115311Y-141011975D01*
X183027977Y-141099309D01*
X182986211Y-141161816D01*
X182986211Y-140194091D01*
X182988760Y-140168210D01*
X182978585Y-140064901D01*
X182948450Y-139965561D01*
X182929608Y-139930310D01*
X182899515Y-139874009D01*
X182833659Y-139793763D01*
X182813545Y-139777256D01*
X182645000Y-139608711D01*
X182645000Y-139286362D01*
X182646311Y-139286905D01*
X182767446Y-139311000D01*
X182890954Y-139311000D01*
X183012089Y-139286905D01*
X183126196Y-139239640D01*
X183228889Y-139171023D01*
X183316223Y-139083689D01*
X183384840Y-138980996D01*
X183432105Y-138866889D01*
X183456200Y-138745754D01*
X183456200Y-138622246D01*
X183432105Y-138501111D01*
X183384840Y-138387004D01*
X183316223Y-138284311D01*
X183228889Y-138196977D01*
X183126196Y-138128360D01*
X183012089Y-138081095D01*
X182890954Y-138057000D01*
X182767446Y-138057000D01*
X182646311Y-138081095D01*
X182645000Y-138081638D01*
X182645000Y-137633091D01*
X183833340Y-136444752D01*
X183853449Y-136428249D01*
X183919305Y-136348003D01*
X183968240Y-136256451D01*
X183998375Y-136157111D01*
X184006001Y-136079682D01*
X184008550Y-136053802D01*
X184006001Y-136027921D01*
X184006001Y-135094600D01*
X184110154Y-135094600D01*
X184231289Y-135070505D01*
X184345396Y-135023240D01*
X184371384Y-135005875D01*
X184732601Y-135367093D01*
G36*
X188778001Y-125001275D02*
G01*
X188777223Y-125000111D01*
X188689889Y-124912777D01*
X188587196Y-124844160D01*
X188473089Y-124796895D01*
X188351954Y-124772800D01*
X188228446Y-124772800D01*
X188107311Y-124796895D01*
X187993204Y-124844160D01*
X187890511Y-124912777D01*
X187803177Y-125000111D01*
X187734560Y-125102804D01*
X187687295Y-125216911D01*
X187663200Y-125338046D01*
X187663200Y-125461554D01*
X187687295Y-125582689D01*
X187703796Y-125622525D01*
X187533903Y-125552153D01*
X187296849Y-125505000D01*
X187055151Y-125505000D01*
X186818097Y-125552153D01*
X186594798Y-125644647D01*
X186393833Y-125778927D01*
X186222927Y-125949833D01*
X186088647Y-126150798D01*
X185996153Y-126374097D01*
X185949000Y-126611151D01*
X185949000Y-126852849D01*
X185974292Y-126979999D01*
X185218935Y-126979999D01*
X185311689Y-126918023D01*
X185399023Y-126830689D01*
X185467640Y-126727996D01*
X185514905Y-126613889D01*
X185539000Y-126492754D01*
X185539000Y-126369246D01*
X185514905Y-126248111D01*
X185467640Y-126134004D01*
X185399023Y-126031311D01*
X185311689Y-125943977D01*
X185208996Y-125875360D01*
X185094889Y-125828095D01*
X184973754Y-125804000D01*
X184850246Y-125804000D01*
X184729111Y-125828095D01*
X184615004Y-125875360D01*
X184512311Y-125943977D01*
X184424977Y-126031311D01*
X184356360Y-126134004D01*
X184309095Y-126248111D01*
X184285000Y-126369246D01*
X184285000Y-126492754D01*
X184309095Y-126613889D01*
X184356360Y-126727996D01*
X184424977Y-126830689D01*
X184512311Y-126918023D01*
X184605065Y-126979999D01*
X183918645Y-126979999D01*
X183125500Y-126186856D01*
X183108211Y-126165789D01*
X183024158Y-126096809D01*
X182928263Y-126045552D01*
X182824211Y-126013988D01*
X182743109Y-126006000D01*
X182743106Y-126006000D01*
X182716000Y-126003330D01*
X182688894Y-126006000D01*
X182293444Y-126006000D01*
X182287996Y-126002360D01*
X182173889Y-125955095D01*
X182052754Y-125931000D01*
X181929246Y-125931000D01*
X181808111Y-125955095D01*
X181694004Y-126002360D01*
X181591311Y-126070977D01*
X181503977Y-126158311D01*
X181435360Y-126261004D01*
X181388095Y-126375111D01*
X181364000Y-126496246D01*
X181364000Y-126619754D01*
X181388095Y-126740889D01*
X181435360Y-126854996D01*
X181503977Y-126957689D01*
X181591311Y-127045023D01*
X181694004Y-127113640D01*
X181808111Y-127160905D01*
X181929246Y-127185000D01*
X182052754Y-127185000D01*
X182173889Y-127160905D01*
X182287996Y-127113640D01*
X182293444Y-127110000D01*
X182487356Y-127110000D01*
X183280507Y-127903153D01*
X183297788Y-127924210D01*
X183318844Y-127941490D01*
X183318845Y-127941491D01*
X183381841Y-127993190D01*
X183477736Y-128044447D01*
X183581788Y-128076011D01*
X183689999Y-128086669D01*
X183717107Y-128083999D01*
X186348895Y-128083999D01*
X186376001Y-128086669D01*
X186403107Y-128083999D01*
X186403110Y-128083999D01*
X186484212Y-128076011D01*
X186588264Y-128044447D01*
X186684159Y-127993190D01*
X186768212Y-127924210D01*
X186785501Y-127903143D01*
X186788894Y-127899750D01*
X186818097Y-127911847D01*
X187055151Y-127959000D01*
X187296849Y-127959000D01*
X187533903Y-127911847D01*
X187757202Y-127819353D01*
X187958167Y-127685073D01*
X188129073Y-127514167D01*
X188263353Y-127313202D01*
X188355847Y-127089903D01*
X188403000Y-126852849D01*
X188403000Y-126611151D01*
X188355847Y-126374097D01*
X188263353Y-126150798D01*
X188173151Y-126015801D01*
X188228446Y-126026800D01*
X188351954Y-126026800D01*
X188473089Y-126002705D01*
X188587196Y-125955440D01*
X188689889Y-125886823D01*
X188777223Y-125799489D01*
X188778001Y-125798325D01*
X188778001Y-130183000D01*
X188743246Y-130183000D01*
X188622111Y-130207095D01*
X188508004Y-130254360D01*
X188405311Y-130322977D01*
X188317977Y-130410311D01*
X188249360Y-130513004D01*
X188202095Y-130627111D01*
X188178000Y-130748246D01*
X188178000Y-130871754D01*
X188202095Y-130992889D01*
X188249360Y-131106996D01*
X188317977Y-131209689D01*
X188405311Y-131297023D01*
X188508004Y-131365640D01*
X188622111Y-131412905D01*
X188743246Y-131437000D01*
X188778001Y-131437000D01*
X188778001Y-135131151D01*
X188701986Y-135080360D01*
X188587879Y-135033095D01*
X188466744Y-135009000D01*
X188343236Y-135009000D01*
X188222101Y-135033095D01*
X188186851Y-135047696D01*
X188263353Y-134933202D01*
X188355847Y-134709903D01*
X188403000Y-134472849D01*
X188403000Y-134231151D01*
X188355847Y-133994097D01*
X188263353Y-133770798D01*
X188129073Y-133569833D01*
X187958167Y-133398927D01*
X187757202Y-133264647D01*
X187533903Y-133172153D01*
X187296849Y-133125000D01*
X187055151Y-133125000D01*
X186818097Y-133172153D01*
X186769551Y-133192262D01*
X186582156Y-133004867D01*
X186565649Y-132984753D01*
X186485403Y-132918897D01*
X186393851Y-132869962D01*
X186294511Y-132839827D01*
X186217082Y-132832201D01*
X186191201Y-132829652D01*
X186165320Y-132832201D01*
X184442678Y-132832201D01*
X184416797Y-132829652D01*
X184390916Y-132832201D01*
X184313487Y-132839827D01*
X184214147Y-132869962D01*
X184122595Y-132918897D01*
X184042349Y-132984753D01*
X184025850Y-133004857D01*
X183369417Y-133661291D01*
X183359440Y-133637204D01*
X183290823Y-133534511D01*
X183203489Y-133447177D01*
X183100796Y-133378560D01*
X182986689Y-133331295D01*
X182865554Y-133307200D01*
X182742046Y-133307200D01*
X182620911Y-133331295D01*
X182506804Y-133378560D01*
X182404111Y-133447177D01*
X182316777Y-133534511D01*
X182309668Y-133545150D01*
X182304996Y-133542028D01*
X182190889Y-133494763D01*
X182069754Y-133470668D01*
X181946246Y-133470668D01*
X181825111Y-133494763D01*
X181711004Y-133542028D01*
X181608311Y-133610645D01*
X181520977Y-133697979D01*
X181452360Y-133800672D01*
X181405095Y-133914779D01*
X181395038Y-133965340D01*
X181378402Y-133981976D01*
X181378402Y-131691151D01*
X185949000Y-131691151D01*
X185949000Y-131932849D01*
X185996153Y-132169903D01*
X186088647Y-132393202D01*
X186222927Y-132594167D01*
X186393833Y-132765073D01*
X186594798Y-132899353D01*
X186818097Y-132991847D01*
X187055151Y-133039000D01*
X187296849Y-133039000D01*
X187533903Y-132991847D01*
X187757202Y-132899353D01*
X187958167Y-132765073D01*
X188129073Y-132594167D01*
X188263353Y-132393202D01*
X188355847Y-132169903D01*
X188403000Y-131932849D01*
X188403000Y-131691151D01*
X188355847Y-131454097D01*
X188263353Y-131230798D01*
X188129073Y-131029833D01*
X187958167Y-130858927D01*
X187757202Y-130724647D01*
X187533903Y-130632153D01*
X187296849Y-130585000D01*
X187055151Y-130585000D01*
X186818097Y-130632153D01*
X186594798Y-130724647D01*
X186393833Y-130858927D01*
X186222927Y-131029833D01*
X186088647Y-131230798D01*
X185996153Y-131454097D01*
X185949000Y-131691151D01*
X181378402Y-131691151D01*
X181378402Y-130048247D01*
X185061002Y-130048247D01*
X185061002Y-130171755D01*
X185085097Y-130292890D01*
X185132362Y-130406997D01*
X185200979Y-130509690D01*
X185288313Y-130597024D01*
X185391006Y-130665641D01*
X185505113Y-130712906D01*
X185626248Y-130737001D01*
X185749756Y-130737001D01*
X185870891Y-130712906D01*
X185984998Y-130665641D01*
X186087691Y-130597024D01*
X186175025Y-130509690D01*
X186243642Y-130406997D01*
X186290907Y-130292890D01*
X186315002Y-130171755D01*
X186315002Y-130146242D01*
X186393833Y-130225073D01*
X186594798Y-130359353D01*
X186818097Y-130451847D01*
X187055151Y-130499000D01*
X187296849Y-130499000D01*
X187533903Y-130451847D01*
X187757202Y-130359353D01*
X187958167Y-130225073D01*
X188129073Y-130054167D01*
X188263353Y-129853202D01*
X188355847Y-129629903D01*
X188403000Y-129392849D01*
X188403000Y-129151151D01*
X188355847Y-128914097D01*
X188263353Y-128690798D01*
X188129073Y-128489833D01*
X187958167Y-128318927D01*
X187757202Y-128184647D01*
X187533903Y-128092153D01*
X187296849Y-128045000D01*
X187055151Y-128045000D01*
X186818097Y-128092153D01*
X186594798Y-128184647D01*
X186393833Y-128318927D01*
X186222927Y-128489833D01*
X186088647Y-128690798D01*
X185996153Y-128914097D01*
X185949000Y-129151151D01*
X185949000Y-129392849D01*
X185980779Y-129552613D01*
X185870891Y-129507096D01*
X185749756Y-129483001D01*
X185626248Y-129483001D01*
X185505113Y-129507096D01*
X185391006Y-129554361D01*
X185288313Y-129622978D01*
X185200979Y-129710312D01*
X185132362Y-129813005D01*
X185085097Y-129927112D01*
X185061002Y-130048247D01*
X181378402Y-130048247D01*
X181378402Y-129769310D01*
X181462023Y-129685689D01*
X181530640Y-129582996D01*
X181577905Y-129468889D01*
X181602000Y-129347754D01*
X181602000Y-129224246D01*
X181577905Y-129103111D01*
X181530640Y-128989004D01*
X181462023Y-128886311D01*
X181374689Y-128798977D01*
X181271996Y-128730360D01*
X181157889Y-128683095D01*
X181036754Y-128659000D01*
X180913246Y-128659000D01*
X180792111Y-128683095D01*
X180678004Y-128730360D01*
X180663699Y-128739918D01*
X180643353Y-128690798D01*
X180509073Y-128489833D01*
X180338167Y-128318927D01*
X180137202Y-128184647D01*
X179913903Y-128092153D01*
X179676849Y-128045000D01*
X179435151Y-128045000D01*
X179198097Y-128092153D01*
X178974798Y-128184647D01*
X178773833Y-128318927D01*
X178602927Y-128489833D01*
X178468647Y-128690798D01*
X178376153Y-128914097D01*
X178329000Y-129151151D01*
X178329000Y-129392849D01*
X178376153Y-129629903D01*
X178468647Y-129853202D01*
X178602927Y-130054167D01*
X178773833Y-130225073D01*
X178974798Y-130359353D01*
X179198097Y-130451847D01*
X179435151Y-130499000D01*
X179676849Y-130499000D01*
X179913903Y-130451847D01*
X180137202Y-130359353D01*
X180324403Y-130234270D01*
X180324403Y-130849730D01*
X180137202Y-130724647D01*
X179913903Y-130632153D01*
X179676849Y-130585000D01*
X179435151Y-130585000D01*
X179198097Y-130632153D01*
X178974798Y-130724647D01*
X178773833Y-130858927D01*
X178602927Y-131029833D01*
X178468647Y-131230798D01*
X178376153Y-131454097D01*
X178329000Y-131691151D01*
X178329000Y-131932849D01*
X178376153Y-132169903D01*
X178468647Y-132393202D01*
X178602927Y-132594167D01*
X178773833Y-132765073D01*
X178974798Y-132899353D01*
X179198097Y-132991847D01*
X179435151Y-133039000D01*
X179676849Y-133039000D01*
X179913903Y-132991847D01*
X180137202Y-132899353D01*
X180324403Y-132774270D01*
X180324403Y-133389730D01*
X180137202Y-133264647D01*
X179913903Y-133172153D01*
X179676849Y-133125000D01*
X179435151Y-133125000D01*
X179198097Y-133172153D01*
X178974798Y-133264647D01*
X178773833Y-133398927D01*
X178602927Y-133569833D01*
X178468647Y-133770798D01*
X178376153Y-133994097D01*
X178329000Y-134231151D01*
X178329000Y-134472849D01*
X178376153Y-134709903D01*
X178468647Y-134933202D01*
X178602927Y-135134167D01*
X178773833Y-135305073D01*
X178974798Y-135439353D01*
X179198097Y-135531847D01*
X179435151Y-135579000D01*
X179676849Y-135579000D01*
X179913903Y-135531847D01*
X180137202Y-135439353D01*
X180324402Y-135314270D01*
X180324402Y-135929730D01*
X180137202Y-135804647D01*
X179913903Y-135712153D01*
X179676849Y-135665000D01*
X179435151Y-135665000D01*
X179198097Y-135712153D01*
X178974798Y-135804647D01*
X178773833Y-135938927D01*
X178602927Y-136109833D01*
X178468647Y-136310798D01*
X178376153Y-136534097D01*
X178329000Y-136771151D01*
X178329000Y-137012849D01*
X178376153Y-137249903D01*
X178468647Y-137473202D01*
X178602927Y-137674167D01*
X178773833Y-137845073D01*
X178974798Y-137979353D01*
X179198097Y-138071847D01*
X179435151Y-138119000D01*
X179676849Y-138119000D01*
X179913903Y-138071847D01*
X180137202Y-137979353D01*
X180324402Y-137854270D01*
X180324402Y-138150119D01*
X180321853Y-138176000D01*
X180324402Y-138201880D01*
X180325316Y-138211158D01*
X180270511Y-138247777D01*
X180183177Y-138335111D01*
X180164581Y-138362941D01*
X180137202Y-138344647D01*
X179913903Y-138252153D01*
X179676849Y-138205000D01*
X179435151Y-138205000D01*
X179198097Y-138252153D01*
X178974798Y-138344647D01*
X178773833Y-138478927D01*
X178602927Y-138649833D01*
X178468647Y-138850798D01*
X178410708Y-138990675D01*
X178408798Y-138991696D01*
X178328552Y-139057552D01*
X178312049Y-139077661D01*
X178252000Y-139137710D01*
X178252000Y-125932000D01*
X178326934Y-125932000D01*
X178326934Y-127532000D01*
X178335178Y-127615707D01*
X178359595Y-127696196D01*
X178399245Y-127770376D01*
X178452605Y-127835395D01*
X178517624Y-127888755D01*
X178591804Y-127928405D01*
X178672293Y-127952822D01*
X178756000Y-127961066D01*
X180356000Y-127961066D01*
X180439707Y-127952822D01*
X180520196Y-127928405D01*
X180594376Y-127888755D01*
X180659395Y-127835395D01*
X180712755Y-127770376D01*
X180752405Y-127696196D01*
X180776822Y-127615707D01*
X180785066Y-127532000D01*
X180785066Y-125932000D01*
X180776822Y-125848293D01*
X180752405Y-125767804D01*
X180712755Y-125693624D01*
X180659395Y-125628605D01*
X180594376Y-125575245D01*
X180520196Y-125535595D01*
X180439707Y-125511178D01*
X180356000Y-125502934D01*
X178756000Y-125502934D01*
X178672293Y-125511178D01*
X178591804Y-125535595D01*
X178517624Y-125575245D01*
X178452605Y-125628605D01*
X178399245Y-125693624D01*
X178359595Y-125767804D01*
X178335178Y-125848293D01*
X178326934Y-125932000D01*
X178252000Y-125932000D01*
X178252000Y-122372000D01*
X188778001Y-122372000D01*
X188778001Y-125001275D01*
G37*
X188778001Y-125001275D02*
X188777223Y-125000111D01*
X188689889Y-124912777D01*
X188587196Y-124844160D01*
X188473089Y-124796895D01*
X188351954Y-124772800D01*
X188228446Y-124772800D01*
X188107311Y-124796895D01*
X187993204Y-124844160D01*
X187890511Y-124912777D01*
X187803177Y-125000111D01*
X187734560Y-125102804D01*
X187687295Y-125216911D01*
X187663200Y-125338046D01*
X187663200Y-125461554D01*
X187687295Y-125582689D01*
X187703796Y-125622525D01*
X187533903Y-125552153D01*
X187296849Y-125505000D01*
X187055151Y-125505000D01*
X186818097Y-125552153D01*
X186594798Y-125644647D01*
X186393833Y-125778927D01*
X186222927Y-125949833D01*
X186088647Y-126150798D01*
X185996153Y-126374097D01*
X185949000Y-126611151D01*
X185949000Y-126852849D01*
X185974292Y-126979999D01*
X185218935Y-126979999D01*
X185311689Y-126918023D01*
X185399023Y-126830689D01*
X185467640Y-126727996D01*
X185514905Y-126613889D01*
X185539000Y-126492754D01*
X185539000Y-126369246D01*
X185514905Y-126248111D01*
X185467640Y-126134004D01*
X185399023Y-126031311D01*
X185311689Y-125943977D01*
X185208996Y-125875360D01*
X185094889Y-125828095D01*
X184973754Y-125804000D01*
X184850246Y-125804000D01*
X184729111Y-125828095D01*
X184615004Y-125875360D01*
X184512311Y-125943977D01*
X184424977Y-126031311D01*
X184356360Y-126134004D01*
X184309095Y-126248111D01*
X184285000Y-126369246D01*
X184285000Y-126492754D01*
X184309095Y-126613889D01*
X184356360Y-126727996D01*
X184424977Y-126830689D01*
X184512311Y-126918023D01*
X184605065Y-126979999D01*
X183918645Y-126979999D01*
X183125500Y-126186856D01*
X183108211Y-126165789D01*
X183024158Y-126096809D01*
X182928263Y-126045552D01*
X182824211Y-126013988D01*
X182743109Y-126006000D01*
X182743106Y-126006000D01*
X182716000Y-126003330D01*
X182688894Y-126006000D01*
X182293444Y-126006000D01*
X182287996Y-126002360D01*
X182173889Y-125955095D01*
X182052754Y-125931000D01*
X181929246Y-125931000D01*
X181808111Y-125955095D01*
X181694004Y-126002360D01*
X181591311Y-126070977D01*
X181503977Y-126158311D01*
X181435360Y-126261004D01*
X181388095Y-126375111D01*
X181364000Y-126496246D01*
X181364000Y-126619754D01*
X181388095Y-126740889D01*
X181435360Y-126854996D01*
X181503977Y-126957689D01*
X181591311Y-127045023D01*
X181694004Y-127113640D01*
X181808111Y-127160905D01*
X181929246Y-127185000D01*
X182052754Y-127185000D01*
X182173889Y-127160905D01*
X182287996Y-127113640D01*
X182293444Y-127110000D01*
X182487356Y-127110000D01*
X183280507Y-127903153D01*
X183297788Y-127924210D01*
X183318844Y-127941490D01*
X183318845Y-127941491D01*
X183381841Y-127993190D01*
X183477736Y-128044447D01*
X183581788Y-128076011D01*
X183689999Y-128086669D01*
X183717107Y-128083999D01*
X186348895Y-128083999D01*
X186376001Y-128086669D01*
X186403107Y-128083999D01*
X186403110Y-128083999D01*
X186484212Y-128076011D01*
X186588264Y-128044447D01*
X186684159Y-127993190D01*
X186768212Y-127924210D01*
X186785501Y-127903143D01*
X186788894Y-127899750D01*
X186818097Y-127911847D01*
X187055151Y-127959000D01*
X187296849Y-127959000D01*
X187533903Y-127911847D01*
X187757202Y-127819353D01*
X187958167Y-127685073D01*
X188129073Y-127514167D01*
X188263353Y-127313202D01*
X188355847Y-127089903D01*
X188403000Y-126852849D01*
X188403000Y-126611151D01*
X188355847Y-126374097D01*
X188263353Y-126150798D01*
X188173151Y-126015801D01*
X188228446Y-126026800D01*
X188351954Y-126026800D01*
X188473089Y-126002705D01*
X188587196Y-125955440D01*
X188689889Y-125886823D01*
X188777223Y-125799489D01*
X188778001Y-125798325D01*
X188778001Y-130183000D01*
X188743246Y-130183000D01*
X188622111Y-130207095D01*
X188508004Y-130254360D01*
X188405311Y-130322977D01*
X188317977Y-130410311D01*
X188249360Y-130513004D01*
X188202095Y-130627111D01*
X188178000Y-130748246D01*
X188178000Y-130871754D01*
X188202095Y-130992889D01*
X188249360Y-131106996D01*
X188317977Y-131209689D01*
X188405311Y-131297023D01*
X188508004Y-131365640D01*
X188622111Y-131412905D01*
X188743246Y-131437000D01*
X188778001Y-131437000D01*
X188778001Y-135131151D01*
X188701986Y-135080360D01*
X188587879Y-135033095D01*
X188466744Y-135009000D01*
X188343236Y-135009000D01*
X188222101Y-135033095D01*
X188186851Y-135047696D01*
X188263353Y-134933202D01*
X188355847Y-134709903D01*
X188403000Y-134472849D01*
X188403000Y-134231151D01*
X188355847Y-133994097D01*
X188263353Y-133770798D01*
X188129073Y-133569833D01*
X187958167Y-133398927D01*
X187757202Y-133264647D01*
X187533903Y-133172153D01*
X187296849Y-133125000D01*
X187055151Y-133125000D01*
X186818097Y-133172153D01*
X186769551Y-133192262D01*
X186582156Y-133004867D01*
X186565649Y-132984753D01*
X186485403Y-132918897D01*
X186393851Y-132869962D01*
X186294511Y-132839827D01*
X186217082Y-132832201D01*
X186191201Y-132829652D01*
X186165320Y-132832201D01*
X184442678Y-132832201D01*
X184416797Y-132829652D01*
X184390916Y-132832201D01*
X184313487Y-132839827D01*
X184214147Y-132869962D01*
X184122595Y-132918897D01*
X184042349Y-132984753D01*
X184025850Y-133004857D01*
X183369417Y-133661291D01*
X183359440Y-133637204D01*
X183290823Y-133534511D01*
X183203489Y-133447177D01*
X183100796Y-133378560D01*
X182986689Y-133331295D01*
X182865554Y-133307200D01*
X182742046Y-133307200D01*
X182620911Y-133331295D01*
X182506804Y-133378560D01*
X182404111Y-133447177D01*
X182316777Y-133534511D01*
X182309668Y-133545150D01*
X182304996Y-133542028D01*
X182190889Y-133494763D01*
X182069754Y-133470668D01*
X181946246Y-133470668D01*
X181825111Y-133494763D01*
X181711004Y-133542028D01*
X181608311Y-133610645D01*
X181520977Y-133697979D01*
X181452360Y-133800672D01*
X181405095Y-133914779D01*
X181395038Y-133965340D01*
X181378402Y-133981976D01*
X181378402Y-131691151D01*
X185949000Y-131691151D01*
X185949000Y-131932849D01*
X185996153Y-132169903D01*
X186088647Y-132393202D01*
X186222927Y-132594167D01*
X186393833Y-132765073D01*
X186594798Y-132899353D01*
X186818097Y-132991847D01*
X187055151Y-133039000D01*
X187296849Y-133039000D01*
X187533903Y-132991847D01*
X187757202Y-132899353D01*
X187958167Y-132765073D01*
X188129073Y-132594167D01*
X188263353Y-132393202D01*
X188355847Y-132169903D01*
X188403000Y-131932849D01*
X188403000Y-131691151D01*
X188355847Y-131454097D01*
X188263353Y-131230798D01*
X188129073Y-131029833D01*
X187958167Y-130858927D01*
X187757202Y-130724647D01*
X187533903Y-130632153D01*
X187296849Y-130585000D01*
X187055151Y-130585000D01*
X186818097Y-130632153D01*
X186594798Y-130724647D01*
X186393833Y-130858927D01*
X186222927Y-131029833D01*
X186088647Y-131230798D01*
X185996153Y-131454097D01*
X185949000Y-131691151D01*
X181378402Y-131691151D01*
X181378402Y-130048247D01*
X185061002Y-130048247D01*
X185061002Y-130171755D01*
X185085097Y-130292890D01*
X185132362Y-130406997D01*
X185200979Y-130509690D01*
X185288313Y-130597024D01*
X185391006Y-130665641D01*
X185505113Y-130712906D01*
X185626248Y-130737001D01*
X185749756Y-130737001D01*
X185870891Y-130712906D01*
X185984998Y-130665641D01*
X186087691Y-130597024D01*
X186175025Y-130509690D01*
X186243642Y-130406997D01*
X186290907Y-130292890D01*
X186315002Y-130171755D01*
X186315002Y-130146242D01*
X186393833Y-130225073D01*
X186594798Y-130359353D01*
X186818097Y-130451847D01*
X187055151Y-130499000D01*
X187296849Y-130499000D01*
X187533903Y-130451847D01*
X187757202Y-130359353D01*
X187958167Y-130225073D01*
X188129073Y-130054167D01*
X188263353Y-129853202D01*
X188355847Y-129629903D01*
X188403000Y-129392849D01*
X188403000Y-129151151D01*
X188355847Y-128914097D01*
X188263353Y-128690798D01*
X188129073Y-128489833D01*
X187958167Y-128318927D01*
X187757202Y-128184647D01*
X187533903Y-128092153D01*
X187296849Y-128045000D01*
X187055151Y-128045000D01*
X186818097Y-128092153D01*
X186594798Y-128184647D01*
X186393833Y-128318927D01*
X186222927Y-128489833D01*
X186088647Y-128690798D01*
X185996153Y-128914097D01*
X185949000Y-129151151D01*
X185949000Y-129392849D01*
X185980779Y-129552613D01*
X185870891Y-129507096D01*
X185749756Y-129483001D01*
X185626248Y-129483001D01*
X185505113Y-129507096D01*
X185391006Y-129554361D01*
X185288313Y-129622978D01*
X185200979Y-129710312D01*
X185132362Y-129813005D01*
X185085097Y-129927112D01*
X185061002Y-130048247D01*
X181378402Y-130048247D01*
X181378402Y-129769310D01*
X181462023Y-129685689D01*
X181530640Y-129582996D01*
X181577905Y-129468889D01*
X181602000Y-129347754D01*
X181602000Y-129224246D01*
X181577905Y-129103111D01*
X181530640Y-128989004D01*
X181462023Y-128886311D01*
X181374689Y-128798977D01*
X181271996Y-128730360D01*
X181157889Y-128683095D01*
X181036754Y-128659000D01*
X180913246Y-128659000D01*
X180792111Y-128683095D01*
X180678004Y-128730360D01*
X180663699Y-128739918D01*
X180643353Y-128690798D01*
X180509073Y-128489833D01*
X180338167Y-128318927D01*
X180137202Y-128184647D01*
X179913903Y-128092153D01*
X179676849Y-128045000D01*
X179435151Y-128045000D01*
X179198097Y-128092153D01*
X178974798Y-128184647D01*
X178773833Y-128318927D01*
X178602927Y-128489833D01*
X178468647Y-128690798D01*
X178376153Y-128914097D01*
X178329000Y-129151151D01*
X178329000Y-129392849D01*
X178376153Y-129629903D01*
X178468647Y-129853202D01*
X178602927Y-130054167D01*
X178773833Y-130225073D01*
X178974798Y-130359353D01*
X179198097Y-130451847D01*
X179435151Y-130499000D01*
X179676849Y-130499000D01*
X179913903Y-130451847D01*
X180137202Y-130359353D01*
X180324403Y-130234270D01*
X180324403Y-130849730D01*
X180137202Y-130724647D01*
X179913903Y-130632153D01*
X179676849Y-130585000D01*
X179435151Y-130585000D01*
X179198097Y-130632153D01*
X178974798Y-130724647D01*
X178773833Y-130858927D01*
X178602927Y-131029833D01*
X178468647Y-131230798D01*
X178376153Y-131454097D01*
X178329000Y-131691151D01*
X178329000Y-131932849D01*
X178376153Y-132169903D01*
X178468647Y-132393202D01*
X178602927Y-132594167D01*
X178773833Y-132765073D01*
X178974798Y-132899353D01*
X179198097Y-132991847D01*
X179435151Y-133039000D01*
X179676849Y-133039000D01*
X179913903Y-132991847D01*
X180137202Y-132899353D01*
X180324403Y-132774270D01*
X180324403Y-133389730D01*
X180137202Y-133264647D01*
X179913903Y-133172153D01*
X179676849Y-133125000D01*
X179435151Y-133125000D01*
X179198097Y-133172153D01*
X178974798Y-133264647D01*
X178773833Y-133398927D01*
X178602927Y-133569833D01*
X178468647Y-133770798D01*
X178376153Y-133994097D01*
X178329000Y-134231151D01*
X178329000Y-134472849D01*
X178376153Y-134709903D01*
X178468647Y-134933202D01*
X178602927Y-135134167D01*
X178773833Y-135305073D01*
X178974798Y-135439353D01*
X179198097Y-135531847D01*
X179435151Y-135579000D01*
X179676849Y-135579000D01*
X179913903Y-135531847D01*
X180137202Y-135439353D01*
X180324402Y-135314270D01*
X180324402Y-135929730D01*
X180137202Y-135804647D01*
X179913903Y-135712153D01*
X179676849Y-135665000D01*
X179435151Y-135665000D01*
X179198097Y-135712153D01*
X178974798Y-135804647D01*
X178773833Y-135938927D01*
X178602927Y-136109833D01*
X178468647Y-136310798D01*
X178376153Y-136534097D01*
X178329000Y-136771151D01*
X178329000Y-137012849D01*
X178376153Y-137249903D01*
X178468647Y-137473202D01*
X178602927Y-137674167D01*
X178773833Y-137845073D01*
X178974798Y-137979353D01*
X179198097Y-138071847D01*
X179435151Y-138119000D01*
X179676849Y-138119000D01*
X179913903Y-138071847D01*
X180137202Y-137979353D01*
X180324402Y-137854270D01*
X180324402Y-138150119D01*
X180321853Y-138176000D01*
X180324402Y-138201880D01*
X180325316Y-138211158D01*
X180270511Y-138247777D01*
X180183177Y-138335111D01*
X180164581Y-138362941D01*
X180137202Y-138344647D01*
X179913903Y-138252153D01*
X179676849Y-138205000D01*
X179435151Y-138205000D01*
X179198097Y-138252153D01*
X178974798Y-138344647D01*
X178773833Y-138478927D01*
X178602927Y-138649833D01*
X178468647Y-138850798D01*
X178410708Y-138990675D01*
X178408798Y-138991696D01*
X178328552Y-139057552D01*
X178312049Y-139077661D01*
X178252000Y-139137710D01*
X178252000Y-125932000D01*
X178326934Y-125932000D01*
X178326934Y-127532000D01*
X178335178Y-127615707D01*
X178359595Y-127696196D01*
X178399245Y-127770376D01*
X178452605Y-127835395D01*
X178517624Y-127888755D01*
X178591804Y-127928405D01*
X178672293Y-127952822D01*
X178756000Y-127961066D01*
X180356000Y-127961066D01*
X180439707Y-127952822D01*
X180520196Y-127928405D01*
X180594376Y-127888755D01*
X180659395Y-127835395D01*
X180712755Y-127770376D01*
X180752405Y-127696196D01*
X180776822Y-127615707D01*
X180785066Y-127532000D01*
X180785066Y-125932000D01*
X180776822Y-125848293D01*
X180752405Y-125767804D01*
X180712755Y-125693624D01*
X180659395Y-125628605D01*
X180594376Y-125575245D01*
X180520196Y-125535595D01*
X180439707Y-125511178D01*
X180356000Y-125502934D01*
X178756000Y-125502934D01*
X178672293Y-125511178D01*
X178591804Y-125535595D01*
X178517624Y-125575245D01*
X178452605Y-125628605D01*
X178399245Y-125693624D01*
X178359595Y-125767804D01*
X178335178Y-125848293D01*
X178326934Y-125932000D01*
X178252000Y-125932000D01*
X178252000Y-122372000D01*
X188778001Y-122372000D01*
X188778001Y-125001275D01*
G36*
X182506804Y-134489840D02*
G01*
X182620911Y-134537105D01*
X182742046Y-134561200D01*
X182865554Y-134561200D01*
X182952001Y-134544005D01*
X182952002Y-135186800D01*
X182917246Y-135186800D01*
X182796111Y-135210895D01*
X182682004Y-135258160D01*
X182579311Y-135326777D01*
X182491977Y-135414111D01*
X182423360Y-135516804D01*
X182376095Y-135630911D01*
X182352000Y-135752046D01*
X182352000Y-135875554D01*
X182376095Y-135996689D01*
X182423360Y-136110796D01*
X182491977Y-136213489D01*
X182533000Y-136254512D01*
X182045999Y-136741514D01*
X182045999Y-134804959D01*
X182140328Y-134710630D01*
X182190889Y-134700573D01*
X182304996Y-134653308D01*
X182407689Y-134584691D01*
X182495023Y-134497357D01*
X182502132Y-134486718D01*
X182506804Y-134489840D01*
G37*
X182506804Y-134489840D02*
X182620911Y-134537105D01*
X182742046Y-134561200D01*
X182865554Y-134561200D01*
X182952001Y-134544005D01*
X182952002Y-135186800D01*
X182917246Y-135186800D01*
X182796111Y-135210895D01*
X182682004Y-135258160D01*
X182579311Y-135326777D01*
X182491977Y-135414111D01*
X182423360Y-135516804D01*
X182376095Y-135630911D01*
X182352000Y-135752046D01*
X182352000Y-135875554D01*
X182376095Y-135996689D01*
X182423360Y-136110796D01*
X182491977Y-136213489D01*
X182533000Y-136254512D01*
X182045999Y-136741514D01*
X182045999Y-134804959D01*
X182140328Y-134710630D01*
X182190889Y-134700573D01*
X182304996Y-134653308D01*
X182407689Y-134584691D01*
X182495023Y-134497357D01*
X182502132Y-134486718D01*
X182506804Y-134489840D01*
M02*
