<?xml version="1.0" encoding="UTF-8"?>
<svg xmlns="http://www.w3.org/2000/svg" xmlns:xlink="http://www.w3.org/1999/xlink" width="34pt" height="122pt" viewBox="0 0 34 122" version="1.1">
<g id="surface2604">
<path style=" stroke:none;fill-rule:evenodd;fill:rgb(45.098039%,45.098039%,87.058824%);fill-opacity:1;" d="M 3.976562 106.976562 L 4.042969 106.984375 L 4.109375 107.003906 L 4.175781 107.027344 L 4.238281 107.054688 L 4.300781 107.089844 L 4.355469 107.132812 L 4.40625 107.179688 L 4.453125 107.230469 L 4.496094 107.285156 L 4.53125 107.347656 L 4.558594 107.410156 L 4.582031 107.472656 L 4.601562 107.542969 L 4.609375 107.609375 L 4.613281 107.679688 L 4.613281 111.933594 L 4.609375 112 L 4.601562 112.070312 L 4.582031 112.136719 L 4.558594 112.203125 L 4.53125 112.265625 L 4.496094 112.324219 L 4.453125 112.382812 L 4.40625 112.433594 L 4.355469 112.480469 L 4.300781 112.519531 L 4.238281 112.558594 L 4.175781 112.585938 L 4.109375 112.609375 L 4.042969 112.628906 L 3.976562 112.636719 L 3.90625 112.640625 L 2.488281 112.640625 L 2.417969 112.636719 L 2.351562 112.628906 L 2.28125 112.609375 L 2.21875 112.585938 L 2.152344 112.558594 L 2.09375 112.519531 L 2.039062 112.480469 L 1.988281 112.433594 L 1.941406 112.382812 L 1.898438 112.324219 L 1.863281 112.265625 L 1.832031 112.203125 L 1.808594 112.136719 L 1.792969 112.070312 L 1.78125 112 L 1.78125 107.609375 L 1.792969 107.542969 L 1.808594 107.472656 L 1.832031 107.410156 L 1.863281 107.347656 L 1.898438 107.285156 L 1.941406 107.230469 L 1.988281 107.179688 L 2.039062 107.132812 L 2.09375 107.089844 L 2.152344 107.054688 L 2.21875 107.027344 L 2.28125 107.003906 L 2.351562 106.984375 L 2.417969 106.976562 L 2.488281 106.972656 L 3.90625 106.972656 Z M 3.976562 106.976562 "/>
<path style=" stroke:none;fill-rule:evenodd;fill:rgb(45.098039%,45.098039%,87.058824%);fill-opacity:1;" d="M 32.054688 110.574219 L 32.125 110.585938 L 32.191406 110.601562 L 32.257812 110.625 L 32.320312 110.65625 L 32.378906 110.691406 L 32.433594 110.730469 L 32.488281 110.777344 L 32.535156 110.832031 L 32.574219 110.886719 L 32.609375 110.945312 L 32.640625 111.007812 L 32.664062 111.074219 L 32.679688 111.140625 L 32.691406 111.210938 L 32.695312 111.28125 L 32.695312 115.53125 L 32.691406 115.601562 L 32.679688 115.671875 L 32.664062 115.738281 L 32.640625 115.804688 L 32.609375 115.867188 L 32.574219 115.925781 L 32.535156 115.980469 L 32.488281 116.035156 L 32.378906 116.121094 L 32.320312 116.15625 L 32.257812 116.1875 L 32.191406 116.210938 L 32.125 116.226562 L 32.054688 116.238281 L 31.984375 116.242188 L 30.566406 116.242188 L 30.5 116.238281 L 30.429688 116.226562 L 30.363281 116.210938 L 30.296875 116.1875 L 30.234375 116.15625 L 30.175781 116.121094 L 30.117188 116.078125 L 30.066406 116.035156 L 30.019531 115.980469 L 29.980469 115.925781 L 29.941406 115.867188 L 29.914062 115.804688 L 29.890625 115.738281 L 29.875 115.671875 L 29.863281 115.601562 L 29.859375 115.53125 L 29.859375 111.28125 L 29.863281 111.210938 L 29.875 111.140625 L 29.890625 111.074219 L 29.914062 111.007812 L 29.941406 110.945312 L 29.980469 110.886719 L 30.019531 110.832031 L 30.066406 110.777344 L 30.117188 110.730469 L 30.175781 110.691406 L 30.234375 110.65625 L 30.296875 110.625 L 30.363281 110.601562 L 30.429688 110.585938 L 30.5 110.574219 L 30.566406 110.570312 L 31.984375 110.570312 Z M 32.054688 110.574219 "/>
<path style=" stroke:none;fill-rule:evenodd;fill:rgb(45.098039%,45.098039%,87.058824%);fill-opacity:1;" d="M 21.269531 11.191406 L 25.523438 11.191406 L 25.523438 5.523438 L 21.269531 5.523438 Z M 21.269531 11.191406 "/>
<path style=" stroke:none;fill-rule:evenodd;fill:rgb(45.098039%,45.098039%,87.058824%);fill-opacity:1;" d="M 8.230469 11.191406 L 12.484375 11.191406 L 12.484375 5.523438 L 8.230469 5.523438 Z M 8.230469 11.191406 "/>
<path style=" stroke:none;fill-rule:evenodd;fill:rgb(45.098039%,45.098039%,87.058824%);fill-opacity:1;" d="M 14.75 11.191406 L 19.003906 11.191406 L 19.003906 5.523438 L 14.75 5.523438 Z M 14.75 11.191406 "/>
<path style=" stroke:none;fill-rule:evenodd;fill:rgb(45.098039%,45.098039%,87.058824%);fill-opacity:1;" d="M 11.492188 29.050781 L 22.265625 29.050781 L 22.265625 23.382812 L 11.492188 23.382812 Z M 11.492188 29.050781 "/>
<path style=" stroke:none;fill-rule:evenodd;fill:rgb(45.098039%,45.098039%,87.058824%);fill-opacity:1;" d="M 22.742188 51.503906 L 22.785156 51.511719 L 22.863281 51.535156 L 22.902344 51.554688 L 22.9375 51.574219 L 22.972656 51.601562 L 23.003906 51.628906 L 23.03125 51.660156 L 23.054688 51.691406 L 23.078125 51.726562 L 23.109375 51.804688 L 23.117188 51.84375 L 23.125 51.886719 L 23.128906 51.929688 L 23.128906 55.613281 L 23.125 55.65625 L 23.117188 55.695312 L 23.109375 55.738281 L 23.09375 55.777344 L 23.078125 55.8125 L 23.054688 55.851562 L 23.03125 55.882812 L 23.003906 55.914062 L 22.972656 55.941406 L 22.9375 55.96875 L 22.902344 55.988281 L 22.863281 56.007812 L 22.785156 56.03125 L 22.742188 56.035156 L 22.703125 56.039062 L 21.851562 56.039062 L 21.808594 56.035156 L 21.769531 56.03125 L 21.726562 56.019531 L 21.6875 56.007812 L 21.617188 55.96875 L 21.582031 55.941406 L 21.550781 55.914062 L 21.523438 55.882812 L 21.5 55.851562 L 21.476562 55.8125 L 21.457031 55.777344 L 21.445312 55.738281 L 21.433594 55.695312 L 21.429688 55.65625 L 21.425781 55.613281 L 21.425781 51.929688 L 21.433594 51.84375 L 21.457031 51.765625 L 21.476562 51.726562 L 21.5 51.691406 L 21.523438 51.660156 L 21.550781 51.628906 L 21.582031 51.601562 L 21.617188 51.574219 L 21.6875 51.535156 L 21.726562 51.523438 L 21.769531 51.511719 L 21.808594 51.503906 Z M 22.742188 51.503906 "/>
<path style=" stroke:none;fill-rule:evenodd;fill:rgb(45.098039%,45.098039%,87.058824%);fill-opacity:1;" d="M 19.144531 51.503906 L 19.183594 51.511719 L 19.226562 51.523438 L 19.265625 51.535156 L 19.300781 51.554688 L 19.339844 51.574219 L 19.402344 51.628906 L 19.457031 51.691406 L 19.476562 51.726562 L 19.496094 51.765625 L 19.519531 51.84375 L 19.527344 51.929688 L 19.527344 55.613281 L 19.523438 55.65625 L 19.519531 55.695312 L 19.507812 55.738281 L 19.496094 55.777344 L 19.476562 55.8125 L 19.457031 55.851562 L 19.402344 55.914062 L 19.339844 55.96875 L 19.300781 55.988281 L 19.265625 56.007812 L 19.226562 56.019531 L 19.183594 56.03125 L 19.144531 56.035156 L 19.101562 56.039062 L 18.25 56.039062 L 18.210938 56.035156 L 18.167969 56.03125 L 18.089844 56.007812 L 18.050781 55.988281 L 18.015625 55.96875 L 17.980469 55.941406 L 17.949219 55.914062 L 17.921875 55.882812 L 17.898438 55.851562 L 17.875 55.8125 L 17.859375 55.777344 L 17.84375 55.738281 L 17.835938 55.695312 L 17.828125 55.65625 L 17.828125 51.886719 L 17.835938 51.84375 L 17.84375 51.804688 L 17.875 51.726562 L 17.898438 51.691406 L 17.921875 51.660156 L 17.949219 51.628906 L 17.980469 51.601562 L 18.015625 51.574219 L 18.050781 51.554688 L 18.089844 51.535156 L 18.167969 51.511719 L 18.210938 51.503906 Z M 19.144531 51.503906 "/>
<path style=" stroke:none;fill-rule:evenodd;fill:rgb(45.098039%,45.098039%,87.058824%);fill-opacity:1;" d="M 15.542969 51.503906 L 15.585938 51.511719 L 15.664062 51.535156 L 15.703125 51.554688 L 15.738281 51.574219 L 15.773438 51.601562 L 15.804688 51.628906 L 15.832031 51.660156 L 15.855469 51.691406 L 15.878906 51.726562 L 15.910156 51.804688 L 15.917969 51.84375 L 15.925781 51.886719 L 15.925781 55.65625 L 15.917969 55.695312 L 15.910156 55.738281 L 15.894531 55.777344 L 15.878906 55.8125 L 15.855469 55.851562 L 15.832031 55.882812 L 15.804688 55.914062 L 15.773438 55.941406 L 15.738281 55.96875 L 15.703125 55.988281 L 15.664062 56.007812 L 15.585938 56.03125 L 15.542969 56.035156 L 15.503906 56.039062 L 14.652344 56.039062 L 14.609375 56.035156 L 14.570312 56.03125 L 14.527344 56.019531 L 14.488281 56.007812 L 14.453125 55.988281 L 14.414062 55.96875 L 14.351562 55.914062 L 14.296875 55.851562 L 14.277344 55.8125 L 14.257812 55.777344 L 14.246094 55.738281 L 14.234375 55.695312 L 14.230469 55.65625 L 14.226562 55.613281 L 14.226562 51.929688 L 14.234375 51.84375 L 14.257812 51.765625 L 14.277344 51.726562 L 14.296875 51.691406 L 14.351562 51.628906 L 14.414062 51.574219 L 14.453125 51.554688 L 14.488281 51.535156 L 14.527344 51.523438 L 14.570312 51.511719 L 14.609375 51.503906 Z M 15.542969 51.503906 "/>
<path style=" stroke:none;fill-rule:evenodd;fill:rgb(45.098039%,45.098039%,87.058824%);fill-opacity:1;" d="M 11.945312 51.503906 L 11.984375 51.511719 L 12.027344 51.523438 L 12.066406 51.535156 L 12.136719 51.574219 L 12.171875 51.601562 L 12.203125 51.628906 L 12.230469 51.660156 L 12.253906 51.691406 L 12.277344 51.726562 L 12.296875 51.765625 L 12.320312 51.84375 L 12.328125 51.929688 L 12.328125 55.613281 L 12.324219 55.65625 L 12.320312 55.695312 L 12.308594 55.738281 L 12.296875 55.777344 L 12.277344 55.8125 L 12.253906 55.851562 L 12.230469 55.882812 L 12.203125 55.914062 L 12.171875 55.941406 L 12.136719 55.96875 L 12.066406 56.007812 L 12.027344 56.019531 L 11.984375 56.03125 L 11.945312 56.035156 L 11.902344 56.039062 L 11.050781 56.039062 L 11.011719 56.035156 L 10.96875 56.03125 L 10.890625 56.007812 L 10.851562 55.988281 L 10.816406 55.96875 L 10.78125 55.941406 L 10.75 55.914062 L 10.722656 55.882812 L 10.699219 55.851562 L 10.675781 55.8125 L 10.660156 55.777344 L 10.644531 55.738281 L 10.632812 55.695312 L 10.628906 55.65625 L 10.625 55.613281 L 10.625 51.929688 L 10.632812 51.84375 L 10.644531 51.804688 L 10.675781 51.726562 L 10.699219 51.691406 L 10.722656 51.660156 L 10.75 51.628906 L 10.78125 51.601562 L 10.816406 51.574219 L 10.851562 51.554688 L 10.890625 51.535156 L 10.96875 51.511719 L 11.011719 51.503906 Z M 11.945312 51.503906 "/>
<path style=" stroke:none;fill-rule:evenodd;fill:rgb(45.098039%,45.098039%,87.058824%);fill-opacity:1;" d="M 11.945312 31.097656 L 11.984375 31.101562 L 12.027344 31.113281 L 12.066406 31.125 L 12.136719 31.164062 L 12.171875 31.191406 L 12.203125 31.21875 L 12.230469 31.25 L 12.253906 31.28125 L 12.277344 31.320312 L 12.296875 31.355469 L 12.308594 31.394531 L 12.320312 31.4375 L 12.324219 31.476562 L 12.328125 31.519531 L 12.328125 35.203125 L 12.324219 35.246094 L 12.320312 35.285156 L 12.308594 35.328125 L 12.296875 35.367188 L 12.277344 35.40625 L 12.253906 35.441406 L 12.230469 35.472656 L 12.203125 35.503906 L 12.171875 35.53125 L 12.136719 35.558594 L 12.066406 35.597656 L 12.027344 35.609375 L 11.984375 35.621094 L 11.945312 35.628906 L 11.011719 35.628906 L 10.96875 35.621094 L 10.890625 35.597656 L 10.851562 35.578125 L 10.816406 35.558594 L 10.78125 35.53125 L 10.75 35.503906 L 10.722656 35.472656 L 10.699219 35.441406 L 10.675781 35.40625 L 10.644531 35.328125 L 10.632812 35.285156 L 10.628906 35.246094 L 10.625 35.203125 L 10.625 31.519531 L 10.628906 31.476562 L 10.632812 31.4375 L 10.644531 31.394531 L 10.660156 31.355469 L 10.675781 31.320312 L 10.699219 31.28125 L 10.722656 31.25 L 10.75 31.21875 L 10.78125 31.191406 L 10.816406 31.164062 L 10.851562 31.144531 L 10.890625 31.125 L 10.96875 31.101562 L 11.011719 31.097656 L 11.050781 31.09375 L 11.902344 31.09375 Z M 11.945312 31.097656 "/>
<path style=" stroke:none;fill-rule:evenodd;fill:rgb(45.098039%,45.098039%,87.058824%);fill-opacity:1;" d="M 15.542969 31.097656 L 15.585938 31.101562 L 15.664062 31.125 L 15.703125 31.144531 L 15.738281 31.164062 L 15.773438 31.191406 L 15.804688 31.21875 L 15.832031 31.25 L 15.855469 31.28125 L 15.878906 31.320312 L 15.894531 31.355469 L 15.910156 31.394531 L 15.917969 31.4375 L 15.925781 31.476562 L 15.925781 35.246094 L 15.917969 35.285156 L 15.910156 35.328125 L 15.878906 35.40625 L 15.855469 35.441406 L 15.832031 35.472656 L 15.804688 35.503906 L 15.773438 35.53125 L 15.738281 35.558594 L 15.703125 35.578125 L 15.664062 35.597656 L 15.585938 35.621094 L 15.542969 35.628906 L 14.609375 35.628906 L 14.570312 35.621094 L 14.527344 35.609375 L 14.488281 35.597656 L 14.453125 35.578125 L 14.414062 35.558594 L 14.351562 35.503906 L 14.296875 35.441406 L 14.277344 35.40625 L 14.257812 35.367188 L 14.246094 35.328125 L 14.234375 35.285156 L 14.230469 35.246094 L 14.226562 35.203125 L 14.226562 31.519531 L 14.230469 31.476562 L 14.234375 31.4375 L 14.246094 31.394531 L 14.257812 31.355469 L 14.277344 31.320312 L 14.296875 31.28125 L 14.351562 31.21875 L 14.414062 31.164062 L 14.453125 31.144531 L 14.488281 31.125 L 14.527344 31.113281 L 14.570312 31.101562 L 14.609375 31.097656 L 14.652344 31.09375 L 15.503906 31.09375 Z M 15.542969 31.097656 "/>
<path style=" stroke:none;fill-rule:evenodd;fill:rgb(45.098039%,45.098039%,87.058824%);fill-opacity:1;" d="M 19.144531 31.097656 L 19.183594 31.101562 L 19.226562 31.113281 L 19.265625 31.125 L 19.300781 31.144531 L 19.339844 31.164062 L 19.402344 31.21875 L 19.457031 31.28125 L 19.476562 31.320312 L 19.496094 31.355469 L 19.507812 31.394531 L 19.519531 31.4375 L 19.523438 31.476562 L 19.527344 31.519531 L 19.527344 35.203125 L 19.523438 35.246094 L 19.519531 35.285156 L 19.507812 35.328125 L 19.496094 35.367188 L 19.476562 35.40625 L 19.457031 35.441406 L 19.402344 35.503906 L 19.339844 35.558594 L 19.300781 35.578125 L 19.265625 35.597656 L 19.226562 35.609375 L 19.183594 35.621094 L 19.144531 35.628906 L 18.210938 35.628906 L 18.167969 35.621094 L 18.089844 35.597656 L 18.050781 35.578125 L 18.015625 35.558594 L 17.980469 35.53125 L 17.949219 35.503906 L 17.921875 35.472656 L 17.898438 35.441406 L 17.875 35.40625 L 17.84375 35.328125 L 17.835938 35.285156 L 17.828125 35.246094 L 17.828125 31.476562 L 17.835938 31.4375 L 17.84375 31.394531 L 17.859375 31.355469 L 17.875 31.320312 L 17.898438 31.28125 L 17.921875 31.25 L 17.949219 31.21875 L 17.980469 31.191406 L 18.015625 31.164062 L 18.050781 31.144531 L 18.089844 31.125 L 18.167969 31.101562 L 18.210938 31.097656 L 18.25 31.09375 L 19.101562 31.09375 Z M 19.144531 31.097656 "/>
<path style=" stroke:none;fill-rule:evenodd;fill:rgb(45.098039%,45.098039%,87.058824%);fill-opacity:1;" d="M 22.742188 31.097656 L 22.785156 31.101562 L 22.863281 31.125 L 22.902344 31.144531 L 22.9375 31.164062 L 22.972656 31.191406 L 23.003906 31.21875 L 23.03125 31.25 L 23.054688 31.28125 L 23.078125 31.320312 L 23.09375 31.355469 L 23.109375 31.394531 L 23.117188 31.4375 L 23.125 31.476562 L 23.128906 31.519531 L 23.128906 35.203125 L 23.125 35.246094 L 23.117188 35.285156 L 23.109375 35.328125 L 23.078125 35.40625 L 23.054688 35.441406 L 23.03125 35.472656 L 23.003906 35.503906 L 22.972656 35.53125 L 22.9375 35.558594 L 22.902344 35.578125 L 22.863281 35.597656 L 22.785156 35.621094 L 22.742188 35.628906 L 21.808594 35.628906 L 21.769531 35.621094 L 21.726562 35.609375 L 21.6875 35.597656 L 21.617188 35.558594 L 21.582031 35.53125 L 21.550781 35.503906 L 21.523438 35.472656 L 21.5 35.441406 L 21.476562 35.40625 L 21.457031 35.367188 L 21.445312 35.328125 L 21.433594 35.285156 L 21.429688 35.246094 L 21.425781 35.203125 L 21.425781 31.519531 L 21.429688 31.476562 L 21.433594 31.4375 L 21.445312 31.394531 L 21.457031 31.355469 L 21.476562 31.320312 L 21.5 31.28125 L 21.523438 31.25 L 21.550781 31.21875 L 21.582031 31.191406 L 21.617188 31.164062 L 21.6875 31.125 L 21.726562 31.113281 L 21.769531 31.101562 L 21.808594 31.097656 L 21.851562 31.09375 L 22.703125 31.09375 Z M 22.742188 31.097656 "/>
<path style=" stroke:none;fill-rule:evenodd;fill:rgb(45.098039%,45.098039%,87.058824%);fill-opacity:1;" d="M 19.582031 97.695312 L 19.652344 97.707031 L 19.71875 97.722656 L 19.785156 97.746094 L 19.847656 97.777344 L 19.90625 97.8125 L 19.960938 97.851562 L 20.011719 97.898438 L 20.058594 97.953125 L 20.101562 98.007812 L 20.136719 98.066406 L 20.167969 98.128906 L 20.191406 98.195312 L 20.207031 98.261719 L 20.21875 98.332031 L 20.222656 98.402344 L 20.222656 100.058594 L 20.21875 100.128906 L 20.207031 100.195312 L 20.191406 100.261719 L 20.167969 100.328125 L 20.136719 100.390625 L 20.101562 100.453125 L 20.058594 100.507812 L 20.011719 100.558594 L 19.960938 100.605469 L 19.90625 100.648438 L 19.847656 100.683594 L 19.785156 100.710938 L 19.71875 100.734375 L 19.652344 100.753906 L 19.582031 100.761719 L 19.511719 100.765625 L 17.855469 100.765625 L 17.785156 100.761719 L 17.71875 100.753906 L 17.648438 100.734375 L 17.585938 100.710938 L 17.523438 100.683594 L 17.460938 100.648438 L 17.40625 100.605469 L 17.355469 100.558594 L 17.308594 100.507812 L 17.265625 100.453125 L 17.230469 100.390625 L 17.199219 100.328125 L 17.175781 100.261719 L 17.160156 100.195312 L 17.152344 100.128906 L 17.148438 100.058594 L 17.148438 98.402344 L 17.152344 98.332031 L 17.160156 98.261719 L 17.175781 98.195312 L 17.199219 98.128906 L 17.230469 98.066406 L 17.265625 98.007812 L 17.308594 97.953125 L 17.355469 97.898438 L 17.40625 97.851562 L 17.460938 97.8125 L 17.523438 97.777344 L 17.585938 97.746094 L 17.648438 97.722656 L 17.71875 97.707031 L 17.785156 97.695312 L 17.855469 97.691406 L 19.511719 97.691406 Z M 19.582031 97.695312 "/>
<path style=" stroke:none;fill-rule:evenodd;fill:rgb(45.098039%,45.098039%,87.058824%);fill-opacity:1;" d="M 19.582031 94.082031 L 19.652344 94.089844 L 19.71875 94.109375 L 19.785156 94.132812 L 19.847656 94.160156 L 19.90625 94.199219 L 19.960938 94.238281 L 20.011719 94.285156 L 20.058594 94.335938 L 20.101562 94.394531 L 20.136719 94.453125 L 20.167969 94.515625 L 20.191406 94.582031 L 20.207031 94.648438 L 20.21875 94.71875 L 20.222656 94.785156 L 20.222656 96.445312 L 20.21875 96.511719 L 20.207031 96.582031 L 20.191406 96.648438 L 20.167969 96.714844 L 20.136719 96.777344 L 20.101562 96.835938 L 20.058594 96.894531 L 20.011719 96.945312 L 19.960938 96.992188 L 19.90625 97.03125 L 19.847656 97.070312 L 19.785156 97.097656 L 19.71875 97.121094 L 19.652344 97.136719 L 19.582031 97.148438 L 19.511719 97.152344 L 17.855469 97.152344 L 17.785156 97.148438 L 17.71875 97.136719 L 17.648438 97.121094 L 17.585938 97.097656 L 17.523438 97.070312 L 17.460938 97.03125 L 17.40625 96.992188 L 17.355469 96.945312 L 17.308594 96.894531 L 17.265625 96.835938 L 17.230469 96.777344 L 17.199219 96.714844 L 17.175781 96.648438 L 17.160156 96.582031 L 17.152344 96.511719 L 17.148438 96.445312 L 17.148438 94.785156 L 17.152344 94.71875 L 17.160156 94.648438 L 17.175781 94.582031 L 17.199219 94.515625 L 17.230469 94.453125 L 17.265625 94.394531 L 17.308594 94.335938 L 17.355469 94.285156 L 17.40625 94.238281 L 17.460938 94.199219 L 17.523438 94.160156 L 17.585938 94.132812 L 17.648438 94.109375 L 17.71875 94.089844 L 17.785156 94.082031 L 17.855469 94.078125 L 19.511719 94.078125 Z M 19.582031 94.082031 "/>
<path style=" stroke:none;fill-rule:evenodd;fill:rgb(45.098039%,45.098039%,87.058824%);fill-opacity:1;" d="M 15.96875 97.695312 L 16.035156 97.707031 L 16.105469 97.722656 L 16.167969 97.746094 L 16.230469 97.777344 L 16.292969 97.8125 L 16.347656 97.851562 L 16.398438 97.898438 L 16.445312 97.953125 L 16.488281 98.007812 L 16.523438 98.066406 L 16.554688 98.128906 L 16.578125 98.195312 L 16.59375 98.261719 L 16.601562 98.332031 L 16.605469 98.402344 L 16.605469 100.058594 L 16.601562 100.128906 L 16.59375 100.195312 L 16.578125 100.261719 L 16.554688 100.328125 L 16.523438 100.390625 L 16.488281 100.453125 L 16.445312 100.507812 L 16.398438 100.558594 L 16.347656 100.605469 L 16.292969 100.648438 L 16.230469 100.683594 L 16.167969 100.710938 L 16.105469 100.734375 L 16.035156 100.753906 L 15.96875 100.761719 L 15.898438 100.765625 L 14.242188 100.765625 L 14.171875 100.761719 L 14.101562 100.753906 L 14.035156 100.734375 L 13.96875 100.710938 L 13.90625 100.683594 L 13.847656 100.648438 L 13.792969 100.605469 L 13.742188 100.558594 L 13.695312 100.507812 L 13.652344 100.453125 L 13.617188 100.390625 L 13.585938 100.328125 L 13.5625 100.261719 L 13.546875 100.195312 L 13.535156 100.128906 L 13.53125 100.058594 L 13.53125 98.402344 L 13.535156 98.332031 L 13.546875 98.261719 L 13.5625 98.195312 L 13.585938 98.128906 L 13.617188 98.066406 L 13.652344 98.007812 L 13.695312 97.953125 L 13.742188 97.898438 L 13.792969 97.851562 L 13.847656 97.8125 L 13.90625 97.777344 L 13.96875 97.746094 L 14.035156 97.722656 L 14.101562 97.707031 L 14.171875 97.695312 L 14.242188 97.691406 L 15.898438 97.691406 Z M 15.96875 97.695312 "/>
<path style=" stroke:none;fill-rule:evenodd;fill:rgb(45.098039%,45.098039%,87.058824%);fill-opacity:1;" d="M 15.96875 94.082031 L 16.035156 94.089844 L 16.105469 94.109375 L 16.167969 94.132812 L 16.230469 94.160156 L 16.292969 94.199219 L 16.347656 94.238281 L 16.398438 94.285156 L 16.445312 94.335938 L 16.488281 94.394531 L 16.523438 94.453125 L 16.554688 94.515625 L 16.578125 94.582031 L 16.59375 94.648438 L 16.601562 94.71875 L 16.605469 94.785156 L 16.605469 96.445312 L 16.601562 96.511719 L 16.59375 96.582031 L 16.578125 96.648438 L 16.554688 96.714844 L 16.523438 96.777344 L 16.488281 96.835938 L 16.445312 96.894531 L 16.398438 96.945312 L 16.347656 96.992188 L 16.292969 97.03125 L 16.230469 97.070312 L 16.167969 97.097656 L 16.105469 97.121094 L 16.035156 97.136719 L 15.96875 97.148438 L 15.898438 97.152344 L 14.242188 97.152344 L 14.171875 97.148438 L 14.101562 97.136719 L 14.035156 97.121094 L 13.96875 97.097656 L 13.90625 97.070312 L 13.847656 97.03125 L 13.792969 96.992188 L 13.742188 96.945312 L 13.695312 96.894531 L 13.652344 96.835938 L 13.617188 96.777344 L 13.585938 96.714844 L 13.5625 96.648438 L 13.546875 96.582031 L 13.535156 96.511719 L 13.53125 96.445312 L 13.53125 94.785156 L 13.535156 94.71875 L 13.546875 94.648438 L 13.5625 94.582031 L 13.585938 94.515625 L 13.617188 94.453125 L 13.652344 94.394531 L 13.695312 94.335938 L 13.742188 94.285156 L 13.792969 94.238281 L 13.847656 94.199219 L 13.90625 94.160156 L 13.96875 94.132812 L 14.035156 94.109375 L 14.101562 94.089844 L 14.171875 94.082031 L 14.242188 94.078125 L 15.898438 94.078125 Z M 15.96875 94.082031 "/>
<path style=" stroke:none;fill-rule:evenodd;fill:rgb(45.098039%,45.098039%,87.058824%);fill-opacity:1;" d="M 27.734375 104.507812 L 27.746094 104.511719 L 27.761719 104.515625 L 27.773438 104.519531 L 27.785156 104.527344 L 27.796875 104.53125 L 27.808594 104.539062 L 27.820312 104.550781 L 27.828125 104.5625 L 27.835938 104.570312 L 27.84375 104.582031 L 27.851562 104.597656 L 27.859375 104.621094 L 27.859375 104.960938 L 27.855469 104.976562 L 27.851562 104.988281 L 27.820312 105.035156 L 27.773438 105.066406 L 27.761719 105.070312 L 27.746094 105.074219 L 25.496094 105.074219 L 25.480469 105.070312 L 25.46875 105.066406 L 25.421875 105.035156 L 25.390625 104.988281 L 25.386719 104.976562 L 25.382812 104.960938 L 25.382812 104.949219 L 25.378906 104.933594 L 25.378906 104.652344 L 25.382812 104.636719 L 25.382812 104.621094 L 25.390625 104.597656 L 25.398438 104.582031 L 25.40625 104.570312 L 25.414062 104.5625 L 25.421875 104.550781 L 25.433594 104.539062 L 25.445312 104.53125 L 25.457031 104.527344 L 25.46875 104.519531 L 25.480469 104.515625 L 25.496094 104.511719 L 25.507812 104.507812 Z M 27.734375 104.507812 "/>
<path style=" stroke:none;fill-rule:evenodd;fill:rgb(45.098039%,45.098039%,87.058824%);fill-opacity:1;" d="M 27.734375 103.375 L 27.746094 103.378906 L 27.761719 103.382812 L 27.785156 103.390625 L 27.808594 103.40625 L 27.828125 103.425781 L 27.851562 103.460938 L 27.855469 103.476562 L 27.859375 103.488281 L 27.859375 103.828125 L 27.855469 103.839844 L 27.851562 103.855469 L 27.828125 103.890625 L 27.808594 103.910156 L 27.785156 103.925781 L 27.773438 103.929688 L 27.761719 103.9375 L 27.746094 103.9375 L 27.734375 103.941406 L 25.507812 103.941406 L 25.496094 103.9375 L 25.480469 103.9375 L 25.46875 103.929688 L 25.457031 103.925781 L 25.433594 103.910156 L 25.414062 103.890625 L 25.390625 103.855469 L 25.386719 103.839844 L 25.382812 103.828125 L 25.382812 103.8125 L 25.378906 103.800781 L 25.378906 103.515625 L 25.382812 103.503906 L 25.382812 103.488281 L 25.386719 103.476562 L 25.390625 103.460938 L 25.414062 103.425781 L 25.433594 103.40625 L 25.457031 103.390625 L 25.480469 103.382812 L 25.496094 103.378906 L 25.507812 103.375 Z M 27.734375 103.375 "/>
<path style=" stroke:none;fill-rule:evenodd;fill:rgb(45.098039%,45.098039%,87.058824%);fill-opacity:1;" d="M 27.734375 102.242188 L 27.746094 102.242188 L 27.761719 102.246094 L 27.773438 102.25 L 27.820312 102.28125 L 27.851562 102.328125 L 27.855469 102.339844 L 27.859375 102.355469 L 27.859375 102.695312 L 27.851562 102.71875 L 27.84375 102.734375 L 27.828125 102.757812 L 27.808594 102.777344 L 27.785156 102.792969 L 27.761719 102.800781 L 27.746094 102.804688 L 27.734375 102.808594 L 25.507812 102.808594 L 25.496094 102.804688 L 25.480469 102.800781 L 25.457031 102.792969 L 25.433594 102.777344 L 25.414062 102.757812 L 25.398438 102.734375 L 25.390625 102.71875 L 25.382812 102.695312 L 25.382812 102.679688 L 25.378906 102.667969 L 25.378906 102.382812 L 25.382812 102.367188 L 25.382812 102.355469 L 25.386719 102.339844 L 25.390625 102.328125 L 25.421875 102.28125 L 25.46875 102.25 L 25.480469 102.246094 L 25.496094 102.242188 Z M 27.734375 102.242188 "/>
<path style=" stroke:none;fill-rule:evenodd;fill:rgb(45.098039%,45.098039%,87.058824%);fill-opacity:1;" d="M 27.734375 101.109375 L 27.746094 101.109375 L 27.761719 101.113281 L 27.773438 101.117188 L 27.820312 101.148438 L 27.851562 101.195312 L 27.855469 101.207031 L 27.859375 101.222656 L 27.859375 101.558594 L 27.855469 101.574219 L 27.851562 101.585938 L 27.820312 101.632812 L 27.773438 101.664062 L 27.761719 101.667969 L 27.746094 101.671875 L 27.734375 101.671875 L 27.71875 101.675781 L 25.523438 101.675781 L 25.507812 101.671875 L 25.496094 101.671875 L 25.480469 101.667969 L 25.46875 101.664062 L 25.421875 101.632812 L 25.390625 101.585938 L 25.386719 101.574219 L 25.382812 101.558594 L 25.382812 101.546875 L 25.378906 101.53125 L 25.378906 101.25 L 25.382812 101.234375 L 25.382812 101.222656 L 25.386719 101.207031 L 25.390625 101.195312 L 25.421875 101.148438 L 25.46875 101.117188 L 25.480469 101.113281 L 25.496094 101.109375 L 25.507812 101.109375 L 25.523438 101.105469 L 27.71875 101.105469 Z M 27.734375 101.109375 "/>
<path style=" stroke:none;fill-rule:evenodd;fill:rgb(45.098039%,45.098039%,87.058824%);fill-opacity:1;" d="M 27.734375 99.972656 L 27.746094 99.976562 L 27.761719 99.980469 L 27.785156 99.988281 L 27.808594 100.003906 L 27.828125 100.023438 L 27.84375 100.046875 L 27.851562 100.0625 L 27.859375 100.085938 L 27.859375 100.425781 L 27.855469 100.441406 L 27.851562 100.453125 L 27.820312 100.5 L 27.773438 100.53125 L 27.761719 100.535156 L 27.746094 100.539062 L 25.496094 100.539062 L 25.480469 100.535156 L 25.46875 100.53125 L 25.421875 100.5 L 25.390625 100.453125 L 25.386719 100.441406 L 25.382812 100.425781 L 25.382812 100.414062 L 25.378906 100.398438 L 25.378906 100.113281 L 25.382812 100.101562 L 25.382812 100.085938 L 25.390625 100.0625 L 25.398438 100.046875 L 25.414062 100.023438 L 25.433594 100.003906 L 25.457031 99.988281 L 25.480469 99.980469 L 25.496094 99.976562 L 25.507812 99.972656 Z M 27.734375 99.972656 "/>
<path style=" stroke:none;fill-rule:evenodd;fill:rgb(45.098039%,45.098039%,87.058824%);fill-opacity:1;" d="M 27.734375 98.839844 L 27.746094 98.84375 L 27.761719 98.84375 L 27.773438 98.851562 L 27.785156 98.855469 L 27.808594 98.871094 L 27.828125 98.890625 L 27.851562 98.925781 L 27.855469 98.941406 L 27.859375 98.953125 L 27.859375 99.292969 L 27.855469 99.304688 L 27.851562 99.320312 L 27.828125 99.355469 L 27.808594 99.375 L 27.785156 99.390625 L 27.761719 99.398438 L 27.746094 99.402344 L 27.734375 99.40625 L 25.507812 99.40625 L 25.496094 99.402344 L 25.480469 99.398438 L 25.457031 99.390625 L 25.433594 99.375 L 25.414062 99.355469 L 25.390625 99.320312 L 25.386719 99.304688 L 25.382812 99.292969 L 25.382812 99.277344 L 25.378906 99.265625 L 25.378906 98.980469 L 25.382812 98.96875 L 25.382812 98.953125 L 25.386719 98.941406 L 25.390625 98.925781 L 25.414062 98.890625 L 25.433594 98.871094 L 25.457031 98.855469 L 25.46875 98.851562 L 25.480469 98.84375 L 25.496094 98.84375 L 25.507812 98.839844 Z M 27.734375 98.839844 "/>
<path style=" stroke:none;fill-rule:evenodd;fill:rgb(45.098039%,45.098039%,87.058824%);fill-opacity:1;" d="M 27.734375 97.707031 L 27.746094 97.707031 L 27.761719 97.710938 L 27.773438 97.714844 L 27.820312 97.746094 L 27.851562 97.792969 L 27.855469 97.804688 L 27.859375 97.820312 L 27.859375 98.160156 L 27.851562 98.183594 L 27.84375 98.199219 L 27.828125 98.222656 L 27.808594 98.242188 L 27.785156 98.257812 L 27.761719 98.265625 L 27.746094 98.269531 L 27.734375 98.273438 L 25.507812 98.273438 L 25.496094 98.269531 L 25.480469 98.265625 L 25.457031 98.257812 L 25.433594 98.242188 L 25.414062 98.222656 L 25.398438 98.199219 L 25.390625 98.183594 L 25.382812 98.160156 L 25.382812 98.144531 L 25.378906 98.132812 L 25.378906 97.847656 L 25.382812 97.832031 L 25.382812 97.820312 L 25.386719 97.804688 L 25.390625 97.792969 L 25.421875 97.746094 L 25.46875 97.714844 L 25.480469 97.710938 L 25.496094 97.707031 Z M 27.734375 97.707031 "/>
<path style=" stroke:none;fill-rule:evenodd;fill:rgb(45.098039%,45.098039%,87.058824%);fill-opacity:1;" d="M 27.734375 96.574219 L 27.746094 96.574219 L 27.761719 96.578125 L 27.773438 96.582031 L 27.785156 96.589844 L 27.796875 96.59375 L 27.808594 96.605469 L 27.820312 96.613281 L 27.851562 96.660156 L 27.855469 96.671875 L 27.859375 96.6875 L 27.859375 97.023438 L 27.855469 97.039062 L 27.851562 97.050781 L 27.820312 97.097656 L 27.773438 97.128906 L 27.761719 97.132812 L 27.746094 97.136719 L 27.734375 97.136719 L 27.71875 97.140625 L 25.523438 97.140625 L 25.507812 97.136719 L 25.496094 97.136719 L 25.480469 97.132812 L 25.46875 97.128906 L 25.421875 97.097656 L 25.390625 97.050781 L 25.386719 97.039062 L 25.382812 97.023438 L 25.382812 97.011719 L 25.378906 96.996094 L 25.378906 96.714844 L 25.382812 96.699219 L 25.382812 96.6875 L 25.386719 96.671875 L 25.390625 96.660156 L 25.421875 96.613281 L 25.433594 96.605469 L 25.445312 96.59375 L 25.457031 96.589844 L 25.46875 96.582031 L 25.480469 96.578125 L 25.496094 96.574219 L 25.507812 96.574219 L 25.523438 96.570312 L 27.71875 96.570312 Z M 27.734375 96.574219 "/>
<path style=" stroke:none;fill-rule:evenodd;fill:rgb(45.098039%,45.098039%,87.058824%);fill-opacity:1;" d="M 27.734375 95.4375 L 27.746094 95.441406 L 27.761719 95.445312 L 27.785156 95.453125 L 27.808594 95.46875 L 27.828125 95.488281 L 27.84375 95.511719 L 27.851562 95.527344 L 27.859375 95.550781 L 27.859375 95.890625 L 27.855469 95.902344 L 27.851562 95.917969 L 27.820312 95.964844 L 27.785156 95.988281 L 27.773438 95.992188 L 27.761719 96 L 27.746094 96.003906 L 25.496094 96.003906 L 25.480469 96 L 25.46875 95.992188 L 25.457031 95.988281 L 25.421875 95.964844 L 25.390625 95.917969 L 25.386719 95.902344 L 25.382812 95.890625 L 25.382812 95.878906 L 25.378906 95.863281 L 25.378906 95.578125 L 25.382812 95.566406 L 25.382812 95.550781 L 25.390625 95.527344 L 25.398438 95.511719 L 25.414062 95.488281 L 25.433594 95.46875 L 25.457031 95.453125 L 25.480469 95.445312 L 25.496094 95.441406 L 25.507812 95.4375 Z M 27.734375 95.4375 "/>
<path style=" stroke:none;fill-rule:evenodd;fill:rgb(45.098039%,45.098039%,87.058824%);fill-opacity:1;" d="M 27.734375 94.304688 L 27.746094 94.308594 L 27.761719 94.308594 L 27.773438 94.316406 L 27.785156 94.320312 L 27.820312 94.34375 L 27.851562 94.390625 L 27.855469 94.40625 L 27.859375 94.417969 L 27.859375 94.757812 L 27.855469 94.769531 L 27.851562 94.785156 L 27.828125 94.820312 L 27.808594 94.839844 L 27.785156 94.855469 L 27.761719 94.863281 L 27.746094 94.867188 L 27.734375 94.871094 L 25.507812 94.871094 L 25.496094 94.867188 L 25.480469 94.863281 L 25.457031 94.855469 L 25.433594 94.839844 L 25.414062 94.820312 L 25.390625 94.785156 L 25.386719 94.769531 L 25.382812 94.757812 L 25.382812 94.742188 L 25.378906 94.730469 L 25.378906 94.445312 L 25.382812 94.433594 L 25.382812 94.417969 L 25.386719 94.40625 L 25.390625 94.390625 L 25.421875 94.34375 L 25.457031 94.320312 L 25.46875 94.316406 L 25.480469 94.308594 L 25.496094 94.308594 L 25.507812 94.304688 Z M 27.734375 94.304688 "/>
<path style=" stroke:none;fill-rule:evenodd;fill:rgb(45.098039%,45.098039%,87.058824%);fill-opacity:1;" d="M 27.734375 93.171875 L 27.746094 93.171875 L 27.761719 93.175781 L 27.773438 93.179688 L 27.820312 93.210938 L 27.851562 93.257812 L 27.855469 93.269531 L 27.859375 93.285156 L 27.859375 93.625 L 27.851562 93.648438 L 27.84375 93.664062 L 27.835938 93.675781 L 27.828125 93.683594 L 27.820312 93.695312 L 27.808594 93.703125 L 27.796875 93.714844 L 27.785156 93.71875 L 27.773438 93.726562 L 27.761719 93.730469 L 27.746094 93.734375 L 27.734375 93.738281 L 25.507812 93.738281 L 25.496094 93.734375 L 25.480469 93.730469 L 25.46875 93.726562 L 25.457031 93.71875 L 25.445312 93.714844 L 25.433594 93.703125 L 25.421875 93.695312 L 25.414062 93.683594 L 25.40625 93.675781 L 25.398438 93.664062 L 25.390625 93.648438 L 25.382812 93.625 L 25.382812 93.609375 L 25.378906 93.59375 L 25.378906 93.3125 L 25.382812 93.296875 L 25.382812 93.285156 L 25.386719 93.269531 L 25.390625 93.257812 L 25.421875 93.210938 L 25.46875 93.179688 L 25.480469 93.175781 L 25.496094 93.171875 Z M 27.734375 93.171875 "/>
<path style=" stroke:none;fill-rule:evenodd;fill:rgb(45.098039%,45.098039%,87.058824%);fill-opacity:1;" d="M 27.734375 92.035156 L 27.746094 92.039062 L 27.761719 92.042969 L 27.773438 92.046875 L 27.785156 92.054688 L 27.796875 92.058594 L 27.808594 92.070312 L 27.820312 92.078125 L 27.828125 92.089844 L 27.835938 92.097656 L 27.84375 92.109375 L 27.851562 92.125 L 27.855469 92.136719 L 27.859375 92.152344 L 27.859375 92.488281 L 27.855469 92.503906 L 27.851562 92.515625 L 27.820312 92.5625 L 27.773438 92.59375 L 27.761719 92.597656 L 27.746094 92.601562 L 25.496094 92.601562 L 25.480469 92.597656 L 25.46875 92.59375 L 25.421875 92.5625 L 25.390625 92.515625 L 25.386719 92.503906 L 25.382812 92.488281 L 25.382812 92.476562 L 25.378906 92.460938 L 25.378906 92.179688 L 25.382812 92.164062 L 25.382812 92.152344 L 25.386719 92.136719 L 25.390625 92.125 L 25.398438 92.109375 L 25.40625 92.097656 L 25.414062 92.089844 L 25.421875 92.078125 L 25.433594 92.070312 L 25.445312 92.058594 L 25.457031 92.054688 L 25.46875 92.046875 L 25.480469 92.042969 L 25.496094 92.039062 L 25.507812 92.035156 Z M 27.734375 92.035156 "/>
<path style=" stroke:none;fill-rule:evenodd;fill:rgb(45.098039%,45.098039%,87.058824%);fill-opacity:1;" d="M 27.734375 90.902344 L 27.746094 90.90625 L 27.761719 90.910156 L 27.785156 90.917969 L 27.808594 90.933594 L 27.828125 90.953125 L 27.851562 90.988281 L 27.855469 91.003906 L 27.859375 91.015625 L 27.859375 91.355469 L 27.855469 91.367188 L 27.851562 91.382812 L 27.820312 91.429688 L 27.785156 91.453125 L 27.773438 91.457031 L 27.761719 91.464844 L 27.746094 91.464844 L 27.734375 91.46875 L 25.507812 91.46875 L 25.496094 91.464844 L 25.480469 91.464844 L 25.46875 91.457031 L 25.457031 91.453125 L 25.421875 91.429688 L 25.390625 91.382812 L 25.386719 91.367188 L 25.382812 91.355469 L 25.382812 91.339844 L 25.378906 91.328125 L 25.378906 91.042969 L 25.382812 91.03125 L 25.382812 91.015625 L 25.386719 91.003906 L 25.390625 90.988281 L 25.414062 90.953125 L 25.433594 90.933594 L 25.457031 90.917969 L 25.480469 90.910156 L 25.496094 90.90625 L 25.507812 90.902344 Z M 27.734375 90.902344 "/>
<path style=" stroke:none;fill-rule:evenodd;fill:rgb(45.098039%,45.098039%,87.058824%);fill-opacity:1;" d="M 27.734375 89.769531 L 27.746094 89.769531 L 27.761719 89.773438 L 27.773438 89.78125 L 27.785156 89.785156 L 27.820312 89.808594 L 27.851562 89.855469 L 27.855469 89.871094 L 27.859375 89.882812 L 27.859375 90.222656 L 27.855469 90.234375 L 27.851562 90.25 L 27.828125 90.285156 L 27.808594 90.304688 L 27.785156 90.320312 L 27.761719 90.328125 L 27.746094 90.332031 L 27.734375 90.335938 L 25.507812 90.335938 L 25.496094 90.332031 L 25.480469 90.328125 L 25.457031 90.320312 L 25.433594 90.304688 L 25.414062 90.285156 L 25.390625 90.25 L 25.386719 90.234375 L 25.382812 90.222656 L 25.382812 90.207031 L 25.378906 90.195312 L 25.378906 89.910156 L 25.382812 89.898438 L 25.382812 89.882812 L 25.386719 89.871094 L 25.390625 89.855469 L 25.421875 89.808594 L 25.457031 89.785156 L 25.46875 89.78125 L 25.480469 89.773438 L 25.496094 89.769531 Z M 27.734375 89.769531 "/>
<path style=" stroke:none;fill-rule:evenodd;fill:rgb(45.098039%,45.098039%,87.058824%);fill-opacity:1;" d="M 24.402344 86.4375 L 24.417969 86.441406 L 24.441406 86.449219 L 24.457031 86.453125 L 24.480469 86.46875 L 24.488281 86.480469 L 24.5 86.488281 L 24.515625 86.511719 L 24.519531 86.527344 L 24.527344 86.550781 L 24.53125 86.566406 L 24.53125 88.789062 L 24.527344 88.804688 L 24.523438 88.816406 L 24.519531 88.832031 L 24.515625 88.84375 L 24.5 88.867188 L 24.488281 88.875 L 24.480469 88.886719 L 24.457031 88.902344 L 24.441406 88.90625 L 24.429688 88.914062 L 24.417969 88.914062 L 24.402344 88.917969 L 24.089844 88.917969 L 24.078125 88.914062 L 24.0625 88.914062 L 24.050781 88.90625 L 24.039062 88.902344 L 24.015625 88.886719 L 23.996094 88.867188 L 23.972656 88.832031 L 23.96875 88.816406 L 23.964844 88.804688 L 23.964844 86.550781 L 23.972656 86.527344 L 23.980469 86.511719 L 23.996094 86.488281 L 24.015625 86.46875 L 24.039062 86.453125 L 24.0625 86.445312 L 24.078125 86.441406 L 24.089844 86.4375 Z M 24.402344 86.4375 "/>
<path style=" stroke:none;fill-rule:evenodd;fill:rgb(45.098039%,45.098039%,87.058824%);fill-opacity:1;" d="M 23.269531 86.4375 L 23.28125 86.441406 L 23.296875 86.445312 L 23.320312 86.453125 L 23.34375 86.46875 L 23.363281 86.488281 L 23.378906 86.511719 L 23.386719 86.527344 L 23.394531 86.550781 L 23.394531 86.566406 L 23.398438 86.578125 L 23.398438 88.777344 L 23.394531 88.789062 L 23.394531 88.804688 L 23.390625 88.816406 L 23.386719 88.832031 L 23.363281 88.867188 L 23.34375 88.886719 L 23.320312 88.902344 L 23.308594 88.90625 L 23.296875 88.914062 L 23.28125 88.914062 L 23.269531 88.917969 L 22.957031 88.917969 L 22.945312 88.914062 L 22.929688 88.914062 L 22.917969 88.90625 L 22.90625 88.902344 L 22.882812 88.886719 L 22.863281 88.867188 L 22.839844 88.832031 L 22.835938 88.816406 L 22.832031 88.804688 L 22.832031 88.789062 L 22.828125 88.777344 L 22.828125 86.578125 L 22.832031 86.566406 L 22.832031 86.550781 L 22.839844 86.527344 L 22.847656 86.511719 L 22.863281 86.488281 L 22.882812 86.46875 L 22.90625 86.453125 L 22.929688 86.445312 L 22.945312 86.441406 L 22.957031 86.4375 Z M 23.269531 86.4375 "/>
<path style=" stroke:none;fill-rule:evenodd;fill:rgb(45.098039%,45.098039%,87.058824%);fill-opacity:1;" d="M 22.136719 86.4375 L 22.148438 86.441406 L 22.164062 86.445312 L 22.1875 86.453125 L 22.210938 86.46875 L 22.230469 86.488281 L 22.246094 86.511719 L 22.25 86.527344 L 22.257812 86.539062 L 22.261719 86.550781 L 22.261719 88.804688 L 22.257812 88.816406 L 22.25 88.832031 L 22.246094 88.84375 L 22.230469 88.867188 L 22.210938 88.886719 L 22.1875 88.902344 L 22.175781 88.90625 L 22.164062 88.914062 L 22.148438 88.914062 L 22.136719 88.917969 L 21.824219 88.917969 L 21.808594 88.914062 L 21.796875 88.914062 L 21.785156 88.90625 L 21.769531 88.902344 L 21.746094 88.886719 L 21.738281 88.875 L 21.726562 88.867188 L 21.710938 88.84375 L 21.707031 88.832031 L 21.703125 88.816406 L 21.699219 88.804688 L 21.695312 88.789062 L 21.695312 86.566406 L 21.699219 86.550781 L 21.707031 86.527344 L 21.710938 86.511719 L 21.726562 86.488281 L 21.738281 86.480469 L 21.746094 86.46875 L 21.769531 86.453125 L 21.785156 86.449219 L 21.808594 86.441406 L 21.824219 86.4375 Z M 22.136719 86.4375 "/>
<path style=" stroke:none;fill-rule:evenodd;fill:rgb(45.098039%,45.098039%,87.058824%);fill-opacity:1;" d="M 21 86.4375 L 21.015625 86.441406 L 21.027344 86.445312 L 21.042969 86.449219 L 21.054688 86.453125 L 21.078125 86.46875 L 21.085938 86.480469 L 21.097656 86.488281 L 21.113281 86.511719 L 21.117188 86.527344 L 21.125 86.550781 L 21.128906 86.566406 L 21.128906 88.789062 L 21.125 88.804688 L 21.121094 88.816406 L 21.117188 88.832031 L 21.113281 88.84375 L 21.097656 88.867188 L 21.085938 88.875 L 21.078125 88.886719 L 21.054688 88.902344 L 21.042969 88.90625 L 21.027344 88.914062 L 21.015625 88.914062 L 21 88.917969 L 20.691406 88.917969 L 20.675781 88.914062 L 20.664062 88.914062 L 20.648438 88.90625 L 20.636719 88.902344 L 20.613281 88.886719 L 20.59375 88.867188 L 20.578125 88.84375 L 20.574219 88.832031 L 20.566406 88.816406 L 20.566406 88.804688 L 20.5625 88.789062 L 20.5625 86.566406 L 20.566406 86.550781 L 20.566406 86.539062 L 20.574219 86.527344 L 20.578125 86.511719 L 20.59375 86.488281 L 20.613281 86.46875 L 20.636719 86.453125 L 20.648438 86.449219 L 20.664062 86.445312 L 20.675781 86.441406 L 20.691406 86.4375 Z M 21 86.4375 "/>
<path style=" stroke:none;fill-rule:evenodd;fill:rgb(45.098039%,45.098039%,87.058824%);fill-opacity:1;" d="M 19.867188 86.4375 L 19.882812 86.441406 L 19.90625 86.449219 L 19.921875 86.453125 L 19.933594 86.460938 L 19.972656 86.5 L 19.976562 86.511719 L 19.984375 86.527344 L 19.992188 86.550781 L 19.996094 86.566406 L 19.996094 88.789062 L 19.992188 88.804688 L 19.988281 88.816406 L 19.984375 88.832031 L 19.976562 88.84375 L 19.972656 88.855469 L 19.933594 88.894531 L 19.921875 88.902344 L 19.90625 88.90625 L 19.894531 88.914062 L 19.882812 88.914062 L 19.867188 88.917969 L 19.554688 88.917969 L 19.542969 88.914062 L 19.527344 88.914062 L 19.515625 88.90625 L 19.503906 88.902344 L 19.480469 88.886719 L 19.460938 88.867188 L 19.4375 88.832031 L 19.433594 88.816406 L 19.429688 88.804688 L 19.429688 86.550781 L 19.4375 86.527344 L 19.445312 86.511719 L 19.460938 86.488281 L 19.480469 86.46875 L 19.503906 86.453125 L 19.527344 86.445312 L 19.542969 86.441406 L 19.554688 86.4375 Z M 19.867188 86.4375 "/>
<path style=" stroke:none;fill-rule:evenodd;fill:rgb(45.098039%,45.098039%,87.058824%);fill-opacity:1;" d="M 18.734375 86.4375 L 18.746094 86.441406 L 18.761719 86.445312 L 18.785156 86.453125 L 18.808594 86.46875 L 18.828125 86.488281 L 18.84375 86.511719 L 18.851562 86.527344 L 18.859375 86.550781 L 18.859375 88.804688 L 18.855469 88.816406 L 18.851562 88.832031 L 18.828125 88.867188 L 18.808594 88.886719 L 18.785156 88.902344 L 18.773438 88.90625 L 18.761719 88.914062 L 18.746094 88.914062 L 18.734375 88.917969 L 18.421875 88.917969 L 18.410156 88.914062 L 18.394531 88.914062 L 18.382812 88.90625 L 18.371094 88.902344 L 18.355469 88.894531 L 18.316406 88.855469 L 18.3125 88.84375 L 18.304688 88.832031 L 18.300781 88.816406 L 18.296875 88.804688 L 18.292969 88.789062 L 18.292969 86.566406 L 18.296875 86.550781 L 18.304688 86.527344 L 18.3125 86.511719 L 18.316406 86.5 L 18.355469 86.460938 L 18.371094 86.453125 L 18.394531 86.445312 L 18.410156 86.441406 L 18.421875 86.4375 Z M 18.734375 86.4375 "/>
<path style=" stroke:none;fill-rule:evenodd;fill:rgb(45.098039%,45.098039%,87.058824%);fill-opacity:1;" d="M 17.597656 86.4375 L 17.613281 86.441406 L 17.625 86.445312 L 17.640625 86.449219 L 17.652344 86.453125 L 17.675781 86.46875 L 17.695312 86.488281 L 17.710938 86.511719 L 17.714844 86.527344 L 17.722656 86.539062 L 17.722656 86.550781 L 17.726562 86.566406 L 17.726562 88.789062 L 17.722656 88.804688 L 17.722656 88.816406 L 17.714844 88.832031 L 17.710938 88.84375 L 17.695312 88.867188 L 17.675781 88.886719 L 17.652344 88.902344 L 17.640625 88.90625 L 17.625 88.914062 L 17.613281 88.914062 L 17.597656 88.917969 L 17.289062 88.917969 L 17.273438 88.914062 L 17.261719 88.914062 L 17.246094 88.90625 L 17.234375 88.902344 L 17.210938 88.886719 L 17.203125 88.875 L 17.191406 88.867188 L 17.175781 88.84375 L 17.171875 88.832031 L 17.167969 88.816406 L 17.164062 88.804688 L 17.160156 88.789062 L 17.160156 86.566406 L 17.164062 86.550781 L 17.171875 86.527344 L 17.175781 86.511719 L 17.191406 86.488281 L 17.203125 86.480469 L 17.210938 86.46875 L 17.234375 86.453125 L 17.246094 86.449219 L 17.261719 86.445312 L 17.273438 86.441406 L 17.289062 86.4375 Z M 17.597656 86.4375 "/>
<path style=" stroke:none;fill-rule:evenodd;fill:rgb(45.098039%,45.098039%,87.058824%);fill-opacity:1;" d="M 16.464844 86.4375 L 16.480469 86.441406 L 16.492188 86.445312 L 16.507812 86.449219 L 16.519531 86.453125 L 16.542969 86.46875 L 16.550781 86.480469 L 16.5625 86.488281 L 16.578125 86.511719 L 16.582031 86.527344 L 16.589844 86.550781 L 16.59375 86.566406 L 16.59375 88.789062 L 16.589844 88.804688 L 16.585938 88.816406 L 16.582031 88.832031 L 16.578125 88.84375 L 16.5625 88.867188 L 16.550781 88.875 L 16.542969 88.886719 L 16.519531 88.902344 L 16.507812 88.90625 L 16.492188 88.914062 L 16.480469 88.914062 L 16.464844 88.917969 L 16.15625 88.917969 L 16.140625 88.914062 L 16.128906 88.914062 L 16.113281 88.90625 L 16.101562 88.902344 L 16.078125 88.886719 L 16.058594 88.867188 L 16.042969 88.84375 L 16.039062 88.832031 L 16.03125 88.816406 L 16.027344 88.804688 L 16.027344 86.550781 L 16.03125 86.539062 L 16.039062 86.527344 L 16.042969 86.511719 L 16.058594 86.488281 L 16.078125 86.46875 L 16.101562 86.453125 L 16.113281 86.449219 L 16.128906 86.445312 L 16.140625 86.441406 L 16.15625 86.4375 Z M 16.464844 86.4375 "/>
<path style=" stroke:none;fill-rule:evenodd;fill:rgb(45.098039%,45.098039%,87.058824%);fill-opacity:1;" d="M 15.332031 86.4375 L 15.34375 86.441406 L 15.359375 86.445312 L 15.382812 86.453125 L 15.398438 86.460938 L 15.4375 86.5 L 15.441406 86.511719 L 15.449219 86.527344 L 15.457031 86.550781 L 15.457031 86.566406 L 15.460938 86.578125 L 15.460938 88.777344 L 15.457031 88.789062 L 15.457031 88.804688 L 15.453125 88.816406 L 15.449219 88.832031 L 15.441406 88.84375 L 15.4375 88.855469 L 15.398438 88.894531 L 15.382812 88.902344 L 15.371094 88.90625 L 15.359375 88.914062 L 15.34375 88.914062 L 15.332031 88.917969 L 15.019531 88.917969 L 15.007812 88.914062 L 14.992188 88.914062 L 14.980469 88.90625 L 14.96875 88.902344 L 14.945312 88.886719 L 14.925781 88.867188 L 14.902344 88.832031 L 14.898438 88.816406 L 14.894531 88.804688 L 14.894531 86.550781 L 14.902344 86.527344 L 14.910156 86.511719 L 14.925781 86.488281 L 14.945312 86.46875 L 14.96875 86.453125 L 14.992188 86.445312 L 15.007812 86.441406 L 15.019531 86.4375 Z M 15.332031 86.4375 "/>
<path style=" stroke:none;fill-rule:evenodd;fill:rgb(45.098039%,45.098039%,87.058824%);fill-opacity:1;" d="M 14.199219 86.4375 L 14.210938 86.441406 L 14.226562 86.445312 L 14.25 86.453125 L 14.273438 86.46875 L 14.292969 86.488281 L 14.308594 86.511719 L 14.316406 86.527344 L 14.324219 86.550781 L 14.324219 88.804688 L 14.320312 88.816406 L 14.316406 88.832031 L 14.292969 88.867188 L 14.273438 88.886719 L 14.25 88.902344 L 14.238281 88.90625 L 14.226562 88.914062 L 14.210938 88.914062 L 14.199219 88.917969 L 13.886719 88.917969 L 13.871094 88.914062 L 13.859375 88.914062 L 13.847656 88.90625 L 13.832031 88.902344 L 13.820312 88.894531 L 13.800781 88.875 L 13.789062 88.867188 L 13.78125 88.855469 L 13.777344 88.84375 L 13.769531 88.832031 L 13.765625 88.816406 L 13.761719 88.804688 L 13.757812 88.789062 L 13.757812 86.566406 L 13.761719 86.550781 L 13.769531 86.527344 L 13.777344 86.511719 L 13.78125 86.5 L 13.789062 86.488281 L 13.800781 86.480469 L 13.820312 86.460938 L 13.832031 86.453125 L 13.847656 86.449219 L 13.871094 86.441406 L 13.886719 86.4375 Z M 14.199219 86.4375 "/>
<path style=" stroke:none;fill-rule:evenodd;fill:rgb(45.098039%,45.098039%,87.058824%);fill-opacity:1;" d="M 13.0625 86.4375 L 13.078125 86.441406 L 13.089844 86.445312 L 13.105469 86.449219 L 13.117188 86.453125 L 13.140625 86.46875 L 13.148438 86.480469 L 13.160156 86.488281 L 13.175781 86.511719 L 13.179688 86.527344 L 13.1875 86.539062 L 13.1875 86.550781 L 13.191406 86.566406 L 13.191406 88.789062 L 13.1875 88.804688 L 13.1875 88.816406 L 13.179688 88.832031 L 13.175781 88.84375 L 13.160156 88.867188 L 13.148438 88.875 L 13.140625 88.886719 L 13.117188 88.902344 L 13.105469 88.90625 L 13.089844 88.914062 L 13.078125 88.914062 L 13.0625 88.917969 L 12.753906 88.917969 L 12.738281 88.914062 L 12.726562 88.914062 L 12.710938 88.90625 L 12.699219 88.902344 L 12.675781 88.886719 L 12.667969 88.875 L 12.65625 88.867188 L 12.640625 88.84375 L 12.636719 88.832031 L 12.632812 88.816406 L 12.628906 88.804688 L 12.625 88.789062 L 12.625 86.566406 L 12.628906 86.550781 L 12.636719 86.527344 L 12.640625 86.511719 L 12.65625 86.488281 L 12.667969 86.480469 L 12.675781 86.46875 L 12.699219 86.453125 L 12.710938 86.449219 L 12.726562 86.445312 L 12.738281 86.441406 L 12.753906 86.4375 Z M 13.0625 86.4375 "/>
<path style=" stroke:none;fill-rule:evenodd;fill:rgb(45.098039%,45.098039%,87.058824%);fill-opacity:1;" d="M 11.929688 86.4375 L 11.945312 86.441406 L 11.96875 86.449219 L 11.984375 86.453125 L 12.007812 86.46875 L 12.015625 86.480469 L 12.027344 86.488281 L 12.042969 86.511719 L 12.046875 86.527344 L 12.054688 86.550781 L 12.058594 86.566406 L 12.058594 88.789062 L 12.054688 88.804688 L 12.050781 88.816406 L 12.046875 88.832031 L 12.042969 88.84375 L 12.027344 88.867188 L 12.015625 88.875 L 12.007812 88.886719 L 11.984375 88.902344 L 11.96875 88.90625 L 11.957031 88.914062 L 11.945312 88.914062 L 11.929688 88.917969 L 11.617188 88.917969 L 11.605469 88.914062 L 11.589844 88.914062 L 11.578125 88.90625 L 11.566406 88.902344 L 11.542969 88.886719 L 11.523438 88.867188 L 11.5 88.832031 L 11.496094 88.816406 L 11.492188 88.804688 L 11.492188 86.550781 L 11.5 86.527344 L 11.507812 86.511719 L 11.523438 86.488281 L 11.542969 86.46875 L 11.566406 86.453125 L 11.589844 86.445312 L 11.605469 86.441406 L 11.617188 86.4375 Z M 11.929688 86.4375 "/>
<path style=" stroke:none;fill-rule:evenodd;fill:rgb(45.098039%,45.098039%,87.058824%);fill-opacity:1;" d="M 10.796875 86.4375 L 10.808594 86.441406 L 10.824219 86.445312 L 10.847656 86.453125 L 10.871094 86.46875 L 10.890625 86.488281 L 10.90625 86.511719 L 10.914062 86.527344 L 10.921875 86.550781 L 10.921875 86.566406 L 10.925781 86.578125 L 10.925781 88.777344 L 10.921875 88.789062 L 10.921875 88.804688 L 10.917969 88.816406 L 10.914062 88.832031 L 10.890625 88.867188 L 10.871094 88.886719 L 10.847656 88.902344 L 10.835938 88.90625 L 10.824219 88.914062 L 10.808594 88.914062 L 10.796875 88.917969 L 10.484375 88.917969 L 10.472656 88.914062 L 10.457031 88.914062 L 10.445312 88.90625 L 10.433594 88.902344 L 10.410156 88.886719 L 10.390625 88.867188 L 10.367188 88.832031 L 10.363281 88.816406 L 10.359375 88.804688 L 10.359375 88.789062 L 10.355469 88.777344 L 10.355469 86.578125 L 10.359375 86.566406 L 10.359375 86.550781 L 10.367188 86.527344 L 10.375 86.511719 L 10.390625 86.488281 L 10.410156 86.46875 L 10.433594 86.453125 L 10.457031 86.445312 L 10.472656 86.441406 L 10.484375 86.4375 Z M 10.796875 86.4375 "/>
<path style=" stroke:none;fill-rule:evenodd;fill:rgb(45.098039%,45.098039%,87.058824%);fill-opacity:1;" d="M 9.664062 86.4375 L 9.675781 86.441406 L 9.691406 86.445312 L 9.714844 86.453125 L 9.738281 86.46875 L 9.757812 86.488281 L 9.773438 86.511719 L 9.78125 86.527344 L 9.789062 86.550781 L 9.789062 88.804688 L 9.785156 88.816406 L 9.78125 88.832031 L 9.757812 88.867188 L 9.738281 88.886719 L 9.714844 88.902344 L 9.703125 88.90625 L 9.691406 88.914062 L 9.675781 88.914062 L 9.664062 88.917969 L 9.351562 88.917969 L 9.335938 88.914062 L 9.324219 88.914062 L 9.3125 88.90625 L 9.296875 88.902344 L 9.273438 88.886719 L 9.265625 88.875 L 9.253906 88.867188 L 9.238281 88.84375 L 9.234375 88.832031 L 9.230469 88.816406 L 9.226562 88.804688 L 9.222656 88.789062 L 9.222656 86.566406 L 9.226562 86.550781 L 9.234375 86.527344 L 9.238281 86.511719 L 9.253906 86.488281 L 9.265625 86.480469 L 9.273438 86.46875 L 9.296875 86.453125 L 9.3125 86.449219 L 9.335938 86.441406 L 9.351562 86.4375 Z M 9.664062 86.4375 "/>
<path style=" stroke:none;fill-rule:evenodd;fill:rgb(45.098039%,45.098039%,87.058824%);fill-opacity:1;" d="M 8.246094 89.769531 L 8.257812 89.769531 L 8.273438 89.773438 L 8.285156 89.78125 L 8.296875 89.785156 L 8.332031 89.808594 L 8.363281 89.855469 L 8.367188 89.871094 L 8.371094 89.882812 L 8.371094 90.222656 L 8.367188 90.234375 L 8.363281 90.25 L 8.339844 90.285156 L 8.320312 90.304688 L 8.296875 90.320312 L 8.273438 90.328125 L 8.257812 90.332031 L 8.246094 90.335938 L 6.019531 90.335938 L 6.007812 90.332031 L 5.992188 90.328125 L 5.96875 90.320312 L 5.945312 90.304688 L 5.925781 90.285156 L 5.902344 90.25 L 5.898438 90.234375 L 5.894531 90.222656 L 5.894531 89.882812 L 5.898438 89.871094 L 5.902344 89.855469 L 5.933594 89.808594 L 5.96875 89.785156 L 5.980469 89.78125 L 5.992188 89.773438 L 6.007812 89.769531 Z M 8.246094 89.769531 "/>
<path style=" stroke:none;fill-rule:evenodd;fill:rgb(45.098039%,45.098039%,87.058824%);fill-opacity:1;" d="M 8.246094 90.902344 L 8.257812 90.90625 L 8.273438 90.910156 L 8.296875 90.917969 L 8.320312 90.933594 L 8.339844 90.953125 L 8.363281 90.988281 L 8.367188 91.003906 L 8.371094 91.015625 L 8.371094 91.355469 L 8.367188 91.367188 L 8.363281 91.382812 L 8.332031 91.429688 L 8.296875 91.453125 L 8.285156 91.457031 L 8.273438 91.464844 L 8.257812 91.464844 L 8.246094 91.46875 L 6.019531 91.46875 L 6.007812 91.464844 L 5.992188 91.464844 L 5.980469 91.457031 L 5.96875 91.453125 L 5.933594 91.429688 L 5.902344 91.382812 L 5.898438 91.367188 L 5.894531 91.355469 L 5.894531 91.015625 L 5.898438 91.003906 L 5.902344 90.988281 L 5.925781 90.953125 L 5.945312 90.933594 L 5.96875 90.917969 L 5.992188 90.910156 L 6.007812 90.90625 L 6.019531 90.902344 Z M 8.246094 90.902344 "/>
<path style=" stroke:none;fill-rule:evenodd;fill:rgb(45.098039%,45.098039%,87.058824%);fill-opacity:1;" d="M 8.246094 92.035156 L 8.257812 92.039062 L 8.273438 92.042969 L 8.285156 92.046875 L 8.296875 92.054688 L 8.308594 92.058594 L 8.320312 92.070312 L 8.332031 92.078125 L 8.339844 92.089844 L 8.347656 92.097656 L 8.355469 92.109375 L 8.363281 92.125 L 8.367188 92.136719 L 8.371094 92.152344 L 8.371094 92.488281 L 8.367188 92.503906 L 8.363281 92.515625 L 8.332031 92.5625 L 8.285156 92.59375 L 8.273438 92.597656 L 8.257812 92.601562 L 6.007812 92.601562 L 5.992188 92.597656 L 5.980469 92.59375 L 5.933594 92.5625 L 5.902344 92.515625 L 5.898438 92.503906 L 5.894531 92.488281 L 5.894531 92.152344 L 5.898438 92.136719 L 5.902344 92.125 L 5.910156 92.109375 L 5.917969 92.097656 L 5.925781 92.089844 L 5.933594 92.078125 L 5.945312 92.070312 L 5.957031 92.058594 L 5.96875 92.054688 L 5.980469 92.046875 L 5.992188 92.042969 L 6.007812 92.039062 L 6.019531 92.035156 Z M 8.246094 92.035156 "/>
<path style=" stroke:none;fill-rule:evenodd;fill:rgb(45.098039%,45.098039%,87.058824%);fill-opacity:1;" d="M 8.246094 93.171875 L 8.257812 93.171875 L 8.273438 93.175781 L 8.285156 93.179688 L 8.332031 93.210938 L 8.363281 93.257812 L 8.367188 93.269531 L 8.371094 93.285156 L 8.371094 93.625 L 8.363281 93.648438 L 8.355469 93.664062 L 8.347656 93.675781 L 8.339844 93.683594 L 8.332031 93.695312 L 8.320312 93.703125 L 8.308594 93.714844 L 8.296875 93.71875 L 8.285156 93.726562 L 8.273438 93.730469 L 8.257812 93.734375 L 8.246094 93.738281 L 6.019531 93.738281 L 6.007812 93.734375 L 5.992188 93.730469 L 5.980469 93.726562 L 5.96875 93.71875 L 5.957031 93.714844 L 5.945312 93.703125 L 5.933594 93.695312 L 5.925781 93.683594 L 5.917969 93.675781 L 5.910156 93.664062 L 5.902344 93.648438 L 5.894531 93.625 L 5.894531 93.285156 L 5.898438 93.269531 L 5.902344 93.257812 L 5.933594 93.210938 L 5.980469 93.179688 L 5.992188 93.175781 L 6.007812 93.171875 Z M 8.246094 93.171875 "/>
<path style=" stroke:none;fill-rule:evenodd;fill:rgb(45.098039%,45.098039%,87.058824%);fill-opacity:1;" d="M 8.246094 94.304688 L 8.257812 94.308594 L 8.273438 94.308594 L 8.285156 94.316406 L 8.296875 94.320312 L 8.332031 94.34375 L 8.363281 94.390625 L 8.367188 94.40625 L 8.371094 94.417969 L 8.371094 94.757812 L 8.367188 94.769531 L 8.363281 94.785156 L 8.339844 94.820312 L 8.320312 94.839844 L 8.296875 94.855469 L 8.273438 94.863281 L 8.257812 94.867188 L 8.246094 94.871094 L 6.019531 94.871094 L 6.007812 94.867188 L 5.992188 94.863281 L 5.96875 94.855469 L 5.945312 94.839844 L 5.925781 94.820312 L 5.902344 94.785156 L 5.898438 94.769531 L 5.894531 94.757812 L 5.894531 94.417969 L 5.898438 94.40625 L 5.902344 94.390625 L 5.933594 94.34375 L 5.96875 94.320312 L 5.980469 94.316406 L 5.992188 94.308594 L 6.007812 94.308594 L 6.019531 94.304688 Z M 8.246094 94.304688 "/>
<path style=" stroke:none;fill-rule:evenodd;fill:rgb(45.098039%,45.098039%,87.058824%);fill-opacity:1;" d="M 8.246094 95.4375 L 8.257812 95.441406 L 8.273438 95.445312 L 8.296875 95.453125 L 8.320312 95.46875 L 8.339844 95.488281 L 8.355469 95.511719 L 8.363281 95.527344 L 8.371094 95.550781 L 8.371094 95.890625 L 8.367188 95.902344 L 8.363281 95.917969 L 8.332031 95.964844 L 8.296875 95.988281 L 8.285156 95.992188 L 8.273438 96 L 8.257812 96.003906 L 6.007812 96.003906 L 5.992188 96 L 5.980469 95.992188 L 5.96875 95.988281 L 5.933594 95.964844 L 5.902344 95.917969 L 5.898438 95.902344 L 5.894531 95.890625 L 5.894531 95.550781 L 5.902344 95.527344 L 5.910156 95.511719 L 5.925781 95.488281 L 5.945312 95.46875 L 5.96875 95.453125 L 5.992188 95.445312 L 6.007812 95.441406 L 6.019531 95.4375 Z M 8.246094 95.4375 "/>
<path style=" stroke:none;fill-rule:evenodd;fill:rgb(45.098039%,45.098039%,87.058824%);fill-opacity:1;" d="M 8.246094 96.574219 L 8.257812 96.574219 L 8.273438 96.578125 L 8.285156 96.582031 L 8.296875 96.589844 L 8.308594 96.59375 L 8.320312 96.605469 L 8.332031 96.613281 L 8.363281 96.660156 L 8.367188 96.671875 L 8.371094 96.6875 L 8.371094 97.023438 L 8.367188 97.039062 L 8.363281 97.050781 L 8.332031 97.097656 L 8.285156 97.128906 L 8.273438 97.132812 L 8.257812 97.136719 L 8.246094 97.136719 L 8.230469 97.140625 L 6.035156 97.140625 L 6.019531 97.136719 L 6.007812 97.136719 L 5.992188 97.132812 L 5.980469 97.128906 L 5.933594 97.097656 L 5.902344 97.050781 L 5.898438 97.039062 L 5.894531 97.023438 L 5.894531 96.6875 L 5.898438 96.671875 L 5.902344 96.660156 L 5.933594 96.613281 L 5.945312 96.605469 L 5.957031 96.59375 L 5.96875 96.589844 L 5.980469 96.582031 L 5.992188 96.578125 L 6.007812 96.574219 L 6.019531 96.574219 L 6.035156 96.570312 L 8.230469 96.570312 Z M 8.246094 96.574219 "/>
<path style=" stroke:none;fill-rule:evenodd;fill:rgb(45.098039%,45.098039%,87.058824%);fill-opacity:1;" d="M 8.246094 97.707031 L 8.257812 97.707031 L 8.273438 97.710938 L 8.285156 97.714844 L 8.332031 97.746094 L 8.363281 97.792969 L 8.367188 97.804688 L 8.371094 97.820312 L 8.371094 98.160156 L 8.363281 98.183594 L 8.355469 98.199219 L 8.339844 98.222656 L 8.320312 98.242188 L 8.296875 98.257812 L 8.273438 98.265625 L 8.257812 98.269531 L 8.246094 98.273438 L 6.019531 98.273438 L 6.007812 98.269531 L 5.992188 98.265625 L 5.96875 98.257812 L 5.945312 98.242188 L 5.925781 98.222656 L 5.910156 98.199219 L 5.902344 98.183594 L 5.894531 98.160156 L 5.894531 97.820312 L 5.898438 97.804688 L 5.902344 97.792969 L 5.933594 97.746094 L 5.980469 97.714844 L 5.992188 97.710938 L 6.007812 97.707031 Z M 8.246094 97.707031 "/>
<path style=" stroke:none;fill-rule:evenodd;fill:rgb(45.098039%,45.098039%,87.058824%);fill-opacity:1;" d="M 8.246094 98.839844 L 8.257812 98.84375 L 8.273438 98.84375 L 8.285156 98.851562 L 8.296875 98.855469 L 8.320312 98.871094 L 8.339844 98.890625 L 8.363281 98.925781 L 8.367188 98.941406 L 8.371094 98.953125 L 8.371094 99.292969 L 8.367188 99.304688 L 8.363281 99.320312 L 8.339844 99.355469 L 8.320312 99.375 L 8.296875 99.390625 L 8.273438 99.398438 L 8.257812 99.402344 L 8.246094 99.40625 L 6.019531 99.40625 L 6.007812 99.402344 L 5.992188 99.398438 L 5.96875 99.390625 L 5.945312 99.375 L 5.925781 99.355469 L 5.902344 99.320312 L 5.898438 99.304688 L 5.894531 99.292969 L 5.894531 98.953125 L 5.898438 98.941406 L 5.902344 98.925781 L 5.925781 98.890625 L 5.945312 98.871094 L 5.96875 98.855469 L 5.980469 98.851562 L 5.992188 98.84375 L 6.007812 98.84375 L 6.019531 98.839844 Z M 8.246094 98.839844 "/>
<path style=" stroke:none;fill-rule:evenodd;fill:rgb(45.098039%,45.098039%,87.058824%);fill-opacity:1;" d="M 8.246094 99.972656 L 8.257812 99.976562 L 8.273438 99.980469 L 8.296875 99.988281 L 8.320312 100.003906 L 8.339844 100.023438 L 8.355469 100.046875 L 8.363281 100.0625 L 8.371094 100.085938 L 8.371094 100.425781 L 8.367188 100.441406 L 8.363281 100.453125 L 8.332031 100.5 L 8.285156 100.53125 L 8.273438 100.535156 L 8.257812 100.539062 L 6.007812 100.539062 L 5.992188 100.535156 L 5.980469 100.53125 L 5.933594 100.5 L 5.902344 100.453125 L 5.898438 100.441406 L 5.894531 100.425781 L 5.894531 100.085938 L 5.902344 100.0625 L 5.910156 100.046875 L 5.925781 100.023438 L 5.945312 100.003906 L 5.96875 99.988281 L 5.992188 99.980469 L 6.007812 99.976562 L 6.019531 99.972656 Z M 8.246094 99.972656 "/>
<path style=" stroke:none;fill-rule:evenodd;fill:rgb(45.098039%,45.098039%,87.058824%);fill-opacity:1;" d="M 8.246094 101.109375 L 8.257812 101.109375 L 8.273438 101.113281 L 8.285156 101.117188 L 8.332031 101.148438 L 8.363281 101.195312 L 8.367188 101.207031 L 8.371094 101.222656 L 8.371094 101.558594 L 8.367188 101.574219 L 8.363281 101.585938 L 8.332031 101.632812 L 8.285156 101.664062 L 8.273438 101.667969 L 8.257812 101.671875 L 8.246094 101.671875 L 8.230469 101.675781 L 6.035156 101.675781 L 6.019531 101.671875 L 6.007812 101.671875 L 5.992188 101.667969 L 5.980469 101.664062 L 5.933594 101.632812 L 5.902344 101.585938 L 5.898438 101.574219 L 5.894531 101.558594 L 5.894531 101.222656 L 5.898438 101.207031 L 5.902344 101.195312 L 5.933594 101.148438 L 5.980469 101.117188 L 5.992188 101.113281 L 6.007812 101.109375 L 6.019531 101.109375 L 6.035156 101.105469 L 8.230469 101.105469 Z M 8.246094 101.109375 "/>
<path style=" stroke:none;fill-rule:evenodd;fill:rgb(45.098039%,45.098039%,87.058824%);fill-opacity:1;" d="M 8.246094 102.242188 L 8.257812 102.242188 L 8.273438 102.246094 L 8.285156 102.25 L 8.332031 102.28125 L 8.363281 102.328125 L 8.367188 102.339844 L 8.371094 102.355469 L 8.371094 102.695312 L 8.363281 102.71875 L 8.355469 102.734375 L 8.339844 102.757812 L 8.320312 102.777344 L 8.296875 102.792969 L 8.273438 102.800781 L 8.257812 102.804688 L 8.246094 102.808594 L 6.019531 102.808594 L 6.007812 102.804688 L 5.992188 102.800781 L 5.96875 102.792969 L 5.945312 102.777344 L 5.925781 102.757812 L 5.910156 102.734375 L 5.902344 102.71875 L 5.894531 102.695312 L 5.894531 102.355469 L 5.898438 102.339844 L 5.902344 102.328125 L 5.933594 102.28125 L 5.980469 102.25 L 5.992188 102.246094 L 6.007812 102.242188 Z M 8.246094 102.242188 "/>
<path style=" stroke:none;fill-rule:evenodd;fill:rgb(45.098039%,45.098039%,87.058824%);fill-opacity:1;" d="M 8.246094 103.375 L 8.257812 103.378906 L 8.273438 103.382812 L 8.296875 103.390625 L 8.320312 103.40625 L 8.339844 103.425781 L 8.363281 103.460938 L 8.367188 103.476562 L 8.371094 103.488281 L 8.371094 103.828125 L 8.367188 103.839844 L 8.363281 103.855469 L 8.339844 103.890625 L 8.320312 103.910156 L 8.296875 103.925781 L 8.285156 103.929688 L 8.273438 103.9375 L 8.257812 103.9375 L 8.246094 103.941406 L 6.019531 103.941406 L 6.007812 103.9375 L 5.992188 103.9375 L 5.980469 103.929688 L 5.96875 103.925781 L 5.945312 103.910156 L 5.925781 103.890625 L 5.902344 103.855469 L 5.898438 103.839844 L 5.894531 103.828125 L 5.894531 103.488281 L 5.898438 103.476562 L 5.902344 103.460938 L 5.925781 103.425781 L 5.945312 103.40625 L 5.96875 103.390625 L 5.992188 103.382812 L 6.007812 103.378906 L 6.019531 103.375 Z M 8.246094 103.375 "/>
<path style=" stroke:none;fill-rule:evenodd;fill:rgb(45.098039%,45.098039%,87.058824%);fill-opacity:1;" d="M 8.246094 104.507812 L 8.257812 104.511719 L 8.273438 104.515625 L 8.285156 104.519531 L 8.296875 104.527344 L 8.308594 104.53125 L 8.320312 104.539062 L 8.332031 104.550781 L 8.339844 104.5625 L 8.347656 104.570312 L 8.355469 104.582031 L 8.363281 104.597656 L 8.371094 104.621094 L 8.371094 104.960938 L 8.367188 104.976562 L 8.363281 104.988281 L 8.332031 105.035156 L 8.285156 105.066406 L 8.273438 105.070312 L 8.257812 105.074219 L 6.007812 105.074219 L 5.992188 105.070312 L 5.980469 105.066406 L 5.933594 105.035156 L 5.902344 104.988281 L 5.898438 104.976562 L 5.894531 104.960938 L 5.894531 104.621094 L 5.902344 104.597656 L 5.910156 104.582031 L 5.917969 104.570312 L 5.925781 104.5625 L 5.933594 104.550781 L 5.945312 104.539062 L 5.957031 104.53125 L 5.96875 104.527344 L 5.980469 104.519531 L 5.992188 104.515625 L 6.007812 104.511719 L 6.019531 104.507812 Z M 8.246094 104.507812 "/>
<path style=" stroke:none;fill-rule:evenodd;fill:rgb(45.098039%,45.098039%,87.058824%);fill-opacity:1;" d="M 9.664062 105.925781 L 9.675781 105.929688 L 9.691406 105.933594 L 9.714844 105.941406 L 9.738281 105.957031 L 9.757812 105.976562 L 9.78125 106.011719 L 9.785156 106.027344 L 9.789062 106.039062 L 9.789062 108.292969 L 9.785156 108.304688 L 9.78125 108.320312 L 9.757812 108.355469 L 9.738281 108.375 L 9.714844 108.390625 L 9.691406 108.398438 L 9.675781 108.402344 L 9.664062 108.40625 L 9.351562 108.40625 L 9.335938 108.402344 L 9.3125 108.394531 L 9.296875 108.390625 L 9.273438 108.375 L 9.265625 108.363281 L 9.253906 108.355469 L 9.238281 108.332031 L 9.234375 108.320312 L 9.230469 108.304688 L 9.226562 108.292969 L 9.222656 108.277344 L 9.222656 106.054688 L 9.226562 106.039062 L 9.230469 106.027344 L 9.234375 106.011719 L 9.238281 106 L 9.253906 105.976562 L 9.265625 105.96875 L 9.273438 105.957031 L 9.296875 105.941406 L 9.3125 105.9375 L 9.335938 105.929688 L 9.351562 105.925781 Z M 9.664062 105.925781 "/>
<path style=" stroke:none;fill-rule:evenodd;fill:rgb(45.098039%,45.098039%,87.058824%);fill-opacity:1;" d="M 10.796875 105.925781 L 10.808594 105.929688 L 10.824219 105.933594 L 10.847656 105.941406 L 10.871094 105.957031 L 10.890625 105.976562 L 10.914062 106.011719 L 10.917969 106.027344 L 10.921875 106.039062 L 10.921875 106.054688 L 10.925781 106.066406 L 10.925781 108.265625 L 10.921875 108.277344 L 10.921875 108.292969 L 10.917969 108.304688 L 10.914062 108.320312 L 10.890625 108.355469 L 10.871094 108.375 L 10.847656 108.390625 L 10.824219 108.398438 L 10.808594 108.402344 L 10.796875 108.40625 L 10.484375 108.40625 L 10.472656 108.402344 L 10.457031 108.398438 L 10.433594 108.390625 L 10.410156 108.375 L 10.390625 108.355469 L 10.367188 108.320312 L 10.363281 108.304688 L 10.359375 108.292969 L 10.359375 108.277344 L 10.355469 108.265625 L 10.355469 106.066406 L 10.359375 106.054688 L 10.359375 106.039062 L 10.363281 106.027344 L 10.367188 106.011719 L 10.390625 105.976562 L 10.410156 105.957031 L 10.433594 105.941406 L 10.457031 105.933594 L 10.472656 105.929688 L 10.484375 105.925781 Z M 10.796875 105.925781 "/>
<path style=" stroke:none;fill-rule:evenodd;fill:rgb(45.098039%,45.098039%,87.058824%);fill-opacity:1;" d="M 11.929688 105.925781 L 11.945312 105.929688 L 11.96875 105.9375 L 11.984375 105.941406 L 12.007812 105.957031 L 12.015625 105.96875 L 12.027344 105.976562 L 12.042969 106 L 12.046875 106.011719 L 12.050781 106.027344 L 12.054688 106.039062 L 12.058594 106.054688 L 12.058594 108.277344 L 12.054688 108.292969 L 12.050781 108.304688 L 12.046875 108.320312 L 12.042969 108.332031 L 12.027344 108.355469 L 12.015625 108.363281 L 12.007812 108.375 L 11.984375 108.390625 L 11.96875 108.394531 L 11.945312 108.402344 L 11.929688 108.40625 L 11.617188 108.40625 L 11.605469 108.402344 L 11.589844 108.398438 L 11.566406 108.390625 L 11.542969 108.375 L 11.523438 108.355469 L 11.5 108.320312 L 11.496094 108.304688 L 11.492188 108.292969 L 11.492188 106.039062 L 11.496094 106.027344 L 11.5 106.011719 L 11.523438 105.976562 L 11.542969 105.957031 L 11.566406 105.941406 L 11.589844 105.933594 L 11.605469 105.929688 L 11.617188 105.925781 Z M 11.929688 105.925781 "/>
<path style=" stroke:none;fill-rule:evenodd;fill:rgb(45.098039%,45.098039%,87.058824%);fill-opacity:1;" d="M 13.0625 105.925781 L 13.078125 105.929688 L 13.089844 105.933594 L 13.105469 105.9375 L 13.117188 105.941406 L 13.140625 105.957031 L 13.148438 105.96875 L 13.160156 105.976562 L 13.175781 106 L 13.179688 106.011719 L 13.1875 106.027344 L 13.1875 106.039062 L 13.191406 106.054688 L 13.191406 108.277344 L 13.1875 108.292969 L 13.1875 108.304688 L 13.179688 108.320312 L 13.175781 108.332031 L 13.160156 108.355469 L 13.148438 108.363281 L 13.140625 108.375 L 13.117188 108.390625 L 13.105469 108.394531 L 13.089844 108.398438 L 13.078125 108.402344 L 13.0625 108.40625 L 12.753906 108.40625 L 12.738281 108.402344 L 12.726562 108.398438 L 12.710938 108.394531 L 12.699219 108.390625 L 12.675781 108.375 L 12.667969 108.363281 L 12.65625 108.355469 L 12.640625 108.332031 L 12.636719 108.320312 L 12.632812 108.304688 L 12.628906 108.292969 L 12.625 108.277344 L 12.625 106.054688 L 12.628906 106.039062 L 12.632812 106.027344 L 12.636719 106.011719 L 12.640625 106 L 12.65625 105.976562 L 12.667969 105.96875 L 12.675781 105.957031 L 12.699219 105.941406 L 12.710938 105.9375 L 12.726562 105.933594 L 12.738281 105.929688 L 12.753906 105.925781 Z M 13.0625 105.925781 "/>
<path style=" stroke:none;fill-rule:evenodd;fill:rgb(45.098039%,45.098039%,87.058824%);fill-opacity:1;" d="M 14.199219 105.925781 L 14.210938 105.929688 L 14.226562 105.933594 L 14.25 105.941406 L 14.273438 105.957031 L 14.292969 105.976562 L 14.316406 106.011719 L 14.320312 106.027344 L 14.324219 106.039062 L 14.324219 108.292969 L 14.320312 108.304688 L 14.316406 108.320312 L 14.292969 108.355469 L 14.273438 108.375 L 14.25 108.390625 L 14.226562 108.398438 L 14.210938 108.402344 L 14.199219 108.40625 L 13.886719 108.40625 L 13.871094 108.402344 L 13.847656 108.394531 L 13.832031 108.390625 L 13.820312 108.382812 L 13.800781 108.363281 L 13.789062 108.355469 L 13.78125 108.34375 L 13.777344 108.332031 L 13.769531 108.320312 L 13.765625 108.304688 L 13.761719 108.292969 L 13.757812 108.277344 L 13.757812 106.054688 L 13.761719 106.039062 L 13.765625 106.027344 L 13.769531 106.011719 L 13.777344 106 L 13.78125 105.988281 L 13.789062 105.976562 L 13.800781 105.96875 L 13.820312 105.949219 L 13.832031 105.941406 L 13.847656 105.9375 L 13.871094 105.929688 L 13.886719 105.925781 Z M 14.199219 105.925781 "/>
<path style=" stroke:none;fill-rule:evenodd;fill:rgb(45.098039%,45.098039%,87.058824%);fill-opacity:1;" d="M 15.332031 105.925781 L 15.34375 105.929688 L 15.359375 105.933594 L 15.382812 105.941406 L 15.398438 105.949219 L 15.4375 105.988281 L 15.441406 106 L 15.449219 106.011719 L 15.453125 106.027344 L 15.457031 106.039062 L 15.457031 106.054688 L 15.460938 106.066406 L 15.460938 108.265625 L 15.457031 108.277344 L 15.457031 108.292969 L 15.453125 108.304688 L 15.449219 108.320312 L 15.441406 108.332031 L 15.4375 108.34375 L 15.398438 108.382812 L 15.382812 108.390625 L 15.359375 108.398438 L 15.34375 108.402344 L 15.332031 108.40625 L 15.019531 108.40625 L 15.007812 108.402344 L 14.992188 108.398438 L 14.96875 108.390625 L 14.945312 108.375 L 14.925781 108.355469 L 14.902344 108.320312 L 14.898438 108.304688 L 14.894531 108.292969 L 14.894531 106.039062 L 14.898438 106.027344 L 14.902344 106.011719 L 14.925781 105.976562 L 14.945312 105.957031 L 14.96875 105.941406 L 14.992188 105.933594 L 15.007812 105.929688 L 15.019531 105.925781 Z M 15.332031 105.925781 "/>
<path style=" stroke:none;fill-rule:evenodd;fill:rgb(45.098039%,45.098039%,87.058824%);fill-opacity:1;" d="M 16.464844 105.925781 L 16.480469 105.929688 L 16.492188 105.933594 L 16.507812 105.9375 L 16.519531 105.941406 L 16.542969 105.957031 L 16.550781 105.96875 L 16.5625 105.976562 L 16.578125 106 L 16.582031 106.011719 L 16.585938 106.027344 L 16.589844 106.039062 L 16.59375 106.054688 L 16.59375 108.277344 L 16.589844 108.292969 L 16.585938 108.304688 L 16.582031 108.320312 L 16.578125 108.332031 L 16.5625 108.355469 L 16.550781 108.363281 L 16.542969 108.375 L 16.519531 108.390625 L 16.507812 108.394531 L 16.492188 108.398438 L 16.480469 108.402344 L 16.464844 108.40625 L 16.15625 108.40625 L 16.140625 108.402344 L 16.128906 108.398438 L 16.113281 108.394531 L 16.101562 108.390625 L 16.078125 108.375 L 16.058594 108.355469 L 16.042969 108.332031 L 16.039062 108.320312 L 16.03125 108.304688 L 16.027344 108.292969 L 16.027344 106.039062 L 16.03125 106.027344 L 16.039062 106.011719 L 16.042969 106 L 16.058594 105.976562 L 16.078125 105.957031 L 16.101562 105.941406 L 16.113281 105.9375 L 16.128906 105.933594 L 16.140625 105.929688 L 16.15625 105.925781 Z M 16.464844 105.925781 "/>
<path style=" stroke:none;fill-rule:evenodd;fill:rgb(45.098039%,45.098039%,87.058824%);fill-opacity:1;" d="M 17.597656 105.925781 L 17.613281 105.929688 L 17.625 105.933594 L 17.640625 105.9375 L 17.652344 105.941406 L 17.675781 105.957031 L 17.695312 105.976562 L 17.710938 106 L 17.714844 106.011719 L 17.722656 106.027344 L 17.722656 106.039062 L 17.726562 106.054688 L 17.726562 108.277344 L 17.722656 108.292969 L 17.722656 108.304688 L 17.714844 108.320312 L 17.710938 108.332031 L 17.695312 108.355469 L 17.675781 108.375 L 17.652344 108.390625 L 17.640625 108.394531 L 17.625 108.398438 L 17.613281 108.402344 L 17.597656 108.40625 L 17.289062 108.40625 L 17.273438 108.402344 L 17.261719 108.398438 L 17.246094 108.394531 L 17.234375 108.390625 L 17.210938 108.375 L 17.203125 108.363281 L 17.191406 108.355469 L 17.175781 108.332031 L 17.171875 108.320312 L 17.167969 108.304688 L 17.164062 108.292969 L 17.160156 108.277344 L 17.160156 106.054688 L 17.164062 106.039062 L 17.167969 106.027344 L 17.171875 106.011719 L 17.175781 106 L 17.191406 105.976562 L 17.203125 105.96875 L 17.210938 105.957031 L 17.234375 105.941406 L 17.246094 105.9375 L 17.261719 105.933594 L 17.273438 105.929688 L 17.289062 105.925781 Z M 17.597656 105.925781 "/>
<path style=" stroke:none;fill-rule:evenodd;fill:rgb(45.098039%,45.098039%,87.058824%);fill-opacity:1;" d="M 18.734375 105.925781 L 18.746094 105.929688 L 18.761719 105.933594 L 18.785156 105.941406 L 18.808594 105.957031 L 18.828125 105.976562 L 18.851562 106.011719 L 18.855469 106.027344 L 18.859375 106.039062 L 18.859375 108.292969 L 18.855469 108.304688 L 18.851562 108.320312 L 18.828125 108.355469 L 18.808594 108.375 L 18.785156 108.390625 L 18.761719 108.398438 L 18.746094 108.402344 L 18.734375 108.40625 L 18.421875 108.40625 L 18.410156 108.402344 L 18.394531 108.398438 L 18.371094 108.390625 L 18.355469 108.382812 L 18.316406 108.34375 L 18.3125 108.332031 L 18.304688 108.320312 L 18.300781 108.304688 L 18.296875 108.292969 L 18.292969 108.277344 L 18.292969 106.054688 L 18.296875 106.039062 L 18.300781 106.027344 L 18.304688 106.011719 L 18.3125 106 L 18.316406 105.988281 L 18.355469 105.949219 L 18.371094 105.941406 L 18.394531 105.933594 L 18.410156 105.929688 L 18.421875 105.925781 Z M 18.734375 105.925781 "/>
<path style=" stroke:none;fill-rule:evenodd;fill:rgb(45.098039%,45.098039%,87.058824%);fill-opacity:1;" d="M 19.867188 105.925781 L 19.882812 105.929688 L 19.90625 105.9375 L 19.921875 105.941406 L 19.933594 105.949219 L 19.972656 105.988281 L 19.976562 106 L 19.984375 106.011719 L 19.988281 106.027344 L 19.992188 106.039062 L 19.996094 106.054688 L 19.996094 108.277344 L 19.992188 108.292969 L 19.988281 108.304688 L 19.984375 108.320312 L 19.976562 108.332031 L 19.972656 108.34375 L 19.933594 108.382812 L 19.921875 108.390625 L 19.90625 108.394531 L 19.882812 108.402344 L 19.867188 108.40625 L 19.554688 108.40625 L 19.542969 108.402344 L 19.527344 108.398438 L 19.503906 108.390625 L 19.480469 108.375 L 19.460938 108.355469 L 19.4375 108.320312 L 19.433594 108.304688 L 19.429688 108.292969 L 19.429688 106.039062 L 19.433594 106.027344 L 19.4375 106.011719 L 19.460938 105.976562 L 19.480469 105.957031 L 19.503906 105.941406 L 19.527344 105.933594 L 19.542969 105.929688 L 19.554688 105.925781 Z M 19.867188 105.925781 "/>
<path style=" stroke:none;fill-rule:evenodd;fill:rgb(45.098039%,45.098039%,87.058824%);fill-opacity:1;" d="M 21 105.925781 L 21.015625 105.929688 L 21.027344 105.933594 L 21.042969 105.9375 L 21.054688 105.941406 L 21.078125 105.957031 L 21.085938 105.96875 L 21.097656 105.976562 L 21.113281 106 L 21.117188 106.011719 L 21.121094 106.027344 L 21.125 106.039062 L 21.128906 106.054688 L 21.128906 108.277344 L 21.125 108.292969 L 21.121094 108.304688 L 21.117188 108.320312 L 21.113281 108.332031 L 21.097656 108.355469 L 21.085938 108.363281 L 21.078125 108.375 L 21.054688 108.390625 L 21.042969 108.394531 L 21.027344 108.398438 L 21.015625 108.402344 L 21 108.40625 L 20.691406 108.40625 L 20.675781 108.402344 L 20.664062 108.398438 L 20.648438 108.394531 L 20.636719 108.390625 L 20.613281 108.375 L 20.59375 108.355469 L 20.578125 108.332031 L 20.574219 108.320312 L 20.566406 108.304688 L 20.566406 108.292969 L 20.5625 108.277344 L 20.5625 106.054688 L 20.566406 106.039062 L 20.566406 106.027344 L 20.574219 106.011719 L 20.578125 106 L 20.59375 105.976562 L 20.613281 105.957031 L 20.636719 105.941406 L 20.648438 105.9375 L 20.664062 105.933594 L 20.675781 105.929688 L 20.691406 105.925781 Z M 21 105.925781 "/>
<path style=" stroke:none;fill-rule:evenodd;fill:rgb(45.098039%,45.098039%,87.058824%);fill-opacity:1;" d="M 22.136719 105.925781 L 22.148438 105.929688 L 22.164062 105.933594 L 22.1875 105.941406 L 22.210938 105.957031 L 22.230469 105.976562 L 22.246094 106 L 22.25 106.011719 L 22.257812 106.027344 L 22.261719 106.039062 L 22.261719 108.292969 L 22.257812 108.304688 L 22.25 108.320312 L 22.246094 108.332031 L 22.230469 108.355469 L 22.210938 108.375 L 22.1875 108.390625 L 22.164062 108.398438 L 22.148438 108.402344 L 22.136719 108.40625 L 21.824219 108.40625 L 21.808594 108.402344 L 21.785156 108.394531 L 21.769531 108.390625 L 21.746094 108.375 L 21.738281 108.363281 L 21.726562 108.355469 L 21.710938 108.332031 L 21.707031 108.320312 L 21.703125 108.304688 L 21.699219 108.292969 L 21.695312 108.277344 L 21.695312 106.054688 L 21.699219 106.039062 L 21.703125 106.027344 L 21.707031 106.011719 L 21.710938 106 L 21.726562 105.976562 L 21.738281 105.96875 L 21.746094 105.957031 L 21.769531 105.941406 L 21.785156 105.9375 L 21.808594 105.929688 L 21.824219 105.925781 Z M 22.136719 105.925781 "/>
<path style=" stroke:none;fill-rule:evenodd;fill:rgb(45.098039%,45.098039%,87.058824%);fill-opacity:1;" d="M 23.269531 105.925781 L 23.28125 105.929688 L 23.296875 105.933594 L 23.320312 105.941406 L 23.34375 105.957031 L 23.363281 105.976562 L 23.386719 106.011719 L 23.390625 106.027344 L 23.394531 106.039062 L 23.394531 106.054688 L 23.398438 106.066406 L 23.398438 108.265625 L 23.394531 108.277344 L 23.394531 108.292969 L 23.390625 108.304688 L 23.386719 108.320312 L 23.363281 108.355469 L 23.34375 108.375 L 23.320312 108.390625 L 23.296875 108.398438 L 23.28125 108.402344 L 23.269531 108.40625 L 22.957031 108.40625 L 22.945312 108.402344 L 22.929688 108.398438 L 22.90625 108.390625 L 22.882812 108.375 L 22.863281 108.355469 L 22.839844 108.320312 L 22.835938 108.304688 L 22.832031 108.292969 L 22.832031 108.277344 L 22.828125 108.265625 L 22.828125 106.066406 L 22.832031 106.054688 L 22.832031 106.039062 L 22.835938 106.027344 L 22.839844 106.011719 L 22.863281 105.976562 L 22.882812 105.957031 L 22.90625 105.941406 L 22.929688 105.933594 L 22.945312 105.929688 L 22.957031 105.925781 Z M 23.269531 105.925781 "/>
<path style=" stroke:none;fill-rule:evenodd;fill:rgb(45.098039%,45.098039%,87.058824%);fill-opacity:1;" d="M 24.402344 105.925781 L 24.417969 105.929688 L 24.441406 105.9375 L 24.457031 105.941406 L 24.480469 105.957031 L 24.488281 105.96875 L 24.5 105.976562 L 24.515625 106 L 24.519531 106.011719 L 24.523438 106.027344 L 24.527344 106.039062 L 24.53125 106.054688 L 24.53125 108.277344 L 24.527344 108.292969 L 24.523438 108.304688 L 24.519531 108.320312 L 24.515625 108.332031 L 24.5 108.355469 L 24.488281 108.363281 L 24.480469 108.375 L 24.457031 108.390625 L 24.441406 108.394531 L 24.417969 108.402344 L 24.402344 108.40625 L 24.089844 108.40625 L 24.078125 108.402344 L 24.0625 108.398438 L 24.039062 108.390625 L 24.015625 108.375 L 23.996094 108.355469 L 23.972656 108.320312 L 23.96875 108.304688 L 23.964844 108.292969 L 23.964844 106.039062 L 23.96875 106.027344 L 23.972656 106.011719 L 23.996094 105.976562 L 24.015625 105.957031 L 24.039062 105.941406 L 24.0625 105.933594 L 24.078125 105.929688 L 24.089844 105.925781 Z M 24.402344 105.925781 "/>
<path style=" stroke:none;fill-rule:evenodd;fill:rgb(45.098039%,45.098039%,87.058824%);fill-opacity:1;" d="M 10.347656 73.691406 L 15.449219 73.691406 L 15.449219 67.738281 L 10.347656 67.738281 Z M 10.347656 73.691406 "/>
<path style=" stroke:none;fill-rule:evenodd;fill:rgb(45.098039%,45.098039%,87.058824%);fill-opacity:1;" d="M 10.347656 65.472656 L 15.449219 65.472656 L 15.449219 59.519531 L 10.347656 59.519531 Z M 10.347656 65.472656 "/>
<path style=" stroke:none;fill-rule:evenodd;fill:rgb(45.098039%,45.098039%,87.058824%);fill-opacity:1;" d="M 16.867188 65.472656 L 21.96875 65.472656 L 21.96875 59.519531 L 16.867188 59.519531 Z M 16.867188 65.472656 "/>
<path style=" stroke:none;fill-rule:evenodd;fill:rgb(45.098039%,45.098039%,87.058824%);fill-opacity:1;" d="M 16.867188 73.691406 L 21.96875 73.691406 L 21.96875 67.738281 L 16.867188 67.738281 Z M 16.867188 73.691406 "/>
<path style=" stroke:none;fill-rule:evenodd;fill:rgb(45.098039%,45.098039%,87.058824%);fill-opacity:1;" d="M 17.6875 74.605469 L 17.722656 74.613281 L 17.761719 74.621094 L 17.796875 74.632812 L 17.867188 74.671875 L 17.898438 74.695312 L 17.925781 74.71875 L 17.953125 74.75 L 17.976562 74.78125 L 17.996094 74.8125 L 18.011719 74.847656 L 18.027344 74.886719 L 18.035156 74.921875 L 18.042969 74.960938 L 18.042969 75.832031 L 18.027344 75.910156 L 17.996094 75.980469 L 17.976562 76.015625 L 17.953125 76.046875 L 17.898438 76.101562 L 17.867188 76.125 L 17.832031 76.144531 L 17.761719 76.175781 L 17.722656 76.183594 L 17.6875 76.1875 L 17.648438 76.191406 L 16.683594 76.191406 L 16.605469 76.183594 L 16.566406 76.175781 L 16.496094 76.144531 L 16.460938 76.125 L 16.429688 76.101562 L 16.375 76.046875 L 16.351562 76.015625 L 16.332031 75.980469 L 16.316406 75.945312 L 16.304688 75.910156 L 16.292969 75.871094 L 16.285156 75.792969 L 16.285156 75 L 16.292969 74.921875 L 16.304688 74.886719 L 16.316406 74.847656 L 16.332031 74.8125 L 16.351562 74.78125 L 16.375 74.75 L 16.402344 74.71875 L 16.429688 74.695312 L 16.460938 74.671875 L 16.53125 74.632812 L 16.566406 74.621094 L 16.644531 74.605469 Z M 17.6875 74.605469 "/>
<path style=" stroke:none;fill-rule:evenodd;fill:rgb(45.098039%,45.098039%,87.058824%);fill-opacity:1;" d="M 17.6875 77.328125 L 17.722656 77.332031 L 17.761719 77.34375 L 17.796875 77.355469 L 17.832031 77.371094 L 17.867188 77.390625 L 17.898438 77.414062 L 17.953125 77.46875 L 17.976562 77.5 L 17.996094 77.535156 L 18.027344 77.605469 L 18.042969 77.683594 L 18.042969 78.554688 L 18.027344 78.632812 L 17.996094 78.703125 L 17.976562 78.734375 L 17.953125 78.765625 L 17.925781 78.796875 L 17.898438 78.824219 L 17.867188 78.84375 L 17.832031 78.867188 L 17.796875 78.882812 L 17.761719 78.894531 L 17.722656 78.90625 L 17.6875 78.910156 L 17.648438 78.914062 L 16.683594 78.914062 L 16.605469 78.90625 L 16.566406 78.894531 L 16.53125 78.882812 L 16.496094 78.867188 L 16.460938 78.84375 L 16.429688 78.824219 L 16.402344 78.796875 L 16.375 78.765625 L 16.351562 78.734375 L 16.332031 78.703125 L 16.316406 78.667969 L 16.304688 78.632812 L 16.292969 78.59375 L 16.285156 78.515625 L 16.285156 77.722656 L 16.292969 77.644531 L 16.304688 77.605469 L 16.316406 77.570312 L 16.332031 77.535156 L 16.351562 77.5 L 16.375 77.46875 L 16.429688 77.414062 L 16.460938 77.390625 L 16.496094 77.371094 L 16.53125 77.355469 L 16.566406 77.34375 L 16.605469 77.332031 L 16.683594 77.324219 L 17.648438 77.324219 Z M 17.6875 77.328125 "/>
<path style=" stroke:none;fill-rule:evenodd;fill:rgb(45.098039%,45.098039%,87.058824%);fill-opacity:1;" d="M 11.417969 75.449219 L 11.453125 75.457031 L 11.492188 75.464844 L 11.527344 75.476562 L 11.597656 75.515625 L 11.628906 75.539062 L 11.65625 75.5625 L 11.683594 75.59375 L 11.707031 75.625 L 11.726562 75.65625 L 11.742188 75.691406 L 11.757812 75.730469 L 11.765625 75.765625 L 11.773438 75.804688 L 11.773438 76.847656 L 11.765625 76.886719 L 11.757812 76.921875 L 11.742188 76.960938 L 11.726562 76.996094 L 11.707031 77.027344 L 11.683594 77.058594 L 11.65625 77.089844 L 11.628906 77.113281 L 11.597656 77.136719 L 11.527344 77.175781 L 11.492188 77.1875 L 11.453125 77.199219 L 11.417969 77.203125 L 10.542969 77.203125 L 10.507812 77.199219 L 10.429688 77.175781 L 10.394531 77.15625 L 10.363281 77.136719 L 10.332031 77.113281 L 10.304688 77.089844 L 10.277344 77.058594 L 10.253906 77.027344 L 10.234375 76.996094 L 10.214844 76.960938 L 10.203125 76.921875 L 10.195312 76.886719 L 10.1875 76.847656 L 10.1875 75.804688 L 10.195312 75.765625 L 10.203125 75.730469 L 10.214844 75.691406 L 10.234375 75.65625 L 10.253906 75.625 L 10.277344 75.59375 L 10.304688 75.5625 L 10.332031 75.539062 L 10.363281 75.515625 L 10.394531 75.496094 L 10.429688 75.476562 L 10.46875 75.464844 L 10.507812 75.457031 L 10.542969 75.449219 Z M 11.417969 75.449219 "/>
<path style=" stroke:none;fill-rule:evenodd;fill:rgb(45.098039%,45.098039%,87.058824%);fill-opacity:1;" d="M 14.136719 75.449219 L 14.214844 75.464844 L 14.25 75.476562 L 14.320312 75.515625 L 14.351562 75.539062 L 14.378906 75.5625 L 14.40625 75.59375 L 14.429688 75.625 L 14.449219 75.65625 L 14.464844 75.691406 L 14.476562 75.730469 L 14.488281 75.765625 L 14.496094 75.84375 L 14.496094 76.808594 L 14.488281 76.886719 L 14.476562 76.921875 L 14.464844 76.960938 L 14.449219 76.996094 L 14.429688 77.027344 L 14.40625 77.058594 L 14.378906 77.089844 L 14.351562 77.113281 L 14.320312 77.136719 L 14.25 77.175781 L 14.214844 77.1875 L 14.175781 77.199219 L 14.136719 77.203125 L 13.265625 77.203125 L 13.226562 77.199219 L 13.191406 77.1875 L 13.152344 77.175781 L 13.117188 77.15625 L 13.085938 77.136719 L 13.023438 77.089844 L 12.996094 77.058594 L 12.976562 77.027344 L 12.953125 76.996094 L 12.9375 76.960938 L 12.925781 76.921875 L 12.914062 76.886719 L 12.90625 76.808594 L 12.90625 75.84375 L 12.914062 75.765625 L 12.925781 75.730469 L 12.9375 75.691406 L 12.953125 75.65625 L 12.976562 75.625 L 12.996094 75.59375 L 13.023438 75.5625 L 13.085938 75.515625 L 13.117188 75.496094 L 13.152344 75.476562 L 13.191406 75.464844 L 13.226562 75.457031 L 13.265625 75.449219 Z M 14.136719 75.449219 "/>
<path style=" stroke:none;fill-rule:evenodd;fill:rgb(45.098039%,45.098039%,87.058824%);fill-opacity:1;" d="M 23.351562 75.449219 L 23.429688 75.464844 L 23.464844 75.476562 L 23.535156 75.515625 L 23.566406 75.539062 L 23.59375 75.5625 L 23.621094 75.59375 L 23.644531 75.625 L 23.664062 75.65625 L 23.679688 75.691406 L 23.695312 75.730469 L 23.703125 75.765625 L 23.710938 75.804688 L 23.710938 76.847656 L 23.703125 76.886719 L 23.695312 76.921875 L 23.679688 76.960938 L 23.664062 76.996094 L 23.644531 77.027344 L 23.621094 77.058594 L 23.59375 77.089844 L 23.566406 77.113281 L 23.535156 77.136719 L 23.464844 77.175781 L 23.429688 77.1875 L 23.390625 77.199219 L 23.351562 77.203125 L 22.480469 77.203125 L 22.441406 77.199219 L 22.40625 77.1875 L 22.367188 77.175781 L 22.332031 77.15625 L 22.300781 77.136719 L 22.238281 77.089844 L 22.191406 77.027344 L 22.171875 76.996094 L 22.152344 76.960938 L 22.140625 76.921875 L 22.132812 76.886719 L 22.125 76.847656 L 22.125 75.804688 L 22.132812 75.765625 L 22.140625 75.730469 L 22.152344 75.691406 L 22.171875 75.65625 L 22.191406 75.625 L 22.238281 75.5625 L 22.300781 75.515625 L 22.332031 75.496094 L 22.367188 75.476562 L 22.40625 75.464844 L 22.441406 75.457031 L 22.480469 75.449219 Z M 23.351562 75.449219 "/>
<path style=" stroke:none;fill-rule:evenodd;fill:rgb(45.098039%,45.098039%,87.058824%);fill-opacity:1;" d="M 20.632812 75.449219 L 20.671875 75.457031 L 20.707031 75.464844 L 20.746094 75.476562 L 20.78125 75.496094 L 20.8125 75.515625 L 20.875 75.5625 L 20.921875 75.625 L 20.941406 75.65625 L 20.960938 75.691406 L 20.972656 75.730469 L 20.980469 75.765625 L 20.988281 75.804688 L 20.988281 76.847656 L 20.980469 76.886719 L 20.972656 76.921875 L 20.960938 76.960938 L 20.941406 76.996094 L 20.921875 77.027344 L 20.875 77.089844 L 20.8125 77.136719 L 20.78125 77.15625 L 20.746094 77.175781 L 20.707031 77.1875 L 20.671875 77.199219 L 20.632812 77.203125 L 19.761719 77.203125 L 19.722656 77.199219 L 19.683594 77.1875 L 19.648438 77.175781 L 19.578125 77.136719 L 19.546875 77.113281 L 19.519531 77.089844 L 19.492188 77.058594 L 19.46875 77.027344 L 19.449219 76.996094 L 19.433594 76.960938 L 19.417969 76.921875 L 19.410156 76.886719 L 19.402344 76.808594 L 19.402344 75.84375 L 19.410156 75.765625 L 19.417969 75.730469 L 19.433594 75.691406 L 19.449219 75.65625 L 19.46875 75.625 L 19.492188 75.59375 L 19.519531 75.5625 L 19.546875 75.539062 L 19.578125 75.515625 L 19.648438 75.476562 L 19.683594 75.464844 L 19.761719 75.449219 Z M 20.632812 75.449219 "/>
</g>
</svg>
