M48
; DRILL file {KiCad 5.1.5+dfsg1-2build2} date Thu 09 Feb 2023 08:11:09 GMT
; FORMAT={-:-/ absolute / inch / decimal}
; #@! TF.CreationDate,2023-02-09T08:11:09+00:00
; #@! TF.GenerationSoftware,Kicad,Pcbnew,5.1.5+dfsg1-2build2
; #@! TF.FileFunction,Plated,1,4,PTH
FMAT,2
INCH
T1C0.0118
T2C0.0197
T3C0.0315
%
G90
G05
T1
X7.0167Y-6.025
X7.0167Y-6.0555
X7.0167Y-6.3382
X7.0187Y-6.2007
X7.02Y-6.175
X7.0325Y-5.88
X7.0364Y-5.9807
X7.0364Y-6.0067
X7.0364Y-6.08
X7.0418Y-6.1132
X7.0617Y-5.9077
X7.0658Y-5.9791
X7.07Y-5.93
X7.0719Y-6.24
X7.0873Y-5.8353
X7.0903Y-5.8603
X7.0935Y-5.9197
X7.113Y-5.462
X7.1132Y-6.3089
X7.125Y-5.09
X7.1334Y-6.1405
X7.135Y-6.318
X7.142Y-5.685
X7.148Y-5.547
X7.1486Y-5.9064
X7.165Y-4.9826
X7.165Y-6.03
X7.1657Y-5.2794
X7.1661Y-5.347
X7.1661Y-6.203
X7.1691Y-5.9211
X7.17Y-6.2826
X7.175Y-6.17
X7.1907Y-6.0321
X7.195Y-5.8547
X7.197Y-5.273
X7.197Y-6.318
X7.198Y-5.46
X7.2006Y-5.1192
X7.2039Y-5.347
X7.2161Y-6.0144
X7.22Y-6.113
X7.2237Y-5.7996
X7.225Y-5.5708
X7.231Y-6.1951
X7.2396Y-5.6265
X7.2396Y-6.0341
X7.24Y-6.36
X7.246Y-5.294
X7.2516Y-6.2067
X7.2533Y-5.4303
X7.256Y-5.5353
X7.26Y-6.2826
X7.274Y-5.555
X7.274Y-5.451
X7.275Y-6.21
X7.277Y-5.2743
X7.28Y-4.9776
X7.28Y-5.0524
X7.2901Y-6.2832
X7.295Y-5.293
X7.3006Y-5.27
X7.3106Y-5.1224
X7.318Y-6.207
X7.322Y-6.2826
X7.34Y-6.365
X7.3454Y-5.7486
X7.3476Y-5.8574
X7.348Y-5.9566
X7.354Y-6.318
X7.3715Y-5.9535
X7.3737Y-6.285
X7.3755Y-5.8955
X7.3767Y-5.9283
X7.3908Y-6.0865
X7.3928Y-5.5304
X7.3928Y-5.645
X7.3978Y-6.0395
X7.4009Y-6.1361
X7.4018Y-6.1075
X7.4079Y-6.1925
X7.4079Y-6.2161
X7.413Y-4.937
X7.4175Y-5.34
X7.4175Y-6.2543
X7.4333Y-5.15
X7.4333Y-6.07
X7.4333Y-6.275
T2
X7.265Y-6.42
X7.09Y-6.35
X7.34Y-6.42
X7.115Y-6.42
X7.19Y-6.42
X7.29Y-6.345
X7.04Y-6.42
X7.415Y-6.42
X7.165Y-6.35
T3
X7.0691Y-4.9894
X7.0691Y-5.0894
X7.0691Y-5.1894
X7.0691Y-5.2894
X7.0691Y-5.3894
X7.0691Y-5.4894
X7.0691Y-5.5894
X7.0691Y-5.6894
X7.0691Y-5.7894
X7.3691Y-4.9894
X7.3691Y-5.0894
X7.3691Y-5.1894
X7.3691Y-5.2894
X7.3691Y-5.3894
X7.3691Y-5.4894
X7.3691Y-5.5894
X7.3691Y-5.6894
X7.3691Y-5.7894
T0
M30
