G04 #@! TF.GenerationSoftware,KiCad,Pcbnew,5.1.5+dfsg1-2build2*
G04 #@! TF.CreationDate,2023-02-09T08:11:11+00:00*
G04 #@! TF.ProjectId,video-ram-replacement,76696465-6f2d-4726-916d-2d7265706c61,rev?*
G04 #@! TF.SameCoordinates,Original*
G04 #@! TF.FileFunction,Copper,L4,Bot*
G04 #@! TF.FilePolarity,Positive*
%FSLAX46Y46*%
G04 Gerber Fmt 4.6, Leading zero omitted, Abs format (unit mm)*
G04 Created by KiCad (PCBNEW 5.1.5+dfsg1-2build2) date 2023-02-09 08:11:11*
%MOMM*%
%LPD*%
G04 APERTURE LIST*
%ADD10R,1.000000X1.000000*%
%ADD11C,0.150000*%
%ADD12O,1.600000X1.600000*%
%ADD13R,1.600000X1.600000*%
%ADD14C,0.400000*%
%ADD15C,0.250000*%
%ADD16C,0.200000*%
%ADD17C,0.254000*%
G04 APERTURE END LIST*
D10*
X185166000Y-161163000D03*
X181991000Y-161290000D03*
X180721000Y-163068000D03*
X178816000Y-163068000D03*
X180086000Y-161290000D03*
X182626000Y-163068000D03*
X188341000Y-163068000D03*
X184531000Y-163068000D03*
X186436000Y-163068000D03*
G04 #@! TA.AperFunction,SMDPad,CuDef*
D11*
G36*
X181354722Y-151912874D02*
G01*
X181368313Y-151914890D01*
X181381640Y-151918228D01*
X181394576Y-151922857D01*
X181406996Y-151928731D01*
X181418780Y-151935794D01*
X181429815Y-151943979D01*
X181439995Y-151953205D01*
X181449221Y-151963385D01*
X181457406Y-151974420D01*
X181464469Y-151986204D01*
X181470343Y-151998624D01*
X181474972Y-152011560D01*
X181478310Y-152024887D01*
X181480326Y-152038478D01*
X181481000Y-152052200D01*
X181481000Y-152392200D01*
X181480326Y-152405922D01*
X181478310Y-152419513D01*
X181474972Y-152432840D01*
X181470343Y-152445776D01*
X181464469Y-152458196D01*
X181457406Y-152469980D01*
X181449221Y-152481015D01*
X181439995Y-152491195D01*
X181429815Y-152500421D01*
X181418780Y-152508606D01*
X181406996Y-152515669D01*
X181394576Y-152521543D01*
X181381640Y-152526172D01*
X181368313Y-152529510D01*
X181354722Y-152531526D01*
X181341000Y-152532200D01*
X181061000Y-152532200D01*
X181047278Y-152531526D01*
X181033687Y-152529510D01*
X181020360Y-152526172D01*
X181007424Y-152521543D01*
X180995004Y-152515669D01*
X180983220Y-152508606D01*
X180972185Y-152500421D01*
X180962005Y-152491195D01*
X180952779Y-152481015D01*
X180944594Y-152469980D01*
X180937531Y-152458196D01*
X180931657Y-152445776D01*
X180927028Y-152432840D01*
X180923690Y-152419513D01*
X180921674Y-152405922D01*
X180921000Y-152392200D01*
X180921000Y-152052200D01*
X180921674Y-152038478D01*
X180923690Y-152024887D01*
X180927028Y-152011560D01*
X180931657Y-151998624D01*
X180937531Y-151986204D01*
X180944594Y-151974420D01*
X180952779Y-151963385D01*
X180962005Y-151953205D01*
X180972185Y-151943979D01*
X180983220Y-151935794D01*
X180995004Y-151928731D01*
X181007424Y-151922857D01*
X181020360Y-151918228D01*
X181033687Y-151914890D01*
X181047278Y-151912874D01*
X181061000Y-151912200D01*
X181341000Y-151912200D01*
X181354722Y-151912874D01*
G37*
G04 #@! TD.AperFunction*
G04 #@! TA.AperFunction,SMDPad,CuDef*
G36*
X180394722Y-151912874D02*
G01*
X180408313Y-151914890D01*
X180421640Y-151918228D01*
X180434576Y-151922857D01*
X180446996Y-151928731D01*
X180458780Y-151935794D01*
X180469815Y-151943979D01*
X180479995Y-151953205D01*
X180489221Y-151963385D01*
X180497406Y-151974420D01*
X180504469Y-151986204D01*
X180510343Y-151998624D01*
X180514972Y-152011560D01*
X180518310Y-152024887D01*
X180520326Y-152038478D01*
X180521000Y-152052200D01*
X180521000Y-152392200D01*
X180520326Y-152405922D01*
X180518310Y-152419513D01*
X180514972Y-152432840D01*
X180510343Y-152445776D01*
X180504469Y-152458196D01*
X180497406Y-152469980D01*
X180489221Y-152481015D01*
X180479995Y-152491195D01*
X180469815Y-152500421D01*
X180458780Y-152508606D01*
X180446996Y-152515669D01*
X180434576Y-152521543D01*
X180421640Y-152526172D01*
X180408313Y-152529510D01*
X180394722Y-152531526D01*
X180381000Y-152532200D01*
X180101000Y-152532200D01*
X180087278Y-152531526D01*
X180073687Y-152529510D01*
X180060360Y-152526172D01*
X180047424Y-152521543D01*
X180035004Y-152515669D01*
X180023220Y-152508606D01*
X180012185Y-152500421D01*
X180002005Y-152491195D01*
X179992779Y-152481015D01*
X179984594Y-152469980D01*
X179977531Y-152458196D01*
X179971657Y-152445776D01*
X179967028Y-152432840D01*
X179963690Y-152419513D01*
X179961674Y-152405922D01*
X179961000Y-152392200D01*
X179961000Y-152052200D01*
X179961674Y-152038478D01*
X179963690Y-152024887D01*
X179967028Y-152011560D01*
X179971657Y-151998624D01*
X179977531Y-151986204D01*
X179984594Y-151974420D01*
X179992779Y-151963385D01*
X180002005Y-151953205D01*
X180012185Y-151943979D01*
X180023220Y-151935794D01*
X180035004Y-151928731D01*
X180047424Y-151922857D01*
X180060360Y-151918228D01*
X180073687Y-151914890D01*
X180087278Y-151912874D01*
X180101000Y-151912200D01*
X180381000Y-151912200D01*
X180394722Y-151912874D01*
G37*
G04 #@! TD.AperFunction*
G04 #@! TA.AperFunction,SMDPad,CuDef*
G36*
X182682722Y-147068674D02*
G01*
X182696313Y-147070690D01*
X182709640Y-147074028D01*
X182722576Y-147078657D01*
X182734996Y-147084531D01*
X182746780Y-147091594D01*
X182757815Y-147099779D01*
X182767995Y-147109005D01*
X182777221Y-147119185D01*
X182785406Y-147130220D01*
X182792469Y-147142004D01*
X182798343Y-147154424D01*
X182802972Y-147167360D01*
X182806310Y-147180687D01*
X182808326Y-147194278D01*
X182809000Y-147208000D01*
X182809000Y-147488000D01*
X182808326Y-147501722D01*
X182806310Y-147515313D01*
X182802972Y-147528640D01*
X182798343Y-147541576D01*
X182792469Y-147553996D01*
X182785406Y-147565780D01*
X182777221Y-147576815D01*
X182767995Y-147586995D01*
X182757815Y-147596221D01*
X182746780Y-147604406D01*
X182734996Y-147611469D01*
X182722576Y-147617343D01*
X182709640Y-147621972D01*
X182696313Y-147625310D01*
X182682722Y-147627326D01*
X182669000Y-147628000D01*
X182329000Y-147628000D01*
X182315278Y-147627326D01*
X182301687Y-147625310D01*
X182288360Y-147621972D01*
X182275424Y-147617343D01*
X182263004Y-147611469D01*
X182251220Y-147604406D01*
X182240185Y-147596221D01*
X182230005Y-147586995D01*
X182220779Y-147576815D01*
X182212594Y-147565780D01*
X182205531Y-147553996D01*
X182199657Y-147541576D01*
X182195028Y-147528640D01*
X182191690Y-147515313D01*
X182189674Y-147501722D01*
X182189000Y-147488000D01*
X182189000Y-147208000D01*
X182189674Y-147194278D01*
X182191690Y-147180687D01*
X182195028Y-147167360D01*
X182199657Y-147154424D01*
X182205531Y-147142004D01*
X182212594Y-147130220D01*
X182220779Y-147119185D01*
X182230005Y-147109005D01*
X182240185Y-147099779D01*
X182251220Y-147091594D01*
X182263004Y-147084531D01*
X182275424Y-147078657D01*
X182288360Y-147074028D01*
X182301687Y-147070690D01*
X182315278Y-147068674D01*
X182329000Y-147068000D01*
X182669000Y-147068000D01*
X182682722Y-147068674D01*
G37*
G04 #@! TD.AperFunction*
G04 #@! TA.AperFunction,SMDPad,CuDef*
G36*
X182682722Y-148028674D02*
G01*
X182696313Y-148030690D01*
X182709640Y-148034028D01*
X182722576Y-148038657D01*
X182734996Y-148044531D01*
X182746780Y-148051594D01*
X182757815Y-148059779D01*
X182767995Y-148069005D01*
X182777221Y-148079185D01*
X182785406Y-148090220D01*
X182792469Y-148102004D01*
X182798343Y-148114424D01*
X182802972Y-148127360D01*
X182806310Y-148140687D01*
X182808326Y-148154278D01*
X182809000Y-148168000D01*
X182809000Y-148448000D01*
X182808326Y-148461722D01*
X182806310Y-148475313D01*
X182802972Y-148488640D01*
X182798343Y-148501576D01*
X182792469Y-148513996D01*
X182785406Y-148525780D01*
X182777221Y-148536815D01*
X182767995Y-148546995D01*
X182757815Y-148556221D01*
X182746780Y-148564406D01*
X182734996Y-148571469D01*
X182722576Y-148577343D01*
X182709640Y-148581972D01*
X182696313Y-148585310D01*
X182682722Y-148587326D01*
X182669000Y-148588000D01*
X182329000Y-148588000D01*
X182315278Y-148587326D01*
X182301687Y-148585310D01*
X182288360Y-148581972D01*
X182275424Y-148577343D01*
X182263004Y-148571469D01*
X182251220Y-148564406D01*
X182240185Y-148556221D01*
X182230005Y-148546995D01*
X182220779Y-148536815D01*
X182212594Y-148525780D01*
X182205531Y-148513996D01*
X182199657Y-148501576D01*
X182195028Y-148488640D01*
X182191690Y-148475313D01*
X182189674Y-148461722D01*
X182189000Y-148448000D01*
X182189000Y-148168000D01*
X182189674Y-148154278D01*
X182191690Y-148140687D01*
X182195028Y-148127360D01*
X182199657Y-148114424D01*
X182205531Y-148102004D01*
X182212594Y-148090220D01*
X182220779Y-148079185D01*
X182230005Y-148069005D01*
X182240185Y-148059779D01*
X182251220Y-148051594D01*
X182263004Y-148044531D01*
X182275424Y-148038657D01*
X182288360Y-148034028D01*
X182301687Y-148030690D01*
X182315278Y-148028674D01*
X182329000Y-148028000D01*
X182669000Y-148028000D01*
X182682722Y-148028674D01*
G37*
G04 #@! TD.AperFunction*
D12*
X187176000Y-126732000D03*
X179556000Y-147052000D03*
X187176000Y-129272000D03*
X179556000Y-144512000D03*
X187176000Y-131812000D03*
X179556000Y-141972000D03*
X187176000Y-134352000D03*
X179556000Y-139432000D03*
X187176000Y-136892000D03*
X179556000Y-136892000D03*
X187176000Y-139432000D03*
X179556000Y-134352000D03*
X187176000Y-141972000D03*
X179556000Y-131812000D03*
X187176000Y-144512000D03*
X179556000Y-129272000D03*
X187176000Y-147052000D03*
D13*
X179556000Y-126732000D03*
G04 #@! TA.AperFunction,SMDPad,CuDef*
D11*
G36*
X185411504Y-125932204D02*
G01*
X185435773Y-125935804D01*
X185459571Y-125941765D01*
X185482671Y-125950030D01*
X185504849Y-125960520D01*
X185525893Y-125973133D01*
X185545598Y-125987747D01*
X185563777Y-126004223D01*
X185580253Y-126022402D01*
X185594867Y-126042107D01*
X185607480Y-126063151D01*
X185617970Y-126085329D01*
X185626235Y-126108429D01*
X185632196Y-126132227D01*
X185635796Y-126156496D01*
X185637000Y-126181000D01*
X185637000Y-126681000D01*
X185635796Y-126705504D01*
X185632196Y-126729773D01*
X185626235Y-126753571D01*
X185617970Y-126776671D01*
X185607480Y-126798849D01*
X185594867Y-126819893D01*
X185580253Y-126839598D01*
X185563777Y-126857777D01*
X185545598Y-126874253D01*
X185525893Y-126888867D01*
X185504849Y-126901480D01*
X185482671Y-126911970D01*
X185459571Y-126920235D01*
X185435773Y-126926196D01*
X185411504Y-126929796D01*
X185387000Y-126931000D01*
X184437000Y-126931000D01*
X184412496Y-126929796D01*
X184388227Y-126926196D01*
X184364429Y-126920235D01*
X184341329Y-126911970D01*
X184319151Y-126901480D01*
X184298107Y-126888867D01*
X184278402Y-126874253D01*
X184260223Y-126857777D01*
X184243747Y-126839598D01*
X184229133Y-126819893D01*
X184216520Y-126798849D01*
X184206030Y-126776671D01*
X184197765Y-126753571D01*
X184191804Y-126729773D01*
X184188204Y-126705504D01*
X184187000Y-126681000D01*
X184187000Y-126181000D01*
X184188204Y-126156496D01*
X184191804Y-126132227D01*
X184197765Y-126108429D01*
X184206030Y-126085329D01*
X184216520Y-126063151D01*
X184229133Y-126042107D01*
X184243747Y-126022402D01*
X184260223Y-126004223D01*
X184278402Y-125987747D01*
X184298107Y-125973133D01*
X184319151Y-125960520D01*
X184341329Y-125950030D01*
X184364429Y-125941765D01*
X184388227Y-125935804D01*
X184412496Y-125932204D01*
X184437000Y-125931000D01*
X185387000Y-125931000D01*
X185411504Y-125932204D01*
G37*
G04 #@! TD.AperFunction*
G04 #@! TA.AperFunction,SMDPad,CuDef*
G36*
X185411504Y-127832204D02*
G01*
X185435773Y-127835804D01*
X185459571Y-127841765D01*
X185482671Y-127850030D01*
X185504849Y-127860520D01*
X185525893Y-127873133D01*
X185545598Y-127887747D01*
X185563777Y-127904223D01*
X185580253Y-127922402D01*
X185594867Y-127942107D01*
X185607480Y-127963151D01*
X185617970Y-127985329D01*
X185626235Y-128008429D01*
X185632196Y-128032227D01*
X185635796Y-128056496D01*
X185637000Y-128081000D01*
X185637000Y-128581000D01*
X185635796Y-128605504D01*
X185632196Y-128629773D01*
X185626235Y-128653571D01*
X185617970Y-128676671D01*
X185607480Y-128698849D01*
X185594867Y-128719893D01*
X185580253Y-128739598D01*
X185563777Y-128757777D01*
X185545598Y-128774253D01*
X185525893Y-128788867D01*
X185504849Y-128801480D01*
X185482671Y-128811970D01*
X185459571Y-128820235D01*
X185435773Y-128826196D01*
X185411504Y-128829796D01*
X185387000Y-128831000D01*
X184437000Y-128831000D01*
X184412496Y-128829796D01*
X184388227Y-128826196D01*
X184364429Y-128820235D01*
X184341329Y-128811970D01*
X184319151Y-128801480D01*
X184298107Y-128788867D01*
X184278402Y-128774253D01*
X184260223Y-128757777D01*
X184243747Y-128739598D01*
X184229133Y-128719893D01*
X184216520Y-128698849D01*
X184206030Y-128676671D01*
X184197765Y-128653571D01*
X184191804Y-128629773D01*
X184188204Y-128605504D01*
X184187000Y-128581000D01*
X184187000Y-128081000D01*
X184188204Y-128056496D01*
X184191804Y-128032227D01*
X184197765Y-128008429D01*
X184206030Y-127985329D01*
X184216520Y-127963151D01*
X184229133Y-127942107D01*
X184243747Y-127922402D01*
X184260223Y-127904223D01*
X184278402Y-127887747D01*
X184298107Y-127873133D01*
X184319151Y-127860520D01*
X184341329Y-127850030D01*
X184364429Y-127841765D01*
X184388227Y-127835804D01*
X184412496Y-127832204D01*
X184437000Y-127831000D01*
X185387000Y-127831000D01*
X185411504Y-127832204D01*
G37*
G04 #@! TD.AperFunction*
G04 #@! TA.AperFunction,SMDPad,CuDef*
G36*
X182490504Y-127959204D02*
G01*
X182514773Y-127962804D01*
X182538571Y-127968765D01*
X182561671Y-127977030D01*
X182583849Y-127987520D01*
X182604893Y-128000133D01*
X182624598Y-128014747D01*
X182642777Y-128031223D01*
X182659253Y-128049402D01*
X182673867Y-128069107D01*
X182686480Y-128090151D01*
X182696970Y-128112329D01*
X182705235Y-128135429D01*
X182711196Y-128159227D01*
X182714796Y-128183496D01*
X182716000Y-128208000D01*
X182716000Y-128708000D01*
X182714796Y-128732504D01*
X182711196Y-128756773D01*
X182705235Y-128780571D01*
X182696970Y-128803671D01*
X182686480Y-128825849D01*
X182673867Y-128846893D01*
X182659253Y-128866598D01*
X182642777Y-128884777D01*
X182624598Y-128901253D01*
X182604893Y-128915867D01*
X182583849Y-128928480D01*
X182561671Y-128938970D01*
X182538571Y-128947235D01*
X182514773Y-128953196D01*
X182490504Y-128956796D01*
X182466000Y-128958000D01*
X181516000Y-128958000D01*
X181491496Y-128956796D01*
X181467227Y-128953196D01*
X181443429Y-128947235D01*
X181420329Y-128938970D01*
X181398151Y-128928480D01*
X181377107Y-128915867D01*
X181357402Y-128901253D01*
X181339223Y-128884777D01*
X181322747Y-128866598D01*
X181308133Y-128846893D01*
X181295520Y-128825849D01*
X181285030Y-128803671D01*
X181276765Y-128780571D01*
X181270804Y-128756773D01*
X181267204Y-128732504D01*
X181266000Y-128708000D01*
X181266000Y-128208000D01*
X181267204Y-128183496D01*
X181270804Y-128159227D01*
X181276765Y-128135429D01*
X181285030Y-128112329D01*
X181295520Y-128090151D01*
X181308133Y-128069107D01*
X181322747Y-128049402D01*
X181339223Y-128031223D01*
X181357402Y-128014747D01*
X181377107Y-128000133D01*
X181398151Y-127987520D01*
X181420329Y-127977030D01*
X181443429Y-127968765D01*
X181467227Y-127962804D01*
X181491496Y-127959204D01*
X181516000Y-127958000D01*
X182466000Y-127958000D01*
X182490504Y-127959204D01*
G37*
G04 #@! TD.AperFunction*
G04 #@! TA.AperFunction,SMDPad,CuDef*
G36*
X182490504Y-126059204D02*
G01*
X182514773Y-126062804D01*
X182538571Y-126068765D01*
X182561671Y-126077030D01*
X182583849Y-126087520D01*
X182604893Y-126100133D01*
X182624598Y-126114747D01*
X182642777Y-126131223D01*
X182659253Y-126149402D01*
X182673867Y-126169107D01*
X182686480Y-126190151D01*
X182696970Y-126212329D01*
X182705235Y-126235429D01*
X182711196Y-126259227D01*
X182714796Y-126283496D01*
X182716000Y-126308000D01*
X182716000Y-126808000D01*
X182714796Y-126832504D01*
X182711196Y-126856773D01*
X182705235Y-126880571D01*
X182696970Y-126903671D01*
X182686480Y-126925849D01*
X182673867Y-126946893D01*
X182659253Y-126966598D01*
X182642777Y-126984777D01*
X182624598Y-127001253D01*
X182604893Y-127015867D01*
X182583849Y-127028480D01*
X182561671Y-127038970D01*
X182538571Y-127047235D01*
X182514773Y-127053196D01*
X182490504Y-127056796D01*
X182466000Y-127058000D01*
X181516000Y-127058000D01*
X181491496Y-127056796D01*
X181467227Y-127053196D01*
X181443429Y-127047235D01*
X181420329Y-127038970D01*
X181398151Y-127028480D01*
X181377107Y-127015867D01*
X181357402Y-127001253D01*
X181339223Y-126984777D01*
X181322747Y-126966598D01*
X181308133Y-126946893D01*
X181295520Y-126925849D01*
X181285030Y-126903671D01*
X181276765Y-126880571D01*
X181270804Y-126856773D01*
X181267204Y-126832504D01*
X181266000Y-126808000D01*
X181266000Y-126308000D01*
X181267204Y-126283496D01*
X181270804Y-126259227D01*
X181276765Y-126235429D01*
X181285030Y-126212329D01*
X181295520Y-126190151D01*
X181308133Y-126169107D01*
X181322747Y-126149402D01*
X181339223Y-126131223D01*
X181357402Y-126114747D01*
X181377107Y-126100133D01*
X181398151Y-126087520D01*
X181420329Y-126077030D01*
X181443429Y-126068765D01*
X181467227Y-126062804D01*
X181491496Y-126059204D01*
X181516000Y-126058000D01*
X182466000Y-126058000D01*
X182490504Y-126059204D01*
G37*
G04 #@! TD.AperFunction*
G04 #@! TA.AperFunction,SMDPad,CuDef*
G36*
X185857722Y-153621874D02*
G01*
X185871313Y-153623890D01*
X185884640Y-153627228D01*
X185897576Y-153631857D01*
X185909996Y-153637731D01*
X185921780Y-153644794D01*
X185932815Y-153652979D01*
X185942995Y-153662205D01*
X185952221Y-153672385D01*
X185960406Y-153683420D01*
X185967469Y-153695204D01*
X185973343Y-153707624D01*
X185977972Y-153720560D01*
X185981310Y-153733887D01*
X185983326Y-153747478D01*
X185984000Y-153761200D01*
X185984000Y-154041200D01*
X185983326Y-154054922D01*
X185981310Y-154068513D01*
X185977972Y-154081840D01*
X185973343Y-154094776D01*
X185967469Y-154107196D01*
X185960406Y-154118980D01*
X185952221Y-154130015D01*
X185942995Y-154140195D01*
X185932815Y-154149421D01*
X185921780Y-154157606D01*
X185909996Y-154164669D01*
X185897576Y-154170543D01*
X185884640Y-154175172D01*
X185871313Y-154178510D01*
X185857722Y-154180526D01*
X185844000Y-154181200D01*
X185504000Y-154181200D01*
X185490278Y-154180526D01*
X185476687Y-154178510D01*
X185463360Y-154175172D01*
X185450424Y-154170543D01*
X185438004Y-154164669D01*
X185426220Y-154157606D01*
X185415185Y-154149421D01*
X185405005Y-154140195D01*
X185395779Y-154130015D01*
X185387594Y-154118980D01*
X185380531Y-154107196D01*
X185374657Y-154094776D01*
X185370028Y-154081840D01*
X185366690Y-154068513D01*
X185364674Y-154054922D01*
X185364000Y-154041200D01*
X185364000Y-153761200D01*
X185364674Y-153747478D01*
X185366690Y-153733887D01*
X185370028Y-153720560D01*
X185374657Y-153707624D01*
X185380531Y-153695204D01*
X185387594Y-153683420D01*
X185395779Y-153672385D01*
X185405005Y-153662205D01*
X185415185Y-153652979D01*
X185426220Y-153644794D01*
X185438004Y-153637731D01*
X185450424Y-153631857D01*
X185463360Y-153627228D01*
X185476687Y-153623890D01*
X185490278Y-153621874D01*
X185504000Y-153621200D01*
X185844000Y-153621200D01*
X185857722Y-153621874D01*
G37*
G04 #@! TD.AperFunction*
G04 #@! TA.AperFunction,SMDPad,CuDef*
G36*
X185857722Y-154581874D02*
G01*
X185871313Y-154583890D01*
X185884640Y-154587228D01*
X185897576Y-154591857D01*
X185909996Y-154597731D01*
X185921780Y-154604794D01*
X185932815Y-154612979D01*
X185942995Y-154622205D01*
X185952221Y-154632385D01*
X185960406Y-154643420D01*
X185967469Y-154655204D01*
X185973343Y-154667624D01*
X185977972Y-154680560D01*
X185981310Y-154693887D01*
X185983326Y-154707478D01*
X185984000Y-154721200D01*
X185984000Y-155001200D01*
X185983326Y-155014922D01*
X185981310Y-155028513D01*
X185977972Y-155041840D01*
X185973343Y-155054776D01*
X185967469Y-155067196D01*
X185960406Y-155078980D01*
X185952221Y-155090015D01*
X185942995Y-155100195D01*
X185932815Y-155109421D01*
X185921780Y-155117606D01*
X185909996Y-155124669D01*
X185897576Y-155130543D01*
X185884640Y-155135172D01*
X185871313Y-155138510D01*
X185857722Y-155140526D01*
X185844000Y-155141200D01*
X185504000Y-155141200D01*
X185490278Y-155140526D01*
X185476687Y-155138510D01*
X185463360Y-155135172D01*
X185450424Y-155130543D01*
X185438004Y-155124669D01*
X185426220Y-155117606D01*
X185415185Y-155109421D01*
X185405005Y-155100195D01*
X185395779Y-155090015D01*
X185387594Y-155078980D01*
X185380531Y-155067196D01*
X185374657Y-155054776D01*
X185370028Y-155041840D01*
X185366690Y-155028513D01*
X185364674Y-155014922D01*
X185364000Y-155001200D01*
X185364000Y-154721200D01*
X185364674Y-154707478D01*
X185366690Y-154693887D01*
X185370028Y-154680560D01*
X185374657Y-154667624D01*
X185380531Y-154655204D01*
X185387594Y-154643420D01*
X185395779Y-154632385D01*
X185405005Y-154622205D01*
X185415185Y-154612979D01*
X185426220Y-154604794D01*
X185438004Y-154597731D01*
X185450424Y-154591857D01*
X185463360Y-154587228D01*
X185476687Y-154583890D01*
X185490278Y-154581874D01*
X185504000Y-154581200D01*
X185844000Y-154581200D01*
X185857722Y-154581874D01*
G37*
G04 #@! TD.AperFunction*
G04 #@! TA.AperFunction,SMDPad,CuDef*
G36*
X184656722Y-130119674D02*
G01*
X184670313Y-130121690D01*
X184683640Y-130125028D01*
X184696576Y-130129657D01*
X184708996Y-130135531D01*
X184720780Y-130142594D01*
X184731815Y-130150779D01*
X184741995Y-130160005D01*
X184751221Y-130170185D01*
X184759406Y-130181220D01*
X184766469Y-130193004D01*
X184772343Y-130205424D01*
X184776972Y-130218360D01*
X184780310Y-130231687D01*
X184782326Y-130245278D01*
X184783000Y-130259000D01*
X184783000Y-130599000D01*
X184782326Y-130612722D01*
X184780310Y-130626313D01*
X184776972Y-130639640D01*
X184772343Y-130652576D01*
X184766469Y-130664996D01*
X184759406Y-130676780D01*
X184751221Y-130687815D01*
X184741995Y-130697995D01*
X184731815Y-130707221D01*
X184720780Y-130715406D01*
X184708996Y-130722469D01*
X184696576Y-130728343D01*
X184683640Y-130732972D01*
X184670313Y-130736310D01*
X184656722Y-130738326D01*
X184643000Y-130739000D01*
X184363000Y-130739000D01*
X184349278Y-130738326D01*
X184335687Y-130736310D01*
X184322360Y-130732972D01*
X184309424Y-130728343D01*
X184297004Y-130722469D01*
X184285220Y-130715406D01*
X184274185Y-130707221D01*
X184264005Y-130697995D01*
X184254779Y-130687815D01*
X184246594Y-130676780D01*
X184239531Y-130664996D01*
X184233657Y-130652576D01*
X184229028Y-130639640D01*
X184225690Y-130626313D01*
X184223674Y-130612722D01*
X184223000Y-130599000D01*
X184223000Y-130259000D01*
X184223674Y-130245278D01*
X184225690Y-130231687D01*
X184229028Y-130218360D01*
X184233657Y-130205424D01*
X184239531Y-130193004D01*
X184246594Y-130181220D01*
X184254779Y-130170185D01*
X184264005Y-130160005D01*
X184274185Y-130150779D01*
X184285220Y-130142594D01*
X184297004Y-130135531D01*
X184309424Y-130129657D01*
X184322360Y-130125028D01*
X184335687Y-130121690D01*
X184349278Y-130119674D01*
X184363000Y-130119000D01*
X184643000Y-130119000D01*
X184656722Y-130119674D01*
G37*
G04 #@! TD.AperFunction*
G04 #@! TA.AperFunction,SMDPad,CuDef*
G36*
X183696722Y-130119674D02*
G01*
X183710313Y-130121690D01*
X183723640Y-130125028D01*
X183736576Y-130129657D01*
X183748996Y-130135531D01*
X183760780Y-130142594D01*
X183771815Y-130150779D01*
X183781995Y-130160005D01*
X183791221Y-130170185D01*
X183799406Y-130181220D01*
X183806469Y-130193004D01*
X183812343Y-130205424D01*
X183816972Y-130218360D01*
X183820310Y-130231687D01*
X183822326Y-130245278D01*
X183823000Y-130259000D01*
X183823000Y-130599000D01*
X183822326Y-130612722D01*
X183820310Y-130626313D01*
X183816972Y-130639640D01*
X183812343Y-130652576D01*
X183806469Y-130664996D01*
X183799406Y-130676780D01*
X183791221Y-130687815D01*
X183781995Y-130697995D01*
X183771815Y-130707221D01*
X183760780Y-130715406D01*
X183748996Y-130722469D01*
X183736576Y-130728343D01*
X183723640Y-130732972D01*
X183710313Y-130736310D01*
X183696722Y-130738326D01*
X183683000Y-130739000D01*
X183403000Y-130739000D01*
X183389278Y-130738326D01*
X183375687Y-130736310D01*
X183362360Y-130732972D01*
X183349424Y-130728343D01*
X183337004Y-130722469D01*
X183325220Y-130715406D01*
X183314185Y-130707221D01*
X183304005Y-130697995D01*
X183294779Y-130687815D01*
X183286594Y-130676780D01*
X183279531Y-130664996D01*
X183273657Y-130652576D01*
X183269028Y-130639640D01*
X183265690Y-130626313D01*
X183263674Y-130612722D01*
X183263000Y-130599000D01*
X183263000Y-130259000D01*
X183263674Y-130245278D01*
X183265690Y-130231687D01*
X183269028Y-130218360D01*
X183273657Y-130205424D01*
X183279531Y-130193004D01*
X183286594Y-130181220D01*
X183294779Y-130170185D01*
X183304005Y-130160005D01*
X183314185Y-130150779D01*
X183325220Y-130142594D01*
X183337004Y-130135531D01*
X183349424Y-130129657D01*
X183362360Y-130125028D01*
X183375687Y-130121690D01*
X183389278Y-130119674D01*
X183403000Y-130119000D01*
X183683000Y-130119000D01*
X183696722Y-130119674D01*
G37*
G04 #@! TD.AperFunction*
G04 #@! TA.AperFunction,SMDPad,CuDef*
G36*
X184712722Y-156611874D02*
G01*
X184726313Y-156613890D01*
X184739640Y-156617228D01*
X184752576Y-156621857D01*
X184764996Y-156627731D01*
X184776780Y-156634794D01*
X184787815Y-156642979D01*
X184797995Y-156652205D01*
X184807221Y-156662385D01*
X184815406Y-156673420D01*
X184822469Y-156685204D01*
X184828343Y-156697624D01*
X184832972Y-156710560D01*
X184836310Y-156723887D01*
X184838326Y-156737478D01*
X184839000Y-156751200D01*
X184839000Y-157091200D01*
X184838326Y-157104922D01*
X184836310Y-157118513D01*
X184832972Y-157131840D01*
X184828343Y-157144776D01*
X184822469Y-157157196D01*
X184815406Y-157168980D01*
X184807221Y-157180015D01*
X184797995Y-157190195D01*
X184787815Y-157199421D01*
X184776780Y-157207606D01*
X184764996Y-157214669D01*
X184752576Y-157220543D01*
X184739640Y-157225172D01*
X184726313Y-157228510D01*
X184712722Y-157230526D01*
X184699000Y-157231200D01*
X184419000Y-157231200D01*
X184405278Y-157230526D01*
X184391687Y-157228510D01*
X184378360Y-157225172D01*
X184365424Y-157220543D01*
X184353004Y-157214669D01*
X184341220Y-157207606D01*
X184330185Y-157199421D01*
X184320005Y-157190195D01*
X184310779Y-157180015D01*
X184302594Y-157168980D01*
X184295531Y-157157196D01*
X184289657Y-157144776D01*
X184285028Y-157131840D01*
X184281690Y-157118513D01*
X184279674Y-157104922D01*
X184279000Y-157091200D01*
X184279000Y-156751200D01*
X184279674Y-156737478D01*
X184281690Y-156723887D01*
X184285028Y-156710560D01*
X184289657Y-156697624D01*
X184295531Y-156685204D01*
X184302594Y-156673420D01*
X184310779Y-156662385D01*
X184320005Y-156652205D01*
X184330185Y-156642979D01*
X184341220Y-156634794D01*
X184353004Y-156627731D01*
X184365424Y-156621857D01*
X184378360Y-156617228D01*
X184391687Y-156613890D01*
X184405278Y-156611874D01*
X184419000Y-156611200D01*
X184699000Y-156611200D01*
X184712722Y-156611874D01*
G37*
G04 #@! TD.AperFunction*
G04 #@! TA.AperFunction,SMDPad,CuDef*
G36*
X185672722Y-156611874D02*
G01*
X185686313Y-156613890D01*
X185699640Y-156617228D01*
X185712576Y-156621857D01*
X185724996Y-156627731D01*
X185736780Y-156634794D01*
X185747815Y-156642979D01*
X185757995Y-156652205D01*
X185767221Y-156662385D01*
X185775406Y-156673420D01*
X185782469Y-156685204D01*
X185788343Y-156697624D01*
X185792972Y-156710560D01*
X185796310Y-156723887D01*
X185798326Y-156737478D01*
X185799000Y-156751200D01*
X185799000Y-157091200D01*
X185798326Y-157104922D01*
X185796310Y-157118513D01*
X185792972Y-157131840D01*
X185788343Y-157144776D01*
X185782469Y-157157196D01*
X185775406Y-157168980D01*
X185767221Y-157180015D01*
X185757995Y-157190195D01*
X185747815Y-157199421D01*
X185736780Y-157207606D01*
X185724996Y-157214669D01*
X185712576Y-157220543D01*
X185699640Y-157225172D01*
X185686313Y-157228510D01*
X185672722Y-157230526D01*
X185659000Y-157231200D01*
X185379000Y-157231200D01*
X185365278Y-157230526D01*
X185351687Y-157228510D01*
X185338360Y-157225172D01*
X185325424Y-157220543D01*
X185313004Y-157214669D01*
X185301220Y-157207606D01*
X185290185Y-157199421D01*
X185280005Y-157190195D01*
X185270779Y-157180015D01*
X185262594Y-157168980D01*
X185255531Y-157157196D01*
X185249657Y-157144776D01*
X185245028Y-157131840D01*
X185241690Y-157118513D01*
X185239674Y-157104922D01*
X185239000Y-157091200D01*
X185239000Y-156751200D01*
X185239674Y-156737478D01*
X185241690Y-156723887D01*
X185245028Y-156710560D01*
X185249657Y-156697624D01*
X185255531Y-156685204D01*
X185262594Y-156673420D01*
X185270779Y-156662385D01*
X185280005Y-156652205D01*
X185290185Y-156642979D01*
X185301220Y-156634794D01*
X185313004Y-156627731D01*
X185325424Y-156621857D01*
X185338360Y-156617228D01*
X185351687Y-156613890D01*
X185365278Y-156611874D01*
X185379000Y-156611200D01*
X185659000Y-156611200D01*
X185672722Y-156611874D01*
G37*
G04 #@! TD.AperFunction*
G04 #@! TA.AperFunction,SMDPad,CuDef*
G36*
X184049722Y-144216674D02*
G01*
X184063313Y-144218690D01*
X184076640Y-144222028D01*
X184089576Y-144226657D01*
X184101996Y-144232531D01*
X184113780Y-144239594D01*
X184124815Y-144247779D01*
X184134995Y-144257005D01*
X184144221Y-144267185D01*
X184152406Y-144278220D01*
X184159469Y-144290004D01*
X184165343Y-144302424D01*
X184169972Y-144315360D01*
X184173310Y-144328687D01*
X184175326Y-144342278D01*
X184176000Y-144356000D01*
X184176000Y-144696000D01*
X184175326Y-144709722D01*
X184173310Y-144723313D01*
X184169972Y-144736640D01*
X184165343Y-144749576D01*
X184159469Y-144761996D01*
X184152406Y-144773780D01*
X184144221Y-144784815D01*
X184134995Y-144794995D01*
X184124815Y-144804221D01*
X184113780Y-144812406D01*
X184101996Y-144819469D01*
X184089576Y-144825343D01*
X184076640Y-144829972D01*
X184063313Y-144833310D01*
X184049722Y-144835326D01*
X184036000Y-144836000D01*
X183756000Y-144836000D01*
X183742278Y-144835326D01*
X183728687Y-144833310D01*
X183715360Y-144829972D01*
X183702424Y-144825343D01*
X183690004Y-144819469D01*
X183678220Y-144812406D01*
X183667185Y-144804221D01*
X183657005Y-144794995D01*
X183647779Y-144784815D01*
X183639594Y-144773780D01*
X183632531Y-144761996D01*
X183626657Y-144749576D01*
X183622028Y-144736640D01*
X183618690Y-144723313D01*
X183616674Y-144709722D01*
X183616000Y-144696000D01*
X183616000Y-144356000D01*
X183616674Y-144342278D01*
X183618690Y-144328687D01*
X183622028Y-144315360D01*
X183626657Y-144302424D01*
X183632531Y-144290004D01*
X183639594Y-144278220D01*
X183647779Y-144267185D01*
X183657005Y-144257005D01*
X183667185Y-144247779D01*
X183678220Y-144239594D01*
X183690004Y-144232531D01*
X183702424Y-144226657D01*
X183715360Y-144222028D01*
X183728687Y-144218690D01*
X183742278Y-144216674D01*
X183756000Y-144216000D01*
X184036000Y-144216000D01*
X184049722Y-144216674D01*
G37*
G04 #@! TD.AperFunction*
G04 #@! TA.AperFunction,SMDPad,CuDef*
G36*
X183089722Y-144216674D02*
G01*
X183103313Y-144218690D01*
X183116640Y-144222028D01*
X183129576Y-144226657D01*
X183141996Y-144232531D01*
X183153780Y-144239594D01*
X183164815Y-144247779D01*
X183174995Y-144257005D01*
X183184221Y-144267185D01*
X183192406Y-144278220D01*
X183199469Y-144290004D01*
X183205343Y-144302424D01*
X183209972Y-144315360D01*
X183213310Y-144328687D01*
X183215326Y-144342278D01*
X183216000Y-144356000D01*
X183216000Y-144696000D01*
X183215326Y-144709722D01*
X183213310Y-144723313D01*
X183209972Y-144736640D01*
X183205343Y-144749576D01*
X183199469Y-144761996D01*
X183192406Y-144773780D01*
X183184221Y-144784815D01*
X183174995Y-144794995D01*
X183164815Y-144804221D01*
X183153780Y-144812406D01*
X183141996Y-144819469D01*
X183129576Y-144825343D01*
X183116640Y-144829972D01*
X183103313Y-144833310D01*
X183089722Y-144835326D01*
X183076000Y-144836000D01*
X182796000Y-144836000D01*
X182782278Y-144835326D01*
X182768687Y-144833310D01*
X182755360Y-144829972D01*
X182742424Y-144825343D01*
X182730004Y-144819469D01*
X182718220Y-144812406D01*
X182707185Y-144804221D01*
X182697005Y-144794995D01*
X182687779Y-144784815D01*
X182679594Y-144773780D01*
X182672531Y-144761996D01*
X182666657Y-144749576D01*
X182662028Y-144736640D01*
X182658690Y-144723313D01*
X182656674Y-144709722D01*
X182656000Y-144696000D01*
X182656000Y-144356000D01*
X182656674Y-144342278D01*
X182658690Y-144328687D01*
X182662028Y-144315360D01*
X182666657Y-144302424D01*
X182672531Y-144290004D01*
X182679594Y-144278220D01*
X182687779Y-144267185D01*
X182697005Y-144257005D01*
X182707185Y-144247779D01*
X182718220Y-144239594D01*
X182730004Y-144232531D01*
X182742424Y-144226657D01*
X182755360Y-144222028D01*
X182768687Y-144218690D01*
X182782278Y-144216674D01*
X182796000Y-144216000D01*
X183076000Y-144216000D01*
X183089722Y-144216674D01*
G37*
G04 #@! TD.AperFunction*
G04 #@! TA.AperFunction,SMDPad,CuDef*
G36*
X183132722Y-135504474D02*
G01*
X183146313Y-135506490D01*
X183159640Y-135509828D01*
X183172576Y-135514457D01*
X183184996Y-135520331D01*
X183196780Y-135527394D01*
X183207815Y-135535579D01*
X183217995Y-135544805D01*
X183227221Y-135554985D01*
X183235406Y-135566020D01*
X183242469Y-135577804D01*
X183248343Y-135590224D01*
X183252972Y-135603160D01*
X183256310Y-135616487D01*
X183258326Y-135630078D01*
X183259000Y-135643800D01*
X183259000Y-135983800D01*
X183258326Y-135997522D01*
X183256310Y-136011113D01*
X183252972Y-136024440D01*
X183248343Y-136037376D01*
X183242469Y-136049796D01*
X183235406Y-136061580D01*
X183227221Y-136072615D01*
X183217995Y-136082795D01*
X183207815Y-136092021D01*
X183196780Y-136100206D01*
X183184996Y-136107269D01*
X183172576Y-136113143D01*
X183159640Y-136117772D01*
X183146313Y-136121110D01*
X183132722Y-136123126D01*
X183119000Y-136123800D01*
X182839000Y-136123800D01*
X182825278Y-136123126D01*
X182811687Y-136121110D01*
X182798360Y-136117772D01*
X182785424Y-136113143D01*
X182773004Y-136107269D01*
X182761220Y-136100206D01*
X182750185Y-136092021D01*
X182740005Y-136082795D01*
X182730779Y-136072615D01*
X182722594Y-136061580D01*
X182715531Y-136049796D01*
X182709657Y-136037376D01*
X182705028Y-136024440D01*
X182701690Y-136011113D01*
X182699674Y-135997522D01*
X182699000Y-135983800D01*
X182699000Y-135643800D01*
X182699674Y-135630078D01*
X182701690Y-135616487D01*
X182705028Y-135603160D01*
X182709657Y-135590224D01*
X182715531Y-135577804D01*
X182722594Y-135566020D01*
X182730779Y-135554985D01*
X182740005Y-135544805D01*
X182750185Y-135535579D01*
X182761220Y-135527394D01*
X182773004Y-135520331D01*
X182785424Y-135514457D01*
X182798360Y-135509828D01*
X182811687Y-135506490D01*
X182825278Y-135504474D01*
X182839000Y-135503800D01*
X183119000Y-135503800D01*
X183132722Y-135504474D01*
G37*
G04 #@! TD.AperFunction*
G04 #@! TA.AperFunction,SMDPad,CuDef*
G36*
X182172722Y-135504474D02*
G01*
X182186313Y-135506490D01*
X182199640Y-135509828D01*
X182212576Y-135514457D01*
X182224996Y-135520331D01*
X182236780Y-135527394D01*
X182247815Y-135535579D01*
X182257995Y-135544805D01*
X182267221Y-135554985D01*
X182275406Y-135566020D01*
X182282469Y-135577804D01*
X182288343Y-135590224D01*
X182292972Y-135603160D01*
X182296310Y-135616487D01*
X182298326Y-135630078D01*
X182299000Y-135643800D01*
X182299000Y-135983800D01*
X182298326Y-135997522D01*
X182296310Y-136011113D01*
X182292972Y-136024440D01*
X182288343Y-136037376D01*
X182282469Y-136049796D01*
X182275406Y-136061580D01*
X182267221Y-136072615D01*
X182257995Y-136082795D01*
X182247815Y-136092021D01*
X182236780Y-136100206D01*
X182224996Y-136107269D01*
X182212576Y-136113143D01*
X182199640Y-136117772D01*
X182186313Y-136121110D01*
X182172722Y-136123126D01*
X182159000Y-136123800D01*
X181879000Y-136123800D01*
X181865278Y-136123126D01*
X181851687Y-136121110D01*
X181838360Y-136117772D01*
X181825424Y-136113143D01*
X181813004Y-136107269D01*
X181801220Y-136100206D01*
X181790185Y-136092021D01*
X181780005Y-136082795D01*
X181770779Y-136072615D01*
X181762594Y-136061580D01*
X181755531Y-136049796D01*
X181749657Y-136037376D01*
X181745028Y-136024440D01*
X181741690Y-136011113D01*
X181739674Y-135997522D01*
X181739000Y-135983800D01*
X181739000Y-135643800D01*
X181739674Y-135630078D01*
X181741690Y-135616487D01*
X181745028Y-135603160D01*
X181749657Y-135590224D01*
X181755531Y-135577804D01*
X181762594Y-135566020D01*
X181770779Y-135554985D01*
X181780005Y-135544805D01*
X181790185Y-135535579D01*
X181801220Y-135527394D01*
X181813004Y-135520331D01*
X181825424Y-135514457D01*
X181838360Y-135509828D01*
X181851687Y-135506490D01*
X181865278Y-135504474D01*
X181879000Y-135503800D01*
X182159000Y-135503800D01*
X182172722Y-135504474D01*
G37*
G04 #@! TD.AperFunction*
G04 #@! TA.AperFunction,SMDPad,CuDef*
G36*
X184333722Y-135511674D02*
G01*
X184347313Y-135513690D01*
X184360640Y-135517028D01*
X184373576Y-135521657D01*
X184385996Y-135527531D01*
X184397780Y-135534594D01*
X184408815Y-135542779D01*
X184418995Y-135552005D01*
X184428221Y-135562185D01*
X184436406Y-135573220D01*
X184443469Y-135585004D01*
X184449343Y-135597424D01*
X184453972Y-135610360D01*
X184457310Y-135623687D01*
X184459326Y-135637278D01*
X184460000Y-135651000D01*
X184460000Y-135931000D01*
X184459326Y-135944722D01*
X184457310Y-135958313D01*
X184453972Y-135971640D01*
X184449343Y-135984576D01*
X184443469Y-135996996D01*
X184436406Y-136008780D01*
X184428221Y-136019815D01*
X184418995Y-136029995D01*
X184408815Y-136039221D01*
X184397780Y-136047406D01*
X184385996Y-136054469D01*
X184373576Y-136060343D01*
X184360640Y-136064972D01*
X184347313Y-136068310D01*
X184333722Y-136070326D01*
X184320000Y-136071000D01*
X183980000Y-136071000D01*
X183966278Y-136070326D01*
X183952687Y-136068310D01*
X183939360Y-136064972D01*
X183926424Y-136060343D01*
X183914004Y-136054469D01*
X183902220Y-136047406D01*
X183891185Y-136039221D01*
X183881005Y-136029995D01*
X183871779Y-136019815D01*
X183863594Y-136008780D01*
X183856531Y-135996996D01*
X183850657Y-135984576D01*
X183846028Y-135971640D01*
X183842690Y-135958313D01*
X183840674Y-135944722D01*
X183840000Y-135931000D01*
X183840000Y-135651000D01*
X183840674Y-135637278D01*
X183842690Y-135623687D01*
X183846028Y-135610360D01*
X183850657Y-135597424D01*
X183856531Y-135585004D01*
X183863594Y-135573220D01*
X183871779Y-135562185D01*
X183881005Y-135552005D01*
X183891185Y-135542779D01*
X183902220Y-135534594D01*
X183914004Y-135527531D01*
X183926424Y-135521657D01*
X183939360Y-135517028D01*
X183952687Y-135513690D01*
X183966278Y-135511674D01*
X183980000Y-135511000D01*
X184320000Y-135511000D01*
X184333722Y-135511674D01*
G37*
G04 #@! TD.AperFunction*
G04 #@! TA.AperFunction,SMDPad,CuDef*
G36*
X184333722Y-136471674D02*
G01*
X184347313Y-136473690D01*
X184360640Y-136477028D01*
X184373576Y-136481657D01*
X184385996Y-136487531D01*
X184397780Y-136494594D01*
X184408815Y-136502779D01*
X184418995Y-136512005D01*
X184428221Y-136522185D01*
X184436406Y-136533220D01*
X184443469Y-136545004D01*
X184449343Y-136557424D01*
X184453972Y-136570360D01*
X184457310Y-136583687D01*
X184459326Y-136597278D01*
X184460000Y-136611000D01*
X184460000Y-136891000D01*
X184459326Y-136904722D01*
X184457310Y-136918313D01*
X184453972Y-136931640D01*
X184449343Y-136944576D01*
X184443469Y-136956996D01*
X184436406Y-136968780D01*
X184428221Y-136979815D01*
X184418995Y-136989995D01*
X184408815Y-136999221D01*
X184397780Y-137007406D01*
X184385996Y-137014469D01*
X184373576Y-137020343D01*
X184360640Y-137024972D01*
X184347313Y-137028310D01*
X184333722Y-137030326D01*
X184320000Y-137031000D01*
X183980000Y-137031000D01*
X183966278Y-137030326D01*
X183952687Y-137028310D01*
X183939360Y-137024972D01*
X183926424Y-137020343D01*
X183914004Y-137014469D01*
X183902220Y-137007406D01*
X183891185Y-136999221D01*
X183881005Y-136989995D01*
X183871779Y-136979815D01*
X183863594Y-136968780D01*
X183856531Y-136956996D01*
X183850657Y-136944576D01*
X183846028Y-136931640D01*
X183842690Y-136918313D01*
X183840674Y-136904722D01*
X183840000Y-136891000D01*
X183840000Y-136611000D01*
X183840674Y-136597278D01*
X183842690Y-136583687D01*
X183846028Y-136570360D01*
X183850657Y-136557424D01*
X183856531Y-136545004D01*
X183863594Y-136533220D01*
X183871779Y-136522185D01*
X183881005Y-136512005D01*
X183891185Y-136502779D01*
X183902220Y-136494594D01*
X183914004Y-136487531D01*
X183926424Y-136481657D01*
X183939360Y-136477028D01*
X183952687Y-136473690D01*
X183966278Y-136471674D01*
X183980000Y-136471000D01*
X184320000Y-136471000D01*
X184333722Y-136471674D01*
G37*
G04 #@! TD.AperFunction*
G04 #@! TA.AperFunction,SMDPad,CuDef*
G36*
X180719722Y-154071874D02*
G01*
X180733313Y-154073890D01*
X180746640Y-154077228D01*
X180759576Y-154081857D01*
X180771996Y-154087731D01*
X180783780Y-154094794D01*
X180794815Y-154102979D01*
X180804995Y-154112205D01*
X180814221Y-154122385D01*
X180822406Y-154133420D01*
X180829469Y-154145204D01*
X180835343Y-154157624D01*
X180839972Y-154170560D01*
X180843310Y-154183887D01*
X180845326Y-154197478D01*
X180846000Y-154211200D01*
X180846000Y-154551200D01*
X180845326Y-154564922D01*
X180843310Y-154578513D01*
X180839972Y-154591840D01*
X180835343Y-154604776D01*
X180829469Y-154617196D01*
X180822406Y-154628980D01*
X180814221Y-154640015D01*
X180804995Y-154650195D01*
X180794815Y-154659421D01*
X180783780Y-154667606D01*
X180771996Y-154674669D01*
X180759576Y-154680543D01*
X180746640Y-154685172D01*
X180733313Y-154688510D01*
X180719722Y-154690526D01*
X180706000Y-154691200D01*
X180426000Y-154691200D01*
X180412278Y-154690526D01*
X180398687Y-154688510D01*
X180385360Y-154685172D01*
X180372424Y-154680543D01*
X180360004Y-154674669D01*
X180348220Y-154667606D01*
X180337185Y-154659421D01*
X180327005Y-154650195D01*
X180317779Y-154640015D01*
X180309594Y-154628980D01*
X180302531Y-154617196D01*
X180296657Y-154604776D01*
X180292028Y-154591840D01*
X180288690Y-154578513D01*
X180286674Y-154564922D01*
X180286000Y-154551200D01*
X180286000Y-154211200D01*
X180286674Y-154197478D01*
X180288690Y-154183887D01*
X180292028Y-154170560D01*
X180296657Y-154157624D01*
X180302531Y-154145204D01*
X180309594Y-154133420D01*
X180317779Y-154122385D01*
X180327005Y-154112205D01*
X180337185Y-154102979D01*
X180348220Y-154094794D01*
X180360004Y-154087731D01*
X180372424Y-154081857D01*
X180385360Y-154077228D01*
X180398687Y-154073890D01*
X180412278Y-154071874D01*
X180426000Y-154071200D01*
X180706000Y-154071200D01*
X180719722Y-154071874D01*
G37*
G04 #@! TD.AperFunction*
G04 #@! TA.AperFunction,SMDPad,CuDef*
G36*
X179759722Y-154071874D02*
G01*
X179773313Y-154073890D01*
X179786640Y-154077228D01*
X179799576Y-154081857D01*
X179811996Y-154087731D01*
X179823780Y-154094794D01*
X179834815Y-154102979D01*
X179844995Y-154112205D01*
X179854221Y-154122385D01*
X179862406Y-154133420D01*
X179869469Y-154145204D01*
X179875343Y-154157624D01*
X179879972Y-154170560D01*
X179883310Y-154183887D01*
X179885326Y-154197478D01*
X179886000Y-154211200D01*
X179886000Y-154551200D01*
X179885326Y-154564922D01*
X179883310Y-154578513D01*
X179879972Y-154591840D01*
X179875343Y-154604776D01*
X179869469Y-154617196D01*
X179862406Y-154628980D01*
X179854221Y-154640015D01*
X179844995Y-154650195D01*
X179834815Y-154659421D01*
X179823780Y-154667606D01*
X179811996Y-154674669D01*
X179799576Y-154680543D01*
X179786640Y-154685172D01*
X179773313Y-154688510D01*
X179759722Y-154690526D01*
X179746000Y-154691200D01*
X179466000Y-154691200D01*
X179452278Y-154690526D01*
X179438687Y-154688510D01*
X179425360Y-154685172D01*
X179412424Y-154680543D01*
X179400004Y-154674669D01*
X179388220Y-154667606D01*
X179377185Y-154659421D01*
X179367005Y-154650195D01*
X179357779Y-154640015D01*
X179349594Y-154628980D01*
X179342531Y-154617196D01*
X179336657Y-154604776D01*
X179332028Y-154591840D01*
X179328690Y-154578513D01*
X179326674Y-154564922D01*
X179326000Y-154551200D01*
X179326000Y-154211200D01*
X179326674Y-154197478D01*
X179328690Y-154183887D01*
X179332028Y-154170560D01*
X179336657Y-154157624D01*
X179342531Y-154145204D01*
X179349594Y-154133420D01*
X179357779Y-154122385D01*
X179367005Y-154112205D01*
X179377185Y-154102979D01*
X179388220Y-154094794D01*
X179400004Y-154087731D01*
X179412424Y-154081857D01*
X179425360Y-154077228D01*
X179438687Y-154073890D01*
X179452278Y-154071874D01*
X179466000Y-154071200D01*
X179746000Y-154071200D01*
X179759722Y-154071874D01*
G37*
G04 #@! TD.AperFunction*
G04 #@! TA.AperFunction,SMDPad,CuDef*
G36*
X181158722Y-156415874D02*
G01*
X181172313Y-156417890D01*
X181185640Y-156421228D01*
X181198576Y-156425857D01*
X181210996Y-156431731D01*
X181222780Y-156438794D01*
X181233815Y-156446979D01*
X181243995Y-156456205D01*
X181253221Y-156466385D01*
X181261406Y-156477420D01*
X181268469Y-156489204D01*
X181274343Y-156501624D01*
X181278972Y-156514560D01*
X181282310Y-156527887D01*
X181284326Y-156541478D01*
X181285000Y-156555200D01*
X181285000Y-156835200D01*
X181284326Y-156848922D01*
X181282310Y-156862513D01*
X181278972Y-156875840D01*
X181274343Y-156888776D01*
X181268469Y-156901196D01*
X181261406Y-156912980D01*
X181253221Y-156924015D01*
X181243995Y-156934195D01*
X181233815Y-156943421D01*
X181222780Y-156951606D01*
X181210996Y-156958669D01*
X181198576Y-156964543D01*
X181185640Y-156969172D01*
X181172313Y-156972510D01*
X181158722Y-156974526D01*
X181145000Y-156975200D01*
X180805000Y-156975200D01*
X180791278Y-156974526D01*
X180777687Y-156972510D01*
X180764360Y-156969172D01*
X180751424Y-156964543D01*
X180739004Y-156958669D01*
X180727220Y-156951606D01*
X180716185Y-156943421D01*
X180706005Y-156934195D01*
X180696779Y-156924015D01*
X180688594Y-156912980D01*
X180681531Y-156901196D01*
X180675657Y-156888776D01*
X180671028Y-156875840D01*
X180667690Y-156862513D01*
X180665674Y-156848922D01*
X180665000Y-156835200D01*
X180665000Y-156555200D01*
X180665674Y-156541478D01*
X180667690Y-156527887D01*
X180671028Y-156514560D01*
X180675657Y-156501624D01*
X180681531Y-156489204D01*
X180688594Y-156477420D01*
X180696779Y-156466385D01*
X180706005Y-156456205D01*
X180716185Y-156446979D01*
X180727220Y-156438794D01*
X180739004Y-156431731D01*
X180751424Y-156425857D01*
X180764360Y-156421228D01*
X180777687Y-156417890D01*
X180791278Y-156415874D01*
X180805000Y-156415200D01*
X181145000Y-156415200D01*
X181158722Y-156415874D01*
G37*
G04 #@! TD.AperFunction*
G04 #@! TA.AperFunction,SMDPad,CuDef*
G36*
X181158722Y-157375874D02*
G01*
X181172313Y-157377890D01*
X181185640Y-157381228D01*
X181198576Y-157385857D01*
X181210996Y-157391731D01*
X181222780Y-157398794D01*
X181233815Y-157406979D01*
X181243995Y-157416205D01*
X181253221Y-157426385D01*
X181261406Y-157437420D01*
X181268469Y-157449204D01*
X181274343Y-157461624D01*
X181278972Y-157474560D01*
X181282310Y-157487887D01*
X181284326Y-157501478D01*
X181285000Y-157515200D01*
X181285000Y-157795200D01*
X181284326Y-157808922D01*
X181282310Y-157822513D01*
X181278972Y-157835840D01*
X181274343Y-157848776D01*
X181268469Y-157861196D01*
X181261406Y-157872980D01*
X181253221Y-157884015D01*
X181243995Y-157894195D01*
X181233815Y-157903421D01*
X181222780Y-157911606D01*
X181210996Y-157918669D01*
X181198576Y-157924543D01*
X181185640Y-157929172D01*
X181172313Y-157932510D01*
X181158722Y-157934526D01*
X181145000Y-157935200D01*
X180805000Y-157935200D01*
X180791278Y-157934526D01*
X180777687Y-157932510D01*
X180764360Y-157929172D01*
X180751424Y-157924543D01*
X180739004Y-157918669D01*
X180727220Y-157911606D01*
X180716185Y-157903421D01*
X180706005Y-157894195D01*
X180696779Y-157884015D01*
X180688594Y-157872980D01*
X180681531Y-157861196D01*
X180675657Y-157848776D01*
X180671028Y-157835840D01*
X180667690Y-157822513D01*
X180665674Y-157808922D01*
X180665000Y-157795200D01*
X180665000Y-157515200D01*
X180665674Y-157501478D01*
X180667690Y-157487887D01*
X180671028Y-157474560D01*
X180675657Y-157461624D01*
X180681531Y-157449204D01*
X180688594Y-157437420D01*
X180696779Y-157426385D01*
X180706005Y-157416205D01*
X180716185Y-157406979D01*
X180727220Y-157398794D01*
X180739004Y-157391731D01*
X180751424Y-157385857D01*
X180764360Y-157381228D01*
X180777687Y-157377890D01*
X180791278Y-157375874D01*
X180805000Y-157375200D01*
X181145000Y-157375200D01*
X181158722Y-157375874D01*
G37*
G04 #@! TD.AperFunction*
G04 #@! TA.AperFunction,SMDPad,CuDef*
G36*
X183132722Y-157246874D02*
G01*
X183146313Y-157248890D01*
X183159640Y-157252228D01*
X183172576Y-157256857D01*
X183184996Y-157262731D01*
X183196780Y-157269794D01*
X183207815Y-157277979D01*
X183217995Y-157287205D01*
X183227221Y-157297385D01*
X183235406Y-157308420D01*
X183242469Y-157320204D01*
X183248343Y-157332624D01*
X183252972Y-157345560D01*
X183256310Y-157358887D01*
X183258326Y-157372478D01*
X183259000Y-157386200D01*
X183259000Y-157726200D01*
X183258326Y-157739922D01*
X183256310Y-157753513D01*
X183252972Y-157766840D01*
X183248343Y-157779776D01*
X183242469Y-157792196D01*
X183235406Y-157803980D01*
X183227221Y-157815015D01*
X183217995Y-157825195D01*
X183207815Y-157834421D01*
X183196780Y-157842606D01*
X183184996Y-157849669D01*
X183172576Y-157855543D01*
X183159640Y-157860172D01*
X183146313Y-157863510D01*
X183132722Y-157865526D01*
X183119000Y-157866200D01*
X182839000Y-157866200D01*
X182825278Y-157865526D01*
X182811687Y-157863510D01*
X182798360Y-157860172D01*
X182785424Y-157855543D01*
X182773004Y-157849669D01*
X182761220Y-157842606D01*
X182750185Y-157834421D01*
X182740005Y-157825195D01*
X182730779Y-157815015D01*
X182722594Y-157803980D01*
X182715531Y-157792196D01*
X182709657Y-157779776D01*
X182705028Y-157766840D01*
X182701690Y-157753513D01*
X182699674Y-157739922D01*
X182699000Y-157726200D01*
X182699000Y-157386200D01*
X182699674Y-157372478D01*
X182701690Y-157358887D01*
X182705028Y-157345560D01*
X182709657Y-157332624D01*
X182715531Y-157320204D01*
X182722594Y-157308420D01*
X182730779Y-157297385D01*
X182740005Y-157287205D01*
X182750185Y-157277979D01*
X182761220Y-157269794D01*
X182773004Y-157262731D01*
X182785424Y-157256857D01*
X182798360Y-157252228D01*
X182811687Y-157248890D01*
X182825278Y-157246874D01*
X182839000Y-157246200D01*
X183119000Y-157246200D01*
X183132722Y-157246874D01*
G37*
G04 #@! TD.AperFunction*
G04 #@! TA.AperFunction,SMDPad,CuDef*
G36*
X182172722Y-157246874D02*
G01*
X182186313Y-157248890D01*
X182199640Y-157252228D01*
X182212576Y-157256857D01*
X182224996Y-157262731D01*
X182236780Y-157269794D01*
X182247815Y-157277979D01*
X182257995Y-157287205D01*
X182267221Y-157297385D01*
X182275406Y-157308420D01*
X182282469Y-157320204D01*
X182288343Y-157332624D01*
X182292972Y-157345560D01*
X182296310Y-157358887D01*
X182298326Y-157372478D01*
X182299000Y-157386200D01*
X182299000Y-157726200D01*
X182298326Y-157739922D01*
X182296310Y-157753513D01*
X182292972Y-157766840D01*
X182288343Y-157779776D01*
X182282469Y-157792196D01*
X182275406Y-157803980D01*
X182267221Y-157815015D01*
X182257995Y-157825195D01*
X182247815Y-157834421D01*
X182236780Y-157842606D01*
X182224996Y-157849669D01*
X182212576Y-157855543D01*
X182199640Y-157860172D01*
X182186313Y-157863510D01*
X182172722Y-157865526D01*
X182159000Y-157866200D01*
X181879000Y-157866200D01*
X181865278Y-157865526D01*
X181851687Y-157863510D01*
X181838360Y-157860172D01*
X181825424Y-157855543D01*
X181813004Y-157849669D01*
X181801220Y-157842606D01*
X181790185Y-157834421D01*
X181780005Y-157825195D01*
X181770779Y-157815015D01*
X181762594Y-157803980D01*
X181755531Y-157792196D01*
X181749657Y-157779776D01*
X181745028Y-157766840D01*
X181741690Y-157753513D01*
X181739674Y-157739922D01*
X181739000Y-157726200D01*
X181739000Y-157386200D01*
X181739674Y-157372478D01*
X181741690Y-157358887D01*
X181745028Y-157345560D01*
X181749657Y-157332624D01*
X181755531Y-157320204D01*
X181762594Y-157308420D01*
X181770779Y-157297385D01*
X181780005Y-157287205D01*
X181790185Y-157277979D01*
X181801220Y-157269794D01*
X181813004Y-157262731D01*
X181825424Y-157256857D01*
X181838360Y-157252228D01*
X181851687Y-157248890D01*
X181865278Y-157246874D01*
X181879000Y-157246200D01*
X182159000Y-157246200D01*
X182172722Y-157246874D01*
G37*
G04 #@! TD.AperFunction*
D14*
X184912000Y-126431000D03*
X185688002Y-130110001D03*
X182979000Y-135813800D03*
X182245000Y-156718000D03*
X183388000Y-155270200D03*
X187336549Y-149744549D03*
X179367772Y-150056347D03*
X183885330Y-142911999D03*
X183482402Y-147308989D03*
X181229000Y-160477200D03*
X182803800Y-160477200D03*
X186791600Y-160477200D03*
X184912000Y-128331000D03*
X182894614Y-130028586D03*
X184759601Y-138455400D03*
X182019000Y-135813800D03*
X183289658Y-152766671D03*
X178725000Y-154432000D03*
X179625012Y-158496000D03*
X187725850Y-154598343D03*
X183668368Y-157356420D03*
X182753000Y-148709000D03*
X182019000Y-157556200D03*
X181188381Y-155969074D03*
X181406800Y-144399000D03*
X185434827Y-133859202D03*
X185978800Y-159577189D03*
X181991000Y-126558000D03*
X184191126Y-157650913D03*
X184302400Y-140597000D03*
X180675152Y-160246430D03*
X180670200Y-138734800D03*
X182829200Y-138684000D03*
X184404000Y-159577189D03*
X184785340Y-157734047D03*
X184759600Y-141097000D03*
X181559200Y-140893800D03*
X182803800Y-133934200D03*
X184835800Y-133967600D03*
X185168307Y-159593475D03*
X185877200Y-157657800D03*
X185293000Y-134442200D03*
X184048400Y-134467600D03*
X180175152Y-150360000D03*
X178225000Y-160990077D03*
X182644555Y-153215552D03*
X182118000Y-159577190D03*
X187291600Y-159639000D03*
X187235111Y-151218982D03*
X180975000Y-129286000D03*
X181575162Y-150021838D03*
X180092555Y-148850555D03*
X178725000Y-151910584D03*
X178225000Y-153810202D03*
X187368796Y-150578204D03*
X182094265Y-150396670D03*
X182008000Y-134097668D03*
X187776001Y-143383000D03*
X188160643Y-157888307D03*
X181991000Y-153162000D03*
X186640162Y-151296680D03*
X179470958Y-151869048D03*
X187776001Y-140471231D03*
X186574010Y-146013919D03*
X179578000Y-150622000D03*
X184234601Y-137930740D03*
X178725000Y-152570200D03*
X188404990Y-135636000D03*
X178225000Y-153035000D03*
X183515000Y-141498998D03*
X178625010Y-149352000D03*
X188805000Y-130810000D03*
X188160642Y-157288306D03*
X187904990Y-153403987D03*
X180018495Y-148217507D03*
X186628546Y-148778454D03*
X178861446Y-155275554D03*
X188805000Y-159385000D03*
X188290200Y-125399800D03*
X188805000Y-154178000D03*
X183885330Y-153266671D03*
X183896000Y-161544000D03*
X186436000Y-161671000D03*
X188404990Y-158859531D03*
X187983901Y-155857649D03*
X188004981Y-155129462D03*
X178308000Y-156845000D03*
X178275684Y-157498787D03*
D15*
X184018000Y-126431000D02*
X184912000Y-126431000D01*
X181991000Y-128458000D02*
X184018000Y-126431000D01*
X183340829Y-128956829D02*
X184503000Y-130119000D01*
X182489829Y-128956829D02*
X183340829Y-128956829D01*
X184503000Y-130119000D02*
X184503000Y-130429000D01*
X181991000Y-128458000D02*
X182489829Y-128956829D01*
X184821999Y-130110001D02*
X185688002Y-130110001D01*
X184503000Y-130429000D02*
X184821999Y-130110001D01*
X184127200Y-135813800D02*
X184150000Y-135791000D01*
X182979000Y-135813800D02*
X184127200Y-135813800D01*
D16*
X182979000Y-157246200D02*
X182428000Y-156695200D01*
X181285000Y-156695200D02*
X180975000Y-156695200D01*
X184279000Y-156921200D02*
X184559000Y-156921200D01*
X184214219Y-156856419D02*
X184279000Y-156921200D01*
X183368781Y-156856419D02*
X184214219Y-156856419D01*
X182979000Y-157246200D02*
X183368781Y-156856419D01*
X182979000Y-157556200D02*
X182979000Y-157246200D01*
X180566000Y-152857200D02*
X181201000Y-152222200D01*
X180566000Y-154381200D02*
X180566000Y-152857200D01*
X180688380Y-156408580D02*
X180975000Y-156695200D01*
X180688380Y-155729073D02*
X180688380Y-156408580D01*
X182245000Y-156718000D02*
X181285000Y-156695200D01*
X182428000Y-156695200D02*
X182245000Y-156718000D01*
X184757000Y-153901200D02*
X183388000Y-155270200D01*
X185674000Y-153901200D02*
X184757000Y-153901200D01*
X180566000Y-155606693D02*
X180566000Y-154381200D01*
X180688380Y-155729073D02*
X180566000Y-155606693D01*
X180355999Y-146252001D02*
X179556000Y-147052000D01*
X182296999Y-146252001D02*
X180355999Y-146252001D01*
X183896000Y-144653000D02*
X182296999Y-146252001D01*
X183896000Y-144526000D02*
X183896000Y-144653000D01*
X178756001Y-147851999D02*
X179556000Y-147052000D01*
X178756001Y-148254003D02*
X178756001Y-147851999D01*
X179852554Y-149350556D02*
X178756001Y-148254003D01*
X180524174Y-149350556D02*
X179852554Y-149350556D01*
X182499000Y-147375730D02*
X180524174Y-149350556D01*
X182499000Y-147348000D02*
X182499000Y-147375730D01*
X181804551Y-153715553D02*
X182884556Y-153715553D01*
X181490999Y-153042999D02*
X181490999Y-153402001D01*
X181490999Y-153402001D02*
X181804551Y-153715553D01*
X181201000Y-152753000D02*
X181490999Y-153042999D01*
X181201000Y-152222200D02*
X181201000Y-152753000D01*
X182884556Y-153715553D02*
X183220003Y-154051000D01*
X183220003Y-155102203D02*
X183388000Y-155270200D01*
X183220003Y-154051000D02*
X183220003Y-155102203D01*
X179659321Y-151396689D02*
X179384633Y-151122001D01*
X180685489Y-151396689D02*
X179659321Y-151396689D01*
X181201000Y-151912200D02*
X180685489Y-151396689D01*
X181201000Y-152222200D02*
X181201000Y-151912200D01*
X179167773Y-150256346D02*
X179367772Y-150056347D01*
X179077999Y-150346120D02*
X179167773Y-150256346D01*
X179077999Y-150862001D02*
X179077999Y-150346120D01*
X179337999Y-151122001D02*
X179077999Y-150862001D01*
X179384633Y-151122001D02*
X179337999Y-151122001D01*
X184460000Y-135791000D02*
X184150000Y-135791000D01*
X186574010Y-137905010D02*
X184460000Y-135791000D01*
X188595000Y-139222998D02*
X187548002Y-138176000D01*
X188595000Y-145542000D02*
X188595000Y-139222998D01*
X188805001Y-145752001D02*
X188595000Y-145542000D01*
X186574010Y-138176000D02*
X186574010Y-137905010D01*
X188805001Y-149712099D02*
X188805001Y-145752001D01*
X188837451Y-149744549D02*
X188805001Y-149712099D01*
X187548002Y-138176000D02*
X186574010Y-138176000D01*
X187336549Y-149744549D02*
X188837451Y-149744549D01*
X180086000Y-161290000D02*
X181991000Y-161290000D01*
X184255002Y-161163000D02*
X185166000Y-161163000D01*
X184136001Y-161043999D02*
X184255002Y-161163000D01*
X183655999Y-161043999D02*
X184136001Y-161043999D01*
X183409998Y-161290000D02*
X183655999Y-161043999D01*
X181991000Y-161290000D02*
X183409998Y-161290000D01*
X181229000Y-160477200D02*
X182803800Y-160477200D01*
D15*
X184759601Y-137360601D02*
X184150000Y-136751000D01*
X184759601Y-138455400D02*
X184759601Y-137360601D01*
X184150000Y-136751000D02*
X182217000Y-136751000D01*
X182019000Y-136553000D02*
X182019000Y-135813800D01*
X182217000Y-136751000D02*
X182019000Y-136553000D01*
D16*
X179606000Y-152577200D02*
X179606000Y-154071200D01*
X179961000Y-152222200D02*
X179606000Y-152577200D01*
X179606000Y-154071200D02*
X179606000Y-154381200D01*
X180241000Y-152222200D02*
X179961000Y-152222200D01*
X178775800Y-154381200D02*
X178725000Y-154432000D01*
X179606000Y-154381200D02*
X178775800Y-154381200D01*
X186284010Y-153492511D02*
X185939500Y-153148001D01*
X186284010Y-154561190D02*
X186284010Y-153492511D01*
X185984000Y-154861200D02*
X186284010Y-154561190D01*
X185674000Y-154861200D02*
X185984000Y-154861200D01*
X179606000Y-154381200D02*
X179633730Y-154381200D01*
X185939500Y-153148001D02*
X185914001Y-153148001D01*
X185914001Y-153148001D02*
X185532671Y-152766671D01*
X185532671Y-152766671D02*
X183289658Y-152766671D01*
X187462993Y-154861200D02*
X187725850Y-154598343D01*
X185674000Y-154861200D02*
X187462993Y-154861200D01*
X183086642Y-160477200D02*
X182803800Y-160477200D01*
X184186857Y-160477200D02*
X183086642Y-160477200D01*
X184386856Y-160277201D02*
X184186857Y-160477200D01*
X186591601Y-160277201D02*
X184386856Y-160277201D01*
X186791600Y-160477200D02*
X186591601Y-160277201D01*
X182753000Y-148562000D02*
X182499000Y-148308000D01*
X182753000Y-148709000D02*
X182753000Y-148562000D01*
X181920000Y-157655200D02*
X182019000Y-157556200D01*
X180975000Y-157655200D02*
X181920000Y-157655200D01*
X182019000Y-157866200D02*
X182019000Y-157556200D01*
X182319010Y-158166210D02*
X182019000Y-157866200D01*
X183301260Y-158166210D02*
X182319010Y-158166210D01*
X183668368Y-157799102D02*
X183301260Y-158166210D01*
X183668368Y-157356420D02*
X183668368Y-157799102D01*
X184881260Y-156311190D02*
X183921810Y-156311190D01*
X185491270Y-156921200D02*
X184881260Y-156311190D01*
X185519000Y-156921200D02*
X185491270Y-156921200D01*
X181334497Y-156115190D02*
X181188381Y-155969074D01*
X183725810Y-156115190D02*
X181334497Y-156115190D01*
X183921810Y-156311190D02*
X183725810Y-156115190D01*
X181533800Y-144526000D02*
X181406800Y-144399000D01*
X182936000Y-144526000D02*
X181533800Y-144526000D01*
X180079801Y-143072001D02*
X181206801Y-144199001D01*
X179027999Y-143072001D02*
X180079801Y-143072001D01*
X178455999Y-142500001D02*
X179027999Y-143072001D01*
X178455999Y-131283999D02*
X178455999Y-142500001D01*
X179027999Y-130711999D02*
X178455999Y-131283999D01*
X181228001Y-130711999D02*
X179027999Y-130711999D01*
X182411415Y-129528585D02*
X181228001Y-130711999D01*
X183134615Y-129528585D02*
X182411415Y-129528585D01*
X183543000Y-129936970D02*
X183134615Y-129528585D01*
X181206801Y-144199001D02*
X181406800Y-144399000D01*
X183543000Y-130429000D02*
X183543000Y-129936970D01*
X182592601Y-159977199D02*
X182492610Y-160077190D01*
X183043801Y-159977199D02*
X182592601Y-159977199D01*
X183143792Y-160077190D02*
X183043801Y-159977199D01*
X184021168Y-160077190D02*
X183143792Y-160077190D01*
X182492610Y-160077190D02*
X181568992Y-160077190D01*
X180944383Y-159977199D02*
X180675152Y-160246430D01*
X181469001Y-159977199D02*
X180944383Y-159977199D01*
X181568992Y-160077190D02*
X181469001Y-159977199D01*
X180670200Y-138734800D02*
X182524400Y-138734800D01*
X182575200Y-138684000D02*
X182829200Y-138684000D01*
X182524400Y-138734800D02*
X182575200Y-138684000D01*
X184204001Y-159894357D02*
X184021168Y-160077190D01*
X184204001Y-159777188D02*
X184204001Y-159894357D01*
X184404000Y-159577189D02*
X184204001Y-159777188D01*
X181762400Y-141097000D02*
X181559200Y-140893800D01*
X181860403Y-140998997D02*
X181762400Y-141097000D01*
X183755001Y-140998997D02*
X181860403Y-140998997D01*
X183853004Y-141097000D02*
X183755001Y-140998997D01*
X184759600Y-141097000D02*
X183853004Y-141097000D01*
X182829200Y-133959600D02*
X182803800Y-133934200D01*
X184802400Y-133934200D02*
X184835800Y-133967600D01*
X182803800Y-133934200D02*
X184802400Y-133934200D01*
X185267600Y-134467600D02*
X184048400Y-134467600D01*
X185293000Y-134442200D02*
X185267600Y-134467600D01*
X180995999Y-143411999D02*
X179556000Y-141972000D01*
X187493159Y-143383000D02*
X187776001Y-143383000D01*
X187480999Y-143395160D02*
X187493159Y-143383000D01*
X187480999Y-143411999D02*
X187480999Y-143395160D01*
X187704001Y-143411999D02*
X187480999Y-143411999D01*
X187480999Y-143411999D02*
X180995999Y-143411999D01*
X186635930Y-145951999D02*
X186574010Y-146013919D01*
X187988999Y-145951999D02*
X186635930Y-145951999D01*
X188404991Y-146367991D02*
X187988999Y-145951999D01*
X187096548Y-149244548D02*
X188321452Y-149244548D01*
X186766001Y-149575095D02*
X187096548Y-149244548D01*
X184189681Y-151296681D02*
X185082319Y-151296681D01*
X188404991Y-149344539D02*
X188341000Y-149225000D01*
X188341000Y-149225000D02*
X188404991Y-146367991D01*
X181249671Y-150896671D02*
X182334266Y-150896671D01*
X179578000Y-150622000D02*
X179625011Y-150669011D01*
X179625011Y-150669011D02*
X179625011Y-150796680D01*
X188321452Y-149244548D02*
X188341000Y-149225000D01*
X180607078Y-150749000D02*
X181102000Y-150749000D01*
X185082319Y-151296681D02*
X185625999Y-150753001D01*
X179625011Y-150796680D02*
X179825010Y-150996679D01*
X186766001Y-150693001D02*
X186766001Y-149575095D01*
X183642000Y-150749000D02*
X184189681Y-151296681D01*
X185625999Y-150753001D02*
X186706001Y-150753001D01*
X182334266Y-150896671D02*
X182481937Y-150749000D01*
X179825010Y-150996679D02*
X180359399Y-150996679D01*
X180359399Y-150996679D02*
X180607078Y-150749000D01*
X186706001Y-150753001D02*
X186766001Y-150693001D01*
X182481937Y-150749000D02*
X183642000Y-150749000D01*
X181102000Y-150749000D02*
X181249671Y-150896671D01*
X184258871Y-134967601D02*
X181475001Y-134967601D01*
X184927270Y-135636000D02*
X184258871Y-134967601D01*
X188404990Y-135636000D02*
X184927270Y-135636000D01*
X180859400Y-134352000D02*
X179556000Y-134352000D01*
X181475001Y-134967601D02*
X180859400Y-134352000D01*
X183988002Y-141972000D02*
X187176000Y-141972000D01*
X183515000Y-141498998D02*
X183988002Y-141972000D01*
X178225000Y-151467000D02*
X178225000Y-151809000D01*
X178435000Y-151257000D02*
X178225000Y-151467000D01*
X178225000Y-151809000D02*
X178225000Y-153035000D01*
X178435000Y-149542010D02*
X178435000Y-151257000D01*
X178625010Y-149352000D02*
X178435000Y-149542010D01*
X183220740Y-131039010D02*
X182962990Y-130781260D01*
X184825260Y-131039010D02*
X183220740Y-131039010D01*
X185254269Y-130610001D02*
X184825260Y-131039010D01*
X188605001Y-130610001D02*
X185254269Y-130610001D01*
X188805000Y-130810000D02*
X188605001Y-130610001D01*
X182962990Y-130781260D02*
X181816540Y-130781260D01*
X180785800Y-131812000D02*
X179556000Y-131812000D01*
X181816540Y-130781260D02*
X180785800Y-131812000D01*
X185706001Y-146652999D02*
X181583003Y-146652999D01*
X185766001Y-146712999D02*
X185706001Y-146652999D01*
X185766001Y-147270003D02*
X185766001Y-146712999D01*
X186704998Y-148209000D02*
X185766001Y-147270003D01*
X180183501Y-148052501D02*
X180018495Y-148217507D01*
X181583003Y-146652999D02*
X180183501Y-148052501D01*
X180183501Y-148052501D02*
X180052402Y-148183600D01*
X186704998Y-148702002D02*
X186628546Y-148778454D01*
X186704998Y-148209000D02*
X186704998Y-148702002D01*
X178861446Y-156538288D02*
X180892157Y-158568999D01*
X178861446Y-155275554D02*
X178861446Y-156538288D01*
X180892157Y-158568999D02*
X180920999Y-158568999D01*
X187777602Y-159385000D02*
X188805000Y-159385000D01*
X181429189Y-159077189D02*
X187469791Y-159077189D01*
X187469791Y-159077189D02*
X187777602Y-159385000D01*
X180920999Y-158568999D02*
X181429189Y-159077189D01*
X188290200Y-125399800D02*
X179888200Y-125399800D01*
X179888200Y-125399800D02*
X179556000Y-125732000D01*
X179556000Y-125732000D02*
X179556000Y-126732000D01*
X178775685Y-157018226D02*
X178775685Y-159933315D01*
X178602459Y-156845000D02*
X178775685Y-157018226D01*
X178308000Y-156845000D02*
X178602459Y-156845000D01*
X178943000Y-160402376D02*
X179125011Y-160584387D01*
X178943000Y-160100630D02*
X178943000Y-160402376D01*
X178775685Y-159933315D02*
X178943000Y-160100630D01*
X179125011Y-160584387D02*
X179125011Y-161584389D01*
X178725001Y-161750078D02*
X178816000Y-161841077D01*
X178725001Y-160750076D02*
X178725001Y-161750078D01*
X178465001Y-160490076D02*
X178725001Y-160750076D01*
X178370368Y-160490076D02*
X178465001Y-160490076D01*
X178275684Y-160395392D02*
X178370368Y-160490076D01*
X178816000Y-161841077D02*
X178816000Y-163068000D01*
X178275684Y-157498787D02*
X178275684Y-160395392D01*
X179216010Y-161675388D02*
X179125011Y-161584389D01*
X179216010Y-161960012D02*
X179216010Y-161675388D01*
X180323998Y-163068000D02*
X179216010Y-161960012D01*
X180721000Y-163068000D02*
X180323998Y-163068000D01*
D17*
G36*
X183496311Y-161056977D02*
G01*
X183408977Y-161144311D01*
X183340360Y-161247004D01*
X183293095Y-161361111D01*
X183269000Y-161482246D01*
X183269000Y-161605754D01*
X183293095Y-161726889D01*
X183340360Y-161840996D01*
X183408977Y-161943689D01*
X183496311Y-162031023D01*
X183599004Y-162099640D01*
X183713111Y-162146905D01*
X183834246Y-162171000D01*
X183868765Y-162171000D01*
X183866804Y-162171595D01*
X183792624Y-162211245D01*
X183727605Y-162264605D01*
X183674245Y-162329624D01*
X183634595Y-162403804D01*
X183610178Y-162484293D01*
X183601934Y-162568000D01*
X183601934Y-163568000D01*
X183608237Y-163632000D01*
X183548763Y-163632000D01*
X183555066Y-163568000D01*
X183555066Y-162568000D01*
X183546822Y-162484293D01*
X183522405Y-162403804D01*
X183482755Y-162329624D01*
X183429395Y-162264605D01*
X183364376Y-162211245D01*
X183290196Y-162171595D01*
X183209707Y-162147178D01*
X183126000Y-162138934D01*
X183024509Y-162138934D01*
X183080502Y-162034180D01*
X183116812Y-161914482D01*
X183129072Y-161790000D01*
X183126000Y-161575750D01*
X182967250Y-161417000D01*
X182118000Y-161417000D01*
X182118000Y-161437000D01*
X181864000Y-161437000D01*
X181864000Y-161417000D01*
X180213000Y-161417000D01*
X180213000Y-161437000D01*
X179959000Y-161437000D01*
X179959000Y-161417000D01*
X179939000Y-161417000D01*
X179939000Y-161163000D01*
X179959000Y-161163000D01*
X179959000Y-161143000D01*
X180213000Y-161143000D01*
X180213000Y-161163000D01*
X181864000Y-161163000D01*
X181864000Y-161143000D01*
X182118000Y-161143000D01*
X182118000Y-161163000D01*
X182967250Y-161163000D01*
X183095016Y-161035234D01*
X183100796Y-161032840D01*
X183143659Y-161004200D01*
X183575298Y-161004200D01*
X183496311Y-161056977D01*
G37*
X183496311Y-161056977D02*
X183408977Y-161144311D01*
X183340360Y-161247004D01*
X183293095Y-161361111D01*
X183269000Y-161482246D01*
X183269000Y-161605754D01*
X183293095Y-161726889D01*
X183340360Y-161840996D01*
X183408977Y-161943689D01*
X183496311Y-162031023D01*
X183599004Y-162099640D01*
X183713111Y-162146905D01*
X183834246Y-162171000D01*
X183868765Y-162171000D01*
X183866804Y-162171595D01*
X183792624Y-162211245D01*
X183727605Y-162264605D01*
X183674245Y-162329624D01*
X183634595Y-162403804D01*
X183610178Y-162484293D01*
X183601934Y-162568000D01*
X183601934Y-163568000D01*
X183608237Y-163632000D01*
X183548763Y-163632000D01*
X183555066Y-163568000D01*
X183555066Y-162568000D01*
X183546822Y-162484293D01*
X183522405Y-162403804D01*
X183482755Y-162329624D01*
X183429395Y-162264605D01*
X183364376Y-162211245D01*
X183290196Y-162171595D01*
X183209707Y-162147178D01*
X183126000Y-162138934D01*
X183024509Y-162138934D01*
X183080502Y-162034180D01*
X183116812Y-161914482D01*
X183129072Y-161790000D01*
X183126000Y-161575750D01*
X182967250Y-161417000D01*
X182118000Y-161417000D01*
X182118000Y-161437000D01*
X181864000Y-161437000D01*
X181864000Y-161417000D01*
X180213000Y-161417000D01*
X180213000Y-161437000D01*
X179959000Y-161437000D01*
X179959000Y-161417000D01*
X179939000Y-161417000D01*
X179939000Y-161163000D01*
X179959000Y-161163000D01*
X179959000Y-161143000D01*
X180213000Y-161143000D01*
X180213000Y-161163000D01*
X181864000Y-161163000D01*
X181864000Y-161143000D01*
X182118000Y-161143000D01*
X182118000Y-161163000D01*
X182967250Y-161163000D01*
X183095016Y-161035234D01*
X183100796Y-161032840D01*
X183143659Y-161004200D01*
X183575298Y-161004200D01*
X183496311Y-161056977D01*
G36*
X185293000Y-161036000D02*
G01*
X185313000Y-161036000D01*
X185313000Y-161290000D01*
X185293000Y-161290000D01*
X185293000Y-161310000D01*
X185039000Y-161310000D01*
X185039000Y-161290000D01*
X185019000Y-161290000D01*
X185019000Y-161036000D01*
X185039000Y-161036000D01*
X185039000Y-161016000D01*
X185293000Y-161016000D01*
X185293000Y-161036000D01*
G37*
X185293000Y-161036000D02*
X185313000Y-161036000D01*
X185313000Y-161290000D01*
X185293000Y-161290000D01*
X185293000Y-161310000D01*
X185039000Y-161310000D01*
X185039000Y-161290000D01*
X185019000Y-161290000D01*
X185019000Y-161036000D01*
X185039000Y-161036000D01*
X185039000Y-161016000D01*
X185293000Y-161016000D01*
X185293000Y-161036000D01*
G36*
X188778000Y-153551000D02*
G01*
X188743246Y-153551000D01*
X188622111Y-153575095D01*
X188508004Y-153622360D01*
X188487531Y-153636040D01*
X188507895Y-153586876D01*
X188531990Y-153465741D01*
X188531990Y-153342233D01*
X188507895Y-153221098D01*
X188460630Y-153106991D01*
X188392013Y-153004298D01*
X188304679Y-152916964D01*
X188201986Y-152848347D01*
X188087879Y-152801082D01*
X187966744Y-152776987D01*
X187843236Y-152776987D01*
X187722101Y-152801082D01*
X187607994Y-152848347D01*
X187505301Y-152916964D01*
X187417967Y-153004298D01*
X187349350Y-153106991D01*
X187302085Y-153221098D01*
X187277990Y-153342233D01*
X187277990Y-153465741D01*
X187302085Y-153586876D01*
X187349350Y-153700983D01*
X187417967Y-153803676D01*
X187505301Y-153891010D01*
X187607994Y-153959627D01*
X187645303Y-153975081D01*
X187542961Y-153995438D01*
X187428854Y-154042703D01*
X187326161Y-154111320D01*
X187238827Y-154198654D01*
X187170210Y-154301347D01*
X187156602Y-154334200D01*
X186811010Y-154334200D01*
X186811010Y-153518392D01*
X186813559Y-153492511D01*
X186803384Y-153389201D01*
X186783093Y-153322311D01*
X186773249Y-153289861D01*
X186724314Y-153198309D01*
X186658458Y-153118063D01*
X186638349Y-153101560D01*
X186330455Y-152793667D01*
X186313948Y-152773553D01*
X186233702Y-152707697D01*
X186202090Y-152690800D01*
X185923626Y-152412337D01*
X185907119Y-152392223D01*
X185826873Y-152326367D01*
X185735321Y-152277432D01*
X185635981Y-152247297D01*
X185558552Y-152239671D01*
X185532671Y-152237122D01*
X185506790Y-152239671D01*
X183629517Y-152239671D01*
X183586654Y-152211031D01*
X183472547Y-152163766D01*
X183351412Y-152139671D01*
X183227904Y-152139671D01*
X183106769Y-152163766D01*
X182992662Y-152211031D01*
X182889969Y-152279648D01*
X182802635Y-152366982D01*
X182734018Y-152469675D01*
X182686753Y-152583782D01*
X182685804Y-152588552D01*
X182582801Y-152588552D01*
X182461666Y-152612647D01*
X182360266Y-152654649D01*
X182287996Y-152606360D01*
X182173889Y-152559095D01*
X182117322Y-152547843D01*
X182119065Y-152529277D01*
X182116000Y-152507950D01*
X181957250Y-152349200D01*
X181328000Y-152349200D01*
X181328000Y-153008450D01*
X181373257Y-153053707D01*
X181364000Y-153100246D01*
X181364000Y-153223754D01*
X181388095Y-153344889D01*
X181435360Y-153458996D01*
X181503977Y-153561689D01*
X181591311Y-153649023D01*
X181694004Y-153717640D01*
X181808111Y-153764905D01*
X181929246Y-153789000D01*
X182052754Y-153789000D01*
X182173889Y-153764905D01*
X182275289Y-153722903D01*
X182347559Y-153771192D01*
X182461666Y-153818457D01*
X182582801Y-153842552D01*
X182706309Y-153842552D01*
X182827444Y-153818457D01*
X182941551Y-153771192D01*
X183044244Y-153702575D01*
X183131578Y-153615241D01*
X183200195Y-153512548D01*
X183247460Y-153398441D01*
X183248409Y-153393671D01*
X183271308Y-153393671D01*
X183282425Y-153449560D01*
X183329690Y-153563667D01*
X183398307Y-153666360D01*
X183485641Y-153753694D01*
X183588334Y-153822311D01*
X183702441Y-153869576D01*
X183823576Y-153893671D01*
X183947084Y-153893671D01*
X184068219Y-153869576D01*
X184182326Y-153822311D01*
X184285019Y-153753694D01*
X184372353Y-153666360D01*
X184440970Y-153563667D01*
X184488235Y-153449560D01*
X184512330Y-153328425D01*
X184512330Y-153293671D01*
X184819208Y-153293671D01*
X184775623Y-153374322D01*
X184738765Y-153493852D01*
X184729000Y-153615450D01*
X184887750Y-153774200D01*
X185547000Y-153774200D01*
X185547000Y-153754200D01*
X185757011Y-153754200D01*
X185757010Y-154048200D01*
X185547000Y-154048200D01*
X185547000Y-154028200D01*
X184887750Y-154028200D01*
X184729000Y-154186950D01*
X184738765Y-154308548D01*
X184775623Y-154428078D01*
X184835092Y-154538121D01*
X184914887Y-154634447D01*
X184941358Y-154655969D01*
X184934934Y-154721200D01*
X184934934Y-155001200D01*
X184945868Y-155112219D01*
X184978252Y-155218972D01*
X185030839Y-155317356D01*
X185101610Y-155403590D01*
X185187844Y-155474361D01*
X185286228Y-155526948D01*
X185392981Y-155559332D01*
X185504000Y-155570266D01*
X185844000Y-155570266D01*
X185955019Y-155559332D01*
X186061772Y-155526948D01*
X186160156Y-155474361D01*
X186246390Y-155403590D01*
X186259020Y-155388200D01*
X187433494Y-155388200D01*
X187449341Y-155426458D01*
X187483634Y-155477781D01*
X187428261Y-155560653D01*
X187380996Y-155674760D01*
X187356901Y-155795895D01*
X187356901Y-155919403D01*
X187380996Y-156040538D01*
X187428261Y-156154645D01*
X187496878Y-156257338D01*
X187584212Y-156344672D01*
X187686905Y-156413289D01*
X187801012Y-156460554D01*
X187922147Y-156484649D01*
X188045655Y-156484649D01*
X188166790Y-156460554D01*
X188280897Y-156413289D01*
X188383590Y-156344672D01*
X188470924Y-156257338D01*
X188539541Y-156154645D01*
X188586806Y-156040538D01*
X188610901Y-155919403D01*
X188610901Y-155795895D01*
X188586806Y-155674760D01*
X188539541Y-155560653D01*
X188505248Y-155509330D01*
X188560621Y-155426458D01*
X188607886Y-155312351D01*
X188631981Y-155191216D01*
X188631981Y-155067708D01*
X188607886Y-154946573D01*
X188560621Y-154832466D01*
X188492004Y-154729773D01*
X188471439Y-154709208D01*
X188508004Y-154733640D01*
X188622111Y-154780905D01*
X188743246Y-154805000D01*
X188778000Y-154805000D01*
X188778000Y-157178078D01*
X188763547Y-157105417D01*
X188716282Y-156991310D01*
X188647665Y-156888617D01*
X188560331Y-156801283D01*
X188457638Y-156732666D01*
X188343531Y-156685401D01*
X188222396Y-156661306D01*
X188098888Y-156661306D01*
X187977753Y-156685401D01*
X187863646Y-156732666D01*
X187760953Y-156801283D01*
X187673619Y-156888617D01*
X187605002Y-156991310D01*
X187557737Y-157105417D01*
X187533642Y-157226552D01*
X187533642Y-157350060D01*
X187557737Y-157471195D01*
X187605002Y-157585302D01*
X187607010Y-157588307D01*
X187605003Y-157591311D01*
X187557738Y-157705418D01*
X187533643Y-157826553D01*
X187533643Y-157950061D01*
X187557738Y-158071196D01*
X187605003Y-158185303D01*
X187673620Y-158287996D01*
X187760954Y-158375330D01*
X187863647Y-158443947D01*
X187914510Y-158465015D01*
X187849350Y-158562535D01*
X187804711Y-158670302D01*
X187763993Y-158636885D01*
X187672441Y-158587950D01*
X187573101Y-158557815D01*
X187495672Y-158550189D01*
X187469791Y-158547640D01*
X187443910Y-158550189D01*
X183664094Y-158550189D01*
X183675708Y-158540658D01*
X183692215Y-158520544D01*
X183973380Y-158239380D01*
X184008237Y-158253818D01*
X184129372Y-158277913D01*
X184252880Y-158277913D01*
X184374015Y-158253818D01*
X184411453Y-158238310D01*
X184488344Y-158289687D01*
X184602451Y-158336952D01*
X184723586Y-158361047D01*
X184847094Y-158361047D01*
X184968229Y-158336952D01*
X185082336Y-158289687D01*
X185185029Y-158221070D01*
X185272363Y-158133736D01*
X185340980Y-158031043D01*
X185353045Y-158001916D01*
X185390177Y-158057489D01*
X185477511Y-158144823D01*
X185580204Y-158213440D01*
X185694311Y-158260705D01*
X185815446Y-158284800D01*
X185938954Y-158284800D01*
X186060089Y-158260705D01*
X186174196Y-158213440D01*
X186276889Y-158144823D01*
X186364223Y-158057489D01*
X186432840Y-157954796D01*
X186480105Y-157840689D01*
X186504200Y-157719554D01*
X186504200Y-157596046D01*
X186480105Y-157474911D01*
X186432840Y-157360804D01*
X186364223Y-157258111D01*
X186276889Y-157170777D01*
X186223727Y-157135255D01*
X186228066Y-157091200D01*
X186228066Y-156751200D01*
X186217132Y-156640181D01*
X186184748Y-156533428D01*
X186132161Y-156435044D01*
X186061390Y-156348810D01*
X185975156Y-156278039D01*
X185876772Y-156225452D01*
X185770019Y-156193068D01*
X185659000Y-156182134D01*
X185497493Y-156182134D01*
X185272215Y-155956856D01*
X185255708Y-155936742D01*
X185175462Y-155870886D01*
X185083910Y-155821951D01*
X184984570Y-155791816D01*
X184907141Y-155784190D01*
X184881260Y-155781641D01*
X184855379Y-155784190D01*
X184140099Y-155784190D01*
X184116765Y-155760856D01*
X184100258Y-155740742D01*
X184020012Y-155674886D01*
X183928460Y-155625951D01*
X183829120Y-155595816D01*
X183751691Y-155588190D01*
X183725810Y-155585641D01*
X183699929Y-155588190D01*
X181687969Y-155588190D01*
X181675404Y-155569385D01*
X181588070Y-155482051D01*
X181485377Y-155413434D01*
X181371270Y-155366169D01*
X181250135Y-155342074D01*
X181126627Y-155342074D01*
X181005492Y-155366169D01*
X180891385Y-155413434D01*
X180788692Y-155482051D01*
X180701358Y-155569385D01*
X180632741Y-155672078D01*
X180586041Y-155784821D01*
X180543387Y-155788825D01*
X180423524Y-155824586D01*
X180312941Y-155883044D01*
X180215887Y-155961953D01*
X180136092Y-156058279D01*
X180076623Y-156168322D01*
X180039765Y-156287852D01*
X180030000Y-156409450D01*
X180188750Y-156568200D01*
X180848000Y-156568200D01*
X180848000Y-156548200D01*
X180948085Y-156548200D01*
X181005492Y-156571979D01*
X181110045Y-156592776D01*
X181131847Y-156604429D01*
X181186358Y-156620965D01*
X181231187Y-156634564D01*
X181334496Y-156644739D01*
X181360377Y-156642190D01*
X182502820Y-156642190D01*
X182452122Y-156657823D01*
X182342079Y-156717292D01*
X182245753Y-156797087D01*
X182224231Y-156823558D01*
X182159000Y-156817134D01*
X181879000Y-156817134D01*
X181767981Y-156828068D01*
X181767319Y-156828269D01*
X181761250Y-156822200D01*
X181102000Y-156822200D01*
X181102000Y-156842200D01*
X180848000Y-156842200D01*
X180848000Y-156822200D01*
X180188750Y-156822200D01*
X180039699Y-156971251D01*
X179388446Y-156319999D01*
X179388446Y-155615413D01*
X179417086Y-155572550D01*
X179464351Y-155458443D01*
X179488446Y-155337308D01*
X179488446Y-155213800D01*
X179469841Y-155120266D01*
X179746000Y-155120266D01*
X179811231Y-155113842D01*
X179832753Y-155140313D01*
X179929079Y-155220108D01*
X180039122Y-155279577D01*
X180158652Y-155316435D01*
X180280250Y-155326200D01*
X180439000Y-155167450D01*
X180439000Y-154508200D01*
X180693000Y-154508200D01*
X180693000Y-155167450D01*
X180851750Y-155326200D01*
X180973348Y-155316435D01*
X181092878Y-155279577D01*
X181202921Y-155220108D01*
X181299247Y-155140313D01*
X181378156Y-155043259D01*
X181436614Y-154932676D01*
X181472375Y-154812813D01*
X181484065Y-154688277D01*
X181481000Y-154666950D01*
X181322250Y-154508200D01*
X180693000Y-154508200D01*
X180439000Y-154508200D01*
X180419000Y-154508200D01*
X180419000Y-154254200D01*
X180439000Y-154254200D01*
X180439000Y-153594950D01*
X180693000Y-153594950D01*
X180693000Y-154254200D01*
X181322250Y-154254200D01*
X181481000Y-154095450D01*
X181484065Y-154074123D01*
X181472375Y-153949587D01*
X181436614Y-153829724D01*
X181378156Y-153719141D01*
X181299247Y-153622087D01*
X181202921Y-153542292D01*
X181092878Y-153482823D01*
X180973348Y-153445965D01*
X180851750Y-153436200D01*
X180693000Y-153594950D01*
X180439000Y-153594950D01*
X180280250Y-153436200D01*
X180158652Y-153445965D01*
X180133000Y-153453875D01*
X180133000Y-152961266D01*
X180381000Y-152961266D01*
X180446231Y-152954842D01*
X180467753Y-152981313D01*
X180564079Y-153061108D01*
X180674122Y-153120577D01*
X180793652Y-153157435D01*
X180915250Y-153167200D01*
X181074000Y-153008450D01*
X181074000Y-152349200D01*
X181054000Y-152349200D01*
X181054000Y-152095200D01*
X181074000Y-152095200D01*
X181074000Y-152075200D01*
X181328000Y-152075200D01*
X181328000Y-152095200D01*
X181957250Y-152095200D01*
X182116000Y-151936450D01*
X182119065Y-151915123D01*
X182107375Y-151790587D01*
X182071614Y-151670724D01*
X182013156Y-151560141D01*
X181934247Y-151463087D01*
X181886665Y-151423671D01*
X182308385Y-151423671D01*
X182334266Y-151426220D01*
X182360147Y-151423671D01*
X182437576Y-151416045D01*
X182536916Y-151385910D01*
X182628468Y-151336975D01*
X182702766Y-151276000D01*
X183423711Y-151276000D01*
X183798730Y-151651020D01*
X183815233Y-151671129D01*
X183895479Y-151736985D01*
X183987031Y-151785920D01*
X184086371Y-151816055D01*
X184189681Y-151826230D01*
X184215562Y-151823681D01*
X185056438Y-151823681D01*
X185082319Y-151826230D01*
X185108200Y-151823681D01*
X185185629Y-151816055D01*
X185284969Y-151785920D01*
X185376521Y-151736985D01*
X185456767Y-151671129D01*
X185473274Y-151651015D01*
X185844289Y-151280001D01*
X186013162Y-151280001D01*
X186013162Y-151358434D01*
X186037257Y-151479569D01*
X186084522Y-151593676D01*
X186153139Y-151696369D01*
X186240473Y-151783703D01*
X186343166Y-151852320D01*
X186457273Y-151899585D01*
X186578408Y-151923680D01*
X186701916Y-151923680D01*
X186823051Y-151899585D01*
X186937158Y-151852320D01*
X187009308Y-151804111D01*
X187052222Y-151821887D01*
X187173357Y-151845982D01*
X187296865Y-151845982D01*
X187418000Y-151821887D01*
X187532107Y-151774622D01*
X187634800Y-151706005D01*
X187722134Y-151618671D01*
X187790751Y-151515978D01*
X187838016Y-151401871D01*
X187862111Y-151280736D01*
X187862111Y-151157228D01*
X187838016Y-151036093D01*
X187826184Y-151007528D01*
X187855819Y-150977893D01*
X187924436Y-150875200D01*
X187971701Y-150761093D01*
X187995796Y-150639958D01*
X187995796Y-150516450D01*
X187971701Y-150395315D01*
X187924436Y-150281208D01*
X187855819Y-150178515D01*
X187768485Y-150091181D01*
X187665792Y-150022564D01*
X187551685Y-149975299D01*
X187430550Y-149951204D01*
X187307042Y-149951204D01*
X187293001Y-149953997D01*
X187293001Y-149793384D01*
X187314837Y-149771548D01*
X188095461Y-149771548D01*
X188155656Y-149811715D01*
X188251588Y-149851382D01*
X188353415Y-149871570D01*
X188457224Y-149871505D01*
X188559027Y-149851189D01*
X188654910Y-149811403D01*
X188741189Y-149753675D01*
X188778000Y-149716817D01*
X188778000Y-153551000D01*
G37*
X188778000Y-153551000D02*
X188743246Y-153551000D01*
X188622111Y-153575095D01*
X188508004Y-153622360D01*
X188487531Y-153636040D01*
X188507895Y-153586876D01*
X188531990Y-153465741D01*
X188531990Y-153342233D01*
X188507895Y-153221098D01*
X188460630Y-153106991D01*
X188392013Y-153004298D01*
X188304679Y-152916964D01*
X188201986Y-152848347D01*
X188087879Y-152801082D01*
X187966744Y-152776987D01*
X187843236Y-152776987D01*
X187722101Y-152801082D01*
X187607994Y-152848347D01*
X187505301Y-152916964D01*
X187417967Y-153004298D01*
X187349350Y-153106991D01*
X187302085Y-153221098D01*
X187277990Y-153342233D01*
X187277990Y-153465741D01*
X187302085Y-153586876D01*
X187349350Y-153700983D01*
X187417967Y-153803676D01*
X187505301Y-153891010D01*
X187607994Y-153959627D01*
X187645303Y-153975081D01*
X187542961Y-153995438D01*
X187428854Y-154042703D01*
X187326161Y-154111320D01*
X187238827Y-154198654D01*
X187170210Y-154301347D01*
X187156602Y-154334200D01*
X186811010Y-154334200D01*
X186811010Y-153518392D01*
X186813559Y-153492511D01*
X186803384Y-153389201D01*
X186783093Y-153322311D01*
X186773249Y-153289861D01*
X186724314Y-153198309D01*
X186658458Y-153118063D01*
X186638349Y-153101560D01*
X186330455Y-152793667D01*
X186313948Y-152773553D01*
X186233702Y-152707697D01*
X186202090Y-152690800D01*
X185923626Y-152412337D01*
X185907119Y-152392223D01*
X185826873Y-152326367D01*
X185735321Y-152277432D01*
X185635981Y-152247297D01*
X185558552Y-152239671D01*
X185532671Y-152237122D01*
X185506790Y-152239671D01*
X183629517Y-152239671D01*
X183586654Y-152211031D01*
X183472547Y-152163766D01*
X183351412Y-152139671D01*
X183227904Y-152139671D01*
X183106769Y-152163766D01*
X182992662Y-152211031D01*
X182889969Y-152279648D01*
X182802635Y-152366982D01*
X182734018Y-152469675D01*
X182686753Y-152583782D01*
X182685804Y-152588552D01*
X182582801Y-152588552D01*
X182461666Y-152612647D01*
X182360266Y-152654649D01*
X182287996Y-152606360D01*
X182173889Y-152559095D01*
X182117322Y-152547843D01*
X182119065Y-152529277D01*
X182116000Y-152507950D01*
X181957250Y-152349200D01*
X181328000Y-152349200D01*
X181328000Y-153008450D01*
X181373257Y-153053707D01*
X181364000Y-153100246D01*
X181364000Y-153223754D01*
X181388095Y-153344889D01*
X181435360Y-153458996D01*
X181503977Y-153561689D01*
X181591311Y-153649023D01*
X181694004Y-153717640D01*
X181808111Y-153764905D01*
X181929246Y-153789000D01*
X182052754Y-153789000D01*
X182173889Y-153764905D01*
X182275289Y-153722903D01*
X182347559Y-153771192D01*
X182461666Y-153818457D01*
X182582801Y-153842552D01*
X182706309Y-153842552D01*
X182827444Y-153818457D01*
X182941551Y-153771192D01*
X183044244Y-153702575D01*
X183131578Y-153615241D01*
X183200195Y-153512548D01*
X183247460Y-153398441D01*
X183248409Y-153393671D01*
X183271308Y-153393671D01*
X183282425Y-153449560D01*
X183329690Y-153563667D01*
X183398307Y-153666360D01*
X183485641Y-153753694D01*
X183588334Y-153822311D01*
X183702441Y-153869576D01*
X183823576Y-153893671D01*
X183947084Y-153893671D01*
X184068219Y-153869576D01*
X184182326Y-153822311D01*
X184285019Y-153753694D01*
X184372353Y-153666360D01*
X184440970Y-153563667D01*
X184488235Y-153449560D01*
X184512330Y-153328425D01*
X184512330Y-153293671D01*
X184819208Y-153293671D01*
X184775623Y-153374322D01*
X184738765Y-153493852D01*
X184729000Y-153615450D01*
X184887750Y-153774200D01*
X185547000Y-153774200D01*
X185547000Y-153754200D01*
X185757011Y-153754200D01*
X185757010Y-154048200D01*
X185547000Y-154048200D01*
X185547000Y-154028200D01*
X184887750Y-154028200D01*
X184729000Y-154186950D01*
X184738765Y-154308548D01*
X184775623Y-154428078D01*
X184835092Y-154538121D01*
X184914887Y-154634447D01*
X184941358Y-154655969D01*
X184934934Y-154721200D01*
X184934934Y-155001200D01*
X184945868Y-155112219D01*
X184978252Y-155218972D01*
X185030839Y-155317356D01*
X185101610Y-155403590D01*
X185187844Y-155474361D01*
X185286228Y-155526948D01*
X185392981Y-155559332D01*
X185504000Y-155570266D01*
X185844000Y-155570266D01*
X185955019Y-155559332D01*
X186061772Y-155526948D01*
X186160156Y-155474361D01*
X186246390Y-155403590D01*
X186259020Y-155388200D01*
X187433494Y-155388200D01*
X187449341Y-155426458D01*
X187483634Y-155477781D01*
X187428261Y-155560653D01*
X187380996Y-155674760D01*
X187356901Y-155795895D01*
X187356901Y-155919403D01*
X187380996Y-156040538D01*
X187428261Y-156154645D01*
X187496878Y-156257338D01*
X187584212Y-156344672D01*
X187686905Y-156413289D01*
X187801012Y-156460554D01*
X187922147Y-156484649D01*
X188045655Y-156484649D01*
X188166790Y-156460554D01*
X188280897Y-156413289D01*
X188383590Y-156344672D01*
X188470924Y-156257338D01*
X188539541Y-156154645D01*
X188586806Y-156040538D01*
X188610901Y-155919403D01*
X188610901Y-155795895D01*
X188586806Y-155674760D01*
X188539541Y-155560653D01*
X188505248Y-155509330D01*
X188560621Y-155426458D01*
X188607886Y-155312351D01*
X188631981Y-155191216D01*
X188631981Y-155067708D01*
X188607886Y-154946573D01*
X188560621Y-154832466D01*
X188492004Y-154729773D01*
X188471439Y-154709208D01*
X188508004Y-154733640D01*
X188622111Y-154780905D01*
X188743246Y-154805000D01*
X188778000Y-154805000D01*
X188778000Y-157178078D01*
X188763547Y-157105417D01*
X188716282Y-156991310D01*
X188647665Y-156888617D01*
X188560331Y-156801283D01*
X188457638Y-156732666D01*
X188343531Y-156685401D01*
X188222396Y-156661306D01*
X188098888Y-156661306D01*
X187977753Y-156685401D01*
X187863646Y-156732666D01*
X187760953Y-156801283D01*
X187673619Y-156888617D01*
X187605002Y-156991310D01*
X187557737Y-157105417D01*
X187533642Y-157226552D01*
X187533642Y-157350060D01*
X187557737Y-157471195D01*
X187605002Y-157585302D01*
X187607010Y-157588307D01*
X187605003Y-157591311D01*
X187557738Y-157705418D01*
X187533643Y-157826553D01*
X187533643Y-157950061D01*
X187557738Y-158071196D01*
X187605003Y-158185303D01*
X187673620Y-158287996D01*
X187760954Y-158375330D01*
X187863647Y-158443947D01*
X187914510Y-158465015D01*
X187849350Y-158562535D01*
X187804711Y-158670302D01*
X187763993Y-158636885D01*
X187672441Y-158587950D01*
X187573101Y-158557815D01*
X187495672Y-158550189D01*
X187469791Y-158547640D01*
X187443910Y-158550189D01*
X183664094Y-158550189D01*
X183675708Y-158540658D01*
X183692215Y-158520544D01*
X183973380Y-158239380D01*
X184008237Y-158253818D01*
X184129372Y-158277913D01*
X184252880Y-158277913D01*
X184374015Y-158253818D01*
X184411453Y-158238310D01*
X184488344Y-158289687D01*
X184602451Y-158336952D01*
X184723586Y-158361047D01*
X184847094Y-158361047D01*
X184968229Y-158336952D01*
X185082336Y-158289687D01*
X185185029Y-158221070D01*
X185272363Y-158133736D01*
X185340980Y-158031043D01*
X185353045Y-158001916D01*
X185390177Y-158057489D01*
X185477511Y-158144823D01*
X185580204Y-158213440D01*
X185694311Y-158260705D01*
X185815446Y-158284800D01*
X185938954Y-158284800D01*
X186060089Y-158260705D01*
X186174196Y-158213440D01*
X186276889Y-158144823D01*
X186364223Y-158057489D01*
X186432840Y-157954796D01*
X186480105Y-157840689D01*
X186504200Y-157719554D01*
X186504200Y-157596046D01*
X186480105Y-157474911D01*
X186432840Y-157360804D01*
X186364223Y-157258111D01*
X186276889Y-157170777D01*
X186223727Y-157135255D01*
X186228066Y-157091200D01*
X186228066Y-156751200D01*
X186217132Y-156640181D01*
X186184748Y-156533428D01*
X186132161Y-156435044D01*
X186061390Y-156348810D01*
X185975156Y-156278039D01*
X185876772Y-156225452D01*
X185770019Y-156193068D01*
X185659000Y-156182134D01*
X185497493Y-156182134D01*
X185272215Y-155956856D01*
X185255708Y-155936742D01*
X185175462Y-155870886D01*
X185083910Y-155821951D01*
X184984570Y-155791816D01*
X184907141Y-155784190D01*
X184881260Y-155781641D01*
X184855379Y-155784190D01*
X184140099Y-155784190D01*
X184116765Y-155760856D01*
X184100258Y-155740742D01*
X184020012Y-155674886D01*
X183928460Y-155625951D01*
X183829120Y-155595816D01*
X183751691Y-155588190D01*
X183725810Y-155585641D01*
X183699929Y-155588190D01*
X181687969Y-155588190D01*
X181675404Y-155569385D01*
X181588070Y-155482051D01*
X181485377Y-155413434D01*
X181371270Y-155366169D01*
X181250135Y-155342074D01*
X181126627Y-155342074D01*
X181005492Y-155366169D01*
X180891385Y-155413434D01*
X180788692Y-155482051D01*
X180701358Y-155569385D01*
X180632741Y-155672078D01*
X180586041Y-155784821D01*
X180543387Y-155788825D01*
X180423524Y-155824586D01*
X180312941Y-155883044D01*
X180215887Y-155961953D01*
X180136092Y-156058279D01*
X180076623Y-156168322D01*
X180039765Y-156287852D01*
X180030000Y-156409450D01*
X180188750Y-156568200D01*
X180848000Y-156568200D01*
X180848000Y-156548200D01*
X180948085Y-156548200D01*
X181005492Y-156571979D01*
X181110045Y-156592776D01*
X181131847Y-156604429D01*
X181186358Y-156620965D01*
X181231187Y-156634564D01*
X181334496Y-156644739D01*
X181360377Y-156642190D01*
X182502820Y-156642190D01*
X182452122Y-156657823D01*
X182342079Y-156717292D01*
X182245753Y-156797087D01*
X182224231Y-156823558D01*
X182159000Y-156817134D01*
X181879000Y-156817134D01*
X181767981Y-156828068D01*
X181767319Y-156828269D01*
X181761250Y-156822200D01*
X181102000Y-156822200D01*
X181102000Y-156842200D01*
X180848000Y-156842200D01*
X180848000Y-156822200D01*
X180188750Y-156822200D01*
X180039699Y-156971251D01*
X179388446Y-156319999D01*
X179388446Y-155615413D01*
X179417086Y-155572550D01*
X179464351Y-155458443D01*
X179488446Y-155337308D01*
X179488446Y-155213800D01*
X179469841Y-155120266D01*
X179746000Y-155120266D01*
X179811231Y-155113842D01*
X179832753Y-155140313D01*
X179929079Y-155220108D01*
X180039122Y-155279577D01*
X180158652Y-155316435D01*
X180280250Y-155326200D01*
X180439000Y-155167450D01*
X180439000Y-154508200D01*
X180693000Y-154508200D01*
X180693000Y-155167450D01*
X180851750Y-155326200D01*
X180973348Y-155316435D01*
X181092878Y-155279577D01*
X181202921Y-155220108D01*
X181299247Y-155140313D01*
X181378156Y-155043259D01*
X181436614Y-154932676D01*
X181472375Y-154812813D01*
X181484065Y-154688277D01*
X181481000Y-154666950D01*
X181322250Y-154508200D01*
X180693000Y-154508200D01*
X180439000Y-154508200D01*
X180419000Y-154508200D01*
X180419000Y-154254200D01*
X180439000Y-154254200D01*
X180439000Y-153594950D01*
X180693000Y-153594950D01*
X180693000Y-154254200D01*
X181322250Y-154254200D01*
X181481000Y-154095450D01*
X181484065Y-154074123D01*
X181472375Y-153949587D01*
X181436614Y-153829724D01*
X181378156Y-153719141D01*
X181299247Y-153622087D01*
X181202921Y-153542292D01*
X181092878Y-153482823D01*
X180973348Y-153445965D01*
X180851750Y-153436200D01*
X180693000Y-153594950D01*
X180439000Y-153594950D01*
X180280250Y-153436200D01*
X180158652Y-153445965D01*
X180133000Y-153453875D01*
X180133000Y-152961266D01*
X180381000Y-152961266D01*
X180446231Y-152954842D01*
X180467753Y-152981313D01*
X180564079Y-153061108D01*
X180674122Y-153120577D01*
X180793652Y-153157435D01*
X180915250Y-153167200D01*
X181074000Y-153008450D01*
X181074000Y-152349200D01*
X181054000Y-152349200D01*
X181054000Y-152095200D01*
X181074000Y-152095200D01*
X181074000Y-152075200D01*
X181328000Y-152075200D01*
X181328000Y-152095200D01*
X181957250Y-152095200D01*
X182116000Y-151936450D01*
X182119065Y-151915123D01*
X182107375Y-151790587D01*
X182071614Y-151670724D01*
X182013156Y-151560141D01*
X181934247Y-151463087D01*
X181886665Y-151423671D01*
X182308385Y-151423671D01*
X182334266Y-151426220D01*
X182360147Y-151423671D01*
X182437576Y-151416045D01*
X182536916Y-151385910D01*
X182628468Y-151336975D01*
X182702766Y-151276000D01*
X183423711Y-151276000D01*
X183798730Y-151651020D01*
X183815233Y-151671129D01*
X183895479Y-151736985D01*
X183987031Y-151785920D01*
X184086371Y-151816055D01*
X184189681Y-151826230D01*
X184215562Y-151823681D01*
X185056438Y-151823681D01*
X185082319Y-151826230D01*
X185108200Y-151823681D01*
X185185629Y-151816055D01*
X185284969Y-151785920D01*
X185376521Y-151736985D01*
X185456767Y-151671129D01*
X185473274Y-151651015D01*
X185844289Y-151280001D01*
X186013162Y-151280001D01*
X186013162Y-151358434D01*
X186037257Y-151479569D01*
X186084522Y-151593676D01*
X186153139Y-151696369D01*
X186240473Y-151783703D01*
X186343166Y-151852320D01*
X186457273Y-151899585D01*
X186578408Y-151923680D01*
X186701916Y-151923680D01*
X186823051Y-151899585D01*
X186937158Y-151852320D01*
X187009308Y-151804111D01*
X187052222Y-151821887D01*
X187173357Y-151845982D01*
X187296865Y-151845982D01*
X187418000Y-151821887D01*
X187532107Y-151774622D01*
X187634800Y-151706005D01*
X187722134Y-151618671D01*
X187790751Y-151515978D01*
X187838016Y-151401871D01*
X187862111Y-151280736D01*
X187862111Y-151157228D01*
X187838016Y-151036093D01*
X187826184Y-151007528D01*
X187855819Y-150977893D01*
X187924436Y-150875200D01*
X187971701Y-150761093D01*
X187995796Y-150639958D01*
X187995796Y-150516450D01*
X187971701Y-150395315D01*
X187924436Y-150281208D01*
X187855819Y-150178515D01*
X187768485Y-150091181D01*
X187665792Y-150022564D01*
X187551685Y-149975299D01*
X187430550Y-149951204D01*
X187307042Y-149951204D01*
X187293001Y-149953997D01*
X187293001Y-149793384D01*
X187314837Y-149771548D01*
X188095461Y-149771548D01*
X188155656Y-149811715D01*
X188251588Y-149851382D01*
X188353415Y-149871570D01*
X188457224Y-149871505D01*
X188559027Y-149851189D01*
X188654910Y-149811403D01*
X188741189Y-149753675D01*
X188778000Y-149716817D01*
X188778000Y-153551000D01*
G36*
X183041368Y-157418174D02*
G01*
X183065463Y-157539309D01*
X183099851Y-157622329D01*
X183082971Y-157639210D01*
X182832000Y-157639210D01*
X182832000Y-157429200D01*
X182852000Y-157429200D01*
X182852000Y-157409200D01*
X183041368Y-157409200D01*
X183041368Y-157418174D01*
G37*
X183041368Y-157418174D02*
X183065463Y-157539309D01*
X183099851Y-157622329D01*
X183082971Y-157639210D01*
X182832000Y-157639210D01*
X182832000Y-157429200D01*
X182852000Y-157429200D01*
X182852000Y-157409200D01*
X183041368Y-157409200D01*
X183041368Y-157418174D01*
G36*
X184706000Y-156881219D02*
G01*
X184706000Y-157048200D01*
X184686000Y-157048200D01*
X184686000Y-157068200D01*
X184432000Y-157068200D01*
X184432000Y-157048200D01*
X184412000Y-157048200D01*
X184412000Y-156838190D01*
X184662971Y-156838190D01*
X184706000Y-156881219D01*
G37*
X184706000Y-156881219D02*
X184706000Y-157048200D01*
X184686000Y-157048200D01*
X184686000Y-157068200D01*
X184432000Y-157068200D01*
X184432000Y-157048200D01*
X184412000Y-157048200D01*
X184412000Y-156838190D01*
X184662971Y-156838190D01*
X184706000Y-156881219D01*
G36*
X178975095Y-150804889D02*
G01*
X179022360Y-150918996D01*
X179090977Y-151021689D01*
X179178311Y-151109023D01*
X179225438Y-151140512D01*
X179250564Y-151171128D01*
X179270673Y-151187631D01*
X179339045Y-151256003D01*
X179288069Y-151266143D01*
X179173962Y-151313408D01*
X179071269Y-151382025D01*
X179067767Y-151385527D01*
X179021996Y-151354944D01*
X178957532Y-151328242D01*
X178962000Y-151282881D01*
X178964549Y-151257000D01*
X178962000Y-151231119D01*
X178962000Y-150739055D01*
X178975095Y-150804889D01*
G37*
X178975095Y-150804889D02*
X179022360Y-150918996D01*
X179090977Y-151021689D01*
X179178311Y-151109023D01*
X179225438Y-151140512D01*
X179250564Y-151171128D01*
X179270673Y-151187631D01*
X179339045Y-151256003D01*
X179288069Y-151266143D01*
X179173962Y-151313408D01*
X179071269Y-151382025D01*
X179067767Y-151385527D01*
X179021996Y-151354944D01*
X178957532Y-151328242D01*
X178962000Y-151282881D01*
X178964549Y-151257000D01*
X178962000Y-151231119D01*
X178962000Y-150739055D01*
X178975095Y-150804889D01*
G36*
X185239001Y-147244122D02*
G01*
X185236452Y-147270003D01*
X185239001Y-147295883D01*
X185246627Y-147373312D01*
X185276762Y-147472652D01*
X185325697Y-147564205D01*
X185391553Y-147644451D01*
X185411667Y-147660958D01*
X186136697Y-148385988D01*
X186072906Y-148481458D01*
X186025641Y-148595565D01*
X186001546Y-148716700D01*
X186001546Y-148840208D01*
X186025641Y-148961343D01*
X186072906Y-149075450D01*
X186141523Y-149178143D01*
X186228857Y-149265477D01*
X186306285Y-149317212D01*
X186276762Y-149372446D01*
X186246627Y-149471786D01*
X186236452Y-149575095D01*
X186239002Y-149600985D01*
X186239001Y-150226001D01*
X185651880Y-150226001D01*
X185625999Y-150223452D01*
X185600118Y-150226001D01*
X185522689Y-150233627D01*
X185423349Y-150263762D01*
X185331797Y-150312697D01*
X185251551Y-150378553D01*
X185235052Y-150398657D01*
X184864029Y-150769681D01*
X184407971Y-150769681D01*
X184032955Y-150394666D01*
X184016448Y-150374552D01*
X183936202Y-150308696D01*
X183844650Y-150259761D01*
X183745310Y-150229626D01*
X183667881Y-150222000D01*
X183642000Y-150219451D01*
X183616119Y-150222000D01*
X182698805Y-150222000D01*
X182697170Y-150213781D01*
X182649905Y-150099674D01*
X182581288Y-149996981D01*
X182493954Y-149909647D01*
X182391261Y-149841030D01*
X182277154Y-149793765D01*
X182156019Y-149769670D01*
X182149370Y-149769670D01*
X182130802Y-149724842D01*
X182062185Y-149622149D01*
X181974851Y-149534815D01*
X181872158Y-149466198D01*
X181758051Y-149418933D01*
X181636916Y-149394838D01*
X181513408Y-149394838D01*
X181392273Y-149418933D01*
X181278166Y-149466198D01*
X181175473Y-149534815D01*
X181088139Y-149622149D01*
X181019522Y-149724842D01*
X180972257Y-149838949D01*
X180948162Y-149960084D01*
X180948162Y-150083592D01*
X180972257Y-150204727D01*
X180979412Y-150222000D01*
X180786986Y-150222000D01*
X180778057Y-150177111D01*
X180730792Y-150063004D01*
X180662175Y-149960311D01*
X180574841Y-149872977D01*
X180472148Y-149804360D01*
X180358041Y-149757095D01*
X180236906Y-149733000D01*
X180113398Y-149733000D01*
X179992263Y-149757095D01*
X179878156Y-149804360D01*
X179775463Y-149872977D01*
X179688129Y-149960311D01*
X179661995Y-149999424D01*
X179639754Y-149995000D01*
X179516246Y-149995000D01*
X179395111Y-150019095D01*
X179281004Y-150066360D01*
X179178311Y-150134977D01*
X179090977Y-150222311D01*
X179022360Y-150325004D01*
X178975095Y-150439111D01*
X178962000Y-150504945D01*
X178962000Y-149880917D01*
X179024699Y-149839023D01*
X179112033Y-149751689D01*
X179180650Y-149648996D01*
X179227915Y-149534889D01*
X179252010Y-149413754D01*
X179252010Y-149290246D01*
X179227915Y-149169111D01*
X179180650Y-149055004D01*
X179112033Y-148952311D01*
X179024699Y-148864977D01*
X178922006Y-148796360D01*
X178807899Y-148749095D01*
X178686764Y-148725000D01*
X178563256Y-148725000D01*
X178442121Y-148749095D01*
X178328014Y-148796360D01*
X178252000Y-148847151D01*
X178252000Y-147635048D01*
X178324963Y-147789420D01*
X178492481Y-148015414D01*
X178700869Y-148204385D01*
X178942119Y-148349070D01*
X179206960Y-148443909D01*
X179402951Y-148336853D01*
X179415590Y-148400396D01*
X179428998Y-148432766D01*
X179428998Y-148487000D01*
X179451463Y-148487000D01*
X179462855Y-148514503D01*
X179518560Y-148597872D01*
X179489650Y-148667666D01*
X179465555Y-148788801D01*
X179465555Y-148912309D01*
X179489650Y-149033444D01*
X179536915Y-149147551D01*
X179605532Y-149250244D01*
X179692866Y-149337578D01*
X179795559Y-149406195D01*
X179909666Y-149453460D01*
X180030801Y-149477555D01*
X180154309Y-149477555D01*
X180275444Y-149453460D01*
X180389551Y-149406195D01*
X180492244Y-149337578D01*
X180579578Y-149250244D01*
X180648195Y-149147551D01*
X180695460Y-149033444D01*
X180719555Y-148912309D01*
X180719555Y-148788801D01*
X180695460Y-148667666D01*
X180648195Y-148553559D01*
X180592490Y-148470190D01*
X180621400Y-148400396D01*
X180631457Y-148349834D01*
X181554000Y-147427293D01*
X181554000Y-147475002D01*
X181712748Y-147475002D01*
X181554000Y-147633750D01*
X181563765Y-147755348D01*
X181600623Y-147874878D01*
X181660092Y-147984921D01*
X181739887Y-148081247D01*
X181766358Y-148102769D01*
X181759934Y-148168000D01*
X181759934Y-148448000D01*
X181770868Y-148559019D01*
X181803252Y-148665772D01*
X181855839Y-148764156D01*
X181926610Y-148850390D01*
X182012844Y-148921161D01*
X182111228Y-148973748D01*
X182194461Y-148998997D01*
X182197360Y-149005996D01*
X182265977Y-149108689D01*
X182353311Y-149196023D01*
X182456004Y-149264640D01*
X182570111Y-149311905D01*
X182691246Y-149336000D01*
X182814754Y-149336000D01*
X182935889Y-149311905D01*
X183049996Y-149264640D01*
X183152689Y-149196023D01*
X183240023Y-149108689D01*
X183308640Y-149005996D01*
X183355905Y-148891889D01*
X183380000Y-148770754D01*
X183380000Y-148647246D01*
X183355905Y-148526111D01*
X183308640Y-148412004D01*
X183240023Y-148309311D01*
X183238066Y-148307354D01*
X183238066Y-148168000D01*
X183231642Y-148102769D01*
X183258113Y-148081247D01*
X183337908Y-147984921D01*
X183369816Y-147925878D01*
X183420648Y-147935989D01*
X183544156Y-147935989D01*
X183665291Y-147911894D01*
X183779398Y-147864629D01*
X183882091Y-147796012D01*
X183969425Y-147708678D01*
X184038042Y-147605985D01*
X184085307Y-147491878D01*
X184109402Y-147370743D01*
X184109402Y-147247235D01*
X184096028Y-147179999D01*
X185239001Y-147179999D01*
X185239001Y-147244122D01*
G37*
X185239001Y-147244122D02*
X185236452Y-147270003D01*
X185239001Y-147295883D01*
X185246627Y-147373312D01*
X185276762Y-147472652D01*
X185325697Y-147564205D01*
X185391553Y-147644451D01*
X185411667Y-147660958D01*
X186136697Y-148385988D01*
X186072906Y-148481458D01*
X186025641Y-148595565D01*
X186001546Y-148716700D01*
X186001546Y-148840208D01*
X186025641Y-148961343D01*
X186072906Y-149075450D01*
X186141523Y-149178143D01*
X186228857Y-149265477D01*
X186306285Y-149317212D01*
X186276762Y-149372446D01*
X186246627Y-149471786D01*
X186236452Y-149575095D01*
X186239002Y-149600985D01*
X186239001Y-150226001D01*
X185651880Y-150226001D01*
X185625999Y-150223452D01*
X185600118Y-150226001D01*
X185522689Y-150233627D01*
X185423349Y-150263762D01*
X185331797Y-150312697D01*
X185251551Y-150378553D01*
X185235052Y-150398657D01*
X184864029Y-150769681D01*
X184407971Y-150769681D01*
X184032955Y-150394666D01*
X184016448Y-150374552D01*
X183936202Y-150308696D01*
X183844650Y-150259761D01*
X183745310Y-150229626D01*
X183667881Y-150222000D01*
X183642000Y-150219451D01*
X183616119Y-150222000D01*
X182698805Y-150222000D01*
X182697170Y-150213781D01*
X182649905Y-150099674D01*
X182581288Y-149996981D01*
X182493954Y-149909647D01*
X182391261Y-149841030D01*
X182277154Y-149793765D01*
X182156019Y-149769670D01*
X182149370Y-149769670D01*
X182130802Y-149724842D01*
X182062185Y-149622149D01*
X181974851Y-149534815D01*
X181872158Y-149466198D01*
X181758051Y-149418933D01*
X181636916Y-149394838D01*
X181513408Y-149394838D01*
X181392273Y-149418933D01*
X181278166Y-149466198D01*
X181175473Y-149534815D01*
X181088139Y-149622149D01*
X181019522Y-149724842D01*
X180972257Y-149838949D01*
X180948162Y-149960084D01*
X180948162Y-150083592D01*
X180972257Y-150204727D01*
X180979412Y-150222000D01*
X180786986Y-150222000D01*
X180778057Y-150177111D01*
X180730792Y-150063004D01*
X180662175Y-149960311D01*
X180574841Y-149872977D01*
X180472148Y-149804360D01*
X180358041Y-149757095D01*
X180236906Y-149733000D01*
X180113398Y-149733000D01*
X179992263Y-149757095D01*
X179878156Y-149804360D01*
X179775463Y-149872977D01*
X179688129Y-149960311D01*
X179661995Y-149999424D01*
X179639754Y-149995000D01*
X179516246Y-149995000D01*
X179395111Y-150019095D01*
X179281004Y-150066360D01*
X179178311Y-150134977D01*
X179090977Y-150222311D01*
X179022360Y-150325004D01*
X178975095Y-150439111D01*
X178962000Y-150504945D01*
X178962000Y-149880917D01*
X179024699Y-149839023D01*
X179112033Y-149751689D01*
X179180650Y-149648996D01*
X179227915Y-149534889D01*
X179252010Y-149413754D01*
X179252010Y-149290246D01*
X179227915Y-149169111D01*
X179180650Y-149055004D01*
X179112033Y-148952311D01*
X179024699Y-148864977D01*
X178922006Y-148796360D01*
X178807899Y-148749095D01*
X178686764Y-148725000D01*
X178563256Y-148725000D01*
X178442121Y-148749095D01*
X178328014Y-148796360D01*
X178252000Y-148847151D01*
X178252000Y-147635048D01*
X178324963Y-147789420D01*
X178492481Y-148015414D01*
X178700869Y-148204385D01*
X178942119Y-148349070D01*
X179206960Y-148443909D01*
X179402951Y-148336853D01*
X179415590Y-148400396D01*
X179428998Y-148432766D01*
X179428998Y-148487000D01*
X179451463Y-148487000D01*
X179462855Y-148514503D01*
X179518560Y-148597872D01*
X179489650Y-148667666D01*
X179465555Y-148788801D01*
X179465555Y-148912309D01*
X179489650Y-149033444D01*
X179536915Y-149147551D01*
X179605532Y-149250244D01*
X179692866Y-149337578D01*
X179795559Y-149406195D01*
X179909666Y-149453460D01*
X180030801Y-149477555D01*
X180154309Y-149477555D01*
X180275444Y-149453460D01*
X180389551Y-149406195D01*
X180492244Y-149337578D01*
X180579578Y-149250244D01*
X180648195Y-149147551D01*
X180695460Y-149033444D01*
X180719555Y-148912309D01*
X180719555Y-148788801D01*
X180695460Y-148667666D01*
X180648195Y-148553559D01*
X180592490Y-148470190D01*
X180621400Y-148400396D01*
X180631457Y-148349834D01*
X181554000Y-147427293D01*
X181554000Y-147475002D01*
X181712748Y-147475002D01*
X181554000Y-147633750D01*
X181563765Y-147755348D01*
X181600623Y-147874878D01*
X181660092Y-147984921D01*
X181739887Y-148081247D01*
X181766358Y-148102769D01*
X181759934Y-148168000D01*
X181759934Y-148448000D01*
X181770868Y-148559019D01*
X181803252Y-148665772D01*
X181855839Y-148764156D01*
X181926610Y-148850390D01*
X182012844Y-148921161D01*
X182111228Y-148973748D01*
X182194461Y-148998997D01*
X182197360Y-149005996D01*
X182265977Y-149108689D01*
X182353311Y-149196023D01*
X182456004Y-149264640D01*
X182570111Y-149311905D01*
X182691246Y-149336000D01*
X182814754Y-149336000D01*
X182935889Y-149311905D01*
X183049996Y-149264640D01*
X183152689Y-149196023D01*
X183240023Y-149108689D01*
X183308640Y-149005996D01*
X183355905Y-148891889D01*
X183380000Y-148770754D01*
X183380000Y-148647246D01*
X183355905Y-148526111D01*
X183308640Y-148412004D01*
X183240023Y-148309311D01*
X183238066Y-148307354D01*
X183238066Y-148168000D01*
X183231642Y-148102769D01*
X183258113Y-148081247D01*
X183337908Y-147984921D01*
X183369816Y-147925878D01*
X183420648Y-147935989D01*
X183544156Y-147935989D01*
X183665291Y-147911894D01*
X183779398Y-147864629D01*
X183882091Y-147796012D01*
X183969425Y-147708678D01*
X184038042Y-147605985D01*
X184085307Y-147491878D01*
X184109402Y-147370743D01*
X184109402Y-147247235D01*
X184096028Y-147179999D01*
X185239001Y-147179999D01*
X185239001Y-147244122D01*
G36*
X182626000Y-147221000D02*
G01*
X182646000Y-147221000D01*
X182646000Y-147475000D01*
X182626000Y-147475000D01*
X182626000Y-147495000D01*
X182372000Y-147495000D01*
X182372000Y-147475000D01*
X182352000Y-147475000D01*
X182352000Y-147221000D01*
X182372000Y-147221000D01*
X182372000Y-147201000D01*
X182626000Y-147201000D01*
X182626000Y-147221000D01*
G37*
X182626000Y-147221000D02*
X182646000Y-147221000D01*
X182646000Y-147475000D01*
X182626000Y-147475000D01*
X182626000Y-147495000D01*
X182372000Y-147495000D01*
X182372000Y-147475000D01*
X182352000Y-147475000D01*
X182352000Y-147221000D01*
X182372000Y-147221000D01*
X182372000Y-147201000D01*
X182626000Y-147201000D01*
X182626000Y-147221000D01*
G36*
X179683000Y-146925000D02*
G01*
X179703000Y-146925000D01*
X179703000Y-147179000D01*
X179683000Y-147179000D01*
X179683000Y-147199000D01*
X179429000Y-147199000D01*
X179429000Y-147179000D01*
X179409000Y-147179000D01*
X179409000Y-146925000D01*
X179429000Y-146925000D01*
X179429000Y-146905000D01*
X179683000Y-146905000D01*
X179683000Y-146925000D01*
G37*
X179683000Y-146925000D02*
X179703000Y-146925000D01*
X179703000Y-147179000D01*
X179683000Y-147179000D01*
X179683000Y-147199000D01*
X179429000Y-147199000D01*
X179429000Y-147179000D01*
X179409000Y-147179000D01*
X179409000Y-146925000D01*
X179429000Y-146925000D01*
X179429000Y-146905000D01*
X179683000Y-146905000D01*
X179683000Y-146925000D01*
G36*
X185996153Y-144154097D02*
G01*
X185949000Y-144391151D01*
X185949000Y-144632849D01*
X185996153Y-144869903D01*
X186088647Y-145093202D01*
X186222927Y-145294167D01*
X186354813Y-145426053D01*
X186277014Y-145458279D01*
X186174321Y-145526896D01*
X186086987Y-145614230D01*
X186018370Y-145716923D01*
X185971105Y-145831030D01*
X185947010Y-145952165D01*
X185947010Y-146075673D01*
X185971105Y-146196808D01*
X185971283Y-146197237D01*
X185908651Y-146163760D01*
X185809311Y-146133625D01*
X185731882Y-146125999D01*
X185706001Y-146123450D01*
X185680120Y-146125999D01*
X181608884Y-146125999D01*
X181583003Y-146123450D01*
X181557122Y-146125999D01*
X181479693Y-146133625D01*
X181380353Y-146163760D01*
X181288801Y-146212695D01*
X181208555Y-146278551D01*
X181192056Y-146298655D01*
X180910633Y-146580079D01*
X180907246Y-146568913D01*
X180787037Y-146314580D01*
X180619519Y-146088586D01*
X180411131Y-145899615D01*
X180169881Y-145754930D01*
X179950912Y-145676517D01*
X180137202Y-145599353D01*
X180338167Y-145465073D01*
X180509073Y-145294167D01*
X180643353Y-145093202D01*
X180735847Y-144869903D01*
X180783000Y-144632849D01*
X180783000Y-144520491D01*
X180793838Y-144531329D01*
X180803895Y-144581889D01*
X180851160Y-144695996D01*
X180919777Y-144798689D01*
X181007111Y-144886023D01*
X181109804Y-144954640D01*
X181223911Y-145001905D01*
X181345046Y-145026000D01*
X181366624Y-145026000D01*
X181430490Y-145045374D01*
X181533799Y-145055549D01*
X181559680Y-145053000D01*
X182356359Y-145053000D01*
X182393610Y-145098390D01*
X182479844Y-145169161D01*
X182578228Y-145221748D01*
X182684981Y-145254132D01*
X182796000Y-145265066D01*
X183076000Y-145265066D01*
X183141231Y-145258642D01*
X183162753Y-145285113D01*
X183259079Y-145364908D01*
X183369122Y-145424377D01*
X183488652Y-145461235D01*
X183610250Y-145471000D01*
X183769000Y-145312250D01*
X183769000Y-144653000D01*
X184023000Y-144653000D01*
X184023000Y-145312250D01*
X184181750Y-145471000D01*
X184303348Y-145461235D01*
X184422878Y-145424377D01*
X184532921Y-145364908D01*
X184629247Y-145285113D01*
X184708156Y-145188059D01*
X184766614Y-145077476D01*
X184802375Y-144957613D01*
X184814065Y-144833077D01*
X184811000Y-144811750D01*
X184652250Y-144653000D01*
X184023000Y-144653000D01*
X183769000Y-144653000D01*
X183749000Y-144653000D01*
X183749000Y-144399000D01*
X183769000Y-144399000D01*
X183769000Y-144379000D01*
X184023000Y-144379000D01*
X184023000Y-144399000D01*
X184652250Y-144399000D01*
X184811000Y-144240250D01*
X184814065Y-144218923D01*
X184802375Y-144094387D01*
X184766614Y-143974524D01*
X184747834Y-143938999D01*
X186085250Y-143938999D01*
X185996153Y-144154097D01*
G37*
X185996153Y-144154097D02*
X185949000Y-144391151D01*
X185949000Y-144632849D01*
X185996153Y-144869903D01*
X186088647Y-145093202D01*
X186222927Y-145294167D01*
X186354813Y-145426053D01*
X186277014Y-145458279D01*
X186174321Y-145526896D01*
X186086987Y-145614230D01*
X186018370Y-145716923D01*
X185971105Y-145831030D01*
X185947010Y-145952165D01*
X185947010Y-146075673D01*
X185971105Y-146196808D01*
X185971283Y-146197237D01*
X185908651Y-146163760D01*
X185809311Y-146133625D01*
X185731882Y-146125999D01*
X185706001Y-146123450D01*
X185680120Y-146125999D01*
X181608884Y-146125999D01*
X181583003Y-146123450D01*
X181557122Y-146125999D01*
X181479693Y-146133625D01*
X181380353Y-146163760D01*
X181288801Y-146212695D01*
X181208555Y-146278551D01*
X181192056Y-146298655D01*
X180910633Y-146580079D01*
X180907246Y-146568913D01*
X180787037Y-146314580D01*
X180619519Y-146088586D01*
X180411131Y-145899615D01*
X180169881Y-145754930D01*
X179950912Y-145676517D01*
X180137202Y-145599353D01*
X180338167Y-145465073D01*
X180509073Y-145294167D01*
X180643353Y-145093202D01*
X180735847Y-144869903D01*
X180783000Y-144632849D01*
X180783000Y-144520491D01*
X180793838Y-144531329D01*
X180803895Y-144581889D01*
X180851160Y-144695996D01*
X180919777Y-144798689D01*
X181007111Y-144886023D01*
X181109804Y-144954640D01*
X181223911Y-145001905D01*
X181345046Y-145026000D01*
X181366624Y-145026000D01*
X181430490Y-145045374D01*
X181533799Y-145055549D01*
X181559680Y-145053000D01*
X182356359Y-145053000D01*
X182393610Y-145098390D01*
X182479844Y-145169161D01*
X182578228Y-145221748D01*
X182684981Y-145254132D01*
X182796000Y-145265066D01*
X183076000Y-145265066D01*
X183141231Y-145258642D01*
X183162753Y-145285113D01*
X183259079Y-145364908D01*
X183369122Y-145424377D01*
X183488652Y-145461235D01*
X183610250Y-145471000D01*
X183769000Y-145312250D01*
X183769000Y-144653000D01*
X184023000Y-144653000D01*
X184023000Y-145312250D01*
X184181750Y-145471000D01*
X184303348Y-145461235D01*
X184422878Y-145424377D01*
X184532921Y-145364908D01*
X184629247Y-145285113D01*
X184708156Y-145188059D01*
X184766614Y-145077476D01*
X184802375Y-144957613D01*
X184814065Y-144833077D01*
X184811000Y-144811750D01*
X184652250Y-144653000D01*
X184023000Y-144653000D01*
X183769000Y-144653000D01*
X183749000Y-144653000D01*
X183749000Y-144399000D01*
X183769000Y-144399000D01*
X183769000Y-144379000D01*
X184023000Y-144379000D01*
X184023000Y-144399000D01*
X184652250Y-144399000D01*
X184811000Y-144240250D01*
X184814065Y-144218923D01*
X184802375Y-144094387D01*
X184766614Y-143974524D01*
X184747834Y-143938999D01*
X186085250Y-143938999D01*
X185996153Y-144154097D01*
G36*
X181084050Y-135321940D02*
G01*
X181100553Y-135342049D01*
X181180799Y-135407905D01*
X181272351Y-135456840D01*
X181337875Y-135476717D01*
X181320868Y-135532781D01*
X181309934Y-135643800D01*
X181309934Y-135983800D01*
X181320868Y-136094819D01*
X181353252Y-136201572D01*
X181405839Y-136299956D01*
X181467000Y-136374480D01*
X181467000Y-136525894D01*
X181464330Y-136553000D01*
X181467000Y-136580106D01*
X181467000Y-136580108D01*
X181474988Y-136661210D01*
X181506552Y-136765262D01*
X181557809Y-136861158D01*
X181626789Y-136945211D01*
X181647856Y-136962500D01*
X181807503Y-137122148D01*
X181824789Y-137143211D01*
X181908842Y-137212191D01*
X182004737Y-137263448D01*
X182108789Y-137295012D01*
X182189891Y-137303000D01*
X182189901Y-137303000D01*
X182216999Y-137305669D01*
X182244097Y-137303000D01*
X183589320Y-137303000D01*
X183663844Y-137364161D01*
X183762228Y-137416748D01*
X183839976Y-137440333D01*
X183834912Y-137443717D01*
X183747578Y-137531051D01*
X183678961Y-137633744D01*
X183631696Y-137747851D01*
X183607601Y-137868986D01*
X183607601Y-137992494D01*
X183631696Y-138113629D01*
X183678961Y-138227736D01*
X183747578Y-138330429D01*
X183834912Y-138417763D01*
X183937605Y-138486380D01*
X184051712Y-138533645D01*
X184139349Y-138551077D01*
X184156696Y-138638289D01*
X184203961Y-138752396D01*
X184272578Y-138855089D01*
X184359912Y-138942423D01*
X184462605Y-139011040D01*
X184576712Y-139058305D01*
X184697847Y-139082400D01*
X184821355Y-139082400D01*
X184942490Y-139058305D01*
X185056597Y-139011040D01*
X185159290Y-138942423D01*
X185246624Y-138855089D01*
X185315241Y-138752396D01*
X185362506Y-138638289D01*
X185386601Y-138517154D01*
X185386601Y-138393646D01*
X185362506Y-138272511D01*
X185315241Y-138158404D01*
X185311601Y-138152956D01*
X185311601Y-137387706D01*
X185314271Y-137360600D01*
X185311044Y-137327835D01*
X185303613Y-137252390D01*
X185272049Y-137148338D01*
X185220792Y-137052443D01*
X185151812Y-136968390D01*
X185130750Y-136951105D01*
X184889066Y-136709421D01*
X184889066Y-136611000D01*
X184882642Y-136545769D01*
X184909113Y-136524247D01*
X184988908Y-136427921D01*
X185048377Y-136317878D01*
X185085235Y-136198348D01*
X185088074Y-136163000D01*
X186187402Y-136163000D01*
X186088647Y-136310798D01*
X185996153Y-136534097D01*
X185949000Y-136771151D01*
X185949000Y-137012849D01*
X185996153Y-137249903D01*
X186088647Y-137473202D01*
X186222927Y-137674167D01*
X186393833Y-137845073D01*
X186594798Y-137979353D01*
X186818097Y-138071847D01*
X187055151Y-138119000D01*
X187296849Y-138119000D01*
X187533903Y-138071847D01*
X187757202Y-137979353D01*
X187958167Y-137845073D01*
X188129073Y-137674167D01*
X188263353Y-137473202D01*
X188355847Y-137249903D01*
X188403000Y-137012849D01*
X188403000Y-136771151D01*
X188355847Y-136534097D01*
X188263353Y-136310798D01*
X188212719Y-136235019D01*
X188222101Y-136238905D01*
X188343236Y-136263000D01*
X188466744Y-136263000D01*
X188587879Y-136238905D01*
X188701986Y-136191640D01*
X188778001Y-136140849D01*
X188778000Y-145993666D01*
X188763523Y-145981232D01*
X188379954Y-145597665D01*
X188363447Y-145577551D01*
X188283201Y-145511695D01*
X188191649Y-145462760D01*
X188092309Y-145432625D01*
X188014880Y-145424999D01*
X187999733Y-145423507D01*
X188129073Y-145294167D01*
X188263353Y-145093202D01*
X188355847Y-144869903D01*
X188403000Y-144632849D01*
X188403000Y-144391151D01*
X188355847Y-144154097D01*
X188263353Y-143930798D01*
X188203897Y-143841816D01*
X188263024Y-143782689D01*
X188331641Y-143679996D01*
X188378906Y-143565889D01*
X188403001Y-143444754D01*
X188403001Y-143321246D01*
X188378906Y-143200111D01*
X188331641Y-143086004D01*
X188263024Y-142983311D01*
X188175690Y-142895977D01*
X188072997Y-142827360D01*
X188060893Y-142822347D01*
X188129073Y-142754167D01*
X188263353Y-142553202D01*
X188355847Y-142329903D01*
X188403000Y-142092849D01*
X188403000Y-141851151D01*
X188355847Y-141614097D01*
X188263353Y-141390798D01*
X188129073Y-141189833D01*
X187997417Y-141058177D01*
X188072997Y-141026871D01*
X188175690Y-140958254D01*
X188263024Y-140870920D01*
X188331641Y-140768227D01*
X188378906Y-140654120D01*
X188403001Y-140532985D01*
X188403001Y-140409477D01*
X188378906Y-140288342D01*
X188331641Y-140174235D01*
X188263024Y-140071542D01*
X188239854Y-140048372D01*
X188263353Y-140013202D01*
X188355847Y-139789903D01*
X188403000Y-139552849D01*
X188403000Y-139311151D01*
X188355847Y-139074097D01*
X188263353Y-138850798D01*
X188129073Y-138649833D01*
X187958167Y-138478927D01*
X187757202Y-138344647D01*
X187533903Y-138252153D01*
X187296849Y-138205000D01*
X187055151Y-138205000D01*
X186818097Y-138252153D01*
X186594798Y-138344647D01*
X186393833Y-138478927D01*
X186222927Y-138649833D01*
X186088647Y-138850798D01*
X185996153Y-139074097D01*
X185949000Y-139311151D01*
X185949000Y-139552849D01*
X185996153Y-139789903D01*
X186088647Y-140013202D01*
X186222927Y-140214167D01*
X186393833Y-140385073D01*
X186594798Y-140519353D01*
X186818097Y-140611847D01*
X187055151Y-140659000D01*
X187175117Y-140659000D01*
X187210740Y-140745000D01*
X187055151Y-140745000D01*
X186818097Y-140792153D01*
X186594798Y-140884647D01*
X186393833Y-141018927D01*
X186222927Y-141189833D01*
X186088647Y-141390798D01*
X186066196Y-141445000D01*
X185281160Y-141445000D01*
X185315240Y-141393996D01*
X185362505Y-141279889D01*
X185386600Y-141158754D01*
X185386600Y-141035246D01*
X185362505Y-140914111D01*
X185315240Y-140800004D01*
X185246623Y-140697311D01*
X185159289Y-140609977D01*
X185056596Y-140541360D01*
X184942489Y-140494095D01*
X184920338Y-140489689D01*
X184905305Y-140414111D01*
X184858040Y-140300004D01*
X184789423Y-140197311D01*
X184702089Y-140109977D01*
X184599396Y-140041360D01*
X184485289Y-139994095D01*
X184364154Y-139970000D01*
X184240646Y-139970000D01*
X184119511Y-139994095D01*
X184005404Y-140041360D01*
X183902711Y-140109977D01*
X183815377Y-140197311D01*
X183746760Y-140300004D01*
X183699495Y-140414111D01*
X183687981Y-140471997D01*
X182024109Y-140471997D01*
X181958889Y-140406777D01*
X181856196Y-140338160D01*
X181742089Y-140290895D01*
X181620954Y-140266800D01*
X181497446Y-140266800D01*
X181376311Y-140290895D01*
X181262204Y-140338160D01*
X181159511Y-140406777D01*
X181072177Y-140494111D01*
X181003560Y-140596804D01*
X180956295Y-140710911D01*
X180932200Y-140832046D01*
X180932200Y-140955554D01*
X180956295Y-141076689D01*
X181003560Y-141190796D01*
X181072177Y-141293489D01*
X181159511Y-141380823D01*
X181262204Y-141449440D01*
X181376311Y-141496705D01*
X181432300Y-141507842D01*
X181468199Y-141537304D01*
X181512068Y-141560752D01*
X181559750Y-141586239D01*
X181659090Y-141616374D01*
X181762399Y-141626549D01*
X181762400Y-141626549D01*
X181865709Y-141616374D01*
X181965049Y-141586239D01*
X182056601Y-141537304D01*
X182070378Y-141525997D01*
X182888000Y-141525997D01*
X182888000Y-141560752D01*
X182912095Y-141681887D01*
X182959360Y-141795994D01*
X183027977Y-141898687D01*
X183115311Y-141986021D01*
X183218004Y-142054638D01*
X183332111Y-142101903D01*
X183382672Y-142111960D01*
X183597055Y-142326344D01*
X183613226Y-142346048D01*
X183588334Y-142356359D01*
X183485641Y-142424976D01*
X183398307Y-142512310D01*
X183329690Y-142615003D01*
X183282425Y-142729110D01*
X183258330Y-142850245D01*
X183258330Y-142884999D01*
X181214289Y-142884999D01*
X180713395Y-142384106D01*
X180735847Y-142329903D01*
X180783000Y-142092849D01*
X180783000Y-141851151D01*
X180735847Y-141614097D01*
X180643353Y-141390798D01*
X180509073Y-141189833D01*
X180338167Y-141018927D01*
X180137202Y-140884647D01*
X179913903Y-140792153D01*
X179676849Y-140745000D01*
X179435151Y-140745000D01*
X179198097Y-140792153D01*
X178982999Y-140881250D01*
X178982999Y-140522750D01*
X179198097Y-140611847D01*
X179435151Y-140659000D01*
X179676849Y-140659000D01*
X179913903Y-140611847D01*
X180137202Y-140519353D01*
X180338167Y-140385073D01*
X180509073Y-140214167D01*
X180643353Y-140013202D01*
X180735847Y-139789903D01*
X180783000Y-139552849D01*
X180783000Y-139351646D01*
X180853089Y-139337705D01*
X180967196Y-139290440D01*
X181010059Y-139261800D01*
X182498519Y-139261800D01*
X182524400Y-139264349D01*
X182550281Y-139261800D01*
X182578898Y-139258981D01*
X182646311Y-139286905D01*
X182767446Y-139311000D01*
X182890954Y-139311000D01*
X183012089Y-139286905D01*
X183126196Y-139239640D01*
X183228889Y-139171023D01*
X183316223Y-139083689D01*
X183384840Y-138980996D01*
X183432105Y-138866889D01*
X183456200Y-138745754D01*
X183456200Y-138622246D01*
X183432105Y-138501111D01*
X183384840Y-138387004D01*
X183316223Y-138284311D01*
X183228889Y-138196977D01*
X183126196Y-138128360D01*
X183012089Y-138081095D01*
X182890954Y-138057000D01*
X182767446Y-138057000D01*
X182646311Y-138081095D01*
X182532204Y-138128360D01*
X182478972Y-138163929D01*
X182471890Y-138164626D01*
X182372550Y-138194761D01*
X182348155Y-138207800D01*
X181010059Y-138207800D01*
X180967196Y-138179160D01*
X180853089Y-138131895D01*
X180731954Y-138107800D01*
X180608446Y-138107800D01*
X180487311Y-138131895D01*
X180373204Y-138179160D01*
X180270511Y-138247777D01*
X180183177Y-138335111D01*
X180164581Y-138362941D01*
X180137202Y-138344647D01*
X179913903Y-138252153D01*
X179676849Y-138205000D01*
X179435151Y-138205000D01*
X179198097Y-138252153D01*
X178982999Y-138341250D01*
X178982999Y-137982750D01*
X179198097Y-138071847D01*
X179435151Y-138119000D01*
X179676849Y-138119000D01*
X179913903Y-138071847D01*
X180137202Y-137979353D01*
X180338167Y-137845073D01*
X180509073Y-137674167D01*
X180643353Y-137473202D01*
X180735847Y-137249903D01*
X180783000Y-137012849D01*
X180783000Y-136771151D01*
X180735847Y-136534097D01*
X180643353Y-136310798D01*
X180509073Y-136109833D01*
X180338167Y-135938927D01*
X180137202Y-135804647D01*
X179913903Y-135712153D01*
X179676849Y-135665000D01*
X179435151Y-135665000D01*
X179198097Y-135712153D01*
X178982999Y-135801250D01*
X178982999Y-135442750D01*
X179198097Y-135531847D01*
X179435151Y-135579000D01*
X179676849Y-135579000D01*
X179913903Y-135531847D01*
X180137202Y-135439353D01*
X180338167Y-135305073D01*
X180509073Y-135134167D01*
X180643353Y-134933202D01*
X180658572Y-134896461D01*
X181084050Y-135321940D01*
G37*
X181084050Y-135321940D02*
X181100553Y-135342049D01*
X181180799Y-135407905D01*
X181272351Y-135456840D01*
X181337875Y-135476717D01*
X181320868Y-135532781D01*
X181309934Y-135643800D01*
X181309934Y-135983800D01*
X181320868Y-136094819D01*
X181353252Y-136201572D01*
X181405839Y-136299956D01*
X181467000Y-136374480D01*
X181467000Y-136525894D01*
X181464330Y-136553000D01*
X181467000Y-136580106D01*
X181467000Y-136580108D01*
X181474988Y-136661210D01*
X181506552Y-136765262D01*
X181557809Y-136861158D01*
X181626789Y-136945211D01*
X181647856Y-136962500D01*
X181807503Y-137122148D01*
X181824789Y-137143211D01*
X181908842Y-137212191D01*
X182004737Y-137263448D01*
X182108789Y-137295012D01*
X182189891Y-137303000D01*
X182189901Y-137303000D01*
X182216999Y-137305669D01*
X182244097Y-137303000D01*
X183589320Y-137303000D01*
X183663844Y-137364161D01*
X183762228Y-137416748D01*
X183839976Y-137440333D01*
X183834912Y-137443717D01*
X183747578Y-137531051D01*
X183678961Y-137633744D01*
X183631696Y-137747851D01*
X183607601Y-137868986D01*
X183607601Y-137992494D01*
X183631696Y-138113629D01*
X183678961Y-138227736D01*
X183747578Y-138330429D01*
X183834912Y-138417763D01*
X183937605Y-138486380D01*
X184051712Y-138533645D01*
X184139349Y-138551077D01*
X184156696Y-138638289D01*
X184203961Y-138752396D01*
X184272578Y-138855089D01*
X184359912Y-138942423D01*
X184462605Y-139011040D01*
X184576712Y-139058305D01*
X184697847Y-139082400D01*
X184821355Y-139082400D01*
X184942490Y-139058305D01*
X185056597Y-139011040D01*
X185159290Y-138942423D01*
X185246624Y-138855089D01*
X185315241Y-138752396D01*
X185362506Y-138638289D01*
X185386601Y-138517154D01*
X185386601Y-138393646D01*
X185362506Y-138272511D01*
X185315241Y-138158404D01*
X185311601Y-138152956D01*
X185311601Y-137387706D01*
X185314271Y-137360600D01*
X185311044Y-137327835D01*
X185303613Y-137252390D01*
X185272049Y-137148338D01*
X185220792Y-137052443D01*
X185151812Y-136968390D01*
X185130750Y-136951105D01*
X184889066Y-136709421D01*
X184889066Y-136611000D01*
X184882642Y-136545769D01*
X184909113Y-136524247D01*
X184988908Y-136427921D01*
X185048377Y-136317878D01*
X185085235Y-136198348D01*
X185088074Y-136163000D01*
X186187402Y-136163000D01*
X186088647Y-136310798D01*
X185996153Y-136534097D01*
X185949000Y-136771151D01*
X185949000Y-137012849D01*
X185996153Y-137249903D01*
X186088647Y-137473202D01*
X186222927Y-137674167D01*
X186393833Y-137845073D01*
X186594798Y-137979353D01*
X186818097Y-138071847D01*
X187055151Y-138119000D01*
X187296849Y-138119000D01*
X187533903Y-138071847D01*
X187757202Y-137979353D01*
X187958167Y-137845073D01*
X188129073Y-137674167D01*
X188263353Y-137473202D01*
X188355847Y-137249903D01*
X188403000Y-137012849D01*
X188403000Y-136771151D01*
X188355847Y-136534097D01*
X188263353Y-136310798D01*
X188212719Y-136235019D01*
X188222101Y-136238905D01*
X188343236Y-136263000D01*
X188466744Y-136263000D01*
X188587879Y-136238905D01*
X188701986Y-136191640D01*
X188778001Y-136140849D01*
X188778000Y-145993666D01*
X188763523Y-145981232D01*
X188379954Y-145597665D01*
X188363447Y-145577551D01*
X188283201Y-145511695D01*
X188191649Y-145462760D01*
X188092309Y-145432625D01*
X188014880Y-145424999D01*
X187999733Y-145423507D01*
X188129073Y-145294167D01*
X188263353Y-145093202D01*
X188355847Y-144869903D01*
X188403000Y-144632849D01*
X188403000Y-144391151D01*
X188355847Y-144154097D01*
X188263353Y-143930798D01*
X188203897Y-143841816D01*
X188263024Y-143782689D01*
X188331641Y-143679996D01*
X188378906Y-143565889D01*
X188403001Y-143444754D01*
X188403001Y-143321246D01*
X188378906Y-143200111D01*
X188331641Y-143086004D01*
X188263024Y-142983311D01*
X188175690Y-142895977D01*
X188072997Y-142827360D01*
X188060893Y-142822347D01*
X188129073Y-142754167D01*
X188263353Y-142553202D01*
X188355847Y-142329903D01*
X188403000Y-142092849D01*
X188403000Y-141851151D01*
X188355847Y-141614097D01*
X188263353Y-141390798D01*
X188129073Y-141189833D01*
X187997417Y-141058177D01*
X188072997Y-141026871D01*
X188175690Y-140958254D01*
X188263024Y-140870920D01*
X188331641Y-140768227D01*
X188378906Y-140654120D01*
X188403001Y-140532985D01*
X188403001Y-140409477D01*
X188378906Y-140288342D01*
X188331641Y-140174235D01*
X188263024Y-140071542D01*
X188239854Y-140048372D01*
X188263353Y-140013202D01*
X188355847Y-139789903D01*
X188403000Y-139552849D01*
X188403000Y-139311151D01*
X188355847Y-139074097D01*
X188263353Y-138850798D01*
X188129073Y-138649833D01*
X187958167Y-138478927D01*
X187757202Y-138344647D01*
X187533903Y-138252153D01*
X187296849Y-138205000D01*
X187055151Y-138205000D01*
X186818097Y-138252153D01*
X186594798Y-138344647D01*
X186393833Y-138478927D01*
X186222927Y-138649833D01*
X186088647Y-138850798D01*
X185996153Y-139074097D01*
X185949000Y-139311151D01*
X185949000Y-139552849D01*
X185996153Y-139789903D01*
X186088647Y-140013202D01*
X186222927Y-140214167D01*
X186393833Y-140385073D01*
X186594798Y-140519353D01*
X186818097Y-140611847D01*
X187055151Y-140659000D01*
X187175117Y-140659000D01*
X187210740Y-140745000D01*
X187055151Y-140745000D01*
X186818097Y-140792153D01*
X186594798Y-140884647D01*
X186393833Y-141018927D01*
X186222927Y-141189833D01*
X186088647Y-141390798D01*
X186066196Y-141445000D01*
X185281160Y-141445000D01*
X185315240Y-141393996D01*
X185362505Y-141279889D01*
X185386600Y-141158754D01*
X185386600Y-141035246D01*
X185362505Y-140914111D01*
X185315240Y-140800004D01*
X185246623Y-140697311D01*
X185159289Y-140609977D01*
X185056596Y-140541360D01*
X184942489Y-140494095D01*
X184920338Y-140489689D01*
X184905305Y-140414111D01*
X184858040Y-140300004D01*
X184789423Y-140197311D01*
X184702089Y-140109977D01*
X184599396Y-140041360D01*
X184485289Y-139994095D01*
X184364154Y-139970000D01*
X184240646Y-139970000D01*
X184119511Y-139994095D01*
X184005404Y-140041360D01*
X183902711Y-140109977D01*
X183815377Y-140197311D01*
X183746760Y-140300004D01*
X183699495Y-140414111D01*
X183687981Y-140471997D01*
X182024109Y-140471997D01*
X181958889Y-140406777D01*
X181856196Y-140338160D01*
X181742089Y-140290895D01*
X181620954Y-140266800D01*
X181497446Y-140266800D01*
X181376311Y-140290895D01*
X181262204Y-140338160D01*
X181159511Y-140406777D01*
X181072177Y-140494111D01*
X181003560Y-140596804D01*
X180956295Y-140710911D01*
X180932200Y-140832046D01*
X180932200Y-140955554D01*
X180956295Y-141076689D01*
X181003560Y-141190796D01*
X181072177Y-141293489D01*
X181159511Y-141380823D01*
X181262204Y-141449440D01*
X181376311Y-141496705D01*
X181432300Y-141507842D01*
X181468199Y-141537304D01*
X181512068Y-141560752D01*
X181559750Y-141586239D01*
X181659090Y-141616374D01*
X181762399Y-141626549D01*
X181762400Y-141626549D01*
X181865709Y-141616374D01*
X181965049Y-141586239D01*
X182056601Y-141537304D01*
X182070378Y-141525997D01*
X182888000Y-141525997D01*
X182888000Y-141560752D01*
X182912095Y-141681887D01*
X182959360Y-141795994D01*
X183027977Y-141898687D01*
X183115311Y-141986021D01*
X183218004Y-142054638D01*
X183332111Y-142101903D01*
X183382672Y-142111960D01*
X183597055Y-142326344D01*
X183613226Y-142346048D01*
X183588334Y-142356359D01*
X183485641Y-142424976D01*
X183398307Y-142512310D01*
X183329690Y-142615003D01*
X183282425Y-142729110D01*
X183258330Y-142850245D01*
X183258330Y-142884999D01*
X181214289Y-142884999D01*
X180713395Y-142384106D01*
X180735847Y-142329903D01*
X180783000Y-142092849D01*
X180783000Y-141851151D01*
X180735847Y-141614097D01*
X180643353Y-141390798D01*
X180509073Y-141189833D01*
X180338167Y-141018927D01*
X180137202Y-140884647D01*
X179913903Y-140792153D01*
X179676849Y-140745000D01*
X179435151Y-140745000D01*
X179198097Y-140792153D01*
X178982999Y-140881250D01*
X178982999Y-140522750D01*
X179198097Y-140611847D01*
X179435151Y-140659000D01*
X179676849Y-140659000D01*
X179913903Y-140611847D01*
X180137202Y-140519353D01*
X180338167Y-140385073D01*
X180509073Y-140214167D01*
X180643353Y-140013202D01*
X180735847Y-139789903D01*
X180783000Y-139552849D01*
X180783000Y-139351646D01*
X180853089Y-139337705D01*
X180967196Y-139290440D01*
X181010059Y-139261800D01*
X182498519Y-139261800D01*
X182524400Y-139264349D01*
X182550281Y-139261800D01*
X182578898Y-139258981D01*
X182646311Y-139286905D01*
X182767446Y-139311000D01*
X182890954Y-139311000D01*
X183012089Y-139286905D01*
X183126196Y-139239640D01*
X183228889Y-139171023D01*
X183316223Y-139083689D01*
X183384840Y-138980996D01*
X183432105Y-138866889D01*
X183456200Y-138745754D01*
X183456200Y-138622246D01*
X183432105Y-138501111D01*
X183384840Y-138387004D01*
X183316223Y-138284311D01*
X183228889Y-138196977D01*
X183126196Y-138128360D01*
X183012089Y-138081095D01*
X182890954Y-138057000D01*
X182767446Y-138057000D01*
X182646311Y-138081095D01*
X182532204Y-138128360D01*
X182478972Y-138163929D01*
X182471890Y-138164626D01*
X182372550Y-138194761D01*
X182348155Y-138207800D01*
X181010059Y-138207800D01*
X180967196Y-138179160D01*
X180853089Y-138131895D01*
X180731954Y-138107800D01*
X180608446Y-138107800D01*
X180487311Y-138131895D01*
X180373204Y-138179160D01*
X180270511Y-138247777D01*
X180183177Y-138335111D01*
X180164581Y-138362941D01*
X180137202Y-138344647D01*
X179913903Y-138252153D01*
X179676849Y-138205000D01*
X179435151Y-138205000D01*
X179198097Y-138252153D01*
X178982999Y-138341250D01*
X178982999Y-137982750D01*
X179198097Y-138071847D01*
X179435151Y-138119000D01*
X179676849Y-138119000D01*
X179913903Y-138071847D01*
X180137202Y-137979353D01*
X180338167Y-137845073D01*
X180509073Y-137674167D01*
X180643353Y-137473202D01*
X180735847Y-137249903D01*
X180783000Y-137012849D01*
X180783000Y-136771151D01*
X180735847Y-136534097D01*
X180643353Y-136310798D01*
X180509073Y-136109833D01*
X180338167Y-135938927D01*
X180137202Y-135804647D01*
X179913903Y-135712153D01*
X179676849Y-135665000D01*
X179435151Y-135665000D01*
X179198097Y-135712153D01*
X178982999Y-135801250D01*
X178982999Y-135442750D01*
X179198097Y-135531847D01*
X179435151Y-135579000D01*
X179676849Y-135579000D01*
X179913903Y-135531847D01*
X180137202Y-135439353D01*
X180338167Y-135305073D01*
X180509073Y-135134167D01*
X180643353Y-134933202D01*
X180658572Y-134896461D01*
X181084050Y-135321940D01*
G36*
X184297000Y-135751020D02*
G01*
X184297000Y-135918000D01*
X184277000Y-135918000D01*
X184277000Y-135938000D01*
X184023000Y-135938000D01*
X184023000Y-135918000D01*
X183363750Y-135918000D01*
X183340950Y-135940800D01*
X183106000Y-135940800D01*
X183106000Y-135960800D01*
X182852000Y-135960800D01*
X182852000Y-135940800D01*
X182832000Y-135940800D01*
X182832000Y-135686800D01*
X182852000Y-135686800D01*
X182852000Y-135666800D01*
X183106000Y-135666800D01*
X183106000Y-135686800D01*
X183735250Y-135686800D01*
X183758050Y-135664000D01*
X184023000Y-135664000D01*
X184023000Y-135644000D01*
X184189981Y-135644000D01*
X184297000Y-135751020D01*
G37*
X184297000Y-135751020D02*
X184297000Y-135918000D01*
X184277000Y-135918000D01*
X184277000Y-135938000D01*
X184023000Y-135938000D01*
X184023000Y-135918000D01*
X183363750Y-135918000D01*
X183340950Y-135940800D01*
X183106000Y-135940800D01*
X183106000Y-135960800D01*
X182852000Y-135960800D01*
X182852000Y-135940800D01*
X182832000Y-135940800D01*
X182832000Y-135686800D01*
X182852000Y-135686800D01*
X182852000Y-135666800D01*
X183106000Y-135666800D01*
X183106000Y-135686800D01*
X183735250Y-135686800D01*
X183758050Y-135664000D01*
X184023000Y-135664000D01*
X184023000Y-135644000D01*
X184189981Y-135644000D01*
X184297000Y-135751020D01*
G36*
X188778001Y-125001275D02*
G01*
X188777223Y-125000111D01*
X188689889Y-124912777D01*
X188587196Y-124844160D01*
X188473089Y-124796895D01*
X188351954Y-124772800D01*
X188228446Y-124772800D01*
X188107311Y-124796895D01*
X187993204Y-124844160D01*
X187950341Y-124872800D01*
X179914081Y-124872800D01*
X179888200Y-124870251D01*
X179862319Y-124872800D01*
X179784890Y-124880426D01*
X179685550Y-124910561D01*
X179593998Y-124959496D01*
X179513752Y-125025352D01*
X179497249Y-125045461D01*
X179201666Y-125341045D01*
X179181552Y-125357552D01*
X179115696Y-125437798D01*
X179080881Y-125502934D01*
X178756000Y-125502934D01*
X178672293Y-125511178D01*
X178591804Y-125535595D01*
X178517624Y-125575245D01*
X178452605Y-125628605D01*
X178399245Y-125693624D01*
X178359595Y-125767804D01*
X178335178Y-125848293D01*
X178326934Y-125932000D01*
X178326934Y-127532000D01*
X178335178Y-127615707D01*
X178359595Y-127696196D01*
X178399245Y-127770376D01*
X178452605Y-127835395D01*
X178517624Y-127888755D01*
X178591804Y-127928405D01*
X178672293Y-127952822D01*
X178756000Y-127961066D01*
X180356000Y-127961066D01*
X180439707Y-127952822D01*
X180520196Y-127928405D01*
X180594376Y-127888755D01*
X180638298Y-127852709D01*
X180627928Y-127958000D01*
X180631000Y-128172250D01*
X180789750Y-128331000D01*
X181864000Y-128331000D01*
X181864000Y-128311000D01*
X182118000Y-128311000D01*
X182118000Y-128331000D01*
X183192250Y-128331000D01*
X183351000Y-128172250D01*
X183354072Y-127958000D01*
X183341812Y-127833518D01*
X183305502Y-127713820D01*
X183246537Y-127603506D01*
X183167185Y-127506815D01*
X183070494Y-127427463D01*
X182960180Y-127368498D01*
X182878490Y-127343718D01*
X182946172Y-127288172D01*
X183030623Y-127185269D01*
X183093375Y-127067867D01*
X183132018Y-126940479D01*
X183145066Y-126808000D01*
X183145066Y-126308000D01*
X183132018Y-126175521D01*
X183093375Y-126048133D01*
X183030623Y-125930731D01*
X183027397Y-125926800D01*
X183549342Y-125926800D01*
X183548928Y-125931000D01*
X183552000Y-126145250D01*
X183710750Y-126304000D01*
X184785000Y-126304000D01*
X184785000Y-126284000D01*
X185039000Y-126284000D01*
X185039000Y-126304000D01*
X185059000Y-126304000D01*
X185059000Y-126558000D01*
X185039000Y-126558000D01*
X185039000Y-126578000D01*
X184785000Y-126578000D01*
X184785000Y-126558000D01*
X183710750Y-126558000D01*
X183552000Y-126716750D01*
X183548928Y-126931000D01*
X183561188Y-127055482D01*
X183597498Y-127175180D01*
X183656463Y-127285494D01*
X183735815Y-127382185D01*
X183832506Y-127461537D01*
X183942820Y-127520502D01*
X184024510Y-127545282D01*
X183956828Y-127600828D01*
X183872377Y-127703731D01*
X183809625Y-127821133D01*
X183770982Y-127948521D01*
X183757934Y-128081000D01*
X183757934Y-128581000D01*
X183770982Y-128713479D01*
X183809625Y-128840867D01*
X183872377Y-128958269D01*
X183956828Y-129061172D01*
X184059731Y-129145623D01*
X184177133Y-129208375D01*
X184304521Y-129247018D01*
X184437000Y-129260066D01*
X185387000Y-129260066D01*
X185519479Y-129247018D01*
X185646867Y-129208375D01*
X185764269Y-129145623D01*
X185867172Y-129061172D01*
X185951623Y-128958269D01*
X186014375Y-128840867D01*
X186053018Y-128713479D01*
X186066066Y-128581000D01*
X186066066Y-128081000D01*
X186053018Y-127948521D01*
X186014375Y-127821133D01*
X185951623Y-127703731D01*
X185867172Y-127600828D01*
X185799490Y-127545282D01*
X185881180Y-127520502D01*
X185991494Y-127461537D01*
X186088185Y-127382185D01*
X186113847Y-127350916D01*
X186222927Y-127514167D01*
X186393833Y-127685073D01*
X186594798Y-127819353D01*
X186818097Y-127911847D01*
X187055151Y-127959000D01*
X187296849Y-127959000D01*
X187533903Y-127911847D01*
X187757202Y-127819353D01*
X187958167Y-127685073D01*
X188129073Y-127514167D01*
X188263353Y-127313202D01*
X188355847Y-127089903D01*
X188403000Y-126852849D01*
X188403000Y-126611151D01*
X188355847Y-126374097D01*
X188263353Y-126150798D01*
X188173151Y-126015801D01*
X188228446Y-126026800D01*
X188351954Y-126026800D01*
X188473089Y-126002705D01*
X188587196Y-125955440D01*
X188689889Y-125886823D01*
X188777223Y-125799489D01*
X188778001Y-125798325D01*
X188778001Y-130111768D01*
X188708311Y-130090627D01*
X188630882Y-130083001D01*
X188605001Y-130080452D01*
X188579120Y-130083001D01*
X188100239Y-130083001D01*
X188129073Y-130054167D01*
X188263353Y-129853202D01*
X188355847Y-129629903D01*
X188403000Y-129392849D01*
X188403000Y-129151151D01*
X188355847Y-128914097D01*
X188263353Y-128690798D01*
X188129073Y-128489833D01*
X187958167Y-128318927D01*
X187757202Y-128184647D01*
X187533903Y-128092153D01*
X187296849Y-128045000D01*
X187055151Y-128045000D01*
X186818097Y-128092153D01*
X186594798Y-128184647D01*
X186393833Y-128318927D01*
X186222927Y-128489833D01*
X186088647Y-128690798D01*
X185996153Y-128914097D01*
X185949000Y-129151151D01*
X185949000Y-129392849D01*
X185996153Y-129629903D01*
X186088647Y-129853202D01*
X186222927Y-130054167D01*
X186251761Y-130083001D01*
X185417411Y-130083001D01*
X185409375Y-129997387D01*
X185373614Y-129877524D01*
X185315156Y-129766941D01*
X185236247Y-129669887D01*
X185139921Y-129590092D01*
X185029878Y-129530623D01*
X184910348Y-129493765D01*
X184788750Y-129484000D01*
X184630000Y-129642750D01*
X184630000Y-130302000D01*
X184650000Y-130302000D01*
X184650000Y-130468981D01*
X184606971Y-130512010D01*
X184356000Y-130512010D01*
X184356000Y-130302000D01*
X184376000Y-130302000D01*
X184376000Y-129642750D01*
X184217250Y-129484000D01*
X184095652Y-129493765D01*
X183976122Y-129530623D01*
X183917308Y-129562407D01*
X183897344Y-129546023D01*
X183525570Y-129174251D01*
X183509063Y-129154137D01*
X183428817Y-129088281D01*
X183345621Y-129043812D01*
X183354072Y-128958000D01*
X183351000Y-128743750D01*
X183192250Y-128585000D01*
X182118000Y-128585000D01*
X182118000Y-128605000D01*
X181864000Y-128605000D01*
X181864000Y-128585000D01*
X180789750Y-128585000D01*
X180655244Y-128719506D01*
X180643353Y-128690798D01*
X180509073Y-128489833D01*
X180338167Y-128318927D01*
X180137202Y-128184647D01*
X179913903Y-128092153D01*
X179676849Y-128045000D01*
X179435151Y-128045000D01*
X179198097Y-128092153D01*
X178974798Y-128184647D01*
X178773833Y-128318927D01*
X178602927Y-128489833D01*
X178468647Y-128690798D01*
X178376153Y-128914097D01*
X178329000Y-129151151D01*
X178329000Y-129392849D01*
X178376153Y-129629903D01*
X178468647Y-129853202D01*
X178602927Y-130054167D01*
X178773833Y-130225073D01*
X178794805Y-130239086D01*
X178733797Y-130271695D01*
X178653551Y-130337551D01*
X178637048Y-130357660D01*
X178252000Y-130742709D01*
X178252000Y-122372000D01*
X188778001Y-122372000D01*
X188778001Y-125001275D01*
G37*
X188778001Y-125001275D02*
X188777223Y-125000111D01*
X188689889Y-124912777D01*
X188587196Y-124844160D01*
X188473089Y-124796895D01*
X188351954Y-124772800D01*
X188228446Y-124772800D01*
X188107311Y-124796895D01*
X187993204Y-124844160D01*
X187950341Y-124872800D01*
X179914081Y-124872800D01*
X179888200Y-124870251D01*
X179862319Y-124872800D01*
X179784890Y-124880426D01*
X179685550Y-124910561D01*
X179593998Y-124959496D01*
X179513752Y-125025352D01*
X179497249Y-125045461D01*
X179201666Y-125341045D01*
X179181552Y-125357552D01*
X179115696Y-125437798D01*
X179080881Y-125502934D01*
X178756000Y-125502934D01*
X178672293Y-125511178D01*
X178591804Y-125535595D01*
X178517624Y-125575245D01*
X178452605Y-125628605D01*
X178399245Y-125693624D01*
X178359595Y-125767804D01*
X178335178Y-125848293D01*
X178326934Y-125932000D01*
X178326934Y-127532000D01*
X178335178Y-127615707D01*
X178359595Y-127696196D01*
X178399245Y-127770376D01*
X178452605Y-127835395D01*
X178517624Y-127888755D01*
X178591804Y-127928405D01*
X178672293Y-127952822D01*
X178756000Y-127961066D01*
X180356000Y-127961066D01*
X180439707Y-127952822D01*
X180520196Y-127928405D01*
X180594376Y-127888755D01*
X180638298Y-127852709D01*
X180627928Y-127958000D01*
X180631000Y-128172250D01*
X180789750Y-128331000D01*
X181864000Y-128331000D01*
X181864000Y-128311000D01*
X182118000Y-128311000D01*
X182118000Y-128331000D01*
X183192250Y-128331000D01*
X183351000Y-128172250D01*
X183354072Y-127958000D01*
X183341812Y-127833518D01*
X183305502Y-127713820D01*
X183246537Y-127603506D01*
X183167185Y-127506815D01*
X183070494Y-127427463D01*
X182960180Y-127368498D01*
X182878490Y-127343718D01*
X182946172Y-127288172D01*
X183030623Y-127185269D01*
X183093375Y-127067867D01*
X183132018Y-126940479D01*
X183145066Y-126808000D01*
X183145066Y-126308000D01*
X183132018Y-126175521D01*
X183093375Y-126048133D01*
X183030623Y-125930731D01*
X183027397Y-125926800D01*
X183549342Y-125926800D01*
X183548928Y-125931000D01*
X183552000Y-126145250D01*
X183710750Y-126304000D01*
X184785000Y-126304000D01*
X184785000Y-126284000D01*
X185039000Y-126284000D01*
X185039000Y-126304000D01*
X185059000Y-126304000D01*
X185059000Y-126558000D01*
X185039000Y-126558000D01*
X185039000Y-126578000D01*
X184785000Y-126578000D01*
X184785000Y-126558000D01*
X183710750Y-126558000D01*
X183552000Y-126716750D01*
X183548928Y-126931000D01*
X183561188Y-127055482D01*
X183597498Y-127175180D01*
X183656463Y-127285494D01*
X183735815Y-127382185D01*
X183832506Y-127461537D01*
X183942820Y-127520502D01*
X184024510Y-127545282D01*
X183956828Y-127600828D01*
X183872377Y-127703731D01*
X183809625Y-127821133D01*
X183770982Y-127948521D01*
X183757934Y-128081000D01*
X183757934Y-128581000D01*
X183770982Y-128713479D01*
X183809625Y-128840867D01*
X183872377Y-128958269D01*
X183956828Y-129061172D01*
X184059731Y-129145623D01*
X184177133Y-129208375D01*
X184304521Y-129247018D01*
X184437000Y-129260066D01*
X185387000Y-129260066D01*
X185519479Y-129247018D01*
X185646867Y-129208375D01*
X185764269Y-129145623D01*
X185867172Y-129061172D01*
X185951623Y-128958269D01*
X186014375Y-128840867D01*
X186053018Y-128713479D01*
X186066066Y-128581000D01*
X186066066Y-128081000D01*
X186053018Y-127948521D01*
X186014375Y-127821133D01*
X185951623Y-127703731D01*
X185867172Y-127600828D01*
X185799490Y-127545282D01*
X185881180Y-127520502D01*
X185991494Y-127461537D01*
X186088185Y-127382185D01*
X186113847Y-127350916D01*
X186222927Y-127514167D01*
X186393833Y-127685073D01*
X186594798Y-127819353D01*
X186818097Y-127911847D01*
X187055151Y-127959000D01*
X187296849Y-127959000D01*
X187533903Y-127911847D01*
X187757202Y-127819353D01*
X187958167Y-127685073D01*
X188129073Y-127514167D01*
X188263353Y-127313202D01*
X188355847Y-127089903D01*
X188403000Y-126852849D01*
X188403000Y-126611151D01*
X188355847Y-126374097D01*
X188263353Y-126150798D01*
X188173151Y-126015801D01*
X188228446Y-126026800D01*
X188351954Y-126026800D01*
X188473089Y-126002705D01*
X188587196Y-125955440D01*
X188689889Y-125886823D01*
X188777223Y-125799489D01*
X188778001Y-125798325D01*
X188778001Y-130111768D01*
X188708311Y-130090627D01*
X188630882Y-130083001D01*
X188605001Y-130080452D01*
X188579120Y-130083001D01*
X188100239Y-130083001D01*
X188129073Y-130054167D01*
X188263353Y-129853202D01*
X188355847Y-129629903D01*
X188403000Y-129392849D01*
X188403000Y-129151151D01*
X188355847Y-128914097D01*
X188263353Y-128690798D01*
X188129073Y-128489833D01*
X187958167Y-128318927D01*
X187757202Y-128184647D01*
X187533903Y-128092153D01*
X187296849Y-128045000D01*
X187055151Y-128045000D01*
X186818097Y-128092153D01*
X186594798Y-128184647D01*
X186393833Y-128318927D01*
X186222927Y-128489833D01*
X186088647Y-128690798D01*
X185996153Y-128914097D01*
X185949000Y-129151151D01*
X185949000Y-129392849D01*
X185996153Y-129629903D01*
X186088647Y-129853202D01*
X186222927Y-130054167D01*
X186251761Y-130083001D01*
X185417411Y-130083001D01*
X185409375Y-129997387D01*
X185373614Y-129877524D01*
X185315156Y-129766941D01*
X185236247Y-129669887D01*
X185139921Y-129590092D01*
X185029878Y-129530623D01*
X184910348Y-129493765D01*
X184788750Y-129484000D01*
X184630000Y-129642750D01*
X184630000Y-130302000D01*
X184650000Y-130302000D01*
X184650000Y-130468981D01*
X184606971Y-130512010D01*
X184356000Y-130512010D01*
X184356000Y-130302000D01*
X184376000Y-130302000D01*
X184376000Y-129642750D01*
X184217250Y-129484000D01*
X184095652Y-129493765D01*
X183976122Y-129530623D01*
X183917308Y-129562407D01*
X183897344Y-129546023D01*
X183525570Y-129174251D01*
X183509063Y-129154137D01*
X183428817Y-129088281D01*
X183345621Y-129043812D01*
X183354072Y-128958000D01*
X183351000Y-128743750D01*
X183192250Y-128585000D01*
X182118000Y-128585000D01*
X182118000Y-128605000D01*
X181864000Y-128605000D01*
X181864000Y-128585000D01*
X180789750Y-128585000D01*
X180655244Y-128719506D01*
X180643353Y-128690798D01*
X180509073Y-128489833D01*
X180338167Y-128318927D01*
X180137202Y-128184647D01*
X179913903Y-128092153D01*
X179676849Y-128045000D01*
X179435151Y-128045000D01*
X179198097Y-128092153D01*
X178974798Y-128184647D01*
X178773833Y-128318927D01*
X178602927Y-128489833D01*
X178468647Y-128690798D01*
X178376153Y-128914097D01*
X178329000Y-129151151D01*
X178329000Y-129392849D01*
X178376153Y-129629903D01*
X178468647Y-129853202D01*
X178602927Y-130054167D01*
X178773833Y-130225073D01*
X178794805Y-130239086D01*
X178733797Y-130271695D01*
X178653551Y-130337551D01*
X178637048Y-130357660D01*
X178252000Y-130742709D01*
X178252000Y-122372000D01*
X188778001Y-122372000D01*
X188778001Y-125001275D01*
M02*
