G04 #@! TF.GenerationSoftware,KiCad,Pcbnew,5.1.5+dfsg1-2build2*
G04 #@! TF.CreationDate,2023-02-08T21:01:38+00:00*
G04 #@! TF.ProjectId,video-ram-replacement,76696465-6f2d-4726-916d-2d7265706c61,rev?*
G04 #@! TF.SameCoordinates,Original*
G04 #@! TF.FileFunction,Legend,Top*
G04 #@! TF.FilePolarity,Positive*
%FSLAX46Y46*%
G04 Gerber Fmt 4.6, Leading zero omitted, Abs format (unit mm)*
G04 Created by KiCad (PCBNEW 5.1.5+dfsg1-2build2) date 2023-02-08 21:01:38*
%MOMM*%
%LPD*%
G04 APERTURE LIST*
%ADD10C,0.150000*%
%ADD11C,0.120000*%
G04 APERTURE END LIST*
D10*
X187229000Y-124231333D02*
X187195666Y-124298000D01*
X187195666Y-124398000D01*
X187229000Y-124498000D01*
X187295666Y-124564666D01*
X187362333Y-124598000D01*
X187495666Y-124631333D01*
X187595666Y-124631333D01*
X187729000Y-124598000D01*
X187795666Y-124564666D01*
X187862333Y-124498000D01*
X187895666Y-124398000D01*
X187895666Y-124331333D01*
X187862333Y-124231333D01*
X187829000Y-124198000D01*
X187595666Y-124198000D01*
X187595666Y-124331333D01*
X187895666Y-123898000D02*
X187195666Y-123898000D01*
X187895666Y-123498000D01*
X187195666Y-123498000D01*
X187895666Y-123164666D02*
X187195666Y-123164666D01*
X187195666Y-122998000D01*
X187229000Y-122898000D01*
X187295666Y-122831333D01*
X187362333Y-122798000D01*
X187495666Y-122764666D01*
X187595666Y-122764666D01*
X187729000Y-122798000D01*
X187795666Y-122831333D01*
X187862333Y-122898000D01*
X187895666Y-122998000D01*
X187895666Y-123164666D01*
X178966761Y-158090904D02*
X179014380Y-157948047D01*
X179014380Y-157709952D01*
X178966761Y-157614714D01*
X178919142Y-157567095D01*
X178823904Y-157519476D01*
X178728666Y-157519476D01*
X178633428Y-157567095D01*
X178585809Y-157614714D01*
X178538190Y-157709952D01*
X178490571Y-157900428D01*
X178442952Y-157995666D01*
X178395333Y-158043285D01*
X178300095Y-158090904D01*
X178204857Y-158090904D01*
X178109619Y-158043285D01*
X178062000Y-157995666D01*
X178014380Y-157900428D01*
X178014380Y-157662333D01*
X178062000Y-157519476D01*
X178014380Y-157186142D02*
X179014380Y-156948047D01*
X178300095Y-156757571D01*
X179014380Y-156567095D01*
X178014380Y-156329000D01*
X178919142Y-155376619D02*
X178966761Y-155424238D01*
X179014380Y-155567095D01*
X179014380Y-155662333D01*
X178966761Y-155805190D01*
X178871523Y-155900428D01*
X178776285Y-155948047D01*
X178585809Y-155995666D01*
X178442952Y-155995666D01*
X178252476Y-155948047D01*
X178157238Y-155900428D01*
X178062000Y-155805190D01*
X178014380Y-155662333D01*
X178014380Y-155567095D01*
X178062000Y-155424238D01*
X178109619Y-155376619D01*
X179014380Y-154471857D02*
X179014380Y-154948047D01*
X178014380Y-154948047D01*
X179014380Y-154138523D02*
X178014380Y-154138523D01*
X179014380Y-153567095D02*
X178442952Y-153995666D01*
X178014380Y-153567095D02*
X178585809Y-154138523D01*
X188872761Y-158202142D02*
X188920380Y-158059285D01*
X188920380Y-157821190D01*
X188872761Y-157725952D01*
X188825142Y-157678333D01*
X188729904Y-157630714D01*
X188634666Y-157630714D01*
X188539428Y-157678333D01*
X188491809Y-157725952D01*
X188444190Y-157821190D01*
X188396571Y-158011666D01*
X188348952Y-158106904D01*
X188301333Y-158154523D01*
X188206095Y-158202142D01*
X188110857Y-158202142D01*
X188015619Y-158154523D01*
X187968000Y-158106904D01*
X187920380Y-158011666D01*
X187920380Y-157773571D01*
X187968000Y-157630714D01*
X187920380Y-157297380D02*
X188920380Y-157059285D01*
X188206095Y-156868809D01*
X188920380Y-156678333D01*
X187920380Y-156440238D01*
X188920380Y-156059285D02*
X187920380Y-156059285D01*
X187920380Y-155821190D01*
X187968000Y-155678333D01*
X188063238Y-155583095D01*
X188158476Y-155535476D01*
X188348952Y-155487857D01*
X188491809Y-155487857D01*
X188682285Y-155535476D01*
X188777523Y-155583095D01*
X188872761Y-155678333D01*
X188920380Y-155821190D01*
X188920380Y-156059285D01*
D11*
X188506000Y-125342000D02*
X178226000Y-125342000D01*
X188506000Y-148442000D02*
X188506000Y-125342000D01*
X178226000Y-148442000D02*
X188506000Y-148442000D01*
X178226000Y-125342000D02*
X178226000Y-148442000D01*
X186016000Y-125402000D02*
X184366000Y-125402000D01*
X186016000Y-148382000D02*
X186016000Y-125402000D01*
X180716000Y-148382000D02*
X186016000Y-148382000D01*
X180716000Y-125402000D02*
X180716000Y-148382000D01*
X182366000Y-125402000D02*
X180716000Y-125402000D01*
X184366000Y-125402000D02*
G75*
G02X182366000Y-125402000I-1000000J0D01*
G01*
X186798000Y-122900000D02*
X186798000Y-128910000D01*
X179978000Y-125150000D02*
X179978000Y-128910000D01*
X186798000Y-128910000D02*
X185538000Y-128910000D01*
X179978000Y-128910000D02*
X181238000Y-128910000D01*
X185853000Y-133546000D02*
X185853000Y-131871000D01*
X186113000Y-133546000D02*
X185853000Y-133546000D01*
X186113000Y-136271000D02*
X186113000Y-133546000D01*
X186113000Y-138996000D02*
X185853000Y-138996000D01*
X186113000Y-136271000D02*
X186113000Y-138996000D01*
X180663000Y-133546000D02*
X180923000Y-133546000D01*
X180663000Y-136271000D02*
X180663000Y-133546000D01*
X180663000Y-138996000D02*
X180923000Y-138996000D01*
X180663000Y-136271000D02*
X180663000Y-138996000D01*
X180428000Y-158880200D02*
X179778000Y-158880200D01*
X179778000Y-158880200D02*
X179778000Y-158230200D01*
X186348000Y-151660200D02*
X186998000Y-151660200D01*
X186998000Y-151660200D02*
X186998000Y-152310200D01*
X180428000Y-151660200D02*
X179778000Y-151660200D01*
X179778000Y-151660200D02*
X179778000Y-152310200D01*
X186348000Y-158880200D02*
X186998000Y-158880200D01*
X185384000Y-147099000D02*
X185384000Y-141699000D01*
X180884000Y-147099000D02*
X185384000Y-147099000D01*
X183849600Y-148088236D02*
X183849600Y-147872564D01*
X183129600Y-148088236D02*
X183129600Y-147872564D01*
X181895636Y-147468000D02*
X181679964Y-147468000D01*
X181895636Y-148188000D02*
X181679964Y-148188000D01*
X184931164Y-148188000D02*
X185146836Y-148188000D01*
X184931164Y-147468000D02*
X185146836Y-147468000D01*
D10*
X178328666Y-152524666D02*
X178328666Y-153024666D01*
X178295333Y-153124666D01*
X178228666Y-153191333D01*
X178128666Y-153224666D01*
X178062000Y-153224666D01*
X178628666Y-152591333D02*
X178662000Y-152558000D01*
X178728666Y-152524666D01*
X178895333Y-152524666D01*
X178962000Y-152558000D01*
X178995333Y-152591333D01*
X179028666Y-152658000D01*
X179028666Y-152724666D01*
X178995333Y-152824666D01*
X178595333Y-153224666D01*
X179028666Y-153224666D01*
X188234666Y-152905666D02*
X188234666Y-153405666D01*
X188201333Y-153505666D01*
X188134666Y-153572333D01*
X188034666Y-153605666D01*
X187968000Y-153605666D01*
X188934666Y-153605666D02*
X188534666Y-153605666D01*
X188734666Y-153605666D02*
X188734666Y-152905666D01*
X188668000Y-153005666D01*
X188601333Y-153072333D01*
X188534666Y-153105666D01*
X178155666Y-124203666D02*
X178155666Y-124770333D01*
X178189000Y-124837000D01*
X178222333Y-124870333D01*
X178289000Y-124903666D01*
X178422333Y-124903666D01*
X178489000Y-124870333D01*
X178522333Y-124837000D01*
X178555666Y-124770333D01*
X178555666Y-124203666D01*
X179255666Y-124903666D02*
X178855666Y-124903666D01*
X179055666Y-124903666D02*
X179055666Y-124203666D01*
X178989000Y-124303666D01*
X178922333Y-124370333D01*
X178855666Y-124403666D01*
X178409666Y-122171666D02*
X178409666Y-122738333D01*
X178443000Y-122805000D01*
X178476333Y-122838333D01*
X178543000Y-122871666D01*
X178676333Y-122871666D01*
X178743000Y-122838333D01*
X178776333Y-122805000D01*
X178809666Y-122738333D01*
X178809666Y-122171666D01*
X179076333Y-122171666D02*
X179509666Y-122171666D01*
X179276333Y-122438333D01*
X179376333Y-122438333D01*
X179443000Y-122471666D01*
X179476333Y-122505000D01*
X179509666Y-122571666D01*
X179509666Y-122738333D01*
X179476333Y-122805000D01*
X179443000Y-122838333D01*
X179376333Y-122871666D01*
X179176333Y-122871666D01*
X179109666Y-122838333D01*
X179076333Y-122805000D01*
X184505666Y-140840666D02*
X184505666Y-141407333D01*
X184539000Y-141474000D01*
X184572333Y-141507333D01*
X184639000Y-141540666D01*
X184772333Y-141540666D01*
X184839000Y-141507333D01*
X184872333Y-141474000D01*
X184905666Y-141407333D01*
X184905666Y-140840666D01*
X185205666Y-140907333D02*
X185239000Y-140874000D01*
X185305666Y-140840666D01*
X185472333Y-140840666D01*
X185539000Y-140874000D01*
X185572333Y-140907333D01*
X185605666Y-140974000D01*
X185605666Y-141040666D01*
X185572333Y-141140666D01*
X185172333Y-141540666D01*
X185605666Y-141540666D01*
X182854666Y-159706866D02*
X182854666Y-160273533D01*
X182888000Y-160340200D01*
X182921333Y-160373533D01*
X182988000Y-160406866D01*
X183121333Y-160406866D01*
X183188000Y-160373533D01*
X183221333Y-160340200D01*
X183254666Y-160273533D01*
X183254666Y-159706866D01*
X183521333Y-159706866D02*
X183988000Y-159706866D01*
X183688000Y-160406866D01*
X181022666Y-141207333D02*
X181022666Y-141540666D01*
X180789333Y-140840666D02*
X181022666Y-141207333D01*
X181256000Y-140840666D01*
X181856000Y-141540666D02*
X181456000Y-141540666D01*
X181656000Y-141540666D02*
X181656000Y-140840666D01*
X181589333Y-140940666D01*
X181522666Y-141007333D01*
X181456000Y-141040666D01*
X183831666Y-149849666D02*
X183498333Y-150083000D01*
X183831666Y-150249666D02*
X183131666Y-150249666D01*
X183131666Y-149983000D01*
X183165000Y-149916333D01*
X183198333Y-149883000D01*
X183265000Y-149849666D01*
X183365000Y-149849666D01*
X183431666Y-149883000D01*
X183465000Y-149916333D01*
X183498333Y-149983000D01*
X183498333Y-150249666D01*
X183831666Y-149183000D02*
X183831666Y-149583000D01*
X183831666Y-149383000D02*
X183131666Y-149383000D01*
X183231666Y-149449666D01*
X183298333Y-149516333D01*
X183331666Y-149583000D01*
X180731333Y-149348000D02*
X180698000Y-149381333D01*
X180598000Y-149414666D01*
X180531333Y-149414666D01*
X180431333Y-149381333D01*
X180364666Y-149314666D01*
X180331333Y-149248000D01*
X180298000Y-149114666D01*
X180298000Y-149014666D01*
X180331333Y-148881333D01*
X180364666Y-148814666D01*
X180431333Y-148748000D01*
X180531333Y-148714666D01*
X180598000Y-148714666D01*
X180698000Y-148748000D01*
X180731333Y-148781333D01*
X180964666Y-148714666D02*
X181398000Y-148714666D01*
X181164666Y-148981333D01*
X181264666Y-148981333D01*
X181331333Y-149014666D01*
X181364666Y-149048000D01*
X181398000Y-149114666D01*
X181398000Y-149281333D01*
X181364666Y-149348000D01*
X181331333Y-149381333D01*
X181264666Y-149414666D01*
X181064666Y-149414666D01*
X180998000Y-149381333D01*
X180964666Y-149348000D01*
X185303333Y-149729000D02*
X185270000Y-149762333D01*
X185170000Y-149795666D01*
X185103333Y-149795666D01*
X185003333Y-149762333D01*
X184936666Y-149695666D01*
X184903333Y-149629000D01*
X184870000Y-149495666D01*
X184870000Y-149395666D01*
X184903333Y-149262333D01*
X184936666Y-149195666D01*
X185003333Y-149129000D01*
X185103333Y-149095666D01*
X185170000Y-149095666D01*
X185270000Y-149129000D01*
X185303333Y-149162333D01*
X185570000Y-149162333D02*
X185603333Y-149129000D01*
X185670000Y-149095666D01*
X185836666Y-149095666D01*
X185903333Y-149129000D01*
X185936666Y-149162333D01*
X185970000Y-149229000D01*
X185970000Y-149295666D01*
X185936666Y-149395666D01*
X185536666Y-149795666D01*
X185970000Y-149795666D01*
M02*
