G04 #@! TF.GenerationSoftware,KiCad,Pcbnew,5.1.5+dfsg1-2build2*
G04 #@! TF.CreationDate,2023-02-08T21:01:38+00:00*
G04 #@! TF.ProjectId,video-ram-replacement,76696465-6f2d-4726-916d-2d7265706c61,rev?*
G04 #@! TF.SameCoordinates,Original*
G04 #@! TF.FileFunction,Copper,L3,Inr*
G04 #@! TF.FilePolarity,Positive*
%FSLAX46Y46*%
G04 Gerber Fmt 4.6, Leading zero omitted, Abs format (unit mm)*
G04 Created by KiCad (PCBNEW 5.1.5+dfsg1-2build2) date 2023-02-08 21:01:38*
%MOMM*%
%LPD*%
G04 APERTURE LIST*
%ADD10O,1.600000X1.600000*%
%ADD11R,1.600000X1.600000*%
%ADD12C,0.400000*%
%ADD13C,0.200000*%
G04 APERTURE END LIST*
D10*
X187176000Y-126732000D03*
X179556000Y-147052000D03*
X187176000Y-129272000D03*
X179556000Y-144512000D03*
X187176000Y-131812000D03*
X179556000Y-141972000D03*
X187176000Y-134352000D03*
X179556000Y-139432000D03*
X187176000Y-136892000D03*
X179556000Y-136892000D03*
X187176000Y-139432000D03*
X179556000Y-134352000D03*
X187176000Y-141972000D03*
X179556000Y-131812000D03*
X187176000Y-144512000D03*
X179556000Y-129272000D03*
X187176000Y-147052000D03*
D11*
X179556000Y-126732000D03*
D12*
X184912000Y-126431000D03*
X185688002Y-130110001D03*
X182979000Y-135813800D03*
X182245000Y-156718000D03*
X183388000Y-155270200D03*
X187336549Y-149744549D03*
X179367772Y-150056347D03*
X183885330Y-142911999D03*
X183482402Y-147308989D03*
X181229000Y-160477200D03*
X182803800Y-160477200D03*
X186791600Y-160477200D03*
X184912000Y-128331000D03*
X182894614Y-130028586D03*
X184759601Y-138455400D03*
X182019000Y-135813800D03*
X187833000Y-154910940D03*
X187706000Y-157988000D03*
X183289658Y-152766671D03*
X178725000Y-154432000D03*
X178293946Y-157465946D03*
X183668368Y-157356420D03*
X182753000Y-148709000D03*
X182019000Y-157556200D03*
X181188381Y-155969074D03*
X181406800Y-144399000D03*
X186004200Y-159943800D03*
X185434827Y-133859202D03*
X181991000Y-126558000D03*
X184191126Y-157650913D03*
X184302400Y-140597000D03*
X184404000Y-159977200D03*
X180675152Y-160246430D03*
X180670200Y-138734800D03*
X182829200Y-138684000D03*
X184785340Y-157734047D03*
X184759600Y-141097000D03*
X181559200Y-140893800D03*
X185191400Y-159943800D03*
X182803800Y-133934200D03*
X184835800Y-133967600D03*
X185877200Y-157657800D03*
X185293000Y-134442200D03*
X184048400Y-134467600D03*
X178225000Y-158242000D03*
X180175152Y-150360000D03*
X182644555Y-153215552D03*
X182118000Y-159577190D03*
X187291600Y-159639000D03*
X187235111Y-151218982D03*
X180975000Y-129286000D03*
X181575162Y-150021838D03*
X178225000Y-156845000D03*
X180092555Y-148850555D03*
X178725000Y-151910584D03*
X187368796Y-150578204D03*
X182094265Y-150396670D03*
X182008000Y-134097668D03*
X188805000Y-157429200D03*
X187776001Y-143383000D03*
X181991000Y-153162000D03*
X186640162Y-151296680D03*
X179470958Y-151869048D03*
X187776001Y-140471231D03*
X186574010Y-146013919D03*
X179578000Y-150622000D03*
X184234601Y-137930740D03*
X178725000Y-152570200D03*
X188404990Y-135636000D03*
X178225000Y-153035000D03*
X183515000Y-141498998D03*
X178625010Y-149352000D03*
X188805000Y-130810000D03*
X188305000Y-156967335D03*
X187904990Y-148209000D03*
X187904990Y-153403987D03*
X180018495Y-148217507D03*
X188341000Y-158115000D03*
X179070000Y-155956000D03*
X187904990Y-154050883D03*
X188290200Y-125399800D03*
D13*
X179959000Y-149860000D02*
X179851010Y-149752010D01*
X180388811Y-149860000D02*
X179959000Y-149860000D01*
X180726974Y-149521837D02*
X180388811Y-149860000D01*
X187113837Y-149521837D02*
X180726974Y-149521837D01*
X179851010Y-149752010D02*
X179658423Y-149752010D01*
X187336549Y-149744549D02*
X187113837Y-149521837D01*
X179658423Y-149765696D02*
X179367772Y-150056347D01*
X179658423Y-149752010D02*
X179658423Y-149765696D01*
X182118000Y-159577190D02*
X182941810Y-159577190D01*
X187096399Y-159443799D02*
X187291600Y-159639000D01*
X183075201Y-159443799D02*
X187096399Y-159443799D01*
X182941810Y-159577190D02*
X183075201Y-159443799D01*
X187235111Y-151218982D02*
X187235111Y-151151627D01*
X181575162Y-150617569D02*
X181575162Y-150021838D01*
X181854264Y-150896671D02*
X181575162Y-150617569D01*
X186300170Y-150896670D02*
X181854264Y-150896671D01*
X186400161Y-150796679D02*
X186300170Y-150896670D01*
X186880163Y-150796679D02*
X186400161Y-150796679D01*
X187140163Y-151056679D02*
X186880163Y-150796679D01*
X187140163Y-151199163D02*
X187140163Y-151056679D01*
X187159982Y-151218982D02*
X187140163Y-151199163D01*
X187235111Y-151218982D02*
X187159982Y-151218982D01*
X180355999Y-145311999D02*
X179556000Y-144512000D01*
X180656001Y-145612001D02*
X180355999Y-145311999D01*
X180656001Y-148287109D02*
X180656001Y-145612001D01*
X180092555Y-148850555D02*
X180656001Y-148287109D01*
X187187261Y-150396669D02*
X186234472Y-150396669D01*
X187368796Y-150578204D02*
X187187261Y-150396669D01*
X186234472Y-150396669D02*
X186136141Y-150495000D01*
X186136141Y-150495000D02*
X182118000Y-150495000D01*
X182118000Y-150420405D02*
X182094265Y-150396670D01*
X182118000Y-150495000D02*
X182118000Y-150420405D01*
X184010826Y-131812000D02*
X186044630Y-131812000D01*
X182008000Y-133814826D02*
X184010826Y-131812000D01*
X182008000Y-134097668D02*
X182008000Y-133814826D01*
X186044630Y-131812000D02*
X187176000Y-131812000D01*
X186294679Y-151496679D02*
X186094680Y-151296679D01*
X186440163Y-151496679D02*
X186294679Y-151496679D01*
X186640162Y-151296680D02*
X186440163Y-151496679D01*
X180043327Y-151296679D02*
X179470958Y-151869048D01*
X186094680Y-151296679D02*
X180043327Y-151296679D01*
X186774009Y-145813920D02*
X186574010Y-146013919D01*
X186774009Y-145738011D02*
X186774009Y-145813920D01*
X186075999Y-145040001D02*
X186774009Y-145738011D01*
X186075999Y-141443999D02*
X186075999Y-145040001D01*
X186978766Y-140541232D02*
X186075999Y-141443999D01*
X187706000Y-140541232D02*
X186978766Y-140541232D01*
X187776001Y-140471231D02*
X187706000Y-140541232D01*
X181745740Y-137930740D02*
X184234601Y-137930740D01*
X180707000Y-136892000D02*
X181745740Y-137930740D01*
X179556000Y-136892000D02*
X180707000Y-136892000D01*
X178442158Y-152570200D02*
X178725000Y-152570200D01*
X178435000Y-152527000D02*
X178435000Y-152563042D01*
X178435000Y-152563042D02*
X178442158Y-152570200D01*
X185675998Y-139432000D02*
X185427999Y-139184001D01*
X180910201Y-138234799D02*
X180430199Y-138234799D01*
X185427999Y-139184001D02*
X181859403Y-139184001D01*
X180430199Y-138234799D02*
X180332999Y-138331999D01*
X178308000Y-139051998D02*
X178308000Y-148929008D01*
X178125009Y-152471009D02*
X178181000Y-152527000D01*
X187176000Y-139432000D02*
X185675998Y-139432000D01*
X180332999Y-138331999D02*
X179027999Y-138331999D01*
X178181000Y-152527000D02*
X178435000Y-152527000D01*
X181859403Y-139184001D02*
X180910201Y-138234799D01*
X179027999Y-138331999D02*
X178308000Y-139051998D01*
X178308000Y-148929008D02*
X178125009Y-149111999D01*
X178125009Y-149111999D02*
X178125009Y-152471009D01*
X183385329Y-141480671D02*
X183388000Y-141478000D01*
X183496673Y-141480671D02*
X183515000Y-141498998D01*
X183385329Y-141480671D02*
X183496673Y-141480671D01*
X183385329Y-146297783D02*
X180331112Y-149352000D01*
X180331112Y-149352000D02*
X178625010Y-149352000D01*
X183385329Y-141480671D02*
X183385329Y-146297783D01*
X187176000Y-148183370D02*
X187176000Y-147052000D01*
X188004981Y-149048993D02*
X187176000Y-148220012D01*
X188004981Y-152563994D02*
X188004981Y-149048993D01*
X187176000Y-148220012D02*
X187176000Y-148183370D01*
X187149472Y-153419503D02*
X188004981Y-152563994D01*
X187149472Y-155150941D02*
X187149472Y-153419503D01*
X187409472Y-155410941D02*
X187149472Y-155150941D01*
X187889474Y-155410941D02*
X187409472Y-155410941D01*
X187579000Y-155721415D02*
X187889474Y-155410941D01*
X187579000Y-157070158D02*
X187579000Y-155721415D01*
X188341000Y-157832158D02*
X187579000Y-157070158D01*
X188341000Y-158115000D02*
X188341000Y-157832158D01*
X188290200Y-134865802D02*
X188290200Y-125399800D01*
X187904990Y-135251012D02*
X188290200Y-134865802D01*
X187904990Y-135992988D02*
X187904990Y-135251012D01*
X188276001Y-136363999D02*
X187904990Y-135992988D01*
X188276001Y-147840009D02*
X188276001Y-136363999D01*
X188404991Y-147968999D02*
X188276001Y-147840009D01*
X188404991Y-154012409D02*
X188404991Y-147968999D01*
X188366517Y-154050883D02*
X188404991Y-154012409D01*
X187904990Y-154050883D02*
X188366517Y-154050883D01*
M02*
