G04 #@! TF.GenerationSoftware,KiCad,Pcbnew,5.1.5+dfsg1-2build2*
G04 #@! TF.CreationDate,2023-02-08T21:01:38+00:00*
G04 #@! TF.ProjectId,video-ram-replacement,76696465-6f2d-4726-916d-2d7265706c61,rev?*
G04 #@! TF.SameCoordinates,Original*
G04 #@! TF.FileFunction,Copper,L2,Inr*
G04 #@! TF.FilePolarity,Positive*
%FSLAX46Y46*%
G04 Gerber Fmt 4.6, Leading zero omitted, Abs format (unit mm)*
G04 Created by KiCad (PCBNEW 5.1.5+dfsg1-2build2) date 2023-02-08 21:01:38*
%MOMM*%
%LPD*%
G04 APERTURE LIST*
%ADD10O,1.600000X1.600000*%
%ADD11R,1.600000X1.600000*%
%ADD12C,0.400000*%
%ADD13C,0.200000*%
%ADD14C,0.250000*%
G04 APERTURE END LIST*
D10*
X187176000Y-126732000D03*
X179556000Y-147052000D03*
X187176000Y-129272000D03*
X179556000Y-144512000D03*
X187176000Y-131812000D03*
X179556000Y-141972000D03*
X187176000Y-134352000D03*
X179556000Y-139432000D03*
X187176000Y-136892000D03*
X179556000Y-136892000D03*
X187176000Y-139432000D03*
X179556000Y-134352000D03*
X187176000Y-141972000D03*
X179556000Y-131812000D03*
X187176000Y-144512000D03*
X179556000Y-129272000D03*
X187176000Y-147052000D03*
D11*
X179556000Y-126732000D03*
D12*
X184912000Y-126431000D03*
X185688002Y-130110001D03*
X182979000Y-135813800D03*
X182245000Y-156718000D03*
X183388000Y-155270200D03*
X187336549Y-149744549D03*
X179367772Y-150056347D03*
X183885330Y-142911999D03*
X183482402Y-147308989D03*
X181229000Y-160477200D03*
X182803800Y-160477200D03*
X186791600Y-160477200D03*
X184912000Y-128331000D03*
X182894614Y-130028586D03*
X184759601Y-138455400D03*
X182019000Y-135813800D03*
X187833000Y-154910940D03*
X187706000Y-157988000D03*
X183289658Y-152766671D03*
X178725000Y-154432000D03*
X178293946Y-157465946D03*
X183668368Y-157356420D03*
X182753000Y-148709000D03*
X182019000Y-157556200D03*
X181188381Y-155969074D03*
X181406800Y-144399000D03*
X186004200Y-159943800D03*
X185434827Y-133859202D03*
X181991000Y-126558000D03*
X184191126Y-157650913D03*
X184302400Y-140597000D03*
X184404000Y-159977200D03*
X180675152Y-160246430D03*
X180670200Y-138734800D03*
X182829200Y-138684000D03*
X184785340Y-157734047D03*
X184759600Y-141097000D03*
X181559200Y-140893800D03*
X185191400Y-159943800D03*
X182803800Y-133934200D03*
X184835800Y-133967600D03*
X185877200Y-157657800D03*
X185293000Y-134442200D03*
X184048400Y-134467600D03*
X178225000Y-158242000D03*
X180175152Y-150360000D03*
X182644555Y-153215552D03*
X182118000Y-159577190D03*
X187291600Y-159639000D03*
X187235111Y-151218982D03*
X180975000Y-129286000D03*
X181575162Y-150021838D03*
X178225000Y-156845000D03*
X180092555Y-148850555D03*
X178725000Y-151910584D03*
X187368796Y-150578204D03*
X182094265Y-150396670D03*
X182008000Y-134097668D03*
X188805000Y-157429200D03*
X187776001Y-143383000D03*
X181991000Y-153162000D03*
X186640162Y-151296680D03*
X179470958Y-151869048D03*
X187776001Y-140471231D03*
X186574010Y-146013919D03*
X179578000Y-150622000D03*
X184234601Y-137930740D03*
X178725000Y-152570200D03*
X188404990Y-135636000D03*
X178225000Y-153035000D03*
X183515000Y-141498998D03*
X178625010Y-149352000D03*
X188805000Y-130810000D03*
X188305000Y-156967335D03*
X187904990Y-148209000D03*
X187904990Y-153403987D03*
X180018495Y-148217507D03*
X188341000Y-158115000D03*
X179070000Y-155956000D03*
X187904990Y-154050883D03*
X188290200Y-125399800D03*
D13*
X183885330Y-146906061D02*
X183482402Y-147308989D01*
X183885330Y-142911999D02*
X183885330Y-146906061D01*
D14*
X183214414Y-130028586D02*
X182894614Y-130028586D01*
X184912000Y-128331000D02*
X183214414Y-130028586D01*
D13*
X183653011Y-152403318D02*
X183289658Y-152766671D01*
X183653011Y-147966011D02*
X183653011Y-152403318D01*
X184759601Y-138455400D02*
X183870600Y-138455400D01*
X183870600Y-138455400D02*
X183329201Y-138996799D01*
X183329201Y-139336241D02*
X182859221Y-139806221D01*
X183329201Y-138996799D02*
X183329201Y-139336241D01*
X182859221Y-139806221D02*
X182859221Y-141465179D01*
X182859221Y-141465179D02*
X182604511Y-141719889D01*
X183106831Y-143661932D02*
X183106831Y-145753868D01*
X183495989Y-147808989D02*
X183653011Y-147966011D01*
X183106831Y-145753868D02*
X182675202Y-146185496D01*
X182604511Y-141719889D02*
X182604511Y-143159612D01*
X182604511Y-143159612D02*
X183106831Y-143661932D01*
X182675202Y-146185496D02*
X182675202Y-147750202D01*
X182675202Y-147750202D02*
X182733989Y-147808989D01*
X182733989Y-147808989D02*
X183495989Y-147808989D01*
X178924999Y-154631999D02*
X178725000Y-154432000D01*
X179570001Y-155277001D02*
X178924999Y-154631999D01*
X178344056Y-157465946D02*
X179570001Y-156240001D01*
X179570001Y-156240001D02*
X179570001Y-155277001D01*
X178293946Y-157465946D02*
X178344056Y-157465946D01*
X181744999Y-155677151D02*
X181744999Y-156972199D01*
X181744999Y-156972199D02*
X182019000Y-157246200D01*
X181475172Y-152957226D02*
X181475172Y-155407324D01*
X181567199Y-152865199D02*
X181475172Y-152957226D01*
X181567199Y-152413999D02*
X181567199Y-152865199D01*
X182019000Y-157246200D02*
X182019000Y-157556200D01*
X181475172Y-155407324D02*
X181744999Y-155677151D01*
X181880217Y-152100981D02*
X181567199Y-152413999D01*
X182753000Y-151997628D02*
X182649647Y-152100981D01*
X182649647Y-152100981D02*
X181880217Y-152100981D01*
X182753000Y-148709000D02*
X182753000Y-151997628D01*
X181188381Y-155686232D02*
X181075162Y-155573013D01*
X181188381Y-155969074D02*
X181188381Y-155686232D01*
X181075162Y-153210813D02*
X181075162Y-144449800D01*
X181356000Y-144449800D02*
X181406800Y-144399000D01*
X181075162Y-144449800D02*
X181356000Y-144449800D01*
X181075162Y-153210813D02*
X181075162Y-155575000D01*
X186074010Y-135324810D02*
X186059619Y-135310419D01*
X185558543Y-133859202D02*
X185434827Y-133859202D01*
X186074010Y-134374669D02*
X185558543Y-133859202D01*
X186074010Y-135324810D02*
X186074010Y-134374669D01*
X186004200Y-159660958D02*
X186004200Y-159943800D01*
X185978800Y-159635558D02*
X186004200Y-159660958D01*
X185978800Y-158296202D02*
X185978800Y-159635558D01*
X186377201Y-157417799D02*
X186377201Y-157897801D01*
X186117201Y-157157799D02*
X186377201Y-157417799D01*
X186117201Y-147991801D02*
X186117201Y-157157799D01*
X186074010Y-147948610D02*
X186117201Y-147991801D01*
X186377201Y-157897801D02*
X185978800Y-158296202D01*
X186074010Y-135324810D02*
X186074010Y-147948610D01*
D14*
X186376001Y-127531999D02*
X187176000Y-126732000D01*
X182716000Y-126558000D02*
X183689999Y-127531999D01*
X183689999Y-127531999D02*
X186376001Y-127531999D01*
X181991000Y-126558000D02*
X182716000Y-126558000D01*
D13*
X184385330Y-157173867D02*
X184191126Y-157368071D01*
X184385330Y-141655800D02*
X184385330Y-157173867D01*
X184259599Y-140639801D02*
X184259599Y-141530069D01*
X184191126Y-157368071D02*
X184191126Y-157650913D01*
X184259599Y-141530069D02*
X184385330Y-141655800D01*
X184302400Y-140597000D02*
X184259599Y-140639801D01*
X180675152Y-138739752D02*
X180670200Y-138734800D01*
X180675152Y-157884230D02*
X180675152Y-160246430D01*
X180670200Y-139945802D02*
X180084001Y-140532001D01*
X180670200Y-138734800D02*
X180670200Y-139945802D01*
X180084001Y-140532001D02*
X180084001Y-140871999D01*
X180656001Y-141443999D02*
X180656001Y-142812999D01*
X180084001Y-140871999D02*
X180656001Y-141443999D01*
X180675152Y-144003150D02*
X180675152Y-157884230D01*
X180467000Y-143794998D02*
X180675152Y-144003150D01*
X180467000Y-143002000D02*
X180467000Y-143794998D01*
X180656001Y-142812999D02*
X180467000Y-143002000D01*
X184785340Y-141122740D02*
X184759600Y-141097000D01*
X184785340Y-155371847D02*
X184785340Y-141122740D01*
X184785340Y-155371847D02*
X184785340Y-157734047D01*
X185285341Y-157974048D02*
X185191400Y-158067989D01*
X185285341Y-157494046D02*
X185285341Y-157974048D01*
X185259601Y-157468306D02*
X185285341Y-157494046D01*
X185259601Y-135148803D02*
X185259601Y-157468306D01*
X184635801Y-134525003D02*
X185259601Y-135148803D01*
X185191400Y-158067989D02*
X185191400Y-159943800D01*
X184635801Y-134167599D02*
X184635801Y-134525003D01*
X184835800Y-133967600D02*
X184635801Y-134167599D01*
X185750200Y-157530800D02*
X185877200Y-157657800D01*
X185685349Y-157530800D02*
X185750200Y-157530800D01*
X185685349Y-157328356D02*
X185685349Y-157530800D01*
X185659611Y-157302617D02*
X185685349Y-157328356D01*
X185659611Y-154446389D02*
X185659611Y-157302617D01*
X185674000Y-138404600D02*
X185674000Y-154432000D01*
X185674000Y-154432000D02*
X185659611Y-154446389D01*
X185659609Y-138390209D02*
X185674000Y-138404600D01*
X185659609Y-134525967D02*
X185659609Y-138390209D01*
X185575842Y-134442200D02*
X185659609Y-134525967D01*
X185293000Y-134442200D02*
X185575842Y-134442200D01*
X180125012Y-156341988D02*
X178225000Y-158242000D01*
X180125012Y-150487187D02*
X180125012Y-156341988D01*
X182844554Y-153415551D02*
X182844554Y-158850636D01*
X182844554Y-158850636D02*
X182118000Y-159577190D01*
X182644555Y-153215552D02*
X182844554Y-153415551D01*
X181575162Y-149451990D02*
X181475172Y-149352000D01*
X181475172Y-149352000D02*
X181475172Y-144899001D01*
X181906801Y-144158999D02*
X181638802Y-143891000D01*
X181906801Y-144639001D02*
X181906801Y-144158999D01*
X181646801Y-144899001D02*
X181906801Y-144639001D01*
X181475172Y-144899001D02*
X181646801Y-144899001D01*
X181356000Y-143891000D02*
X181075162Y-143610162D01*
X181638802Y-143891000D02*
X181356000Y-143891000D01*
X181075162Y-143610162D02*
X181102000Y-143583324D01*
X181102000Y-143583324D02*
X181102000Y-141478000D01*
X180975000Y-140206701D02*
X181070210Y-140111491D01*
X180975000Y-141049602D02*
X180975000Y-140206701D01*
X181102000Y-141176602D02*
X180975000Y-141049602D01*
X181102000Y-141478000D02*
X181102000Y-141176602D01*
X181170201Y-138494799D02*
X180851402Y-138176000D01*
X181170201Y-138974801D02*
X181170201Y-138494799D01*
X181070210Y-139074792D02*
X181170201Y-138974801D01*
X181070210Y-140111491D02*
X181070210Y-139074792D01*
X180851402Y-129409598D02*
X180975000Y-129286000D01*
X180851402Y-138176000D02*
X180851402Y-129409598D01*
X181575162Y-150021838D02*
X181575162Y-149451990D01*
X178225000Y-156845000D02*
X178225000Y-153810202D01*
X180086000Y-148857110D02*
X180092555Y-148850555D01*
X178805386Y-151910584D02*
X178725000Y-151910584D01*
X179225001Y-152330199D02*
X178805386Y-151910584D01*
X179225001Y-152810201D02*
X179225001Y-152330199D01*
X178225000Y-153810202D02*
X179225001Y-152810201D01*
X182094265Y-150396670D02*
X182094265Y-149405394D01*
X182094265Y-149405394D02*
X181875182Y-149186311D01*
X181875182Y-149186311D02*
X181975172Y-149286301D01*
X182306811Y-143993310D02*
X181804491Y-143490990D01*
X182306811Y-144804690D02*
X182306811Y-143993310D01*
X181875182Y-145236319D02*
X182306811Y-144804690D01*
X181875182Y-148571184D02*
X181875182Y-145236319D01*
X181804491Y-142688491D02*
X181502010Y-142386010D01*
X181804491Y-143490990D02*
X181804491Y-142688491D01*
X181502010Y-142386010D02*
X181502010Y-141393801D01*
X181799201Y-141393801D02*
X182059201Y-141133801D01*
X181502010Y-141393801D02*
X181799201Y-141393801D01*
X182059201Y-140653799D02*
X181740402Y-140335000D01*
X182059201Y-141133801D02*
X182059201Y-140653799D01*
X181740402Y-140335000D02*
X181483000Y-140335000D01*
X181483000Y-140208000D02*
X181470220Y-140195220D01*
X181483000Y-140335000D02*
X181483000Y-140208000D01*
X181570211Y-139140490D02*
X181570211Y-138329111D01*
X181470220Y-139240481D02*
X181570211Y-139140490D01*
X181470220Y-140195220D02*
X181470220Y-139240481D01*
X181518999Y-134586669D02*
X182008000Y-134097668D01*
X181518999Y-138277899D02*
X181518999Y-134586669D01*
X181570211Y-138329111D02*
X181518999Y-138277899D01*
X181875182Y-149186311D02*
X181875182Y-148590000D01*
X188805000Y-155194000D02*
X188805000Y-143383000D01*
X188805000Y-155067000D02*
X188805000Y-157429200D01*
X188805000Y-143383000D02*
X187776001Y-143383000D01*
X183049657Y-152266670D02*
X182753000Y-152563327D01*
X183253001Y-152237630D02*
X183223961Y-152266670D01*
X183253001Y-148468999D02*
X183253001Y-152237630D01*
X182993001Y-148208999D02*
X183253001Y-148468999D01*
X182275192Y-148112190D02*
X182372001Y-148208999D01*
X183223961Y-152266670D02*
X183049657Y-152266670D01*
X182275192Y-146019808D02*
X182275192Y-148112190D01*
X187176000Y-134344000D02*
X186191201Y-133359201D01*
X183479001Y-136053801D02*
X182118000Y-137414802D01*
X182118000Y-137414802D02*
X182118000Y-139827000D01*
X184416797Y-133359201D02*
X183479001Y-134296997D01*
X183479001Y-134296997D02*
X183479001Y-136053801D01*
X187176000Y-134352000D02*
X187176000Y-134344000D01*
X182118000Y-139827000D02*
X182459211Y-140168211D01*
X182706821Y-145588179D02*
X182275192Y-146019808D01*
X182459211Y-140168211D02*
X182459211Y-141299490D01*
X182204501Y-141554199D02*
X182204501Y-143325302D01*
X182372001Y-148208999D02*
X182993001Y-148208999D01*
X182459211Y-141299490D02*
X182204501Y-141554199D01*
X182204501Y-143325302D02*
X182706821Y-143827621D01*
X186191201Y-133359201D02*
X184416797Y-133359201D01*
X182706821Y-143827621D02*
X182706821Y-145588179D01*
X182589673Y-152563327D02*
X181991000Y-153162000D01*
X181991000Y-153162000D02*
X181991000Y-153289000D01*
X182753000Y-152563327D02*
X182589673Y-152563327D01*
X179225001Y-151670583D02*
X179226535Y-151669049D01*
X178384582Y-151511000D02*
X178484999Y-151410583D01*
X178308000Y-151511000D02*
X178384582Y-151511000D01*
X178125010Y-151328010D02*
X178308000Y-151511000D01*
X179226535Y-151669049D02*
X179270959Y-151669049D01*
X178965001Y-151410583D02*
X179225001Y-151670583D01*
X178125010Y-140009990D02*
X178125010Y-151328010D01*
X178484999Y-151410583D02*
X178965001Y-151410583D01*
X178703000Y-139432000D02*
X178125010Y-140009990D01*
X179270959Y-151669049D02*
X179470958Y-151869048D01*
X179556000Y-139432000D02*
X178703000Y-139432000D01*
X187975999Y-137691999D02*
X187176000Y-136892000D01*
X188276001Y-137992001D02*
X187975999Y-137691999D01*
X188276001Y-139971231D02*
X188276001Y-137992001D01*
X187776001Y-140471231D02*
X188276001Y-139971231D01*
X188396465Y-156967335D02*
X188404990Y-156958810D01*
X188305000Y-156967335D02*
X188396465Y-156967335D01*
X188307370Y-144512000D02*
X187176000Y-144512000D01*
X188404990Y-144609620D02*
X188307370Y-144512000D01*
X188404990Y-156781010D02*
X188404990Y-144609620D01*
X188305000Y-156881000D02*
X188404990Y-156781010D01*
X188305000Y-156967335D02*
X188305000Y-156881000D01*
X188004980Y-153303997D02*
X187904990Y-153403987D01*
X188004980Y-148308990D02*
X188004980Y-153303997D01*
X187904990Y-148209000D02*
X188004980Y-148308990D01*
M02*
