G04 #@! TF.GenerationSoftware,KiCad,Pcbnew,5.1.5+dfsg1-2build2*
G04 #@! TF.CreationDate,2023-02-25T19:10:51+00:00*
G04 #@! TF.ProjectId,video-ram-replacement,76696465-6f2d-4726-916d-2d7265706c61,rev?*
G04 #@! TF.SameCoordinates,Original*
G04 #@! TF.FileFunction,Copper,L1,Top*
G04 #@! TF.FilePolarity,Positive*
%FSLAX46Y46*%
G04 Gerber Fmt 4.6, Leading zero omitted, Abs format (unit mm)*
G04 Created by KiCad (PCBNEW 5.1.5+dfsg1-2build2) date 2023-02-25 19:10:51*
%MOMM*%
%LPD*%
G04 APERTURE LIST*
%ADD10C,0.150000*%
%ADD11O,1.600000X1.600000*%
%ADD12R,1.600000X1.600000*%
%ADD13R,1.500000X2.000000*%
%ADD14R,3.800000X2.000000*%
%ADD15C,0.400000*%
%ADD16C,0.600000*%
%ADD17C,0.400000*%
%ADD18C,0.200000*%
G04 APERTURE END LIST*
G04 #@! TA.AperFunction,SMDPad,CuDef*
D10*
G36*
X107117722Y-122811674D02*
G01*
X107131313Y-122813690D01*
X107144640Y-122817028D01*
X107157576Y-122821657D01*
X107169996Y-122827531D01*
X107181780Y-122834594D01*
X107192815Y-122842779D01*
X107202995Y-122852005D01*
X107212221Y-122862185D01*
X107220406Y-122873220D01*
X107227469Y-122885004D01*
X107233343Y-122897424D01*
X107237972Y-122910360D01*
X107241310Y-122923687D01*
X107243326Y-122937278D01*
X107244000Y-122951000D01*
X107244000Y-123231000D01*
X107243326Y-123244722D01*
X107241310Y-123258313D01*
X107237972Y-123271640D01*
X107233343Y-123284576D01*
X107227469Y-123296996D01*
X107220406Y-123308780D01*
X107212221Y-123319815D01*
X107202995Y-123329995D01*
X107192815Y-123339221D01*
X107181780Y-123347406D01*
X107169996Y-123354469D01*
X107157576Y-123360343D01*
X107144640Y-123364972D01*
X107131313Y-123368310D01*
X107117722Y-123370326D01*
X107104000Y-123371000D01*
X106764000Y-123371000D01*
X106750278Y-123370326D01*
X106736687Y-123368310D01*
X106723360Y-123364972D01*
X106710424Y-123360343D01*
X106698004Y-123354469D01*
X106686220Y-123347406D01*
X106675185Y-123339221D01*
X106665005Y-123329995D01*
X106655779Y-123319815D01*
X106647594Y-123308780D01*
X106640531Y-123296996D01*
X106634657Y-123284576D01*
X106630028Y-123271640D01*
X106626690Y-123258313D01*
X106624674Y-123244722D01*
X106624000Y-123231000D01*
X106624000Y-122951000D01*
X106624674Y-122937278D01*
X106626690Y-122923687D01*
X106630028Y-122910360D01*
X106634657Y-122897424D01*
X106640531Y-122885004D01*
X106647594Y-122873220D01*
X106655779Y-122862185D01*
X106665005Y-122852005D01*
X106675185Y-122842779D01*
X106686220Y-122834594D01*
X106698004Y-122827531D01*
X106710424Y-122821657D01*
X106723360Y-122817028D01*
X106736687Y-122813690D01*
X106750278Y-122811674D01*
X106764000Y-122811000D01*
X107104000Y-122811000D01*
X107117722Y-122811674D01*
G37*
G04 #@! TD.AperFunction*
G04 #@! TA.AperFunction,SMDPad,CuDef*
G36*
X107117722Y-123771674D02*
G01*
X107131313Y-123773690D01*
X107144640Y-123777028D01*
X107157576Y-123781657D01*
X107169996Y-123787531D01*
X107181780Y-123794594D01*
X107192815Y-123802779D01*
X107202995Y-123812005D01*
X107212221Y-123822185D01*
X107220406Y-123833220D01*
X107227469Y-123845004D01*
X107233343Y-123857424D01*
X107237972Y-123870360D01*
X107241310Y-123883687D01*
X107243326Y-123897278D01*
X107244000Y-123911000D01*
X107244000Y-124191000D01*
X107243326Y-124204722D01*
X107241310Y-124218313D01*
X107237972Y-124231640D01*
X107233343Y-124244576D01*
X107227469Y-124256996D01*
X107220406Y-124268780D01*
X107212221Y-124279815D01*
X107202995Y-124289995D01*
X107192815Y-124299221D01*
X107181780Y-124307406D01*
X107169996Y-124314469D01*
X107157576Y-124320343D01*
X107144640Y-124324972D01*
X107131313Y-124328310D01*
X107117722Y-124330326D01*
X107104000Y-124331000D01*
X106764000Y-124331000D01*
X106750278Y-124330326D01*
X106736687Y-124328310D01*
X106723360Y-124324972D01*
X106710424Y-124320343D01*
X106698004Y-124314469D01*
X106686220Y-124307406D01*
X106675185Y-124299221D01*
X106665005Y-124289995D01*
X106655779Y-124279815D01*
X106647594Y-124268780D01*
X106640531Y-124256996D01*
X106634657Y-124244576D01*
X106630028Y-124231640D01*
X106626690Y-124218313D01*
X106624674Y-124204722D01*
X106624000Y-124191000D01*
X106624000Y-123911000D01*
X106624674Y-123897278D01*
X106626690Y-123883687D01*
X106630028Y-123870360D01*
X106634657Y-123857424D01*
X106640531Y-123845004D01*
X106647594Y-123833220D01*
X106655779Y-123822185D01*
X106665005Y-123812005D01*
X106675185Y-123802779D01*
X106686220Y-123794594D01*
X106698004Y-123787531D01*
X106710424Y-123781657D01*
X106723360Y-123777028D01*
X106736687Y-123773690D01*
X106750278Y-123771674D01*
X106764000Y-123771000D01*
X107104000Y-123771000D01*
X107117722Y-123771674D01*
G37*
G04 #@! TD.AperFunction*
G04 #@! TA.AperFunction,SMDPad,CuDef*
G36*
X99370722Y-123263674D02*
G01*
X99384313Y-123265690D01*
X99397640Y-123269028D01*
X99410576Y-123273657D01*
X99422996Y-123279531D01*
X99434780Y-123286594D01*
X99445815Y-123294779D01*
X99455995Y-123304005D01*
X99465221Y-123314185D01*
X99473406Y-123325220D01*
X99480469Y-123337004D01*
X99486343Y-123349424D01*
X99490972Y-123362360D01*
X99494310Y-123375687D01*
X99496326Y-123389278D01*
X99497000Y-123403000D01*
X99497000Y-123683000D01*
X99496326Y-123696722D01*
X99494310Y-123710313D01*
X99490972Y-123723640D01*
X99486343Y-123736576D01*
X99480469Y-123748996D01*
X99473406Y-123760780D01*
X99465221Y-123771815D01*
X99455995Y-123781995D01*
X99445815Y-123791221D01*
X99434780Y-123799406D01*
X99422996Y-123806469D01*
X99410576Y-123812343D01*
X99397640Y-123816972D01*
X99384313Y-123820310D01*
X99370722Y-123822326D01*
X99357000Y-123823000D01*
X99017000Y-123823000D01*
X99003278Y-123822326D01*
X98989687Y-123820310D01*
X98976360Y-123816972D01*
X98963424Y-123812343D01*
X98951004Y-123806469D01*
X98939220Y-123799406D01*
X98928185Y-123791221D01*
X98918005Y-123781995D01*
X98908779Y-123771815D01*
X98900594Y-123760780D01*
X98893531Y-123748996D01*
X98887657Y-123736576D01*
X98883028Y-123723640D01*
X98879690Y-123710313D01*
X98877674Y-123696722D01*
X98877000Y-123683000D01*
X98877000Y-123403000D01*
X98877674Y-123389278D01*
X98879690Y-123375687D01*
X98883028Y-123362360D01*
X98887657Y-123349424D01*
X98893531Y-123337004D01*
X98900594Y-123325220D01*
X98908779Y-123314185D01*
X98918005Y-123304005D01*
X98928185Y-123294779D01*
X98939220Y-123286594D01*
X98951004Y-123279531D01*
X98963424Y-123273657D01*
X98976360Y-123269028D01*
X98989687Y-123265690D01*
X99003278Y-123263674D01*
X99017000Y-123263000D01*
X99357000Y-123263000D01*
X99370722Y-123263674D01*
G37*
G04 #@! TD.AperFunction*
G04 #@! TA.AperFunction,SMDPad,CuDef*
G36*
X99370722Y-122303674D02*
G01*
X99384313Y-122305690D01*
X99397640Y-122309028D01*
X99410576Y-122313657D01*
X99422996Y-122319531D01*
X99434780Y-122326594D01*
X99445815Y-122334779D01*
X99455995Y-122344005D01*
X99465221Y-122354185D01*
X99473406Y-122365220D01*
X99480469Y-122377004D01*
X99486343Y-122389424D01*
X99490972Y-122402360D01*
X99494310Y-122415687D01*
X99496326Y-122429278D01*
X99497000Y-122443000D01*
X99497000Y-122723000D01*
X99496326Y-122736722D01*
X99494310Y-122750313D01*
X99490972Y-122763640D01*
X99486343Y-122776576D01*
X99480469Y-122788996D01*
X99473406Y-122800780D01*
X99465221Y-122811815D01*
X99455995Y-122821995D01*
X99445815Y-122831221D01*
X99434780Y-122839406D01*
X99422996Y-122846469D01*
X99410576Y-122852343D01*
X99397640Y-122856972D01*
X99384313Y-122860310D01*
X99370722Y-122862326D01*
X99357000Y-122863000D01*
X99017000Y-122863000D01*
X99003278Y-122862326D01*
X98989687Y-122860310D01*
X98976360Y-122856972D01*
X98963424Y-122852343D01*
X98951004Y-122846469D01*
X98939220Y-122839406D01*
X98928185Y-122831221D01*
X98918005Y-122821995D01*
X98908779Y-122811815D01*
X98900594Y-122800780D01*
X98893531Y-122788996D01*
X98887657Y-122776576D01*
X98883028Y-122763640D01*
X98879690Y-122750313D01*
X98877674Y-122736722D01*
X98877000Y-122723000D01*
X98877000Y-122443000D01*
X98877674Y-122429278D01*
X98879690Y-122415687D01*
X98883028Y-122402360D01*
X98887657Y-122389424D01*
X98893531Y-122377004D01*
X98900594Y-122365220D01*
X98908779Y-122354185D01*
X98918005Y-122344005D01*
X98928185Y-122334779D01*
X98939220Y-122326594D01*
X98951004Y-122319531D01*
X98963424Y-122313657D01*
X98976360Y-122309028D01*
X98989687Y-122305690D01*
X99003278Y-122303674D01*
X99017000Y-122303000D01*
X99357000Y-122303000D01*
X99370722Y-122303674D01*
G37*
G04 #@! TD.AperFunction*
G04 #@! TA.AperFunction,SMDPad,CuDef*
G36*
X100386722Y-123263674D02*
G01*
X100400313Y-123265690D01*
X100413640Y-123269028D01*
X100426576Y-123273657D01*
X100438996Y-123279531D01*
X100450780Y-123286594D01*
X100461815Y-123294779D01*
X100471995Y-123304005D01*
X100481221Y-123314185D01*
X100489406Y-123325220D01*
X100496469Y-123337004D01*
X100502343Y-123349424D01*
X100506972Y-123362360D01*
X100510310Y-123375687D01*
X100512326Y-123389278D01*
X100513000Y-123403000D01*
X100513000Y-123683000D01*
X100512326Y-123696722D01*
X100510310Y-123710313D01*
X100506972Y-123723640D01*
X100502343Y-123736576D01*
X100496469Y-123748996D01*
X100489406Y-123760780D01*
X100481221Y-123771815D01*
X100471995Y-123781995D01*
X100461815Y-123791221D01*
X100450780Y-123799406D01*
X100438996Y-123806469D01*
X100426576Y-123812343D01*
X100413640Y-123816972D01*
X100400313Y-123820310D01*
X100386722Y-123822326D01*
X100373000Y-123823000D01*
X100033000Y-123823000D01*
X100019278Y-123822326D01*
X100005687Y-123820310D01*
X99992360Y-123816972D01*
X99979424Y-123812343D01*
X99967004Y-123806469D01*
X99955220Y-123799406D01*
X99944185Y-123791221D01*
X99934005Y-123781995D01*
X99924779Y-123771815D01*
X99916594Y-123760780D01*
X99909531Y-123748996D01*
X99903657Y-123736576D01*
X99899028Y-123723640D01*
X99895690Y-123710313D01*
X99893674Y-123696722D01*
X99893000Y-123683000D01*
X99893000Y-123403000D01*
X99893674Y-123389278D01*
X99895690Y-123375687D01*
X99899028Y-123362360D01*
X99903657Y-123349424D01*
X99909531Y-123337004D01*
X99916594Y-123325220D01*
X99924779Y-123314185D01*
X99934005Y-123304005D01*
X99944185Y-123294779D01*
X99955220Y-123286594D01*
X99967004Y-123279531D01*
X99979424Y-123273657D01*
X99992360Y-123269028D01*
X100005687Y-123265690D01*
X100019278Y-123263674D01*
X100033000Y-123263000D01*
X100373000Y-123263000D01*
X100386722Y-123263674D01*
G37*
G04 #@! TD.AperFunction*
G04 #@! TA.AperFunction,SMDPad,CuDef*
G36*
X100386722Y-122303674D02*
G01*
X100400313Y-122305690D01*
X100413640Y-122309028D01*
X100426576Y-122313657D01*
X100438996Y-122319531D01*
X100450780Y-122326594D01*
X100461815Y-122334779D01*
X100471995Y-122344005D01*
X100481221Y-122354185D01*
X100489406Y-122365220D01*
X100496469Y-122377004D01*
X100502343Y-122389424D01*
X100506972Y-122402360D01*
X100510310Y-122415687D01*
X100512326Y-122429278D01*
X100513000Y-122443000D01*
X100513000Y-122723000D01*
X100512326Y-122736722D01*
X100510310Y-122750313D01*
X100506972Y-122763640D01*
X100502343Y-122776576D01*
X100496469Y-122788996D01*
X100489406Y-122800780D01*
X100481221Y-122811815D01*
X100471995Y-122821995D01*
X100461815Y-122831221D01*
X100450780Y-122839406D01*
X100438996Y-122846469D01*
X100426576Y-122852343D01*
X100413640Y-122856972D01*
X100400313Y-122860310D01*
X100386722Y-122862326D01*
X100373000Y-122863000D01*
X100033000Y-122863000D01*
X100019278Y-122862326D01*
X100005687Y-122860310D01*
X99992360Y-122856972D01*
X99979424Y-122852343D01*
X99967004Y-122846469D01*
X99955220Y-122839406D01*
X99944185Y-122831221D01*
X99934005Y-122821995D01*
X99924779Y-122811815D01*
X99916594Y-122800780D01*
X99909531Y-122788996D01*
X99903657Y-122776576D01*
X99899028Y-122763640D01*
X99895690Y-122750313D01*
X99893674Y-122736722D01*
X99893000Y-122723000D01*
X99893000Y-122443000D01*
X99893674Y-122429278D01*
X99895690Y-122415687D01*
X99899028Y-122402360D01*
X99903657Y-122389424D01*
X99909531Y-122377004D01*
X99916594Y-122365220D01*
X99924779Y-122354185D01*
X99934005Y-122344005D01*
X99944185Y-122334779D01*
X99955220Y-122326594D01*
X99967004Y-122319531D01*
X99979424Y-122313657D01*
X99992360Y-122309028D01*
X100005687Y-122305690D01*
X100019278Y-122303674D01*
X100033000Y-122303000D01*
X100373000Y-122303000D01*
X100386722Y-122303674D01*
G37*
G04 #@! TD.AperFunction*
D11*
X105515000Y-89648000D03*
X97895000Y-109968000D03*
X105515000Y-92188000D03*
X97895000Y-107428000D03*
X105515000Y-94728000D03*
X97895000Y-104888000D03*
X105515000Y-97268000D03*
X97895000Y-102348000D03*
X105515000Y-99808000D03*
X97895000Y-99808000D03*
X105515000Y-102348000D03*
X97895000Y-97268000D03*
X105515000Y-104888000D03*
X97895000Y-94728000D03*
X105515000Y-107428000D03*
X97895000Y-92188000D03*
X105515000Y-109968000D03*
D12*
X97895000Y-89648000D03*
D13*
X104027000Y-86766000D03*
X99427000Y-86766000D03*
X101727000Y-86766000D03*
D14*
X101727000Y-93066000D03*
G04 #@! TA.AperFunction,SMDPad,CuDef*
D10*
G36*
X103324114Y-116383693D02*
G01*
X103338093Y-116385767D01*
X103351801Y-116389201D01*
X103365106Y-116393961D01*
X103377881Y-116400003D01*
X103390002Y-116407268D01*
X103401353Y-116415686D01*
X103411823Y-116425177D01*
X103421314Y-116435647D01*
X103429732Y-116446998D01*
X103436997Y-116459119D01*
X103443039Y-116471894D01*
X103447799Y-116485199D01*
X103451233Y-116498907D01*
X103453307Y-116512886D01*
X103454000Y-116527000D01*
X103454000Y-119439000D01*
X103453307Y-119453114D01*
X103451233Y-119467093D01*
X103447799Y-119480801D01*
X103443039Y-119494106D01*
X103436997Y-119506881D01*
X103429732Y-119519002D01*
X103421314Y-119530353D01*
X103411823Y-119540823D01*
X103401353Y-119550314D01*
X103390002Y-119558732D01*
X103377881Y-119565997D01*
X103365106Y-119572039D01*
X103351801Y-119576799D01*
X103338093Y-119580233D01*
X103324114Y-119582307D01*
X103310000Y-119583000D01*
X100398000Y-119583000D01*
X100383886Y-119582307D01*
X100369907Y-119580233D01*
X100356199Y-119576799D01*
X100342894Y-119572039D01*
X100330119Y-119565997D01*
X100317998Y-119558732D01*
X100306647Y-119550314D01*
X100296177Y-119540823D01*
X100286686Y-119530353D01*
X100278268Y-119519002D01*
X100271003Y-119506881D01*
X100264961Y-119494106D01*
X100260201Y-119480801D01*
X100256767Y-119467093D01*
X100254693Y-119453114D01*
X100254000Y-119439000D01*
X100254000Y-116527000D01*
X100254693Y-116512886D01*
X100256767Y-116498907D01*
X100260201Y-116485199D01*
X100264961Y-116471894D01*
X100271003Y-116459119D01*
X100278268Y-116446998D01*
X100286686Y-116435647D01*
X100296177Y-116425177D01*
X100306647Y-116415686D01*
X100317998Y-116407268D01*
X100330119Y-116400003D01*
X100342894Y-116393961D01*
X100356199Y-116389201D01*
X100369907Y-116385767D01*
X100383886Y-116383693D01*
X100398000Y-116383000D01*
X103310000Y-116383000D01*
X103324114Y-116383693D01*
G37*
G04 #@! TD.AperFunction*
G04 #@! TA.AperFunction,SMDPad,CuDef*
G36*
X105683901Y-120483241D02*
G01*
X105688755Y-120483961D01*
X105693514Y-120485153D01*
X105698134Y-120486806D01*
X105702570Y-120488904D01*
X105706779Y-120491427D01*
X105710720Y-120494349D01*
X105714355Y-120497645D01*
X105717651Y-120501280D01*
X105720573Y-120505221D01*
X105723096Y-120509430D01*
X105725194Y-120513866D01*
X105726847Y-120518486D01*
X105728039Y-120523245D01*
X105728759Y-120528099D01*
X105729000Y-120533000D01*
X105729000Y-120633000D01*
X105728759Y-120637901D01*
X105728039Y-120642755D01*
X105726847Y-120647514D01*
X105725194Y-120652134D01*
X105723096Y-120656570D01*
X105720573Y-120660779D01*
X105717651Y-120664720D01*
X105714355Y-120668355D01*
X105710720Y-120671651D01*
X105706779Y-120674573D01*
X105702570Y-120677096D01*
X105698134Y-120679194D01*
X105693514Y-120680847D01*
X105688755Y-120682039D01*
X105683901Y-120682759D01*
X105679000Y-120683000D01*
X104904000Y-120683000D01*
X104899099Y-120682759D01*
X104894245Y-120682039D01*
X104889486Y-120680847D01*
X104884866Y-120679194D01*
X104880430Y-120677096D01*
X104876221Y-120674573D01*
X104872280Y-120671651D01*
X104868645Y-120668355D01*
X104865349Y-120664720D01*
X104862427Y-120660779D01*
X104859904Y-120656570D01*
X104857806Y-120652134D01*
X104856153Y-120647514D01*
X104854961Y-120642755D01*
X104854241Y-120637901D01*
X104854000Y-120633000D01*
X104854000Y-120533000D01*
X104854241Y-120528099D01*
X104854961Y-120523245D01*
X104856153Y-120518486D01*
X104857806Y-120513866D01*
X104859904Y-120509430D01*
X104862427Y-120505221D01*
X104865349Y-120501280D01*
X104868645Y-120497645D01*
X104872280Y-120494349D01*
X104876221Y-120491427D01*
X104880430Y-120488904D01*
X104884866Y-120486806D01*
X104889486Y-120485153D01*
X104894245Y-120483961D01*
X104899099Y-120483241D01*
X104904000Y-120483000D01*
X105679000Y-120483000D01*
X105683901Y-120483241D01*
G37*
G04 #@! TD.AperFunction*
G04 #@! TA.AperFunction,SMDPad,CuDef*
G36*
X105683901Y-120083241D02*
G01*
X105688755Y-120083961D01*
X105693514Y-120085153D01*
X105698134Y-120086806D01*
X105702570Y-120088904D01*
X105706779Y-120091427D01*
X105710720Y-120094349D01*
X105714355Y-120097645D01*
X105717651Y-120101280D01*
X105720573Y-120105221D01*
X105723096Y-120109430D01*
X105725194Y-120113866D01*
X105726847Y-120118486D01*
X105728039Y-120123245D01*
X105728759Y-120128099D01*
X105729000Y-120133000D01*
X105729000Y-120233000D01*
X105728759Y-120237901D01*
X105728039Y-120242755D01*
X105726847Y-120247514D01*
X105725194Y-120252134D01*
X105723096Y-120256570D01*
X105720573Y-120260779D01*
X105717651Y-120264720D01*
X105714355Y-120268355D01*
X105710720Y-120271651D01*
X105706779Y-120274573D01*
X105702570Y-120277096D01*
X105698134Y-120279194D01*
X105693514Y-120280847D01*
X105688755Y-120282039D01*
X105683901Y-120282759D01*
X105679000Y-120283000D01*
X104904000Y-120283000D01*
X104899099Y-120282759D01*
X104894245Y-120282039D01*
X104889486Y-120280847D01*
X104884866Y-120279194D01*
X104880430Y-120277096D01*
X104876221Y-120274573D01*
X104872280Y-120271651D01*
X104868645Y-120268355D01*
X104865349Y-120264720D01*
X104862427Y-120260779D01*
X104859904Y-120256570D01*
X104857806Y-120252134D01*
X104856153Y-120247514D01*
X104854961Y-120242755D01*
X104854241Y-120237901D01*
X104854000Y-120233000D01*
X104854000Y-120133000D01*
X104854241Y-120128099D01*
X104854961Y-120123245D01*
X104856153Y-120118486D01*
X104857806Y-120113866D01*
X104859904Y-120109430D01*
X104862427Y-120105221D01*
X104865349Y-120101280D01*
X104868645Y-120097645D01*
X104872280Y-120094349D01*
X104876221Y-120091427D01*
X104880430Y-120088904D01*
X104884866Y-120086806D01*
X104889486Y-120085153D01*
X104894245Y-120083961D01*
X104899099Y-120083241D01*
X104904000Y-120083000D01*
X105679000Y-120083000D01*
X105683901Y-120083241D01*
G37*
G04 #@! TD.AperFunction*
G04 #@! TA.AperFunction,SMDPad,CuDef*
G36*
X105683901Y-119683241D02*
G01*
X105688755Y-119683961D01*
X105693514Y-119685153D01*
X105698134Y-119686806D01*
X105702570Y-119688904D01*
X105706779Y-119691427D01*
X105710720Y-119694349D01*
X105714355Y-119697645D01*
X105717651Y-119701280D01*
X105720573Y-119705221D01*
X105723096Y-119709430D01*
X105725194Y-119713866D01*
X105726847Y-119718486D01*
X105728039Y-119723245D01*
X105728759Y-119728099D01*
X105729000Y-119733000D01*
X105729000Y-119833000D01*
X105728759Y-119837901D01*
X105728039Y-119842755D01*
X105726847Y-119847514D01*
X105725194Y-119852134D01*
X105723096Y-119856570D01*
X105720573Y-119860779D01*
X105717651Y-119864720D01*
X105714355Y-119868355D01*
X105710720Y-119871651D01*
X105706779Y-119874573D01*
X105702570Y-119877096D01*
X105698134Y-119879194D01*
X105693514Y-119880847D01*
X105688755Y-119882039D01*
X105683901Y-119882759D01*
X105679000Y-119883000D01*
X104904000Y-119883000D01*
X104899099Y-119882759D01*
X104894245Y-119882039D01*
X104889486Y-119880847D01*
X104884866Y-119879194D01*
X104880430Y-119877096D01*
X104876221Y-119874573D01*
X104872280Y-119871651D01*
X104868645Y-119868355D01*
X104865349Y-119864720D01*
X104862427Y-119860779D01*
X104859904Y-119856570D01*
X104857806Y-119852134D01*
X104856153Y-119847514D01*
X104854961Y-119842755D01*
X104854241Y-119837901D01*
X104854000Y-119833000D01*
X104854000Y-119733000D01*
X104854241Y-119728099D01*
X104854961Y-119723245D01*
X104856153Y-119718486D01*
X104857806Y-119713866D01*
X104859904Y-119709430D01*
X104862427Y-119705221D01*
X104865349Y-119701280D01*
X104868645Y-119697645D01*
X104872280Y-119694349D01*
X104876221Y-119691427D01*
X104880430Y-119688904D01*
X104884866Y-119686806D01*
X104889486Y-119685153D01*
X104894245Y-119683961D01*
X104899099Y-119683241D01*
X104904000Y-119683000D01*
X105679000Y-119683000D01*
X105683901Y-119683241D01*
G37*
G04 #@! TD.AperFunction*
G04 #@! TA.AperFunction,SMDPad,CuDef*
G36*
X105683901Y-119283241D02*
G01*
X105688755Y-119283961D01*
X105693514Y-119285153D01*
X105698134Y-119286806D01*
X105702570Y-119288904D01*
X105706779Y-119291427D01*
X105710720Y-119294349D01*
X105714355Y-119297645D01*
X105717651Y-119301280D01*
X105720573Y-119305221D01*
X105723096Y-119309430D01*
X105725194Y-119313866D01*
X105726847Y-119318486D01*
X105728039Y-119323245D01*
X105728759Y-119328099D01*
X105729000Y-119333000D01*
X105729000Y-119433000D01*
X105728759Y-119437901D01*
X105728039Y-119442755D01*
X105726847Y-119447514D01*
X105725194Y-119452134D01*
X105723096Y-119456570D01*
X105720573Y-119460779D01*
X105717651Y-119464720D01*
X105714355Y-119468355D01*
X105710720Y-119471651D01*
X105706779Y-119474573D01*
X105702570Y-119477096D01*
X105698134Y-119479194D01*
X105693514Y-119480847D01*
X105688755Y-119482039D01*
X105683901Y-119482759D01*
X105679000Y-119483000D01*
X104904000Y-119483000D01*
X104899099Y-119482759D01*
X104894245Y-119482039D01*
X104889486Y-119480847D01*
X104884866Y-119479194D01*
X104880430Y-119477096D01*
X104876221Y-119474573D01*
X104872280Y-119471651D01*
X104868645Y-119468355D01*
X104865349Y-119464720D01*
X104862427Y-119460779D01*
X104859904Y-119456570D01*
X104857806Y-119452134D01*
X104856153Y-119447514D01*
X104854961Y-119442755D01*
X104854241Y-119437901D01*
X104854000Y-119433000D01*
X104854000Y-119333000D01*
X104854241Y-119328099D01*
X104854961Y-119323245D01*
X104856153Y-119318486D01*
X104857806Y-119313866D01*
X104859904Y-119309430D01*
X104862427Y-119305221D01*
X104865349Y-119301280D01*
X104868645Y-119297645D01*
X104872280Y-119294349D01*
X104876221Y-119291427D01*
X104880430Y-119288904D01*
X104884866Y-119286806D01*
X104889486Y-119285153D01*
X104894245Y-119283961D01*
X104899099Y-119283241D01*
X104904000Y-119283000D01*
X105679000Y-119283000D01*
X105683901Y-119283241D01*
G37*
G04 #@! TD.AperFunction*
G04 #@! TA.AperFunction,SMDPad,CuDef*
G36*
X105683901Y-118883241D02*
G01*
X105688755Y-118883961D01*
X105693514Y-118885153D01*
X105698134Y-118886806D01*
X105702570Y-118888904D01*
X105706779Y-118891427D01*
X105710720Y-118894349D01*
X105714355Y-118897645D01*
X105717651Y-118901280D01*
X105720573Y-118905221D01*
X105723096Y-118909430D01*
X105725194Y-118913866D01*
X105726847Y-118918486D01*
X105728039Y-118923245D01*
X105728759Y-118928099D01*
X105729000Y-118933000D01*
X105729000Y-119033000D01*
X105728759Y-119037901D01*
X105728039Y-119042755D01*
X105726847Y-119047514D01*
X105725194Y-119052134D01*
X105723096Y-119056570D01*
X105720573Y-119060779D01*
X105717651Y-119064720D01*
X105714355Y-119068355D01*
X105710720Y-119071651D01*
X105706779Y-119074573D01*
X105702570Y-119077096D01*
X105698134Y-119079194D01*
X105693514Y-119080847D01*
X105688755Y-119082039D01*
X105683901Y-119082759D01*
X105679000Y-119083000D01*
X104904000Y-119083000D01*
X104899099Y-119082759D01*
X104894245Y-119082039D01*
X104889486Y-119080847D01*
X104884866Y-119079194D01*
X104880430Y-119077096D01*
X104876221Y-119074573D01*
X104872280Y-119071651D01*
X104868645Y-119068355D01*
X104865349Y-119064720D01*
X104862427Y-119060779D01*
X104859904Y-119056570D01*
X104857806Y-119052134D01*
X104856153Y-119047514D01*
X104854961Y-119042755D01*
X104854241Y-119037901D01*
X104854000Y-119033000D01*
X104854000Y-118933000D01*
X104854241Y-118928099D01*
X104854961Y-118923245D01*
X104856153Y-118918486D01*
X104857806Y-118913866D01*
X104859904Y-118909430D01*
X104862427Y-118905221D01*
X104865349Y-118901280D01*
X104868645Y-118897645D01*
X104872280Y-118894349D01*
X104876221Y-118891427D01*
X104880430Y-118888904D01*
X104884866Y-118886806D01*
X104889486Y-118885153D01*
X104894245Y-118883961D01*
X104899099Y-118883241D01*
X104904000Y-118883000D01*
X105679000Y-118883000D01*
X105683901Y-118883241D01*
G37*
G04 #@! TD.AperFunction*
G04 #@! TA.AperFunction,SMDPad,CuDef*
G36*
X105683901Y-118483241D02*
G01*
X105688755Y-118483961D01*
X105693514Y-118485153D01*
X105698134Y-118486806D01*
X105702570Y-118488904D01*
X105706779Y-118491427D01*
X105710720Y-118494349D01*
X105714355Y-118497645D01*
X105717651Y-118501280D01*
X105720573Y-118505221D01*
X105723096Y-118509430D01*
X105725194Y-118513866D01*
X105726847Y-118518486D01*
X105728039Y-118523245D01*
X105728759Y-118528099D01*
X105729000Y-118533000D01*
X105729000Y-118633000D01*
X105728759Y-118637901D01*
X105728039Y-118642755D01*
X105726847Y-118647514D01*
X105725194Y-118652134D01*
X105723096Y-118656570D01*
X105720573Y-118660779D01*
X105717651Y-118664720D01*
X105714355Y-118668355D01*
X105710720Y-118671651D01*
X105706779Y-118674573D01*
X105702570Y-118677096D01*
X105698134Y-118679194D01*
X105693514Y-118680847D01*
X105688755Y-118682039D01*
X105683901Y-118682759D01*
X105679000Y-118683000D01*
X104904000Y-118683000D01*
X104899099Y-118682759D01*
X104894245Y-118682039D01*
X104889486Y-118680847D01*
X104884866Y-118679194D01*
X104880430Y-118677096D01*
X104876221Y-118674573D01*
X104872280Y-118671651D01*
X104868645Y-118668355D01*
X104865349Y-118664720D01*
X104862427Y-118660779D01*
X104859904Y-118656570D01*
X104857806Y-118652134D01*
X104856153Y-118647514D01*
X104854961Y-118642755D01*
X104854241Y-118637901D01*
X104854000Y-118633000D01*
X104854000Y-118533000D01*
X104854241Y-118528099D01*
X104854961Y-118523245D01*
X104856153Y-118518486D01*
X104857806Y-118513866D01*
X104859904Y-118509430D01*
X104862427Y-118505221D01*
X104865349Y-118501280D01*
X104868645Y-118497645D01*
X104872280Y-118494349D01*
X104876221Y-118491427D01*
X104880430Y-118488904D01*
X104884866Y-118486806D01*
X104889486Y-118485153D01*
X104894245Y-118483961D01*
X104899099Y-118483241D01*
X104904000Y-118483000D01*
X105679000Y-118483000D01*
X105683901Y-118483241D01*
G37*
G04 #@! TD.AperFunction*
G04 #@! TA.AperFunction,SMDPad,CuDef*
G36*
X105683901Y-118083241D02*
G01*
X105688755Y-118083961D01*
X105693514Y-118085153D01*
X105698134Y-118086806D01*
X105702570Y-118088904D01*
X105706779Y-118091427D01*
X105710720Y-118094349D01*
X105714355Y-118097645D01*
X105717651Y-118101280D01*
X105720573Y-118105221D01*
X105723096Y-118109430D01*
X105725194Y-118113866D01*
X105726847Y-118118486D01*
X105728039Y-118123245D01*
X105728759Y-118128099D01*
X105729000Y-118133000D01*
X105729000Y-118233000D01*
X105728759Y-118237901D01*
X105728039Y-118242755D01*
X105726847Y-118247514D01*
X105725194Y-118252134D01*
X105723096Y-118256570D01*
X105720573Y-118260779D01*
X105717651Y-118264720D01*
X105714355Y-118268355D01*
X105710720Y-118271651D01*
X105706779Y-118274573D01*
X105702570Y-118277096D01*
X105698134Y-118279194D01*
X105693514Y-118280847D01*
X105688755Y-118282039D01*
X105683901Y-118282759D01*
X105679000Y-118283000D01*
X104904000Y-118283000D01*
X104899099Y-118282759D01*
X104894245Y-118282039D01*
X104889486Y-118280847D01*
X104884866Y-118279194D01*
X104880430Y-118277096D01*
X104876221Y-118274573D01*
X104872280Y-118271651D01*
X104868645Y-118268355D01*
X104865349Y-118264720D01*
X104862427Y-118260779D01*
X104859904Y-118256570D01*
X104857806Y-118252134D01*
X104856153Y-118247514D01*
X104854961Y-118242755D01*
X104854241Y-118237901D01*
X104854000Y-118233000D01*
X104854000Y-118133000D01*
X104854241Y-118128099D01*
X104854961Y-118123245D01*
X104856153Y-118118486D01*
X104857806Y-118113866D01*
X104859904Y-118109430D01*
X104862427Y-118105221D01*
X104865349Y-118101280D01*
X104868645Y-118097645D01*
X104872280Y-118094349D01*
X104876221Y-118091427D01*
X104880430Y-118088904D01*
X104884866Y-118086806D01*
X104889486Y-118085153D01*
X104894245Y-118083961D01*
X104899099Y-118083241D01*
X104904000Y-118083000D01*
X105679000Y-118083000D01*
X105683901Y-118083241D01*
G37*
G04 #@! TD.AperFunction*
G04 #@! TA.AperFunction,SMDPad,CuDef*
G36*
X105683901Y-117683241D02*
G01*
X105688755Y-117683961D01*
X105693514Y-117685153D01*
X105698134Y-117686806D01*
X105702570Y-117688904D01*
X105706779Y-117691427D01*
X105710720Y-117694349D01*
X105714355Y-117697645D01*
X105717651Y-117701280D01*
X105720573Y-117705221D01*
X105723096Y-117709430D01*
X105725194Y-117713866D01*
X105726847Y-117718486D01*
X105728039Y-117723245D01*
X105728759Y-117728099D01*
X105729000Y-117733000D01*
X105729000Y-117833000D01*
X105728759Y-117837901D01*
X105728039Y-117842755D01*
X105726847Y-117847514D01*
X105725194Y-117852134D01*
X105723096Y-117856570D01*
X105720573Y-117860779D01*
X105717651Y-117864720D01*
X105714355Y-117868355D01*
X105710720Y-117871651D01*
X105706779Y-117874573D01*
X105702570Y-117877096D01*
X105698134Y-117879194D01*
X105693514Y-117880847D01*
X105688755Y-117882039D01*
X105683901Y-117882759D01*
X105679000Y-117883000D01*
X104904000Y-117883000D01*
X104899099Y-117882759D01*
X104894245Y-117882039D01*
X104889486Y-117880847D01*
X104884866Y-117879194D01*
X104880430Y-117877096D01*
X104876221Y-117874573D01*
X104872280Y-117871651D01*
X104868645Y-117868355D01*
X104865349Y-117864720D01*
X104862427Y-117860779D01*
X104859904Y-117856570D01*
X104857806Y-117852134D01*
X104856153Y-117847514D01*
X104854961Y-117842755D01*
X104854241Y-117837901D01*
X104854000Y-117833000D01*
X104854000Y-117733000D01*
X104854241Y-117728099D01*
X104854961Y-117723245D01*
X104856153Y-117718486D01*
X104857806Y-117713866D01*
X104859904Y-117709430D01*
X104862427Y-117705221D01*
X104865349Y-117701280D01*
X104868645Y-117697645D01*
X104872280Y-117694349D01*
X104876221Y-117691427D01*
X104880430Y-117688904D01*
X104884866Y-117686806D01*
X104889486Y-117685153D01*
X104894245Y-117683961D01*
X104899099Y-117683241D01*
X104904000Y-117683000D01*
X105679000Y-117683000D01*
X105683901Y-117683241D01*
G37*
G04 #@! TD.AperFunction*
G04 #@! TA.AperFunction,SMDPad,CuDef*
G36*
X105683901Y-117283241D02*
G01*
X105688755Y-117283961D01*
X105693514Y-117285153D01*
X105698134Y-117286806D01*
X105702570Y-117288904D01*
X105706779Y-117291427D01*
X105710720Y-117294349D01*
X105714355Y-117297645D01*
X105717651Y-117301280D01*
X105720573Y-117305221D01*
X105723096Y-117309430D01*
X105725194Y-117313866D01*
X105726847Y-117318486D01*
X105728039Y-117323245D01*
X105728759Y-117328099D01*
X105729000Y-117333000D01*
X105729000Y-117433000D01*
X105728759Y-117437901D01*
X105728039Y-117442755D01*
X105726847Y-117447514D01*
X105725194Y-117452134D01*
X105723096Y-117456570D01*
X105720573Y-117460779D01*
X105717651Y-117464720D01*
X105714355Y-117468355D01*
X105710720Y-117471651D01*
X105706779Y-117474573D01*
X105702570Y-117477096D01*
X105698134Y-117479194D01*
X105693514Y-117480847D01*
X105688755Y-117482039D01*
X105683901Y-117482759D01*
X105679000Y-117483000D01*
X104904000Y-117483000D01*
X104899099Y-117482759D01*
X104894245Y-117482039D01*
X104889486Y-117480847D01*
X104884866Y-117479194D01*
X104880430Y-117477096D01*
X104876221Y-117474573D01*
X104872280Y-117471651D01*
X104868645Y-117468355D01*
X104865349Y-117464720D01*
X104862427Y-117460779D01*
X104859904Y-117456570D01*
X104857806Y-117452134D01*
X104856153Y-117447514D01*
X104854961Y-117442755D01*
X104854241Y-117437901D01*
X104854000Y-117433000D01*
X104854000Y-117333000D01*
X104854241Y-117328099D01*
X104854961Y-117323245D01*
X104856153Y-117318486D01*
X104857806Y-117313866D01*
X104859904Y-117309430D01*
X104862427Y-117305221D01*
X104865349Y-117301280D01*
X104868645Y-117297645D01*
X104872280Y-117294349D01*
X104876221Y-117291427D01*
X104880430Y-117288904D01*
X104884866Y-117286806D01*
X104889486Y-117285153D01*
X104894245Y-117283961D01*
X104899099Y-117283241D01*
X104904000Y-117283000D01*
X105679000Y-117283000D01*
X105683901Y-117283241D01*
G37*
G04 #@! TD.AperFunction*
G04 #@! TA.AperFunction,SMDPad,CuDef*
G36*
X105683901Y-116883241D02*
G01*
X105688755Y-116883961D01*
X105693514Y-116885153D01*
X105698134Y-116886806D01*
X105702570Y-116888904D01*
X105706779Y-116891427D01*
X105710720Y-116894349D01*
X105714355Y-116897645D01*
X105717651Y-116901280D01*
X105720573Y-116905221D01*
X105723096Y-116909430D01*
X105725194Y-116913866D01*
X105726847Y-116918486D01*
X105728039Y-116923245D01*
X105728759Y-116928099D01*
X105729000Y-116933000D01*
X105729000Y-117033000D01*
X105728759Y-117037901D01*
X105728039Y-117042755D01*
X105726847Y-117047514D01*
X105725194Y-117052134D01*
X105723096Y-117056570D01*
X105720573Y-117060779D01*
X105717651Y-117064720D01*
X105714355Y-117068355D01*
X105710720Y-117071651D01*
X105706779Y-117074573D01*
X105702570Y-117077096D01*
X105698134Y-117079194D01*
X105693514Y-117080847D01*
X105688755Y-117082039D01*
X105683901Y-117082759D01*
X105679000Y-117083000D01*
X104904000Y-117083000D01*
X104899099Y-117082759D01*
X104894245Y-117082039D01*
X104889486Y-117080847D01*
X104884866Y-117079194D01*
X104880430Y-117077096D01*
X104876221Y-117074573D01*
X104872280Y-117071651D01*
X104868645Y-117068355D01*
X104865349Y-117064720D01*
X104862427Y-117060779D01*
X104859904Y-117056570D01*
X104857806Y-117052134D01*
X104856153Y-117047514D01*
X104854961Y-117042755D01*
X104854241Y-117037901D01*
X104854000Y-117033000D01*
X104854000Y-116933000D01*
X104854241Y-116928099D01*
X104854961Y-116923245D01*
X104856153Y-116918486D01*
X104857806Y-116913866D01*
X104859904Y-116909430D01*
X104862427Y-116905221D01*
X104865349Y-116901280D01*
X104868645Y-116897645D01*
X104872280Y-116894349D01*
X104876221Y-116891427D01*
X104880430Y-116888904D01*
X104884866Y-116886806D01*
X104889486Y-116885153D01*
X104894245Y-116883961D01*
X104899099Y-116883241D01*
X104904000Y-116883000D01*
X105679000Y-116883000D01*
X105683901Y-116883241D01*
G37*
G04 #@! TD.AperFunction*
G04 #@! TA.AperFunction,SMDPad,CuDef*
G36*
X105683901Y-116483241D02*
G01*
X105688755Y-116483961D01*
X105693514Y-116485153D01*
X105698134Y-116486806D01*
X105702570Y-116488904D01*
X105706779Y-116491427D01*
X105710720Y-116494349D01*
X105714355Y-116497645D01*
X105717651Y-116501280D01*
X105720573Y-116505221D01*
X105723096Y-116509430D01*
X105725194Y-116513866D01*
X105726847Y-116518486D01*
X105728039Y-116523245D01*
X105728759Y-116528099D01*
X105729000Y-116533000D01*
X105729000Y-116633000D01*
X105728759Y-116637901D01*
X105728039Y-116642755D01*
X105726847Y-116647514D01*
X105725194Y-116652134D01*
X105723096Y-116656570D01*
X105720573Y-116660779D01*
X105717651Y-116664720D01*
X105714355Y-116668355D01*
X105710720Y-116671651D01*
X105706779Y-116674573D01*
X105702570Y-116677096D01*
X105698134Y-116679194D01*
X105693514Y-116680847D01*
X105688755Y-116682039D01*
X105683901Y-116682759D01*
X105679000Y-116683000D01*
X104904000Y-116683000D01*
X104899099Y-116682759D01*
X104894245Y-116682039D01*
X104889486Y-116680847D01*
X104884866Y-116679194D01*
X104880430Y-116677096D01*
X104876221Y-116674573D01*
X104872280Y-116671651D01*
X104868645Y-116668355D01*
X104865349Y-116664720D01*
X104862427Y-116660779D01*
X104859904Y-116656570D01*
X104857806Y-116652134D01*
X104856153Y-116647514D01*
X104854961Y-116642755D01*
X104854241Y-116637901D01*
X104854000Y-116633000D01*
X104854000Y-116533000D01*
X104854241Y-116528099D01*
X104854961Y-116523245D01*
X104856153Y-116518486D01*
X104857806Y-116513866D01*
X104859904Y-116509430D01*
X104862427Y-116505221D01*
X104865349Y-116501280D01*
X104868645Y-116497645D01*
X104872280Y-116494349D01*
X104876221Y-116491427D01*
X104880430Y-116488904D01*
X104884866Y-116486806D01*
X104889486Y-116485153D01*
X104894245Y-116483961D01*
X104899099Y-116483241D01*
X104904000Y-116483000D01*
X105679000Y-116483000D01*
X105683901Y-116483241D01*
G37*
G04 #@! TD.AperFunction*
G04 #@! TA.AperFunction,SMDPad,CuDef*
G36*
X105683901Y-116083241D02*
G01*
X105688755Y-116083961D01*
X105693514Y-116085153D01*
X105698134Y-116086806D01*
X105702570Y-116088904D01*
X105706779Y-116091427D01*
X105710720Y-116094349D01*
X105714355Y-116097645D01*
X105717651Y-116101280D01*
X105720573Y-116105221D01*
X105723096Y-116109430D01*
X105725194Y-116113866D01*
X105726847Y-116118486D01*
X105728039Y-116123245D01*
X105728759Y-116128099D01*
X105729000Y-116133000D01*
X105729000Y-116233000D01*
X105728759Y-116237901D01*
X105728039Y-116242755D01*
X105726847Y-116247514D01*
X105725194Y-116252134D01*
X105723096Y-116256570D01*
X105720573Y-116260779D01*
X105717651Y-116264720D01*
X105714355Y-116268355D01*
X105710720Y-116271651D01*
X105706779Y-116274573D01*
X105702570Y-116277096D01*
X105698134Y-116279194D01*
X105693514Y-116280847D01*
X105688755Y-116282039D01*
X105683901Y-116282759D01*
X105679000Y-116283000D01*
X104904000Y-116283000D01*
X104899099Y-116282759D01*
X104894245Y-116282039D01*
X104889486Y-116280847D01*
X104884866Y-116279194D01*
X104880430Y-116277096D01*
X104876221Y-116274573D01*
X104872280Y-116271651D01*
X104868645Y-116268355D01*
X104865349Y-116264720D01*
X104862427Y-116260779D01*
X104859904Y-116256570D01*
X104857806Y-116252134D01*
X104856153Y-116247514D01*
X104854961Y-116242755D01*
X104854241Y-116237901D01*
X104854000Y-116233000D01*
X104854000Y-116133000D01*
X104854241Y-116128099D01*
X104854961Y-116123245D01*
X104856153Y-116118486D01*
X104857806Y-116113866D01*
X104859904Y-116109430D01*
X104862427Y-116105221D01*
X104865349Y-116101280D01*
X104868645Y-116097645D01*
X104872280Y-116094349D01*
X104876221Y-116091427D01*
X104880430Y-116088904D01*
X104884866Y-116086806D01*
X104889486Y-116085153D01*
X104894245Y-116083961D01*
X104899099Y-116083241D01*
X104904000Y-116083000D01*
X105679000Y-116083000D01*
X105683901Y-116083241D01*
G37*
G04 #@! TD.AperFunction*
G04 #@! TA.AperFunction,SMDPad,CuDef*
G36*
X105683901Y-115683241D02*
G01*
X105688755Y-115683961D01*
X105693514Y-115685153D01*
X105698134Y-115686806D01*
X105702570Y-115688904D01*
X105706779Y-115691427D01*
X105710720Y-115694349D01*
X105714355Y-115697645D01*
X105717651Y-115701280D01*
X105720573Y-115705221D01*
X105723096Y-115709430D01*
X105725194Y-115713866D01*
X105726847Y-115718486D01*
X105728039Y-115723245D01*
X105728759Y-115728099D01*
X105729000Y-115733000D01*
X105729000Y-115833000D01*
X105728759Y-115837901D01*
X105728039Y-115842755D01*
X105726847Y-115847514D01*
X105725194Y-115852134D01*
X105723096Y-115856570D01*
X105720573Y-115860779D01*
X105717651Y-115864720D01*
X105714355Y-115868355D01*
X105710720Y-115871651D01*
X105706779Y-115874573D01*
X105702570Y-115877096D01*
X105698134Y-115879194D01*
X105693514Y-115880847D01*
X105688755Y-115882039D01*
X105683901Y-115882759D01*
X105679000Y-115883000D01*
X104904000Y-115883000D01*
X104899099Y-115882759D01*
X104894245Y-115882039D01*
X104889486Y-115880847D01*
X104884866Y-115879194D01*
X104880430Y-115877096D01*
X104876221Y-115874573D01*
X104872280Y-115871651D01*
X104868645Y-115868355D01*
X104865349Y-115864720D01*
X104862427Y-115860779D01*
X104859904Y-115856570D01*
X104857806Y-115852134D01*
X104856153Y-115847514D01*
X104854961Y-115842755D01*
X104854241Y-115837901D01*
X104854000Y-115833000D01*
X104854000Y-115733000D01*
X104854241Y-115728099D01*
X104854961Y-115723245D01*
X104856153Y-115718486D01*
X104857806Y-115713866D01*
X104859904Y-115709430D01*
X104862427Y-115705221D01*
X104865349Y-115701280D01*
X104868645Y-115697645D01*
X104872280Y-115694349D01*
X104876221Y-115691427D01*
X104880430Y-115688904D01*
X104884866Y-115686806D01*
X104889486Y-115685153D01*
X104894245Y-115683961D01*
X104899099Y-115683241D01*
X104904000Y-115683000D01*
X105679000Y-115683000D01*
X105683901Y-115683241D01*
G37*
G04 #@! TD.AperFunction*
G04 #@! TA.AperFunction,SMDPad,CuDef*
G36*
X105683901Y-115283241D02*
G01*
X105688755Y-115283961D01*
X105693514Y-115285153D01*
X105698134Y-115286806D01*
X105702570Y-115288904D01*
X105706779Y-115291427D01*
X105710720Y-115294349D01*
X105714355Y-115297645D01*
X105717651Y-115301280D01*
X105720573Y-115305221D01*
X105723096Y-115309430D01*
X105725194Y-115313866D01*
X105726847Y-115318486D01*
X105728039Y-115323245D01*
X105728759Y-115328099D01*
X105729000Y-115333000D01*
X105729000Y-115433000D01*
X105728759Y-115437901D01*
X105728039Y-115442755D01*
X105726847Y-115447514D01*
X105725194Y-115452134D01*
X105723096Y-115456570D01*
X105720573Y-115460779D01*
X105717651Y-115464720D01*
X105714355Y-115468355D01*
X105710720Y-115471651D01*
X105706779Y-115474573D01*
X105702570Y-115477096D01*
X105698134Y-115479194D01*
X105693514Y-115480847D01*
X105688755Y-115482039D01*
X105683901Y-115482759D01*
X105679000Y-115483000D01*
X104904000Y-115483000D01*
X104899099Y-115482759D01*
X104894245Y-115482039D01*
X104889486Y-115480847D01*
X104884866Y-115479194D01*
X104880430Y-115477096D01*
X104876221Y-115474573D01*
X104872280Y-115471651D01*
X104868645Y-115468355D01*
X104865349Y-115464720D01*
X104862427Y-115460779D01*
X104859904Y-115456570D01*
X104857806Y-115452134D01*
X104856153Y-115447514D01*
X104854961Y-115442755D01*
X104854241Y-115437901D01*
X104854000Y-115433000D01*
X104854000Y-115333000D01*
X104854241Y-115328099D01*
X104854961Y-115323245D01*
X104856153Y-115318486D01*
X104857806Y-115313866D01*
X104859904Y-115309430D01*
X104862427Y-115305221D01*
X104865349Y-115301280D01*
X104868645Y-115297645D01*
X104872280Y-115294349D01*
X104876221Y-115291427D01*
X104880430Y-115288904D01*
X104884866Y-115286806D01*
X104889486Y-115285153D01*
X104894245Y-115283961D01*
X104899099Y-115283241D01*
X104904000Y-115283000D01*
X105679000Y-115283000D01*
X105683901Y-115283241D01*
G37*
G04 #@! TD.AperFunction*
G04 #@! TA.AperFunction,SMDPad,CuDef*
G36*
X104508901Y-114108241D02*
G01*
X104513755Y-114108961D01*
X104518514Y-114110153D01*
X104523134Y-114111806D01*
X104527570Y-114113904D01*
X104531779Y-114116427D01*
X104535720Y-114119349D01*
X104539355Y-114122645D01*
X104542651Y-114126280D01*
X104545573Y-114130221D01*
X104548096Y-114134430D01*
X104550194Y-114138866D01*
X104551847Y-114143486D01*
X104553039Y-114148245D01*
X104553759Y-114153099D01*
X104554000Y-114158000D01*
X104554000Y-114933000D01*
X104553759Y-114937901D01*
X104553039Y-114942755D01*
X104551847Y-114947514D01*
X104550194Y-114952134D01*
X104548096Y-114956570D01*
X104545573Y-114960779D01*
X104542651Y-114964720D01*
X104539355Y-114968355D01*
X104535720Y-114971651D01*
X104531779Y-114974573D01*
X104527570Y-114977096D01*
X104523134Y-114979194D01*
X104518514Y-114980847D01*
X104513755Y-114982039D01*
X104508901Y-114982759D01*
X104504000Y-114983000D01*
X104404000Y-114983000D01*
X104399099Y-114982759D01*
X104394245Y-114982039D01*
X104389486Y-114980847D01*
X104384866Y-114979194D01*
X104380430Y-114977096D01*
X104376221Y-114974573D01*
X104372280Y-114971651D01*
X104368645Y-114968355D01*
X104365349Y-114964720D01*
X104362427Y-114960779D01*
X104359904Y-114956570D01*
X104357806Y-114952134D01*
X104356153Y-114947514D01*
X104354961Y-114942755D01*
X104354241Y-114937901D01*
X104354000Y-114933000D01*
X104354000Y-114158000D01*
X104354241Y-114153099D01*
X104354961Y-114148245D01*
X104356153Y-114143486D01*
X104357806Y-114138866D01*
X104359904Y-114134430D01*
X104362427Y-114130221D01*
X104365349Y-114126280D01*
X104368645Y-114122645D01*
X104372280Y-114119349D01*
X104376221Y-114116427D01*
X104380430Y-114113904D01*
X104384866Y-114111806D01*
X104389486Y-114110153D01*
X104394245Y-114108961D01*
X104399099Y-114108241D01*
X104404000Y-114108000D01*
X104504000Y-114108000D01*
X104508901Y-114108241D01*
G37*
G04 #@! TD.AperFunction*
G04 #@! TA.AperFunction,SMDPad,CuDef*
G36*
X104108901Y-114108241D02*
G01*
X104113755Y-114108961D01*
X104118514Y-114110153D01*
X104123134Y-114111806D01*
X104127570Y-114113904D01*
X104131779Y-114116427D01*
X104135720Y-114119349D01*
X104139355Y-114122645D01*
X104142651Y-114126280D01*
X104145573Y-114130221D01*
X104148096Y-114134430D01*
X104150194Y-114138866D01*
X104151847Y-114143486D01*
X104153039Y-114148245D01*
X104153759Y-114153099D01*
X104154000Y-114158000D01*
X104154000Y-114933000D01*
X104153759Y-114937901D01*
X104153039Y-114942755D01*
X104151847Y-114947514D01*
X104150194Y-114952134D01*
X104148096Y-114956570D01*
X104145573Y-114960779D01*
X104142651Y-114964720D01*
X104139355Y-114968355D01*
X104135720Y-114971651D01*
X104131779Y-114974573D01*
X104127570Y-114977096D01*
X104123134Y-114979194D01*
X104118514Y-114980847D01*
X104113755Y-114982039D01*
X104108901Y-114982759D01*
X104104000Y-114983000D01*
X104004000Y-114983000D01*
X103999099Y-114982759D01*
X103994245Y-114982039D01*
X103989486Y-114980847D01*
X103984866Y-114979194D01*
X103980430Y-114977096D01*
X103976221Y-114974573D01*
X103972280Y-114971651D01*
X103968645Y-114968355D01*
X103965349Y-114964720D01*
X103962427Y-114960779D01*
X103959904Y-114956570D01*
X103957806Y-114952134D01*
X103956153Y-114947514D01*
X103954961Y-114942755D01*
X103954241Y-114937901D01*
X103954000Y-114933000D01*
X103954000Y-114158000D01*
X103954241Y-114153099D01*
X103954961Y-114148245D01*
X103956153Y-114143486D01*
X103957806Y-114138866D01*
X103959904Y-114134430D01*
X103962427Y-114130221D01*
X103965349Y-114126280D01*
X103968645Y-114122645D01*
X103972280Y-114119349D01*
X103976221Y-114116427D01*
X103980430Y-114113904D01*
X103984866Y-114111806D01*
X103989486Y-114110153D01*
X103994245Y-114108961D01*
X103999099Y-114108241D01*
X104004000Y-114108000D01*
X104104000Y-114108000D01*
X104108901Y-114108241D01*
G37*
G04 #@! TD.AperFunction*
G04 #@! TA.AperFunction,SMDPad,CuDef*
G36*
X103708901Y-114108241D02*
G01*
X103713755Y-114108961D01*
X103718514Y-114110153D01*
X103723134Y-114111806D01*
X103727570Y-114113904D01*
X103731779Y-114116427D01*
X103735720Y-114119349D01*
X103739355Y-114122645D01*
X103742651Y-114126280D01*
X103745573Y-114130221D01*
X103748096Y-114134430D01*
X103750194Y-114138866D01*
X103751847Y-114143486D01*
X103753039Y-114148245D01*
X103753759Y-114153099D01*
X103754000Y-114158000D01*
X103754000Y-114933000D01*
X103753759Y-114937901D01*
X103753039Y-114942755D01*
X103751847Y-114947514D01*
X103750194Y-114952134D01*
X103748096Y-114956570D01*
X103745573Y-114960779D01*
X103742651Y-114964720D01*
X103739355Y-114968355D01*
X103735720Y-114971651D01*
X103731779Y-114974573D01*
X103727570Y-114977096D01*
X103723134Y-114979194D01*
X103718514Y-114980847D01*
X103713755Y-114982039D01*
X103708901Y-114982759D01*
X103704000Y-114983000D01*
X103604000Y-114983000D01*
X103599099Y-114982759D01*
X103594245Y-114982039D01*
X103589486Y-114980847D01*
X103584866Y-114979194D01*
X103580430Y-114977096D01*
X103576221Y-114974573D01*
X103572280Y-114971651D01*
X103568645Y-114968355D01*
X103565349Y-114964720D01*
X103562427Y-114960779D01*
X103559904Y-114956570D01*
X103557806Y-114952134D01*
X103556153Y-114947514D01*
X103554961Y-114942755D01*
X103554241Y-114937901D01*
X103554000Y-114933000D01*
X103554000Y-114158000D01*
X103554241Y-114153099D01*
X103554961Y-114148245D01*
X103556153Y-114143486D01*
X103557806Y-114138866D01*
X103559904Y-114134430D01*
X103562427Y-114130221D01*
X103565349Y-114126280D01*
X103568645Y-114122645D01*
X103572280Y-114119349D01*
X103576221Y-114116427D01*
X103580430Y-114113904D01*
X103584866Y-114111806D01*
X103589486Y-114110153D01*
X103594245Y-114108961D01*
X103599099Y-114108241D01*
X103604000Y-114108000D01*
X103704000Y-114108000D01*
X103708901Y-114108241D01*
G37*
G04 #@! TD.AperFunction*
G04 #@! TA.AperFunction,SMDPad,CuDef*
G36*
X103308901Y-114108241D02*
G01*
X103313755Y-114108961D01*
X103318514Y-114110153D01*
X103323134Y-114111806D01*
X103327570Y-114113904D01*
X103331779Y-114116427D01*
X103335720Y-114119349D01*
X103339355Y-114122645D01*
X103342651Y-114126280D01*
X103345573Y-114130221D01*
X103348096Y-114134430D01*
X103350194Y-114138866D01*
X103351847Y-114143486D01*
X103353039Y-114148245D01*
X103353759Y-114153099D01*
X103354000Y-114158000D01*
X103354000Y-114933000D01*
X103353759Y-114937901D01*
X103353039Y-114942755D01*
X103351847Y-114947514D01*
X103350194Y-114952134D01*
X103348096Y-114956570D01*
X103345573Y-114960779D01*
X103342651Y-114964720D01*
X103339355Y-114968355D01*
X103335720Y-114971651D01*
X103331779Y-114974573D01*
X103327570Y-114977096D01*
X103323134Y-114979194D01*
X103318514Y-114980847D01*
X103313755Y-114982039D01*
X103308901Y-114982759D01*
X103304000Y-114983000D01*
X103204000Y-114983000D01*
X103199099Y-114982759D01*
X103194245Y-114982039D01*
X103189486Y-114980847D01*
X103184866Y-114979194D01*
X103180430Y-114977096D01*
X103176221Y-114974573D01*
X103172280Y-114971651D01*
X103168645Y-114968355D01*
X103165349Y-114964720D01*
X103162427Y-114960779D01*
X103159904Y-114956570D01*
X103157806Y-114952134D01*
X103156153Y-114947514D01*
X103154961Y-114942755D01*
X103154241Y-114937901D01*
X103154000Y-114933000D01*
X103154000Y-114158000D01*
X103154241Y-114153099D01*
X103154961Y-114148245D01*
X103156153Y-114143486D01*
X103157806Y-114138866D01*
X103159904Y-114134430D01*
X103162427Y-114130221D01*
X103165349Y-114126280D01*
X103168645Y-114122645D01*
X103172280Y-114119349D01*
X103176221Y-114116427D01*
X103180430Y-114113904D01*
X103184866Y-114111806D01*
X103189486Y-114110153D01*
X103194245Y-114108961D01*
X103199099Y-114108241D01*
X103204000Y-114108000D01*
X103304000Y-114108000D01*
X103308901Y-114108241D01*
G37*
G04 #@! TD.AperFunction*
G04 #@! TA.AperFunction,SMDPad,CuDef*
G36*
X102908901Y-114108241D02*
G01*
X102913755Y-114108961D01*
X102918514Y-114110153D01*
X102923134Y-114111806D01*
X102927570Y-114113904D01*
X102931779Y-114116427D01*
X102935720Y-114119349D01*
X102939355Y-114122645D01*
X102942651Y-114126280D01*
X102945573Y-114130221D01*
X102948096Y-114134430D01*
X102950194Y-114138866D01*
X102951847Y-114143486D01*
X102953039Y-114148245D01*
X102953759Y-114153099D01*
X102954000Y-114158000D01*
X102954000Y-114933000D01*
X102953759Y-114937901D01*
X102953039Y-114942755D01*
X102951847Y-114947514D01*
X102950194Y-114952134D01*
X102948096Y-114956570D01*
X102945573Y-114960779D01*
X102942651Y-114964720D01*
X102939355Y-114968355D01*
X102935720Y-114971651D01*
X102931779Y-114974573D01*
X102927570Y-114977096D01*
X102923134Y-114979194D01*
X102918514Y-114980847D01*
X102913755Y-114982039D01*
X102908901Y-114982759D01*
X102904000Y-114983000D01*
X102804000Y-114983000D01*
X102799099Y-114982759D01*
X102794245Y-114982039D01*
X102789486Y-114980847D01*
X102784866Y-114979194D01*
X102780430Y-114977096D01*
X102776221Y-114974573D01*
X102772280Y-114971651D01*
X102768645Y-114968355D01*
X102765349Y-114964720D01*
X102762427Y-114960779D01*
X102759904Y-114956570D01*
X102757806Y-114952134D01*
X102756153Y-114947514D01*
X102754961Y-114942755D01*
X102754241Y-114937901D01*
X102754000Y-114933000D01*
X102754000Y-114158000D01*
X102754241Y-114153099D01*
X102754961Y-114148245D01*
X102756153Y-114143486D01*
X102757806Y-114138866D01*
X102759904Y-114134430D01*
X102762427Y-114130221D01*
X102765349Y-114126280D01*
X102768645Y-114122645D01*
X102772280Y-114119349D01*
X102776221Y-114116427D01*
X102780430Y-114113904D01*
X102784866Y-114111806D01*
X102789486Y-114110153D01*
X102794245Y-114108961D01*
X102799099Y-114108241D01*
X102804000Y-114108000D01*
X102904000Y-114108000D01*
X102908901Y-114108241D01*
G37*
G04 #@! TD.AperFunction*
G04 #@! TA.AperFunction,SMDPad,CuDef*
G36*
X102508901Y-114108241D02*
G01*
X102513755Y-114108961D01*
X102518514Y-114110153D01*
X102523134Y-114111806D01*
X102527570Y-114113904D01*
X102531779Y-114116427D01*
X102535720Y-114119349D01*
X102539355Y-114122645D01*
X102542651Y-114126280D01*
X102545573Y-114130221D01*
X102548096Y-114134430D01*
X102550194Y-114138866D01*
X102551847Y-114143486D01*
X102553039Y-114148245D01*
X102553759Y-114153099D01*
X102554000Y-114158000D01*
X102554000Y-114933000D01*
X102553759Y-114937901D01*
X102553039Y-114942755D01*
X102551847Y-114947514D01*
X102550194Y-114952134D01*
X102548096Y-114956570D01*
X102545573Y-114960779D01*
X102542651Y-114964720D01*
X102539355Y-114968355D01*
X102535720Y-114971651D01*
X102531779Y-114974573D01*
X102527570Y-114977096D01*
X102523134Y-114979194D01*
X102518514Y-114980847D01*
X102513755Y-114982039D01*
X102508901Y-114982759D01*
X102504000Y-114983000D01*
X102404000Y-114983000D01*
X102399099Y-114982759D01*
X102394245Y-114982039D01*
X102389486Y-114980847D01*
X102384866Y-114979194D01*
X102380430Y-114977096D01*
X102376221Y-114974573D01*
X102372280Y-114971651D01*
X102368645Y-114968355D01*
X102365349Y-114964720D01*
X102362427Y-114960779D01*
X102359904Y-114956570D01*
X102357806Y-114952134D01*
X102356153Y-114947514D01*
X102354961Y-114942755D01*
X102354241Y-114937901D01*
X102354000Y-114933000D01*
X102354000Y-114158000D01*
X102354241Y-114153099D01*
X102354961Y-114148245D01*
X102356153Y-114143486D01*
X102357806Y-114138866D01*
X102359904Y-114134430D01*
X102362427Y-114130221D01*
X102365349Y-114126280D01*
X102368645Y-114122645D01*
X102372280Y-114119349D01*
X102376221Y-114116427D01*
X102380430Y-114113904D01*
X102384866Y-114111806D01*
X102389486Y-114110153D01*
X102394245Y-114108961D01*
X102399099Y-114108241D01*
X102404000Y-114108000D01*
X102504000Y-114108000D01*
X102508901Y-114108241D01*
G37*
G04 #@! TD.AperFunction*
G04 #@! TA.AperFunction,SMDPad,CuDef*
G36*
X102108901Y-114108241D02*
G01*
X102113755Y-114108961D01*
X102118514Y-114110153D01*
X102123134Y-114111806D01*
X102127570Y-114113904D01*
X102131779Y-114116427D01*
X102135720Y-114119349D01*
X102139355Y-114122645D01*
X102142651Y-114126280D01*
X102145573Y-114130221D01*
X102148096Y-114134430D01*
X102150194Y-114138866D01*
X102151847Y-114143486D01*
X102153039Y-114148245D01*
X102153759Y-114153099D01*
X102154000Y-114158000D01*
X102154000Y-114933000D01*
X102153759Y-114937901D01*
X102153039Y-114942755D01*
X102151847Y-114947514D01*
X102150194Y-114952134D01*
X102148096Y-114956570D01*
X102145573Y-114960779D01*
X102142651Y-114964720D01*
X102139355Y-114968355D01*
X102135720Y-114971651D01*
X102131779Y-114974573D01*
X102127570Y-114977096D01*
X102123134Y-114979194D01*
X102118514Y-114980847D01*
X102113755Y-114982039D01*
X102108901Y-114982759D01*
X102104000Y-114983000D01*
X102004000Y-114983000D01*
X101999099Y-114982759D01*
X101994245Y-114982039D01*
X101989486Y-114980847D01*
X101984866Y-114979194D01*
X101980430Y-114977096D01*
X101976221Y-114974573D01*
X101972280Y-114971651D01*
X101968645Y-114968355D01*
X101965349Y-114964720D01*
X101962427Y-114960779D01*
X101959904Y-114956570D01*
X101957806Y-114952134D01*
X101956153Y-114947514D01*
X101954961Y-114942755D01*
X101954241Y-114937901D01*
X101954000Y-114933000D01*
X101954000Y-114158000D01*
X101954241Y-114153099D01*
X101954961Y-114148245D01*
X101956153Y-114143486D01*
X101957806Y-114138866D01*
X101959904Y-114134430D01*
X101962427Y-114130221D01*
X101965349Y-114126280D01*
X101968645Y-114122645D01*
X101972280Y-114119349D01*
X101976221Y-114116427D01*
X101980430Y-114113904D01*
X101984866Y-114111806D01*
X101989486Y-114110153D01*
X101994245Y-114108961D01*
X101999099Y-114108241D01*
X102004000Y-114108000D01*
X102104000Y-114108000D01*
X102108901Y-114108241D01*
G37*
G04 #@! TD.AperFunction*
G04 #@! TA.AperFunction,SMDPad,CuDef*
G36*
X101708901Y-114108241D02*
G01*
X101713755Y-114108961D01*
X101718514Y-114110153D01*
X101723134Y-114111806D01*
X101727570Y-114113904D01*
X101731779Y-114116427D01*
X101735720Y-114119349D01*
X101739355Y-114122645D01*
X101742651Y-114126280D01*
X101745573Y-114130221D01*
X101748096Y-114134430D01*
X101750194Y-114138866D01*
X101751847Y-114143486D01*
X101753039Y-114148245D01*
X101753759Y-114153099D01*
X101754000Y-114158000D01*
X101754000Y-114933000D01*
X101753759Y-114937901D01*
X101753039Y-114942755D01*
X101751847Y-114947514D01*
X101750194Y-114952134D01*
X101748096Y-114956570D01*
X101745573Y-114960779D01*
X101742651Y-114964720D01*
X101739355Y-114968355D01*
X101735720Y-114971651D01*
X101731779Y-114974573D01*
X101727570Y-114977096D01*
X101723134Y-114979194D01*
X101718514Y-114980847D01*
X101713755Y-114982039D01*
X101708901Y-114982759D01*
X101704000Y-114983000D01*
X101604000Y-114983000D01*
X101599099Y-114982759D01*
X101594245Y-114982039D01*
X101589486Y-114980847D01*
X101584866Y-114979194D01*
X101580430Y-114977096D01*
X101576221Y-114974573D01*
X101572280Y-114971651D01*
X101568645Y-114968355D01*
X101565349Y-114964720D01*
X101562427Y-114960779D01*
X101559904Y-114956570D01*
X101557806Y-114952134D01*
X101556153Y-114947514D01*
X101554961Y-114942755D01*
X101554241Y-114937901D01*
X101554000Y-114933000D01*
X101554000Y-114158000D01*
X101554241Y-114153099D01*
X101554961Y-114148245D01*
X101556153Y-114143486D01*
X101557806Y-114138866D01*
X101559904Y-114134430D01*
X101562427Y-114130221D01*
X101565349Y-114126280D01*
X101568645Y-114122645D01*
X101572280Y-114119349D01*
X101576221Y-114116427D01*
X101580430Y-114113904D01*
X101584866Y-114111806D01*
X101589486Y-114110153D01*
X101594245Y-114108961D01*
X101599099Y-114108241D01*
X101604000Y-114108000D01*
X101704000Y-114108000D01*
X101708901Y-114108241D01*
G37*
G04 #@! TD.AperFunction*
G04 #@! TA.AperFunction,SMDPad,CuDef*
G36*
X101308901Y-114108241D02*
G01*
X101313755Y-114108961D01*
X101318514Y-114110153D01*
X101323134Y-114111806D01*
X101327570Y-114113904D01*
X101331779Y-114116427D01*
X101335720Y-114119349D01*
X101339355Y-114122645D01*
X101342651Y-114126280D01*
X101345573Y-114130221D01*
X101348096Y-114134430D01*
X101350194Y-114138866D01*
X101351847Y-114143486D01*
X101353039Y-114148245D01*
X101353759Y-114153099D01*
X101354000Y-114158000D01*
X101354000Y-114933000D01*
X101353759Y-114937901D01*
X101353039Y-114942755D01*
X101351847Y-114947514D01*
X101350194Y-114952134D01*
X101348096Y-114956570D01*
X101345573Y-114960779D01*
X101342651Y-114964720D01*
X101339355Y-114968355D01*
X101335720Y-114971651D01*
X101331779Y-114974573D01*
X101327570Y-114977096D01*
X101323134Y-114979194D01*
X101318514Y-114980847D01*
X101313755Y-114982039D01*
X101308901Y-114982759D01*
X101304000Y-114983000D01*
X101204000Y-114983000D01*
X101199099Y-114982759D01*
X101194245Y-114982039D01*
X101189486Y-114980847D01*
X101184866Y-114979194D01*
X101180430Y-114977096D01*
X101176221Y-114974573D01*
X101172280Y-114971651D01*
X101168645Y-114968355D01*
X101165349Y-114964720D01*
X101162427Y-114960779D01*
X101159904Y-114956570D01*
X101157806Y-114952134D01*
X101156153Y-114947514D01*
X101154961Y-114942755D01*
X101154241Y-114937901D01*
X101154000Y-114933000D01*
X101154000Y-114158000D01*
X101154241Y-114153099D01*
X101154961Y-114148245D01*
X101156153Y-114143486D01*
X101157806Y-114138866D01*
X101159904Y-114134430D01*
X101162427Y-114130221D01*
X101165349Y-114126280D01*
X101168645Y-114122645D01*
X101172280Y-114119349D01*
X101176221Y-114116427D01*
X101180430Y-114113904D01*
X101184866Y-114111806D01*
X101189486Y-114110153D01*
X101194245Y-114108961D01*
X101199099Y-114108241D01*
X101204000Y-114108000D01*
X101304000Y-114108000D01*
X101308901Y-114108241D01*
G37*
G04 #@! TD.AperFunction*
G04 #@! TA.AperFunction,SMDPad,CuDef*
G36*
X100908901Y-114108241D02*
G01*
X100913755Y-114108961D01*
X100918514Y-114110153D01*
X100923134Y-114111806D01*
X100927570Y-114113904D01*
X100931779Y-114116427D01*
X100935720Y-114119349D01*
X100939355Y-114122645D01*
X100942651Y-114126280D01*
X100945573Y-114130221D01*
X100948096Y-114134430D01*
X100950194Y-114138866D01*
X100951847Y-114143486D01*
X100953039Y-114148245D01*
X100953759Y-114153099D01*
X100954000Y-114158000D01*
X100954000Y-114933000D01*
X100953759Y-114937901D01*
X100953039Y-114942755D01*
X100951847Y-114947514D01*
X100950194Y-114952134D01*
X100948096Y-114956570D01*
X100945573Y-114960779D01*
X100942651Y-114964720D01*
X100939355Y-114968355D01*
X100935720Y-114971651D01*
X100931779Y-114974573D01*
X100927570Y-114977096D01*
X100923134Y-114979194D01*
X100918514Y-114980847D01*
X100913755Y-114982039D01*
X100908901Y-114982759D01*
X100904000Y-114983000D01*
X100804000Y-114983000D01*
X100799099Y-114982759D01*
X100794245Y-114982039D01*
X100789486Y-114980847D01*
X100784866Y-114979194D01*
X100780430Y-114977096D01*
X100776221Y-114974573D01*
X100772280Y-114971651D01*
X100768645Y-114968355D01*
X100765349Y-114964720D01*
X100762427Y-114960779D01*
X100759904Y-114956570D01*
X100757806Y-114952134D01*
X100756153Y-114947514D01*
X100754961Y-114942755D01*
X100754241Y-114937901D01*
X100754000Y-114933000D01*
X100754000Y-114158000D01*
X100754241Y-114153099D01*
X100754961Y-114148245D01*
X100756153Y-114143486D01*
X100757806Y-114138866D01*
X100759904Y-114134430D01*
X100762427Y-114130221D01*
X100765349Y-114126280D01*
X100768645Y-114122645D01*
X100772280Y-114119349D01*
X100776221Y-114116427D01*
X100780430Y-114113904D01*
X100784866Y-114111806D01*
X100789486Y-114110153D01*
X100794245Y-114108961D01*
X100799099Y-114108241D01*
X100804000Y-114108000D01*
X100904000Y-114108000D01*
X100908901Y-114108241D01*
G37*
G04 #@! TD.AperFunction*
G04 #@! TA.AperFunction,SMDPad,CuDef*
G36*
X100508901Y-114108241D02*
G01*
X100513755Y-114108961D01*
X100518514Y-114110153D01*
X100523134Y-114111806D01*
X100527570Y-114113904D01*
X100531779Y-114116427D01*
X100535720Y-114119349D01*
X100539355Y-114122645D01*
X100542651Y-114126280D01*
X100545573Y-114130221D01*
X100548096Y-114134430D01*
X100550194Y-114138866D01*
X100551847Y-114143486D01*
X100553039Y-114148245D01*
X100553759Y-114153099D01*
X100554000Y-114158000D01*
X100554000Y-114933000D01*
X100553759Y-114937901D01*
X100553039Y-114942755D01*
X100551847Y-114947514D01*
X100550194Y-114952134D01*
X100548096Y-114956570D01*
X100545573Y-114960779D01*
X100542651Y-114964720D01*
X100539355Y-114968355D01*
X100535720Y-114971651D01*
X100531779Y-114974573D01*
X100527570Y-114977096D01*
X100523134Y-114979194D01*
X100518514Y-114980847D01*
X100513755Y-114982039D01*
X100508901Y-114982759D01*
X100504000Y-114983000D01*
X100404000Y-114983000D01*
X100399099Y-114982759D01*
X100394245Y-114982039D01*
X100389486Y-114980847D01*
X100384866Y-114979194D01*
X100380430Y-114977096D01*
X100376221Y-114974573D01*
X100372280Y-114971651D01*
X100368645Y-114968355D01*
X100365349Y-114964720D01*
X100362427Y-114960779D01*
X100359904Y-114956570D01*
X100357806Y-114952134D01*
X100356153Y-114947514D01*
X100354961Y-114942755D01*
X100354241Y-114937901D01*
X100354000Y-114933000D01*
X100354000Y-114158000D01*
X100354241Y-114153099D01*
X100354961Y-114148245D01*
X100356153Y-114143486D01*
X100357806Y-114138866D01*
X100359904Y-114134430D01*
X100362427Y-114130221D01*
X100365349Y-114126280D01*
X100368645Y-114122645D01*
X100372280Y-114119349D01*
X100376221Y-114116427D01*
X100380430Y-114113904D01*
X100384866Y-114111806D01*
X100389486Y-114110153D01*
X100394245Y-114108961D01*
X100399099Y-114108241D01*
X100404000Y-114108000D01*
X100504000Y-114108000D01*
X100508901Y-114108241D01*
G37*
G04 #@! TD.AperFunction*
G04 #@! TA.AperFunction,SMDPad,CuDef*
G36*
X100108901Y-114108241D02*
G01*
X100113755Y-114108961D01*
X100118514Y-114110153D01*
X100123134Y-114111806D01*
X100127570Y-114113904D01*
X100131779Y-114116427D01*
X100135720Y-114119349D01*
X100139355Y-114122645D01*
X100142651Y-114126280D01*
X100145573Y-114130221D01*
X100148096Y-114134430D01*
X100150194Y-114138866D01*
X100151847Y-114143486D01*
X100153039Y-114148245D01*
X100153759Y-114153099D01*
X100154000Y-114158000D01*
X100154000Y-114933000D01*
X100153759Y-114937901D01*
X100153039Y-114942755D01*
X100151847Y-114947514D01*
X100150194Y-114952134D01*
X100148096Y-114956570D01*
X100145573Y-114960779D01*
X100142651Y-114964720D01*
X100139355Y-114968355D01*
X100135720Y-114971651D01*
X100131779Y-114974573D01*
X100127570Y-114977096D01*
X100123134Y-114979194D01*
X100118514Y-114980847D01*
X100113755Y-114982039D01*
X100108901Y-114982759D01*
X100104000Y-114983000D01*
X100004000Y-114983000D01*
X99999099Y-114982759D01*
X99994245Y-114982039D01*
X99989486Y-114980847D01*
X99984866Y-114979194D01*
X99980430Y-114977096D01*
X99976221Y-114974573D01*
X99972280Y-114971651D01*
X99968645Y-114968355D01*
X99965349Y-114964720D01*
X99962427Y-114960779D01*
X99959904Y-114956570D01*
X99957806Y-114952134D01*
X99956153Y-114947514D01*
X99954961Y-114942755D01*
X99954241Y-114937901D01*
X99954000Y-114933000D01*
X99954000Y-114158000D01*
X99954241Y-114153099D01*
X99954961Y-114148245D01*
X99956153Y-114143486D01*
X99957806Y-114138866D01*
X99959904Y-114134430D01*
X99962427Y-114130221D01*
X99965349Y-114126280D01*
X99968645Y-114122645D01*
X99972280Y-114119349D01*
X99976221Y-114116427D01*
X99980430Y-114113904D01*
X99984866Y-114111806D01*
X99989486Y-114110153D01*
X99994245Y-114108961D01*
X99999099Y-114108241D01*
X100004000Y-114108000D01*
X100104000Y-114108000D01*
X100108901Y-114108241D01*
G37*
G04 #@! TD.AperFunction*
G04 #@! TA.AperFunction,SMDPad,CuDef*
G36*
X99708901Y-114108241D02*
G01*
X99713755Y-114108961D01*
X99718514Y-114110153D01*
X99723134Y-114111806D01*
X99727570Y-114113904D01*
X99731779Y-114116427D01*
X99735720Y-114119349D01*
X99739355Y-114122645D01*
X99742651Y-114126280D01*
X99745573Y-114130221D01*
X99748096Y-114134430D01*
X99750194Y-114138866D01*
X99751847Y-114143486D01*
X99753039Y-114148245D01*
X99753759Y-114153099D01*
X99754000Y-114158000D01*
X99754000Y-114933000D01*
X99753759Y-114937901D01*
X99753039Y-114942755D01*
X99751847Y-114947514D01*
X99750194Y-114952134D01*
X99748096Y-114956570D01*
X99745573Y-114960779D01*
X99742651Y-114964720D01*
X99739355Y-114968355D01*
X99735720Y-114971651D01*
X99731779Y-114974573D01*
X99727570Y-114977096D01*
X99723134Y-114979194D01*
X99718514Y-114980847D01*
X99713755Y-114982039D01*
X99708901Y-114982759D01*
X99704000Y-114983000D01*
X99604000Y-114983000D01*
X99599099Y-114982759D01*
X99594245Y-114982039D01*
X99589486Y-114980847D01*
X99584866Y-114979194D01*
X99580430Y-114977096D01*
X99576221Y-114974573D01*
X99572280Y-114971651D01*
X99568645Y-114968355D01*
X99565349Y-114964720D01*
X99562427Y-114960779D01*
X99559904Y-114956570D01*
X99557806Y-114952134D01*
X99556153Y-114947514D01*
X99554961Y-114942755D01*
X99554241Y-114937901D01*
X99554000Y-114933000D01*
X99554000Y-114158000D01*
X99554241Y-114153099D01*
X99554961Y-114148245D01*
X99556153Y-114143486D01*
X99557806Y-114138866D01*
X99559904Y-114134430D01*
X99562427Y-114130221D01*
X99565349Y-114126280D01*
X99568645Y-114122645D01*
X99572280Y-114119349D01*
X99576221Y-114116427D01*
X99580430Y-114113904D01*
X99584866Y-114111806D01*
X99589486Y-114110153D01*
X99594245Y-114108961D01*
X99599099Y-114108241D01*
X99604000Y-114108000D01*
X99704000Y-114108000D01*
X99708901Y-114108241D01*
G37*
G04 #@! TD.AperFunction*
G04 #@! TA.AperFunction,SMDPad,CuDef*
G36*
X99308901Y-114108241D02*
G01*
X99313755Y-114108961D01*
X99318514Y-114110153D01*
X99323134Y-114111806D01*
X99327570Y-114113904D01*
X99331779Y-114116427D01*
X99335720Y-114119349D01*
X99339355Y-114122645D01*
X99342651Y-114126280D01*
X99345573Y-114130221D01*
X99348096Y-114134430D01*
X99350194Y-114138866D01*
X99351847Y-114143486D01*
X99353039Y-114148245D01*
X99353759Y-114153099D01*
X99354000Y-114158000D01*
X99354000Y-114933000D01*
X99353759Y-114937901D01*
X99353039Y-114942755D01*
X99351847Y-114947514D01*
X99350194Y-114952134D01*
X99348096Y-114956570D01*
X99345573Y-114960779D01*
X99342651Y-114964720D01*
X99339355Y-114968355D01*
X99335720Y-114971651D01*
X99331779Y-114974573D01*
X99327570Y-114977096D01*
X99323134Y-114979194D01*
X99318514Y-114980847D01*
X99313755Y-114982039D01*
X99308901Y-114982759D01*
X99304000Y-114983000D01*
X99204000Y-114983000D01*
X99199099Y-114982759D01*
X99194245Y-114982039D01*
X99189486Y-114980847D01*
X99184866Y-114979194D01*
X99180430Y-114977096D01*
X99176221Y-114974573D01*
X99172280Y-114971651D01*
X99168645Y-114968355D01*
X99165349Y-114964720D01*
X99162427Y-114960779D01*
X99159904Y-114956570D01*
X99157806Y-114952134D01*
X99156153Y-114947514D01*
X99154961Y-114942755D01*
X99154241Y-114937901D01*
X99154000Y-114933000D01*
X99154000Y-114158000D01*
X99154241Y-114153099D01*
X99154961Y-114148245D01*
X99156153Y-114143486D01*
X99157806Y-114138866D01*
X99159904Y-114134430D01*
X99162427Y-114130221D01*
X99165349Y-114126280D01*
X99168645Y-114122645D01*
X99172280Y-114119349D01*
X99176221Y-114116427D01*
X99180430Y-114113904D01*
X99184866Y-114111806D01*
X99189486Y-114110153D01*
X99194245Y-114108961D01*
X99199099Y-114108241D01*
X99204000Y-114108000D01*
X99304000Y-114108000D01*
X99308901Y-114108241D01*
G37*
G04 #@! TD.AperFunction*
G04 #@! TA.AperFunction,SMDPad,CuDef*
G36*
X98808901Y-115283241D02*
G01*
X98813755Y-115283961D01*
X98818514Y-115285153D01*
X98823134Y-115286806D01*
X98827570Y-115288904D01*
X98831779Y-115291427D01*
X98835720Y-115294349D01*
X98839355Y-115297645D01*
X98842651Y-115301280D01*
X98845573Y-115305221D01*
X98848096Y-115309430D01*
X98850194Y-115313866D01*
X98851847Y-115318486D01*
X98853039Y-115323245D01*
X98853759Y-115328099D01*
X98854000Y-115333000D01*
X98854000Y-115433000D01*
X98853759Y-115437901D01*
X98853039Y-115442755D01*
X98851847Y-115447514D01*
X98850194Y-115452134D01*
X98848096Y-115456570D01*
X98845573Y-115460779D01*
X98842651Y-115464720D01*
X98839355Y-115468355D01*
X98835720Y-115471651D01*
X98831779Y-115474573D01*
X98827570Y-115477096D01*
X98823134Y-115479194D01*
X98818514Y-115480847D01*
X98813755Y-115482039D01*
X98808901Y-115482759D01*
X98804000Y-115483000D01*
X98029000Y-115483000D01*
X98024099Y-115482759D01*
X98019245Y-115482039D01*
X98014486Y-115480847D01*
X98009866Y-115479194D01*
X98005430Y-115477096D01*
X98001221Y-115474573D01*
X97997280Y-115471651D01*
X97993645Y-115468355D01*
X97990349Y-115464720D01*
X97987427Y-115460779D01*
X97984904Y-115456570D01*
X97982806Y-115452134D01*
X97981153Y-115447514D01*
X97979961Y-115442755D01*
X97979241Y-115437901D01*
X97979000Y-115433000D01*
X97979000Y-115333000D01*
X97979241Y-115328099D01*
X97979961Y-115323245D01*
X97981153Y-115318486D01*
X97982806Y-115313866D01*
X97984904Y-115309430D01*
X97987427Y-115305221D01*
X97990349Y-115301280D01*
X97993645Y-115297645D01*
X97997280Y-115294349D01*
X98001221Y-115291427D01*
X98005430Y-115288904D01*
X98009866Y-115286806D01*
X98014486Y-115285153D01*
X98019245Y-115283961D01*
X98024099Y-115283241D01*
X98029000Y-115283000D01*
X98804000Y-115283000D01*
X98808901Y-115283241D01*
G37*
G04 #@! TD.AperFunction*
G04 #@! TA.AperFunction,SMDPad,CuDef*
G36*
X98808901Y-115683241D02*
G01*
X98813755Y-115683961D01*
X98818514Y-115685153D01*
X98823134Y-115686806D01*
X98827570Y-115688904D01*
X98831779Y-115691427D01*
X98835720Y-115694349D01*
X98839355Y-115697645D01*
X98842651Y-115701280D01*
X98845573Y-115705221D01*
X98848096Y-115709430D01*
X98850194Y-115713866D01*
X98851847Y-115718486D01*
X98853039Y-115723245D01*
X98853759Y-115728099D01*
X98854000Y-115733000D01*
X98854000Y-115833000D01*
X98853759Y-115837901D01*
X98853039Y-115842755D01*
X98851847Y-115847514D01*
X98850194Y-115852134D01*
X98848096Y-115856570D01*
X98845573Y-115860779D01*
X98842651Y-115864720D01*
X98839355Y-115868355D01*
X98835720Y-115871651D01*
X98831779Y-115874573D01*
X98827570Y-115877096D01*
X98823134Y-115879194D01*
X98818514Y-115880847D01*
X98813755Y-115882039D01*
X98808901Y-115882759D01*
X98804000Y-115883000D01*
X98029000Y-115883000D01*
X98024099Y-115882759D01*
X98019245Y-115882039D01*
X98014486Y-115880847D01*
X98009866Y-115879194D01*
X98005430Y-115877096D01*
X98001221Y-115874573D01*
X97997280Y-115871651D01*
X97993645Y-115868355D01*
X97990349Y-115864720D01*
X97987427Y-115860779D01*
X97984904Y-115856570D01*
X97982806Y-115852134D01*
X97981153Y-115847514D01*
X97979961Y-115842755D01*
X97979241Y-115837901D01*
X97979000Y-115833000D01*
X97979000Y-115733000D01*
X97979241Y-115728099D01*
X97979961Y-115723245D01*
X97981153Y-115718486D01*
X97982806Y-115713866D01*
X97984904Y-115709430D01*
X97987427Y-115705221D01*
X97990349Y-115701280D01*
X97993645Y-115697645D01*
X97997280Y-115694349D01*
X98001221Y-115691427D01*
X98005430Y-115688904D01*
X98009866Y-115686806D01*
X98014486Y-115685153D01*
X98019245Y-115683961D01*
X98024099Y-115683241D01*
X98029000Y-115683000D01*
X98804000Y-115683000D01*
X98808901Y-115683241D01*
G37*
G04 #@! TD.AperFunction*
G04 #@! TA.AperFunction,SMDPad,CuDef*
G36*
X98808901Y-116083241D02*
G01*
X98813755Y-116083961D01*
X98818514Y-116085153D01*
X98823134Y-116086806D01*
X98827570Y-116088904D01*
X98831779Y-116091427D01*
X98835720Y-116094349D01*
X98839355Y-116097645D01*
X98842651Y-116101280D01*
X98845573Y-116105221D01*
X98848096Y-116109430D01*
X98850194Y-116113866D01*
X98851847Y-116118486D01*
X98853039Y-116123245D01*
X98853759Y-116128099D01*
X98854000Y-116133000D01*
X98854000Y-116233000D01*
X98853759Y-116237901D01*
X98853039Y-116242755D01*
X98851847Y-116247514D01*
X98850194Y-116252134D01*
X98848096Y-116256570D01*
X98845573Y-116260779D01*
X98842651Y-116264720D01*
X98839355Y-116268355D01*
X98835720Y-116271651D01*
X98831779Y-116274573D01*
X98827570Y-116277096D01*
X98823134Y-116279194D01*
X98818514Y-116280847D01*
X98813755Y-116282039D01*
X98808901Y-116282759D01*
X98804000Y-116283000D01*
X98029000Y-116283000D01*
X98024099Y-116282759D01*
X98019245Y-116282039D01*
X98014486Y-116280847D01*
X98009866Y-116279194D01*
X98005430Y-116277096D01*
X98001221Y-116274573D01*
X97997280Y-116271651D01*
X97993645Y-116268355D01*
X97990349Y-116264720D01*
X97987427Y-116260779D01*
X97984904Y-116256570D01*
X97982806Y-116252134D01*
X97981153Y-116247514D01*
X97979961Y-116242755D01*
X97979241Y-116237901D01*
X97979000Y-116233000D01*
X97979000Y-116133000D01*
X97979241Y-116128099D01*
X97979961Y-116123245D01*
X97981153Y-116118486D01*
X97982806Y-116113866D01*
X97984904Y-116109430D01*
X97987427Y-116105221D01*
X97990349Y-116101280D01*
X97993645Y-116097645D01*
X97997280Y-116094349D01*
X98001221Y-116091427D01*
X98005430Y-116088904D01*
X98009866Y-116086806D01*
X98014486Y-116085153D01*
X98019245Y-116083961D01*
X98024099Y-116083241D01*
X98029000Y-116083000D01*
X98804000Y-116083000D01*
X98808901Y-116083241D01*
G37*
G04 #@! TD.AperFunction*
G04 #@! TA.AperFunction,SMDPad,CuDef*
G36*
X98808901Y-116483241D02*
G01*
X98813755Y-116483961D01*
X98818514Y-116485153D01*
X98823134Y-116486806D01*
X98827570Y-116488904D01*
X98831779Y-116491427D01*
X98835720Y-116494349D01*
X98839355Y-116497645D01*
X98842651Y-116501280D01*
X98845573Y-116505221D01*
X98848096Y-116509430D01*
X98850194Y-116513866D01*
X98851847Y-116518486D01*
X98853039Y-116523245D01*
X98853759Y-116528099D01*
X98854000Y-116533000D01*
X98854000Y-116633000D01*
X98853759Y-116637901D01*
X98853039Y-116642755D01*
X98851847Y-116647514D01*
X98850194Y-116652134D01*
X98848096Y-116656570D01*
X98845573Y-116660779D01*
X98842651Y-116664720D01*
X98839355Y-116668355D01*
X98835720Y-116671651D01*
X98831779Y-116674573D01*
X98827570Y-116677096D01*
X98823134Y-116679194D01*
X98818514Y-116680847D01*
X98813755Y-116682039D01*
X98808901Y-116682759D01*
X98804000Y-116683000D01*
X98029000Y-116683000D01*
X98024099Y-116682759D01*
X98019245Y-116682039D01*
X98014486Y-116680847D01*
X98009866Y-116679194D01*
X98005430Y-116677096D01*
X98001221Y-116674573D01*
X97997280Y-116671651D01*
X97993645Y-116668355D01*
X97990349Y-116664720D01*
X97987427Y-116660779D01*
X97984904Y-116656570D01*
X97982806Y-116652134D01*
X97981153Y-116647514D01*
X97979961Y-116642755D01*
X97979241Y-116637901D01*
X97979000Y-116633000D01*
X97979000Y-116533000D01*
X97979241Y-116528099D01*
X97979961Y-116523245D01*
X97981153Y-116518486D01*
X97982806Y-116513866D01*
X97984904Y-116509430D01*
X97987427Y-116505221D01*
X97990349Y-116501280D01*
X97993645Y-116497645D01*
X97997280Y-116494349D01*
X98001221Y-116491427D01*
X98005430Y-116488904D01*
X98009866Y-116486806D01*
X98014486Y-116485153D01*
X98019245Y-116483961D01*
X98024099Y-116483241D01*
X98029000Y-116483000D01*
X98804000Y-116483000D01*
X98808901Y-116483241D01*
G37*
G04 #@! TD.AperFunction*
G04 #@! TA.AperFunction,SMDPad,CuDef*
G36*
X98808901Y-116883241D02*
G01*
X98813755Y-116883961D01*
X98818514Y-116885153D01*
X98823134Y-116886806D01*
X98827570Y-116888904D01*
X98831779Y-116891427D01*
X98835720Y-116894349D01*
X98839355Y-116897645D01*
X98842651Y-116901280D01*
X98845573Y-116905221D01*
X98848096Y-116909430D01*
X98850194Y-116913866D01*
X98851847Y-116918486D01*
X98853039Y-116923245D01*
X98853759Y-116928099D01*
X98854000Y-116933000D01*
X98854000Y-117033000D01*
X98853759Y-117037901D01*
X98853039Y-117042755D01*
X98851847Y-117047514D01*
X98850194Y-117052134D01*
X98848096Y-117056570D01*
X98845573Y-117060779D01*
X98842651Y-117064720D01*
X98839355Y-117068355D01*
X98835720Y-117071651D01*
X98831779Y-117074573D01*
X98827570Y-117077096D01*
X98823134Y-117079194D01*
X98818514Y-117080847D01*
X98813755Y-117082039D01*
X98808901Y-117082759D01*
X98804000Y-117083000D01*
X98029000Y-117083000D01*
X98024099Y-117082759D01*
X98019245Y-117082039D01*
X98014486Y-117080847D01*
X98009866Y-117079194D01*
X98005430Y-117077096D01*
X98001221Y-117074573D01*
X97997280Y-117071651D01*
X97993645Y-117068355D01*
X97990349Y-117064720D01*
X97987427Y-117060779D01*
X97984904Y-117056570D01*
X97982806Y-117052134D01*
X97981153Y-117047514D01*
X97979961Y-117042755D01*
X97979241Y-117037901D01*
X97979000Y-117033000D01*
X97979000Y-116933000D01*
X97979241Y-116928099D01*
X97979961Y-116923245D01*
X97981153Y-116918486D01*
X97982806Y-116913866D01*
X97984904Y-116909430D01*
X97987427Y-116905221D01*
X97990349Y-116901280D01*
X97993645Y-116897645D01*
X97997280Y-116894349D01*
X98001221Y-116891427D01*
X98005430Y-116888904D01*
X98009866Y-116886806D01*
X98014486Y-116885153D01*
X98019245Y-116883961D01*
X98024099Y-116883241D01*
X98029000Y-116883000D01*
X98804000Y-116883000D01*
X98808901Y-116883241D01*
G37*
G04 #@! TD.AperFunction*
G04 #@! TA.AperFunction,SMDPad,CuDef*
G36*
X98808901Y-117283241D02*
G01*
X98813755Y-117283961D01*
X98818514Y-117285153D01*
X98823134Y-117286806D01*
X98827570Y-117288904D01*
X98831779Y-117291427D01*
X98835720Y-117294349D01*
X98839355Y-117297645D01*
X98842651Y-117301280D01*
X98845573Y-117305221D01*
X98848096Y-117309430D01*
X98850194Y-117313866D01*
X98851847Y-117318486D01*
X98853039Y-117323245D01*
X98853759Y-117328099D01*
X98854000Y-117333000D01*
X98854000Y-117433000D01*
X98853759Y-117437901D01*
X98853039Y-117442755D01*
X98851847Y-117447514D01*
X98850194Y-117452134D01*
X98848096Y-117456570D01*
X98845573Y-117460779D01*
X98842651Y-117464720D01*
X98839355Y-117468355D01*
X98835720Y-117471651D01*
X98831779Y-117474573D01*
X98827570Y-117477096D01*
X98823134Y-117479194D01*
X98818514Y-117480847D01*
X98813755Y-117482039D01*
X98808901Y-117482759D01*
X98804000Y-117483000D01*
X98029000Y-117483000D01*
X98024099Y-117482759D01*
X98019245Y-117482039D01*
X98014486Y-117480847D01*
X98009866Y-117479194D01*
X98005430Y-117477096D01*
X98001221Y-117474573D01*
X97997280Y-117471651D01*
X97993645Y-117468355D01*
X97990349Y-117464720D01*
X97987427Y-117460779D01*
X97984904Y-117456570D01*
X97982806Y-117452134D01*
X97981153Y-117447514D01*
X97979961Y-117442755D01*
X97979241Y-117437901D01*
X97979000Y-117433000D01*
X97979000Y-117333000D01*
X97979241Y-117328099D01*
X97979961Y-117323245D01*
X97981153Y-117318486D01*
X97982806Y-117313866D01*
X97984904Y-117309430D01*
X97987427Y-117305221D01*
X97990349Y-117301280D01*
X97993645Y-117297645D01*
X97997280Y-117294349D01*
X98001221Y-117291427D01*
X98005430Y-117288904D01*
X98009866Y-117286806D01*
X98014486Y-117285153D01*
X98019245Y-117283961D01*
X98024099Y-117283241D01*
X98029000Y-117283000D01*
X98804000Y-117283000D01*
X98808901Y-117283241D01*
G37*
G04 #@! TD.AperFunction*
G04 #@! TA.AperFunction,SMDPad,CuDef*
G36*
X98808901Y-117683241D02*
G01*
X98813755Y-117683961D01*
X98818514Y-117685153D01*
X98823134Y-117686806D01*
X98827570Y-117688904D01*
X98831779Y-117691427D01*
X98835720Y-117694349D01*
X98839355Y-117697645D01*
X98842651Y-117701280D01*
X98845573Y-117705221D01*
X98848096Y-117709430D01*
X98850194Y-117713866D01*
X98851847Y-117718486D01*
X98853039Y-117723245D01*
X98853759Y-117728099D01*
X98854000Y-117733000D01*
X98854000Y-117833000D01*
X98853759Y-117837901D01*
X98853039Y-117842755D01*
X98851847Y-117847514D01*
X98850194Y-117852134D01*
X98848096Y-117856570D01*
X98845573Y-117860779D01*
X98842651Y-117864720D01*
X98839355Y-117868355D01*
X98835720Y-117871651D01*
X98831779Y-117874573D01*
X98827570Y-117877096D01*
X98823134Y-117879194D01*
X98818514Y-117880847D01*
X98813755Y-117882039D01*
X98808901Y-117882759D01*
X98804000Y-117883000D01*
X98029000Y-117883000D01*
X98024099Y-117882759D01*
X98019245Y-117882039D01*
X98014486Y-117880847D01*
X98009866Y-117879194D01*
X98005430Y-117877096D01*
X98001221Y-117874573D01*
X97997280Y-117871651D01*
X97993645Y-117868355D01*
X97990349Y-117864720D01*
X97987427Y-117860779D01*
X97984904Y-117856570D01*
X97982806Y-117852134D01*
X97981153Y-117847514D01*
X97979961Y-117842755D01*
X97979241Y-117837901D01*
X97979000Y-117833000D01*
X97979000Y-117733000D01*
X97979241Y-117728099D01*
X97979961Y-117723245D01*
X97981153Y-117718486D01*
X97982806Y-117713866D01*
X97984904Y-117709430D01*
X97987427Y-117705221D01*
X97990349Y-117701280D01*
X97993645Y-117697645D01*
X97997280Y-117694349D01*
X98001221Y-117691427D01*
X98005430Y-117688904D01*
X98009866Y-117686806D01*
X98014486Y-117685153D01*
X98019245Y-117683961D01*
X98024099Y-117683241D01*
X98029000Y-117683000D01*
X98804000Y-117683000D01*
X98808901Y-117683241D01*
G37*
G04 #@! TD.AperFunction*
G04 #@! TA.AperFunction,SMDPad,CuDef*
G36*
X98808901Y-118083241D02*
G01*
X98813755Y-118083961D01*
X98818514Y-118085153D01*
X98823134Y-118086806D01*
X98827570Y-118088904D01*
X98831779Y-118091427D01*
X98835720Y-118094349D01*
X98839355Y-118097645D01*
X98842651Y-118101280D01*
X98845573Y-118105221D01*
X98848096Y-118109430D01*
X98850194Y-118113866D01*
X98851847Y-118118486D01*
X98853039Y-118123245D01*
X98853759Y-118128099D01*
X98854000Y-118133000D01*
X98854000Y-118233000D01*
X98853759Y-118237901D01*
X98853039Y-118242755D01*
X98851847Y-118247514D01*
X98850194Y-118252134D01*
X98848096Y-118256570D01*
X98845573Y-118260779D01*
X98842651Y-118264720D01*
X98839355Y-118268355D01*
X98835720Y-118271651D01*
X98831779Y-118274573D01*
X98827570Y-118277096D01*
X98823134Y-118279194D01*
X98818514Y-118280847D01*
X98813755Y-118282039D01*
X98808901Y-118282759D01*
X98804000Y-118283000D01*
X98029000Y-118283000D01*
X98024099Y-118282759D01*
X98019245Y-118282039D01*
X98014486Y-118280847D01*
X98009866Y-118279194D01*
X98005430Y-118277096D01*
X98001221Y-118274573D01*
X97997280Y-118271651D01*
X97993645Y-118268355D01*
X97990349Y-118264720D01*
X97987427Y-118260779D01*
X97984904Y-118256570D01*
X97982806Y-118252134D01*
X97981153Y-118247514D01*
X97979961Y-118242755D01*
X97979241Y-118237901D01*
X97979000Y-118233000D01*
X97979000Y-118133000D01*
X97979241Y-118128099D01*
X97979961Y-118123245D01*
X97981153Y-118118486D01*
X97982806Y-118113866D01*
X97984904Y-118109430D01*
X97987427Y-118105221D01*
X97990349Y-118101280D01*
X97993645Y-118097645D01*
X97997280Y-118094349D01*
X98001221Y-118091427D01*
X98005430Y-118088904D01*
X98009866Y-118086806D01*
X98014486Y-118085153D01*
X98019245Y-118083961D01*
X98024099Y-118083241D01*
X98029000Y-118083000D01*
X98804000Y-118083000D01*
X98808901Y-118083241D01*
G37*
G04 #@! TD.AperFunction*
G04 #@! TA.AperFunction,SMDPad,CuDef*
G36*
X98808901Y-118483241D02*
G01*
X98813755Y-118483961D01*
X98818514Y-118485153D01*
X98823134Y-118486806D01*
X98827570Y-118488904D01*
X98831779Y-118491427D01*
X98835720Y-118494349D01*
X98839355Y-118497645D01*
X98842651Y-118501280D01*
X98845573Y-118505221D01*
X98848096Y-118509430D01*
X98850194Y-118513866D01*
X98851847Y-118518486D01*
X98853039Y-118523245D01*
X98853759Y-118528099D01*
X98854000Y-118533000D01*
X98854000Y-118633000D01*
X98853759Y-118637901D01*
X98853039Y-118642755D01*
X98851847Y-118647514D01*
X98850194Y-118652134D01*
X98848096Y-118656570D01*
X98845573Y-118660779D01*
X98842651Y-118664720D01*
X98839355Y-118668355D01*
X98835720Y-118671651D01*
X98831779Y-118674573D01*
X98827570Y-118677096D01*
X98823134Y-118679194D01*
X98818514Y-118680847D01*
X98813755Y-118682039D01*
X98808901Y-118682759D01*
X98804000Y-118683000D01*
X98029000Y-118683000D01*
X98024099Y-118682759D01*
X98019245Y-118682039D01*
X98014486Y-118680847D01*
X98009866Y-118679194D01*
X98005430Y-118677096D01*
X98001221Y-118674573D01*
X97997280Y-118671651D01*
X97993645Y-118668355D01*
X97990349Y-118664720D01*
X97987427Y-118660779D01*
X97984904Y-118656570D01*
X97982806Y-118652134D01*
X97981153Y-118647514D01*
X97979961Y-118642755D01*
X97979241Y-118637901D01*
X97979000Y-118633000D01*
X97979000Y-118533000D01*
X97979241Y-118528099D01*
X97979961Y-118523245D01*
X97981153Y-118518486D01*
X97982806Y-118513866D01*
X97984904Y-118509430D01*
X97987427Y-118505221D01*
X97990349Y-118501280D01*
X97993645Y-118497645D01*
X97997280Y-118494349D01*
X98001221Y-118491427D01*
X98005430Y-118488904D01*
X98009866Y-118486806D01*
X98014486Y-118485153D01*
X98019245Y-118483961D01*
X98024099Y-118483241D01*
X98029000Y-118483000D01*
X98804000Y-118483000D01*
X98808901Y-118483241D01*
G37*
G04 #@! TD.AperFunction*
G04 #@! TA.AperFunction,SMDPad,CuDef*
G36*
X98808901Y-118883241D02*
G01*
X98813755Y-118883961D01*
X98818514Y-118885153D01*
X98823134Y-118886806D01*
X98827570Y-118888904D01*
X98831779Y-118891427D01*
X98835720Y-118894349D01*
X98839355Y-118897645D01*
X98842651Y-118901280D01*
X98845573Y-118905221D01*
X98848096Y-118909430D01*
X98850194Y-118913866D01*
X98851847Y-118918486D01*
X98853039Y-118923245D01*
X98853759Y-118928099D01*
X98854000Y-118933000D01*
X98854000Y-119033000D01*
X98853759Y-119037901D01*
X98853039Y-119042755D01*
X98851847Y-119047514D01*
X98850194Y-119052134D01*
X98848096Y-119056570D01*
X98845573Y-119060779D01*
X98842651Y-119064720D01*
X98839355Y-119068355D01*
X98835720Y-119071651D01*
X98831779Y-119074573D01*
X98827570Y-119077096D01*
X98823134Y-119079194D01*
X98818514Y-119080847D01*
X98813755Y-119082039D01*
X98808901Y-119082759D01*
X98804000Y-119083000D01*
X98029000Y-119083000D01*
X98024099Y-119082759D01*
X98019245Y-119082039D01*
X98014486Y-119080847D01*
X98009866Y-119079194D01*
X98005430Y-119077096D01*
X98001221Y-119074573D01*
X97997280Y-119071651D01*
X97993645Y-119068355D01*
X97990349Y-119064720D01*
X97987427Y-119060779D01*
X97984904Y-119056570D01*
X97982806Y-119052134D01*
X97981153Y-119047514D01*
X97979961Y-119042755D01*
X97979241Y-119037901D01*
X97979000Y-119033000D01*
X97979000Y-118933000D01*
X97979241Y-118928099D01*
X97979961Y-118923245D01*
X97981153Y-118918486D01*
X97982806Y-118913866D01*
X97984904Y-118909430D01*
X97987427Y-118905221D01*
X97990349Y-118901280D01*
X97993645Y-118897645D01*
X97997280Y-118894349D01*
X98001221Y-118891427D01*
X98005430Y-118888904D01*
X98009866Y-118886806D01*
X98014486Y-118885153D01*
X98019245Y-118883961D01*
X98024099Y-118883241D01*
X98029000Y-118883000D01*
X98804000Y-118883000D01*
X98808901Y-118883241D01*
G37*
G04 #@! TD.AperFunction*
G04 #@! TA.AperFunction,SMDPad,CuDef*
G36*
X98808901Y-119283241D02*
G01*
X98813755Y-119283961D01*
X98818514Y-119285153D01*
X98823134Y-119286806D01*
X98827570Y-119288904D01*
X98831779Y-119291427D01*
X98835720Y-119294349D01*
X98839355Y-119297645D01*
X98842651Y-119301280D01*
X98845573Y-119305221D01*
X98848096Y-119309430D01*
X98850194Y-119313866D01*
X98851847Y-119318486D01*
X98853039Y-119323245D01*
X98853759Y-119328099D01*
X98854000Y-119333000D01*
X98854000Y-119433000D01*
X98853759Y-119437901D01*
X98853039Y-119442755D01*
X98851847Y-119447514D01*
X98850194Y-119452134D01*
X98848096Y-119456570D01*
X98845573Y-119460779D01*
X98842651Y-119464720D01*
X98839355Y-119468355D01*
X98835720Y-119471651D01*
X98831779Y-119474573D01*
X98827570Y-119477096D01*
X98823134Y-119479194D01*
X98818514Y-119480847D01*
X98813755Y-119482039D01*
X98808901Y-119482759D01*
X98804000Y-119483000D01*
X98029000Y-119483000D01*
X98024099Y-119482759D01*
X98019245Y-119482039D01*
X98014486Y-119480847D01*
X98009866Y-119479194D01*
X98005430Y-119477096D01*
X98001221Y-119474573D01*
X97997280Y-119471651D01*
X97993645Y-119468355D01*
X97990349Y-119464720D01*
X97987427Y-119460779D01*
X97984904Y-119456570D01*
X97982806Y-119452134D01*
X97981153Y-119447514D01*
X97979961Y-119442755D01*
X97979241Y-119437901D01*
X97979000Y-119433000D01*
X97979000Y-119333000D01*
X97979241Y-119328099D01*
X97979961Y-119323245D01*
X97981153Y-119318486D01*
X97982806Y-119313866D01*
X97984904Y-119309430D01*
X97987427Y-119305221D01*
X97990349Y-119301280D01*
X97993645Y-119297645D01*
X97997280Y-119294349D01*
X98001221Y-119291427D01*
X98005430Y-119288904D01*
X98009866Y-119286806D01*
X98014486Y-119285153D01*
X98019245Y-119283961D01*
X98024099Y-119283241D01*
X98029000Y-119283000D01*
X98804000Y-119283000D01*
X98808901Y-119283241D01*
G37*
G04 #@! TD.AperFunction*
G04 #@! TA.AperFunction,SMDPad,CuDef*
G36*
X98808901Y-119683241D02*
G01*
X98813755Y-119683961D01*
X98818514Y-119685153D01*
X98823134Y-119686806D01*
X98827570Y-119688904D01*
X98831779Y-119691427D01*
X98835720Y-119694349D01*
X98839355Y-119697645D01*
X98842651Y-119701280D01*
X98845573Y-119705221D01*
X98848096Y-119709430D01*
X98850194Y-119713866D01*
X98851847Y-119718486D01*
X98853039Y-119723245D01*
X98853759Y-119728099D01*
X98854000Y-119733000D01*
X98854000Y-119833000D01*
X98853759Y-119837901D01*
X98853039Y-119842755D01*
X98851847Y-119847514D01*
X98850194Y-119852134D01*
X98848096Y-119856570D01*
X98845573Y-119860779D01*
X98842651Y-119864720D01*
X98839355Y-119868355D01*
X98835720Y-119871651D01*
X98831779Y-119874573D01*
X98827570Y-119877096D01*
X98823134Y-119879194D01*
X98818514Y-119880847D01*
X98813755Y-119882039D01*
X98808901Y-119882759D01*
X98804000Y-119883000D01*
X98029000Y-119883000D01*
X98024099Y-119882759D01*
X98019245Y-119882039D01*
X98014486Y-119880847D01*
X98009866Y-119879194D01*
X98005430Y-119877096D01*
X98001221Y-119874573D01*
X97997280Y-119871651D01*
X97993645Y-119868355D01*
X97990349Y-119864720D01*
X97987427Y-119860779D01*
X97984904Y-119856570D01*
X97982806Y-119852134D01*
X97981153Y-119847514D01*
X97979961Y-119842755D01*
X97979241Y-119837901D01*
X97979000Y-119833000D01*
X97979000Y-119733000D01*
X97979241Y-119728099D01*
X97979961Y-119723245D01*
X97981153Y-119718486D01*
X97982806Y-119713866D01*
X97984904Y-119709430D01*
X97987427Y-119705221D01*
X97990349Y-119701280D01*
X97993645Y-119697645D01*
X97997280Y-119694349D01*
X98001221Y-119691427D01*
X98005430Y-119688904D01*
X98009866Y-119686806D01*
X98014486Y-119685153D01*
X98019245Y-119683961D01*
X98024099Y-119683241D01*
X98029000Y-119683000D01*
X98804000Y-119683000D01*
X98808901Y-119683241D01*
G37*
G04 #@! TD.AperFunction*
G04 #@! TA.AperFunction,SMDPad,CuDef*
G36*
X98808901Y-120083241D02*
G01*
X98813755Y-120083961D01*
X98818514Y-120085153D01*
X98823134Y-120086806D01*
X98827570Y-120088904D01*
X98831779Y-120091427D01*
X98835720Y-120094349D01*
X98839355Y-120097645D01*
X98842651Y-120101280D01*
X98845573Y-120105221D01*
X98848096Y-120109430D01*
X98850194Y-120113866D01*
X98851847Y-120118486D01*
X98853039Y-120123245D01*
X98853759Y-120128099D01*
X98854000Y-120133000D01*
X98854000Y-120233000D01*
X98853759Y-120237901D01*
X98853039Y-120242755D01*
X98851847Y-120247514D01*
X98850194Y-120252134D01*
X98848096Y-120256570D01*
X98845573Y-120260779D01*
X98842651Y-120264720D01*
X98839355Y-120268355D01*
X98835720Y-120271651D01*
X98831779Y-120274573D01*
X98827570Y-120277096D01*
X98823134Y-120279194D01*
X98818514Y-120280847D01*
X98813755Y-120282039D01*
X98808901Y-120282759D01*
X98804000Y-120283000D01*
X98029000Y-120283000D01*
X98024099Y-120282759D01*
X98019245Y-120282039D01*
X98014486Y-120280847D01*
X98009866Y-120279194D01*
X98005430Y-120277096D01*
X98001221Y-120274573D01*
X97997280Y-120271651D01*
X97993645Y-120268355D01*
X97990349Y-120264720D01*
X97987427Y-120260779D01*
X97984904Y-120256570D01*
X97982806Y-120252134D01*
X97981153Y-120247514D01*
X97979961Y-120242755D01*
X97979241Y-120237901D01*
X97979000Y-120233000D01*
X97979000Y-120133000D01*
X97979241Y-120128099D01*
X97979961Y-120123245D01*
X97981153Y-120118486D01*
X97982806Y-120113866D01*
X97984904Y-120109430D01*
X97987427Y-120105221D01*
X97990349Y-120101280D01*
X97993645Y-120097645D01*
X97997280Y-120094349D01*
X98001221Y-120091427D01*
X98005430Y-120088904D01*
X98009866Y-120086806D01*
X98014486Y-120085153D01*
X98019245Y-120083961D01*
X98024099Y-120083241D01*
X98029000Y-120083000D01*
X98804000Y-120083000D01*
X98808901Y-120083241D01*
G37*
G04 #@! TD.AperFunction*
G04 #@! TA.AperFunction,SMDPad,CuDef*
G36*
X98808901Y-120483241D02*
G01*
X98813755Y-120483961D01*
X98818514Y-120485153D01*
X98823134Y-120486806D01*
X98827570Y-120488904D01*
X98831779Y-120491427D01*
X98835720Y-120494349D01*
X98839355Y-120497645D01*
X98842651Y-120501280D01*
X98845573Y-120505221D01*
X98848096Y-120509430D01*
X98850194Y-120513866D01*
X98851847Y-120518486D01*
X98853039Y-120523245D01*
X98853759Y-120528099D01*
X98854000Y-120533000D01*
X98854000Y-120633000D01*
X98853759Y-120637901D01*
X98853039Y-120642755D01*
X98851847Y-120647514D01*
X98850194Y-120652134D01*
X98848096Y-120656570D01*
X98845573Y-120660779D01*
X98842651Y-120664720D01*
X98839355Y-120668355D01*
X98835720Y-120671651D01*
X98831779Y-120674573D01*
X98827570Y-120677096D01*
X98823134Y-120679194D01*
X98818514Y-120680847D01*
X98813755Y-120682039D01*
X98808901Y-120682759D01*
X98804000Y-120683000D01*
X98029000Y-120683000D01*
X98024099Y-120682759D01*
X98019245Y-120682039D01*
X98014486Y-120680847D01*
X98009866Y-120679194D01*
X98005430Y-120677096D01*
X98001221Y-120674573D01*
X97997280Y-120671651D01*
X97993645Y-120668355D01*
X97990349Y-120664720D01*
X97987427Y-120660779D01*
X97984904Y-120656570D01*
X97982806Y-120652134D01*
X97981153Y-120647514D01*
X97979961Y-120642755D01*
X97979241Y-120637901D01*
X97979000Y-120633000D01*
X97979000Y-120533000D01*
X97979241Y-120528099D01*
X97979961Y-120523245D01*
X97981153Y-120518486D01*
X97982806Y-120513866D01*
X97984904Y-120509430D01*
X97987427Y-120505221D01*
X97990349Y-120501280D01*
X97993645Y-120497645D01*
X97997280Y-120494349D01*
X98001221Y-120491427D01*
X98005430Y-120488904D01*
X98009866Y-120486806D01*
X98014486Y-120485153D01*
X98019245Y-120483961D01*
X98024099Y-120483241D01*
X98029000Y-120483000D01*
X98804000Y-120483000D01*
X98808901Y-120483241D01*
G37*
G04 #@! TD.AperFunction*
G04 #@! TA.AperFunction,SMDPad,CuDef*
G36*
X99308901Y-120983241D02*
G01*
X99313755Y-120983961D01*
X99318514Y-120985153D01*
X99323134Y-120986806D01*
X99327570Y-120988904D01*
X99331779Y-120991427D01*
X99335720Y-120994349D01*
X99339355Y-120997645D01*
X99342651Y-121001280D01*
X99345573Y-121005221D01*
X99348096Y-121009430D01*
X99350194Y-121013866D01*
X99351847Y-121018486D01*
X99353039Y-121023245D01*
X99353759Y-121028099D01*
X99354000Y-121033000D01*
X99354000Y-121808000D01*
X99353759Y-121812901D01*
X99353039Y-121817755D01*
X99351847Y-121822514D01*
X99350194Y-121827134D01*
X99348096Y-121831570D01*
X99345573Y-121835779D01*
X99342651Y-121839720D01*
X99339355Y-121843355D01*
X99335720Y-121846651D01*
X99331779Y-121849573D01*
X99327570Y-121852096D01*
X99323134Y-121854194D01*
X99318514Y-121855847D01*
X99313755Y-121857039D01*
X99308901Y-121857759D01*
X99304000Y-121858000D01*
X99204000Y-121858000D01*
X99199099Y-121857759D01*
X99194245Y-121857039D01*
X99189486Y-121855847D01*
X99184866Y-121854194D01*
X99180430Y-121852096D01*
X99176221Y-121849573D01*
X99172280Y-121846651D01*
X99168645Y-121843355D01*
X99165349Y-121839720D01*
X99162427Y-121835779D01*
X99159904Y-121831570D01*
X99157806Y-121827134D01*
X99156153Y-121822514D01*
X99154961Y-121817755D01*
X99154241Y-121812901D01*
X99154000Y-121808000D01*
X99154000Y-121033000D01*
X99154241Y-121028099D01*
X99154961Y-121023245D01*
X99156153Y-121018486D01*
X99157806Y-121013866D01*
X99159904Y-121009430D01*
X99162427Y-121005221D01*
X99165349Y-121001280D01*
X99168645Y-120997645D01*
X99172280Y-120994349D01*
X99176221Y-120991427D01*
X99180430Y-120988904D01*
X99184866Y-120986806D01*
X99189486Y-120985153D01*
X99194245Y-120983961D01*
X99199099Y-120983241D01*
X99204000Y-120983000D01*
X99304000Y-120983000D01*
X99308901Y-120983241D01*
G37*
G04 #@! TD.AperFunction*
G04 #@! TA.AperFunction,SMDPad,CuDef*
G36*
X99708901Y-120983241D02*
G01*
X99713755Y-120983961D01*
X99718514Y-120985153D01*
X99723134Y-120986806D01*
X99727570Y-120988904D01*
X99731779Y-120991427D01*
X99735720Y-120994349D01*
X99739355Y-120997645D01*
X99742651Y-121001280D01*
X99745573Y-121005221D01*
X99748096Y-121009430D01*
X99750194Y-121013866D01*
X99751847Y-121018486D01*
X99753039Y-121023245D01*
X99753759Y-121028099D01*
X99754000Y-121033000D01*
X99754000Y-121808000D01*
X99753759Y-121812901D01*
X99753039Y-121817755D01*
X99751847Y-121822514D01*
X99750194Y-121827134D01*
X99748096Y-121831570D01*
X99745573Y-121835779D01*
X99742651Y-121839720D01*
X99739355Y-121843355D01*
X99735720Y-121846651D01*
X99731779Y-121849573D01*
X99727570Y-121852096D01*
X99723134Y-121854194D01*
X99718514Y-121855847D01*
X99713755Y-121857039D01*
X99708901Y-121857759D01*
X99704000Y-121858000D01*
X99604000Y-121858000D01*
X99599099Y-121857759D01*
X99594245Y-121857039D01*
X99589486Y-121855847D01*
X99584866Y-121854194D01*
X99580430Y-121852096D01*
X99576221Y-121849573D01*
X99572280Y-121846651D01*
X99568645Y-121843355D01*
X99565349Y-121839720D01*
X99562427Y-121835779D01*
X99559904Y-121831570D01*
X99557806Y-121827134D01*
X99556153Y-121822514D01*
X99554961Y-121817755D01*
X99554241Y-121812901D01*
X99554000Y-121808000D01*
X99554000Y-121033000D01*
X99554241Y-121028099D01*
X99554961Y-121023245D01*
X99556153Y-121018486D01*
X99557806Y-121013866D01*
X99559904Y-121009430D01*
X99562427Y-121005221D01*
X99565349Y-121001280D01*
X99568645Y-120997645D01*
X99572280Y-120994349D01*
X99576221Y-120991427D01*
X99580430Y-120988904D01*
X99584866Y-120986806D01*
X99589486Y-120985153D01*
X99594245Y-120983961D01*
X99599099Y-120983241D01*
X99604000Y-120983000D01*
X99704000Y-120983000D01*
X99708901Y-120983241D01*
G37*
G04 #@! TD.AperFunction*
G04 #@! TA.AperFunction,SMDPad,CuDef*
G36*
X100108901Y-120983241D02*
G01*
X100113755Y-120983961D01*
X100118514Y-120985153D01*
X100123134Y-120986806D01*
X100127570Y-120988904D01*
X100131779Y-120991427D01*
X100135720Y-120994349D01*
X100139355Y-120997645D01*
X100142651Y-121001280D01*
X100145573Y-121005221D01*
X100148096Y-121009430D01*
X100150194Y-121013866D01*
X100151847Y-121018486D01*
X100153039Y-121023245D01*
X100153759Y-121028099D01*
X100154000Y-121033000D01*
X100154000Y-121808000D01*
X100153759Y-121812901D01*
X100153039Y-121817755D01*
X100151847Y-121822514D01*
X100150194Y-121827134D01*
X100148096Y-121831570D01*
X100145573Y-121835779D01*
X100142651Y-121839720D01*
X100139355Y-121843355D01*
X100135720Y-121846651D01*
X100131779Y-121849573D01*
X100127570Y-121852096D01*
X100123134Y-121854194D01*
X100118514Y-121855847D01*
X100113755Y-121857039D01*
X100108901Y-121857759D01*
X100104000Y-121858000D01*
X100004000Y-121858000D01*
X99999099Y-121857759D01*
X99994245Y-121857039D01*
X99989486Y-121855847D01*
X99984866Y-121854194D01*
X99980430Y-121852096D01*
X99976221Y-121849573D01*
X99972280Y-121846651D01*
X99968645Y-121843355D01*
X99965349Y-121839720D01*
X99962427Y-121835779D01*
X99959904Y-121831570D01*
X99957806Y-121827134D01*
X99956153Y-121822514D01*
X99954961Y-121817755D01*
X99954241Y-121812901D01*
X99954000Y-121808000D01*
X99954000Y-121033000D01*
X99954241Y-121028099D01*
X99954961Y-121023245D01*
X99956153Y-121018486D01*
X99957806Y-121013866D01*
X99959904Y-121009430D01*
X99962427Y-121005221D01*
X99965349Y-121001280D01*
X99968645Y-120997645D01*
X99972280Y-120994349D01*
X99976221Y-120991427D01*
X99980430Y-120988904D01*
X99984866Y-120986806D01*
X99989486Y-120985153D01*
X99994245Y-120983961D01*
X99999099Y-120983241D01*
X100004000Y-120983000D01*
X100104000Y-120983000D01*
X100108901Y-120983241D01*
G37*
G04 #@! TD.AperFunction*
G04 #@! TA.AperFunction,SMDPad,CuDef*
G36*
X100508901Y-120983241D02*
G01*
X100513755Y-120983961D01*
X100518514Y-120985153D01*
X100523134Y-120986806D01*
X100527570Y-120988904D01*
X100531779Y-120991427D01*
X100535720Y-120994349D01*
X100539355Y-120997645D01*
X100542651Y-121001280D01*
X100545573Y-121005221D01*
X100548096Y-121009430D01*
X100550194Y-121013866D01*
X100551847Y-121018486D01*
X100553039Y-121023245D01*
X100553759Y-121028099D01*
X100554000Y-121033000D01*
X100554000Y-121808000D01*
X100553759Y-121812901D01*
X100553039Y-121817755D01*
X100551847Y-121822514D01*
X100550194Y-121827134D01*
X100548096Y-121831570D01*
X100545573Y-121835779D01*
X100542651Y-121839720D01*
X100539355Y-121843355D01*
X100535720Y-121846651D01*
X100531779Y-121849573D01*
X100527570Y-121852096D01*
X100523134Y-121854194D01*
X100518514Y-121855847D01*
X100513755Y-121857039D01*
X100508901Y-121857759D01*
X100504000Y-121858000D01*
X100404000Y-121858000D01*
X100399099Y-121857759D01*
X100394245Y-121857039D01*
X100389486Y-121855847D01*
X100384866Y-121854194D01*
X100380430Y-121852096D01*
X100376221Y-121849573D01*
X100372280Y-121846651D01*
X100368645Y-121843355D01*
X100365349Y-121839720D01*
X100362427Y-121835779D01*
X100359904Y-121831570D01*
X100357806Y-121827134D01*
X100356153Y-121822514D01*
X100354961Y-121817755D01*
X100354241Y-121812901D01*
X100354000Y-121808000D01*
X100354000Y-121033000D01*
X100354241Y-121028099D01*
X100354961Y-121023245D01*
X100356153Y-121018486D01*
X100357806Y-121013866D01*
X100359904Y-121009430D01*
X100362427Y-121005221D01*
X100365349Y-121001280D01*
X100368645Y-120997645D01*
X100372280Y-120994349D01*
X100376221Y-120991427D01*
X100380430Y-120988904D01*
X100384866Y-120986806D01*
X100389486Y-120985153D01*
X100394245Y-120983961D01*
X100399099Y-120983241D01*
X100404000Y-120983000D01*
X100504000Y-120983000D01*
X100508901Y-120983241D01*
G37*
G04 #@! TD.AperFunction*
G04 #@! TA.AperFunction,SMDPad,CuDef*
G36*
X100908901Y-120983241D02*
G01*
X100913755Y-120983961D01*
X100918514Y-120985153D01*
X100923134Y-120986806D01*
X100927570Y-120988904D01*
X100931779Y-120991427D01*
X100935720Y-120994349D01*
X100939355Y-120997645D01*
X100942651Y-121001280D01*
X100945573Y-121005221D01*
X100948096Y-121009430D01*
X100950194Y-121013866D01*
X100951847Y-121018486D01*
X100953039Y-121023245D01*
X100953759Y-121028099D01*
X100954000Y-121033000D01*
X100954000Y-121808000D01*
X100953759Y-121812901D01*
X100953039Y-121817755D01*
X100951847Y-121822514D01*
X100950194Y-121827134D01*
X100948096Y-121831570D01*
X100945573Y-121835779D01*
X100942651Y-121839720D01*
X100939355Y-121843355D01*
X100935720Y-121846651D01*
X100931779Y-121849573D01*
X100927570Y-121852096D01*
X100923134Y-121854194D01*
X100918514Y-121855847D01*
X100913755Y-121857039D01*
X100908901Y-121857759D01*
X100904000Y-121858000D01*
X100804000Y-121858000D01*
X100799099Y-121857759D01*
X100794245Y-121857039D01*
X100789486Y-121855847D01*
X100784866Y-121854194D01*
X100780430Y-121852096D01*
X100776221Y-121849573D01*
X100772280Y-121846651D01*
X100768645Y-121843355D01*
X100765349Y-121839720D01*
X100762427Y-121835779D01*
X100759904Y-121831570D01*
X100757806Y-121827134D01*
X100756153Y-121822514D01*
X100754961Y-121817755D01*
X100754241Y-121812901D01*
X100754000Y-121808000D01*
X100754000Y-121033000D01*
X100754241Y-121028099D01*
X100754961Y-121023245D01*
X100756153Y-121018486D01*
X100757806Y-121013866D01*
X100759904Y-121009430D01*
X100762427Y-121005221D01*
X100765349Y-121001280D01*
X100768645Y-120997645D01*
X100772280Y-120994349D01*
X100776221Y-120991427D01*
X100780430Y-120988904D01*
X100784866Y-120986806D01*
X100789486Y-120985153D01*
X100794245Y-120983961D01*
X100799099Y-120983241D01*
X100804000Y-120983000D01*
X100904000Y-120983000D01*
X100908901Y-120983241D01*
G37*
G04 #@! TD.AperFunction*
G04 #@! TA.AperFunction,SMDPad,CuDef*
G36*
X101308901Y-120983241D02*
G01*
X101313755Y-120983961D01*
X101318514Y-120985153D01*
X101323134Y-120986806D01*
X101327570Y-120988904D01*
X101331779Y-120991427D01*
X101335720Y-120994349D01*
X101339355Y-120997645D01*
X101342651Y-121001280D01*
X101345573Y-121005221D01*
X101348096Y-121009430D01*
X101350194Y-121013866D01*
X101351847Y-121018486D01*
X101353039Y-121023245D01*
X101353759Y-121028099D01*
X101354000Y-121033000D01*
X101354000Y-121808000D01*
X101353759Y-121812901D01*
X101353039Y-121817755D01*
X101351847Y-121822514D01*
X101350194Y-121827134D01*
X101348096Y-121831570D01*
X101345573Y-121835779D01*
X101342651Y-121839720D01*
X101339355Y-121843355D01*
X101335720Y-121846651D01*
X101331779Y-121849573D01*
X101327570Y-121852096D01*
X101323134Y-121854194D01*
X101318514Y-121855847D01*
X101313755Y-121857039D01*
X101308901Y-121857759D01*
X101304000Y-121858000D01*
X101204000Y-121858000D01*
X101199099Y-121857759D01*
X101194245Y-121857039D01*
X101189486Y-121855847D01*
X101184866Y-121854194D01*
X101180430Y-121852096D01*
X101176221Y-121849573D01*
X101172280Y-121846651D01*
X101168645Y-121843355D01*
X101165349Y-121839720D01*
X101162427Y-121835779D01*
X101159904Y-121831570D01*
X101157806Y-121827134D01*
X101156153Y-121822514D01*
X101154961Y-121817755D01*
X101154241Y-121812901D01*
X101154000Y-121808000D01*
X101154000Y-121033000D01*
X101154241Y-121028099D01*
X101154961Y-121023245D01*
X101156153Y-121018486D01*
X101157806Y-121013866D01*
X101159904Y-121009430D01*
X101162427Y-121005221D01*
X101165349Y-121001280D01*
X101168645Y-120997645D01*
X101172280Y-120994349D01*
X101176221Y-120991427D01*
X101180430Y-120988904D01*
X101184866Y-120986806D01*
X101189486Y-120985153D01*
X101194245Y-120983961D01*
X101199099Y-120983241D01*
X101204000Y-120983000D01*
X101304000Y-120983000D01*
X101308901Y-120983241D01*
G37*
G04 #@! TD.AperFunction*
G04 #@! TA.AperFunction,SMDPad,CuDef*
G36*
X101708901Y-120983241D02*
G01*
X101713755Y-120983961D01*
X101718514Y-120985153D01*
X101723134Y-120986806D01*
X101727570Y-120988904D01*
X101731779Y-120991427D01*
X101735720Y-120994349D01*
X101739355Y-120997645D01*
X101742651Y-121001280D01*
X101745573Y-121005221D01*
X101748096Y-121009430D01*
X101750194Y-121013866D01*
X101751847Y-121018486D01*
X101753039Y-121023245D01*
X101753759Y-121028099D01*
X101754000Y-121033000D01*
X101754000Y-121808000D01*
X101753759Y-121812901D01*
X101753039Y-121817755D01*
X101751847Y-121822514D01*
X101750194Y-121827134D01*
X101748096Y-121831570D01*
X101745573Y-121835779D01*
X101742651Y-121839720D01*
X101739355Y-121843355D01*
X101735720Y-121846651D01*
X101731779Y-121849573D01*
X101727570Y-121852096D01*
X101723134Y-121854194D01*
X101718514Y-121855847D01*
X101713755Y-121857039D01*
X101708901Y-121857759D01*
X101704000Y-121858000D01*
X101604000Y-121858000D01*
X101599099Y-121857759D01*
X101594245Y-121857039D01*
X101589486Y-121855847D01*
X101584866Y-121854194D01*
X101580430Y-121852096D01*
X101576221Y-121849573D01*
X101572280Y-121846651D01*
X101568645Y-121843355D01*
X101565349Y-121839720D01*
X101562427Y-121835779D01*
X101559904Y-121831570D01*
X101557806Y-121827134D01*
X101556153Y-121822514D01*
X101554961Y-121817755D01*
X101554241Y-121812901D01*
X101554000Y-121808000D01*
X101554000Y-121033000D01*
X101554241Y-121028099D01*
X101554961Y-121023245D01*
X101556153Y-121018486D01*
X101557806Y-121013866D01*
X101559904Y-121009430D01*
X101562427Y-121005221D01*
X101565349Y-121001280D01*
X101568645Y-120997645D01*
X101572280Y-120994349D01*
X101576221Y-120991427D01*
X101580430Y-120988904D01*
X101584866Y-120986806D01*
X101589486Y-120985153D01*
X101594245Y-120983961D01*
X101599099Y-120983241D01*
X101604000Y-120983000D01*
X101704000Y-120983000D01*
X101708901Y-120983241D01*
G37*
G04 #@! TD.AperFunction*
G04 #@! TA.AperFunction,SMDPad,CuDef*
G36*
X102108901Y-120983241D02*
G01*
X102113755Y-120983961D01*
X102118514Y-120985153D01*
X102123134Y-120986806D01*
X102127570Y-120988904D01*
X102131779Y-120991427D01*
X102135720Y-120994349D01*
X102139355Y-120997645D01*
X102142651Y-121001280D01*
X102145573Y-121005221D01*
X102148096Y-121009430D01*
X102150194Y-121013866D01*
X102151847Y-121018486D01*
X102153039Y-121023245D01*
X102153759Y-121028099D01*
X102154000Y-121033000D01*
X102154000Y-121808000D01*
X102153759Y-121812901D01*
X102153039Y-121817755D01*
X102151847Y-121822514D01*
X102150194Y-121827134D01*
X102148096Y-121831570D01*
X102145573Y-121835779D01*
X102142651Y-121839720D01*
X102139355Y-121843355D01*
X102135720Y-121846651D01*
X102131779Y-121849573D01*
X102127570Y-121852096D01*
X102123134Y-121854194D01*
X102118514Y-121855847D01*
X102113755Y-121857039D01*
X102108901Y-121857759D01*
X102104000Y-121858000D01*
X102004000Y-121858000D01*
X101999099Y-121857759D01*
X101994245Y-121857039D01*
X101989486Y-121855847D01*
X101984866Y-121854194D01*
X101980430Y-121852096D01*
X101976221Y-121849573D01*
X101972280Y-121846651D01*
X101968645Y-121843355D01*
X101965349Y-121839720D01*
X101962427Y-121835779D01*
X101959904Y-121831570D01*
X101957806Y-121827134D01*
X101956153Y-121822514D01*
X101954961Y-121817755D01*
X101954241Y-121812901D01*
X101954000Y-121808000D01*
X101954000Y-121033000D01*
X101954241Y-121028099D01*
X101954961Y-121023245D01*
X101956153Y-121018486D01*
X101957806Y-121013866D01*
X101959904Y-121009430D01*
X101962427Y-121005221D01*
X101965349Y-121001280D01*
X101968645Y-120997645D01*
X101972280Y-120994349D01*
X101976221Y-120991427D01*
X101980430Y-120988904D01*
X101984866Y-120986806D01*
X101989486Y-120985153D01*
X101994245Y-120983961D01*
X101999099Y-120983241D01*
X102004000Y-120983000D01*
X102104000Y-120983000D01*
X102108901Y-120983241D01*
G37*
G04 #@! TD.AperFunction*
G04 #@! TA.AperFunction,SMDPad,CuDef*
G36*
X102508901Y-120983241D02*
G01*
X102513755Y-120983961D01*
X102518514Y-120985153D01*
X102523134Y-120986806D01*
X102527570Y-120988904D01*
X102531779Y-120991427D01*
X102535720Y-120994349D01*
X102539355Y-120997645D01*
X102542651Y-121001280D01*
X102545573Y-121005221D01*
X102548096Y-121009430D01*
X102550194Y-121013866D01*
X102551847Y-121018486D01*
X102553039Y-121023245D01*
X102553759Y-121028099D01*
X102554000Y-121033000D01*
X102554000Y-121808000D01*
X102553759Y-121812901D01*
X102553039Y-121817755D01*
X102551847Y-121822514D01*
X102550194Y-121827134D01*
X102548096Y-121831570D01*
X102545573Y-121835779D01*
X102542651Y-121839720D01*
X102539355Y-121843355D01*
X102535720Y-121846651D01*
X102531779Y-121849573D01*
X102527570Y-121852096D01*
X102523134Y-121854194D01*
X102518514Y-121855847D01*
X102513755Y-121857039D01*
X102508901Y-121857759D01*
X102504000Y-121858000D01*
X102404000Y-121858000D01*
X102399099Y-121857759D01*
X102394245Y-121857039D01*
X102389486Y-121855847D01*
X102384866Y-121854194D01*
X102380430Y-121852096D01*
X102376221Y-121849573D01*
X102372280Y-121846651D01*
X102368645Y-121843355D01*
X102365349Y-121839720D01*
X102362427Y-121835779D01*
X102359904Y-121831570D01*
X102357806Y-121827134D01*
X102356153Y-121822514D01*
X102354961Y-121817755D01*
X102354241Y-121812901D01*
X102354000Y-121808000D01*
X102354000Y-121033000D01*
X102354241Y-121028099D01*
X102354961Y-121023245D01*
X102356153Y-121018486D01*
X102357806Y-121013866D01*
X102359904Y-121009430D01*
X102362427Y-121005221D01*
X102365349Y-121001280D01*
X102368645Y-120997645D01*
X102372280Y-120994349D01*
X102376221Y-120991427D01*
X102380430Y-120988904D01*
X102384866Y-120986806D01*
X102389486Y-120985153D01*
X102394245Y-120983961D01*
X102399099Y-120983241D01*
X102404000Y-120983000D01*
X102504000Y-120983000D01*
X102508901Y-120983241D01*
G37*
G04 #@! TD.AperFunction*
G04 #@! TA.AperFunction,SMDPad,CuDef*
G36*
X102908901Y-120983241D02*
G01*
X102913755Y-120983961D01*
X102918514Y-120985153D01*
X102923134Y-120986806D01*
X102927570Y-120988904D01*
X102931779Y-120991427D01*
X102935720Y-120994349D01*
X102939355Y-120997645D01*
X102942651Y-121001280D01*
X102945573Y-121005221D01*
X102948096Y-121009430D01*
X102950194Y-121013866D01*
X102951847Y-121018486D01*
X102953039Y-121023245D01*
X102953759Y-121028099D01*
X102954000Y-121033000D01*
X102954000Y-121808000D01*
X102953759Y-121812901D01*
X102953039Y-121817755D01*
X102951847Y-121822514D01*
X102950194Y-121827134D01*
X102948096Y-121831570D01*
X102945573Y-121835779D01*
X102942651Y-121839720D01*
X102939355Y-121843355D01*
X102935720Y-121846651D01*
X102931779Y-121849573D01*
X102927570Y-121852096D01*
X102923134Y-121854194D01*
X102918514Y-121855847D01*
X102913755Y-121857039D01*
X102908901Y-121857759D01*
X102904000Y-121858000D01*
X102804000Y-121858000D01*
X102799099Y-121857759D01*
X102794245Y-121857039D01*
X102789486Y-121855847D01*
X102784866Y-121854194D01*
X102780430Y-121852096D01*
X102776221Y-121849573D01*
X102772280Y-121846651D01*
X102768645Y-121843355D01*
X102765349Y-121839720D01*
X102762427Y-121835779D01*
X102759904Y-121831570D01*
X102757806Y-121827134D01*
X102756153Y-121822514D01*
X102754961Y-121817755D01*
X102754241Y-121812901D01*
X102754000Y-121808000D01*
X102754000Y-121033000D01*
X102754241Y-121028099D01*
X102754961Y-121023245D01*
X102756153Y-121018486D01*
X102757806Y-121013866D01*
X102759904Y-121009430D01*
X102762427Y-121005221D01*
X102765349Y-121001280D01*
X102768645Y-120997645D01*
X102772280Y-120994349D01*
X102776221Y-120991427D01*
X102780430Y-120988904D01*
X102784866Y-120986806D01*
X102789486Y-120985153D01*
X102794245Y-120983961D01*
X102799099Y-120983241D01*
X102804000Y-120983000D01*
X102904000Y-120983000D01*
X102908901Y-120983241D01*
G37*
G04 #@! TD.AperFunction*
G04 #@! TA.AperFunction,SMDPad,CuDef*
G36*
X103308901Y-120983241D02*
G01*
X103313755Y-120983961D01*
X103318514Y-120985153D01*
X103323134Y-120986806D01*
X103327570Y-120988904D01*
X103331779Y-120991427D01*
X103335720Y-120994349D01*
X103339355Y-120997645D01*
X103342651Y-121001280D01*
X103345573Y-121005221D01*
X103348096Y-121009430D01*
X103350194Y-121013866D01*
X103351847Y-121018486D01*
X103353039Y-121023245D01*
X103353759Y-121028099D01*
X103354000Y-121033000D01*
X103354000Y-121808000D01*
X103353759Y-121812901D01*
X103353039Y-121817755D01*
X103351847Y-121822514D01*
X103350194Y-121827134D01*
X103348096Y-121831570D01*
X103345573Y-121835779D01*
X103342651Y-121839720D01*
X103339355Y-121843355D01*
X103335720Y-121846651D01*
X103331779Y-121849573D01*
X103327570Y-121852096D01*
X103323134Y-121854194D01*
X103318514Y-121855847D01*
X103313755Y-121857039D01*
X103308901Y-121857759D01*
X103304000Y-121858000D01*
X103204000Y-121858000D01*
X103199099Y-121857759D01*
X103194245Y-121857039D01*
X103189486Y-121855847D01*
X103184866Y-121854194D01*
X103180430Y-121852096D01*
X103176221Y-121849573D01*
X103172280Y-121846651D01*
X103168645Y-121843355D01*
X103165349Y-121839720D01*
X103162427Y-121835779D01*
X103159904Y-121831570D01*
X103157806Y-121827134D01*
X103156153Y-121822514D01*
X103154961Y-121817755D01*
X103154241Y-121812901D01*
X103154000Y-121808000D01*
X103154000Y-121033000D01*
X103154241Y-121028099D01*
X103154961Y-121023245D01*
X103156153Y-121018486D01*
X103157806Y-121013866D01*
X103159904Y-121009430D01*
X103162427Y-121005221D01*
X103165349Y-121001280D01*
X103168645Y-120997645D01*
X103172280Y-120994349D01*
X103176221Y-120991427D01*
X103180430Y-120988904D01*
X103184866Y-120986806D01*
X103189486Y-120985153D01*
X103194245Y-120983961D01*
X103199099Y-120983241D01*
X103204000Y-120983000D01*
X103304000Y-120983000D01*
X103308901Y-120983241D01*
G37*
G04 #@! TD.AperFunction*
G04 #@! TA.AperFunction,SMDPad,CuDef*
G36*
X103708901Y-120983241D02*
G01*
X103713755Y-120983961D01*
X103718514Y-120985153D01*
X103723134Y-120986806D01*
X103727570Y-120988904D01*
X103731779Y-120991427D01*
X103735720Y-120994349D01*
X103739355Y-120997645D01*
X103742651Y-121001280D01*
X103745573Y-121005221D01*
X103748096Y-121009430D01*
X103750194Y-121013866D01*
X103751847Y-121018486D01*
X103753039Y-121023245D01*
X103753759Y-121028099D01*
X103754000Y-121033000D01*
X103754000Y-121808000D01*
X103753759Y-121812901D01*
X103753039Y-121817755D01*
X103751847Y-121822514D01*
X103750194Y-121827134D01*
X103748096Y-121831570D01*
X103745573Y-121835779D01*
X103742651Y-121839720D01*
X103739355Y-121843355D01*
X103735720Y-121846651D01*
X103731779Y-121849573D01*
X103727570Y-121852096D01*
X103723134Y-121854194D01*
X103718514Y-121855847D01*
X103713755Y-121857039D01*
X103708901Y-121857759D01*
X103704000Y-121858000D01*
X103604000Y-121858000D01*
X103599099Y-121857759D01*
X103594245Y-121857039D01*
X103589486Y-121855847D01*
X103584866Y-121854194D01*
X103580430Y-121852096D01*
X103576221Y-121849573D01*
X103572280Y-121846651D01*
X103568645Y-121843355D01*
X103565349Y-121839720D01*
X103562427Y-121835779D01*
X103559904Y-121831570D01*
X103557806Y-121827134D01*
X103556153Y-121822514D01*
X103554961Y-121817755D01*
X103554241Y-121812901D01*
X103554000Y-121808000D01*
X103554000Y-121033000D01*
X103554241Y-121028099D01*
X103554961Y-121023245D01*
X103556153Y-121018486D01*
X103557806Y-121013866D01*
X103559904Y-121009430D01*
X103562427Y-121005221D01*
X103565349Y-121001280D01*
X103568645Y-120997645D01*
X103572280Y-120994349D01*
X103576221Y-120991427D01*
X103580430Y-120988904D01*
X103584866Y-120986806D01*
X103589486Y-120985153D01*
X103594245Y-120983961D01*
X103599099Y-120983241D01*
X103604000Y-120983000D01*
X103704000Y-120983000D01*
X103708901Y-120983241D01*
G37*
G04 #@! TD.AperFunction*
G04 #@! TA.AperFunction,SMDPad,CuDef*
G36*
X104108901Y-120983241D02*
G01*
X104113755Y-120983961D01*
X104118514Y-120985153D01*
X104123134Y-120986806D01*
X104127570Y-120988904D01*
X104131779Y-120991427D01*
X104135720Y-120994349D01*
X104139355Y-120997645D01*
X104142651Y-121001280D01*
X104145573Y-121005221D01*
X104148096Y-121009430D01*
X104150194Y-121013866D01*
X104151847Y-121018486D01*
X104153039Y-121023245D01*
X104153759Y-121028099D01*
X104154000Y-121033000D01*
X104154000Y-121808000D01*
X104153759Y-121812901D01*
X104153039Y-121817755D01*
X104151847Y-121822514D01*
X104150194Y-121827134D01*
X104148096Y-121831570D01*
X104145573Y-121835779D01*
X104142651Y-121839720D01*
X104139355Y-121843355D01*
X104135720Y-121846651D01*
X104131779Y-121849573D01*
X104127570Y-121852096D01*
X104123134Y-121854194D01*
X104118514Y-121855847D01*
X104113755Y-121857039D01*
X104108901Y-121857759D01*
X104104000Y-121858000D01*
X104004000Y-121858000D01*
X103999099Y-121857759D01*
X103994245Y-121857039D01*
X103989486Y-121855847D01*
X103984866Y-121854194D01*
X103980430Y-121852096D01*
X103976221Y-121849573D01*
X103972280Y-121846651D01*
X103968645Y-121843355D01*
X103965349Y-121839720D01*
X103962427Y-121835779D01*
X103959904Y-121831570D01*
X103957806Y-121827134D01*
X103956153Y-121822514D01*
X103954961Y-121817755D01*
X103954241Y-121812901D01*
X103954000Y-121808000D01*
X103954000Y-121033000D01*
X103954241Y-121028099D01*
X103954961Y-121023245D01*
X103956153Y-121018486D01*
X103957806Y-121013866D01*
X103959904Y-121009430D01*
X103962427Y-121005221D01*
X103965349Y-121001280D01*
X103968645Y-120997645D01*
X103972280Y-120994349D01*
X103976221Y-120991427D01*
X103980430Y-120988904D01*
X103984866Y-120986806D01*
X103989486Y-120985153D01*
X103994245Y-120983961D01*
X103999099Y-120983241D01*
X104004000Y-120983000D01*
X104104000Y-120983000D01*
X104108901Y-120983241D01*
G37*
G04 #@! TD.AperFunction*
G04 #@! TA.AperFunction,SMDPad,CuDef*
G36*
X104508901Y-120983241D02*
G01*
X104513755Y-120983961D01*
X104518514Y-120985153D01*
X104523134Y-120986806D01*
X104527570Y-120988904D01*
X104531779Y-120991427D01*
X104535720Y-120994349D01*
X104539355Y-120997645D01*
X104542651Y-121001280D01*
X104545573Y-121005221D01*
X104548096Y-121009430D01*
X104550194Y-121013866D01*
X104551847Y-121018486D01*
X104553039Y-121023245D01*
X104553759Y-121028099D01*
X104554000Y-121033000D01*
X104554000Y-121808000D01*
X104553759Y-121812901D01*
X104553039Y-121817755D01*
X104551847Y-121822514D01*
X104550194Y-121827134D01*
X104548096Y-121831570D01*
X104545573Y-121835779D01*
X104542651Y-121839720D01*
X104539355Y-121843355D01*
X104535720Y-121846651D01*
X104531779Y-121849573D01*
X104527570Y-121852096D01*
X104523134Y-121854194D01*
X104518514Y-121855847D01*
X104513755Y-121857039D01*
X104508901Y-121857759D01*
X104504000Y-121858000D01*
X104404000Y-121858000D01*
X104399099Y-121857759D01*
X104394245Y-121857039D01*
X104389486Y-121855847D01*
X104384866Y-121854194D01*
X104380430Y-121852096D01*
X104376221Y-121849573D01*
X104372280Y-121846651D01*
X104368645Y-121843355D01*
X104365349Y-121839720D01*
X104362427Y-121835779D01*
X104359904Y-121831570D01*
X104357806Y-121827134D01*
X104356153Y-121822514D01*
X104354961Y-121817755D01*
X104354241Y-121812901D01*
X104354000Y-121808000D01*
X104354000Y-121033000D01*
X104354241Y-121028099D01*
X104354961Y-121023245D01*
X104356153Y-121018486D01*
X104357806Y-121013866D01*
X104359904Y-121009430D01*
X104362427Y-121005221D01*
X104365349Y-121001280D01*
X104368645Y-120997645D01*
X104372280Y-120994349D01*
X104376221Y-120991427D01*
X104380430Y-120988904D01*
X104384866Y-120986806D01*
X104389486Y-120985153D01*
X104394245Y-120983961D01*
X104399099Y-120983241D01*
X104404000Y-120983000D01*
X104504000Y-120983000D01*
X104508901Y-120983241D01*
G37*
G04 #@! TD.AperFunction*
G04 #@! TA.AperFunction,SMDPad,CuDef*
G36*
X107117722Y-121866674D02*
G01*
X107131313Y-121868690D01*
X107144640Y-121872028D01*
X107157576Y-121876657D01*
X107169996Y-121882531D01*
X107181780Y-121889594D01*
X107192815Y-121897779D01*
X107202995Y-121907005D01*
X107212221Y-121917185D01*
X107220406Y-121928220D01*
X107227469Y-121940004D01*
X107233343Y-121952424D01*
X107237972Y-121965360D01*
X107241310Y-121978687D01*
X107243326Y-121992278D01*
X107244000Y-122006000D01*
X107244000Y-122286000D01*
X107243326Y-122299722D01*
X107241310Y-122313313D01*
X107237972Y-122326640D01*
X107233343Y-122339576D01*
X107227469Y-122351996D01*
X107220406Y-122363780D01*
X107212221Y-122374815D01*
X107202995Y-122384995D01*
X107192815Y-122394221D01*
X107181780Y-122402406D01*
X107169996Y-122409469D01*
X107157576Y-122415343D01*
X107144640Y-122419972D01*
X107131313Y-122423310D01*
X107117722Y-122425326D01*
X107104000Y-122426000D01*
X106764000Y-122426000D01*
X106750278Y-122425326D01*
X106736687Y-122423310D01*
X106723360Y-122419972D01*
X106710424Y-122415343D01*
X106698004Y-122409469D01*
X106686220Y-122402406D01*
X106675185Y-122394221D01*
X106665005Y-122384995D01*
X106655779Y-122374815D01*
X106647594Y-122363780D01*
X106640531Y-122351996D01*
X106634657Y-122339576D01*
X106630028Y-122326640D01*
X106626690Y-122313313D01*
X106624674Y-122299722D01*
X106624000Y-122286000D01*
X106624000Y-122006000D01*
X106624674Y-121992278D01*
X106626690Y-121978687D01*
X106630028Y-121965360D01*
X106634657Y-121952424D01*
X106640531Y-121940004D01*
X106647594Y-121928220D01*
X106655779Y-121917185D01*
X106665005Y-121907005D01*
X106675185Y-121897779D01*
X106686220Y-121889594D01*
X106698004Y-121882531D01*
X106710424Y-121876657D01*
X106723360Y-121872028D01*
X106736687Y-121868690D01*
X106750278Y-121866674D01*
X106764000Y-121866000D01*
X107104000Y-121866000D01*
X107117722Y-121866674D01*
G37*
G04 #@! TD.AperFunction*
G04 #@! TA.AperFunction,SMDPad,CuDef*
G36*
X107117722Y-120906674D02*
G01*
X107131313Y-120908690D01*
X107144640Y-120912028D01*
X107157576Y-120916657D01*
X107169996Y-120922531D01*
X107181780Y-120929594D01*
X107192815Y-120937779D01*
X107202995Y-120947005D01*
X107212221Y-120957185D01*
X107220406Y-120968220D01*
X107227469Y-120980004D01*
X107233343Y-120992424D01*
X107237972Y-121005360D01*
X107241310Y-121018687D01*
X107243326Y-121032278D01*
X107244000Y-121046000D01*
X107244000Y-121326000D01*
X107243326Y-121339722D01*
X107241310Y-121353313D01*
X107237972Y-121366640D01*
X107233343Y-121379576D01*
X107227469Y-121391996D01*
X107220406Y-121403780D01*
X107212221Y-121414815D01*
X107202995Y-121424995D01*
X107192815Y-121434221D01*
X107181780Y-121442406D01*
X107169996Y-121449469D01*
X107157576Y-121455343D01*
X107144640Y-121459972D01*
X107131313Y-121463310D01*
X107117722Y-121465326D01*
X107104000Y-121466000D01*
X106764000Y-121466000D01*
X106750278Y-121465326D01*
X106736687Y-121463310D01*
X106723360Y-121459972D01*
X106710424Y-121455343D01*
X106698004Y-121449469D01*
X106686220Y-121442406D01*
X106675185Y-121434221D01*
X106665005Y-121424995D01*
X106655779Y-121414815D01*
X106647594Y-121403780D01*
X106640531Y-121391996D01*
X106634657Y-121379576D01*
X106630028Y-121366640D01*
X106626690Y-121353313D01*
X106624674Y-121339722D01*
X106624000Y-121326000D01*
X106624000Y-121046000D01*
X106624674Y-121032278D01*
X106626690Y-121018687D01*
X106630028Y-121005360D01*
X106634657Y-120992424D01*
X106640531Y-120980004D01*
X106647594Y-120968220D01*
X106655779Y-120957185D01*
X106665005Y-120947005D01*
X106675185Y-120937779D01*
X106686220Y-120929594D01*
X106698004Y-120922531D01*
X106710424Y-120916657D01*
X106723360Y-120912028D01*
X106736687Y-120908690D01*
X106750278Y-120906674D01*
X106764000Y-120906000D01*
X107104000Y-120906000D01*
X107117722Y-120906674D01*
G37*
G04 #@! TD.AperFunction*
G04 #@! TA.AperFunction,SMDPad,CuDef*
G36*
X97211722Y-122882674D02*
G01*
X97225313Y-122884690D01*
X97238640Y-122888028D01*
X97251576Y-122892657D01*
X97263996Y-122898531D01*
X97275780Y-122905594D01*
X97286815Y-122913779D01*
X97296995Y-122923005D01*
X97306221Y-122933185D01*
X97314406Y-122944220D01*
X97321469Y-122956004D01*
X97327343Y-122968424D01*
X97331972Y-122981360D01*
X97335310Y-122994687D01*
X97337326Y-123008278D01*
X97338000Y-123022000D01*
X97338000Y-123302000D01*
X97337326Y-123315722D01*
X97335310Y-123329313D01*
X97331972Y-123342640D01*
X97327343Y-123355576D01*
X97321469Y-123367996D01*
X97314406Y-123379780D01*
X97306221Y-123390815D01*
X97296995Y-123400995D01*
X97286815Y-123410221D01*
X97275780Y-123418406D01*
X97263996Y-123425469D01*
X97251576Y-123431343D01*
X97238640Y-123435972D01*
X97225313Y-123439310D01*
X97211722Y-123441326D01*
X97198000Y-123442000D01*
X96858000Y-123442000D01*
X96844278Y-123441326D01*
X96830687Y-123439310D01*
X96817360Y-123435972D01*
X96804424Y-123431343D01*
X96792004Y-123425469D01*
X96780220Y-123418406D01*
X96769185Y-123410221D01*
X96759005Y-123400995D01*
X96749779Y-123390815D01*
X96741594Y-123379780D01*
X96734531Y-123367996D01*
X96728657Y-123355576D01*
X96724028Y-123342640D01*
X96720690Y-123329313D01*
X96718674Y-123315722D01*
X96718000Y-123302000D01*
X96718000Y-123022000D01*
X96718674Y-123008278D01*
X96720690Y-122994687D01*
X96724028Y-122981360D01*
X96728657Y-122968424D01*
X96734531Y-122956004D01*
X96741594Y-122944220D01*
X96749779Y-122933185D01*
X96759005Y-122923005D01*
X96769185Y-122913779D01*
X96780220Y-122905594D01*
X96792004Y-122898531D01*
X96804424Y-122892657D01*
X96817360Y-122888028D01*
X96830687Y-122884690D01*
X96844278Y-122882674D01*
X96858000Y-122882000D01*
X97198000Y-122882000D01*
X97211722Y-122882674D01*
G37*
G04 #@! TD.AperFunction*
G04 #@! TA.AperFunction,SMDPad,CuDef*
G36*
X97211722Y-121922674D02*
G01*
X97225313Y-121924690D01*
X97238640Y-121928028D01*
X97251576Y-121932657D01*
X97263996Y-121938531D01*
X97275780Y-121945594D01*
X97286815Y-121953779D01*
X97296995Y-121963005D01*
X97306221Y-121973185D01*
X97314406Y-121984220D01*
X97321469Y-121996004D01*
X97327343Y-122008424D01*
X97331972Y-122021360D01*
X97335310Y-122034687D01*
X97337326Y-122048278D01*
X97338000Y-122062000D01*
X97338000Y-122342000D01*
X97337326Y-122355722D01*
X97335310Y-122369313D01*
X97331972Y-122382640D01*
X97327343Y-122395576D01*
X97321469Y-122407996D01*
X97314406Y-122419780D01*
X97306221Y-122430815D01*
X97296995Y-122440995D01*
X97286815Y-122450221D01*
X97275780Y-122458406D01*
X97263996Y-122465469D01*
X97251576Y-122471343D01*
X97238640Y-122475972D01*
X97225313Y-122479310D01*
X97211722Y-122481326D01*
X97198000Y-122482000D01*
X96858000Y-122482000D01*
X96844278Y-122481326D01*
X96830687Y-122479310D01*
X96817360Y-122475972D01*
X96804424Y-122471343D01*
X96792004Y-122465469D01*
X96780220Y-122458406D01*
X96769185Y-122450221D01*
X96759005Y-122440995D01*
X96749779Y-122430815D01*
X96741594Y-122419780D01*
X96734531Y-122407996D01*
X96728657Y-122395576D01*
X96724028Y-122382640D01*
X96720690Y-122369313D01*
X96718674Y-122355722D01*
X96718000Y-122342000D01*
X96718000Y-122062000D01*
X96718674Y-122048278D01*
X96720690Y-122034687D01*
X96724028Y-122021360D01*
X96728657Y-122008424D01*
X96734531Y-121996004D01*
X96741594Y-121984220D01*
X96749779Y-121973185D01*
X96759005Y-121963005D01*
X96769185Y-121953779D01*
X96780220Y-121945594D01*
X96792004Y-121938531D01*
X96804424Y-121932657D01*
X96817360Y-121928028D01*
X96830687Y-121924690D01*
X96844278Y-121922674D01*
X96858000Y-121922000D01*
X97198000Y-121922000D01*
X97211722Y-121922674D01*
G37*
G04 #@! TD.AperFunction*
G04 #@! TA.AperFunction,SMDPad,CuDef*
G36*
X101402722Y-123263674D02*
G01*
X101416313Y-123265690D01*
X101429640Y-123269028D01*
X101442576Y-123273657D01*
X101454996Y-123279531D01*
X101466780Y-123286594D01*
X101477815Y-123294779D01*
X101487995Y-123304005D01*
X101497221Y-123314185D01*
X101505406Y-123325220D01*
X101512469Y-123337004D01*
X101518343Y-123349424D01*
X101522972Y-123362360D01*
X101526310Y-123375687D01*
X101528326Y-123389278D01*
X101529000Y-123403000D01*
X101529000Y-123683000D01*
X101528326Y-123696722D01*
X101526310Y-123710313D01*
X101522972Y-123723640D01*
X101518343Y-123736576D01*
X101512469Y-123748996D01*
X101505406Y-123760780D01*
X101497221Y-123771815D01*
X101487995Y-123781995D01*
X101477815Y-123791221D01*
X101466780Y-123799406D01*
X101454996Y-123806469D01*
X101442576Y-123812343D01*
X101429640Y-123816972D01*
X101416313Y-123820310D01*
X101402722Y-123822326D01*
X101389000Y-123823000D01*
X101049000Y-123823000D01*
X101035278Y-123822326D01*
X101021687Y-123820310D01*
X101008360Y-123816972D01*
X100995424Y-123812343D01*
X100983004Y-123806469D01*
X100971220Y-123799406D01*
X100960185Y-123791221D01*
X100950005Y-123781995D01*
X100940779Y-123771815D01*
X100932594Y-123760780D01*
X100925531Y-123748996D01*
X100919657Y-123736576D01*
X100915028Y-123723640D01*
X100911690Y-123710313D01*
X100909674Y-123696722D01*
X100909000Y-123683000D01*
X100909000Y-123403000D01*
X100909674Y-123389278D01*
X100911690Y-123375687D01*
X100915028Y-123362360D01*
X100919657Y-123349424D01*
X100925531Y-123337004D01*
X100932594Y-123325220D01*
X100940779Y-123314185D01*
X100950005Y-123304005D01*
X100960185Y-123294779D01*
X100971220Y-123286594D01*
X100983004Y-123279531D01*
X100995424Y-123273657D01*
X101008360Y-123269028D01*
X101021687Y-123265690D01*
X101035278Y-123263674D01*
X101049000Y-123263000D01*
X101389000Y-123263000D01*
X101402722Y-123263674D01*
G37*
G04 #@! TD.AperFunction*
G04 #@! TA.AperFunction,SMDPad,CuDef*
G36*
X101402722Y-122303674D02*
G01*
X101416313Y-122305690D01*
X101429640Y-122309028D01*
X101442576Y-122313657D01*
X101454996Y-122319531D01*
X101466780Y-122326594D01*
X101477815Y-122334779D01*
X101487995Y-122344005D01*
X101497221Y-122354185D01*
X101505406Y-122365220D01*
X101512469Y-122377004D01*
X101518343Y-122389424D01*
X101522972Y-122402360D01*
X101526310Y-122415687D01*
X101528326Y-122429278D01*
X101529000Y-122443000D01*
X101529000Y-122723000D01*
X101528326Y-122736722D01*
X101526310Y-122750313D01*
X101522972Y-122763640D01*
X101518343Y-122776576D01*
X101512469Y-122788996D01*
X101505406Y-122800780D01*
X101497221Y-122811815D01*
X101487995Y-122821995D01*
X101477815Y-122831221D01*
X101466780Y-122839406D01*
X101454996Y-122846469D01*
X101442576Y-122852343D01*
X101429640Y-122856972D01*
X101416313Y-122860310D01*
X101402722Y-122862326D01*
X101389000Y-122863000D01*
X101049000Y-122863000D01*
X101035278Y-122862326D01*
X101021687Y-122860310D01*
X101008360Y-122856972D01*
X100995424Y-122852343D01*
X100983004Y-122846469D01*
X100971220Y-122839406D01*
X100960185Y-122831221D01*
X100950005Y-122821995D01*
X100940779Y-122811815D01*
X100932594Y-122800780D01*
X100925531Y-122788996D01*
X100919657Y-122776576D01*
X100915028Y-122763640D01*
X100911690Y-122750313D01*
X100909674Y-122736722D01*
X100909000Y-122723000D01*
X100909000Y-122443000D01*
X100909674Y-122429278D01*
X100911690Y-122415687D01*
X100915028Y-122402360D01*
X100919657Y-122389424D01*
X100925531Y-122377004D01*
X100932594Y-122365220D01*
X100940779Y-122354185D01*
X100950005Y-122344005D01*
X100960185Y-122334779D01*
X100971220Y-122326594D01*
X100983004Y-122319531D01*
X100995424Y-122313657D01*
X101008360Y-122309028D01*
X101021687Y-122305690D01*
X101035278Y-122303674D01*
X101049000Y-122303000D01*
X101389000Y-122303000D01*
X101402722Y-122303674D01*
G37*
G04 #@! TD.AperFunction*
G04 #@! TA.AperFunction,SMDPad,CuDef*
G36*
X97211722Y-119763674D02*
G01*
X97225313Y-119765690D01*
X97238640Y-119769028D01*
X97251576Y-119773657D01*
X97263996Y-119779531D01*
X97275780Y-119786594D01*
X97286815Y-119794779D01*
X97296995Y-119804005D01*
X97306221Y-119814185D01*
X97314406Y-119825220D01*
X97321469Y-119837004D01*
X97327343Y-119849424D01*
X97331972Y-119862360D01*
X97335310Y-119875687D01*
X97337326Y-119889278D01*
X97338000Y-119903000D01*
X97338000Y-120183000D01*
X97337326Y-120196722D01*
X97335310Y-120210313D01*
X97331972Y-120223640D01*
X97327343Y-120236576D01*
X97321469Y-120248996D01*
X97314406Y-120260780D01*
X97306221Y-120271815D01*
X97296995Y-120281995D01*
X97286815Y-120291221D01*
X97275780Y-120299406D01*
X97263996Y-120306469D01*
X97251576Y-120312343D01*
X97238640Y-120316972D01*
X97225313Y-120320310D01*
X97211722Y-120322326D01*
X97198000Y-120323000D01*
X96858000Y-120323000D01*
X96844278Y-120322326D01*
X96830687Y-120320310D01*
X96817360Y-120316972D01*
X96804424Y-120312343D01*
X96792004Y-120306469D01*
X96780220Y-120299406D01*
X96769185Y-120291221D01*
X96759005Y-120281995D01*
X96749779Y-120271815D01*
X96741594Y-120260780D01*
X96734531Y-120248996D01*
X96728657Y-120236576D01*
X96724028Y-120223640D01*
X96720690Y-120210313D01*
X96718674Y-120196722D01*
X96718000Y-120183000D01*
X96718000Y-119903000D01*
X96718674Y-119889278D01*
X96720690Y-119875687D01*
X96724028Y-119862360D01*
X96728657Y-119849424D01*
X96734531Y-119837004D01*
X96741594Y-119825220D01*
X96749779Y-119814185D01*
X96759005Y-119804005D01*
X96769185Y-119794779D01*
X96780220Y-119786594D01*
X96792004Y-119779531D01*
X96804424Y-119773657D01*
X96817360Y-119769028D01*
X96830687Y-119765690D01*
X96844278Y-119763674D01*
X96858000Y-119763000D01*
X97198000Y-119763000D01*
X97211722Y-119763674D01*
G37*
G04 #@! TD.AperFunction*
G04 #@! TA.AperFunction,SMDPad,CuDef*
G36*
X97211722Y-120723674D02*
G01*
X97225313Y-120725690D01*
X97238640Y-120729028D01*
X97251576Y-120733657D01*
X97263996Y-120739531D01*
X97275780Y-120746594D01*
X97286815Y-120754779D01*
X97296995Y-120764005D01*
X97306221Y-120774185D01*
X97314406Y-120785220D01*
X97321469Y-120797004D01*
X97327343Y-120809424D01*
X97331972Y-120822360D01*
X97335310Y-120835687D01*
X97337326Y-120849278D01*
X97338000Y-120863000D01*
X97338000Y-121143000D01*
X97337326Y-121156722D01*
X97335310Y-121170313D01*
X97331972Y-121183640D01*
X97327343Y-121196576D01*
X97321469Y-121208996D01*
X97314406Y-121220780D01*
X97306221Y-121231815D01*
X97296995Y-121241995D01*
X97286815Y-121251221D01*
X97275780Y-121259406D01*
X97263996Y-121266469D01*
X97251576Y-121272343D01*
X97238640Y-121276972D01*
X97225313Y-121280310D01*
X97211722Y-121282326D01*
X97198000Y-121283000D01*
X96858000Y-121283000D01*
X96844278Y-121282326D01*
X96830687Y-121280310D01*
X96817360Y-121276972D01*
X96804424Y-121272343D01*
X96792004Y-121266469D01*
X96780220Y-121259406D01*
X96769185Y-121251221D01*
X96759005Y-121241995D01*
X96749779Y-121231815D01*
X96741594Y-121220780D01*
X96734531Y-121208996D01*
X96728657Y-121196576D01*
X96724028Y-121183640D01*
X96720690Y-121170313D01*
X96718674Y-121156722D01*
X96718000Y-121143000D01*
X96718000Y-120863000D01*
X96718674Y-120849278D01*
X96720690Y-120835687D01*
X96724028Y-120822360D01*
X96728657Y-120809424D01*
X96734531Y-120797004D01*
X96741594Y-120785220D01*
X96749779Y-120774185D01*
X96759005Y-120764005D01*
X96769185Y-120754779D01*
X96780220Y-120746594D01*
X96792004Y-120739531D01*
X96804424Y-120733657D01*
X96817360Y-120729028D01*
X96830687Y-120725690D01*
X96844278Y-120723674D01*
X96858000Y-120723000D01*
X97198000Y-120723000D01*
X97211722Y-120723674D01*
G37*
G04 #@! TD.AperFunction*
G04 #@! TA.AperFunction,SMDPad,CuDef*
G36*
X97465722Y-117929674D02*
G01*
X97479313Y-117931690D01*
X97492640Y-117935028D01*
X97505576Y-117939657D01*
X97517996Y-117945531D01*
X97529780Y-117952594D01*
X97540815Y-117960779D01*
X97550995Y-117970005D01*
X97560221Y-117980185D01*
X97568406Y-117991220D01*
X97575469Y-118003004D01*
X97581343Y-118015424D01*
X97585972Y-118028360D01*
X97589310Y-118041687D01*
X97591326Y-118055278D01*
X97592000Y-118069000D01*
X97592000Y-118349000D01*
X97591326Y-118362722D01*
X97589310Y-118376313D01*
X97585972Y-118389640D01*
X97581343Y-118402576D01*
X97575469Y-118414996D01*
X97568406Y-118426780D01*
X97560221Y-118437815D01*
X97550995Y-118447995D01*
X97540815Y-118457221D01*
X97529780Y-118465406D01*
X97517996Y-118472469D01*
X97505576Y-118478343D01*
X97492640Y-118482972D01*
X97479313Y-118486310D01*
X97465722Y-118488326D01*
X97452000Y-118489000D01*
X97112000Y-118489000D01*
X97098278Y-118488326D01*
X97084687Y-118486310D01*
X97071360Y-118482972D01*
X97058424Y-118478343D01*
X97046004Y-118472469D01*
X97034220Y-118465406D01*
X97023185Y-118457221D01*
X97013005Y-118447995D01*
X97003779Y-118437815D01*
X96995594Y-118426780D01*
X96988531Y-118414996D01*
X96982657Y-118402576D01*
X96978028Y-118389640D01*
X96974690Y-118376313D01*
X96972674Y-118362722D01*
X96972000Y-118349000D01*
X96972000Y-118069000D01*
X96972674Y-118055278D01*
X96974690Y-118041687D01*
X96978028Y-118028360D01*
X96982657Y-118015424D01*
X96988531Y-118003004D01*
X96995594Y-117991220D01*
X97003779Y-117980185D01*
X97013005Y-117970005D01*
X97023185Y-117960779D01*
X97034220Y-117952594D01*
X97046004Y-117945531D01*
X97058424Y-117939657D01*
X97071360Y-117935028D01*
X97084687Y-117931690D01*
X97098278Y-117929674D01*
X97112000Y-117929000D01*
X97452000Y-117929000D01*
X97465722Y-117929674D01*
G37*
G04 #@! TD.AperFunction*
G04 #@! TA.AperFunction,SMDPad,CuDef*
G36*
X97465722Y-116969674D02*
G01*
X97479313Y-116971690D01*
X97492640Y-116975028D01*
X97505576Y-116979657D01*
X97517996Y-116985531D01*
X97529780Y-116992594D01*
X97540815Y-117000779D01*
X97550995Y-117010005D01*
X97560221Y-117020185D01*
X97568406Y-117031220D01*
X97575469Y-117043004D01*
X97581343Y-117055424D01*
X97585972Y-117068360D01*
X97589310Y-117081687D01*
X97591326Y-117095278D01*
X97592000Y-117109000D01*
X97592000Y-117389000D01*
X97591326Y-117402722D01*
X97589310Y-117416313D01*
X97585972Y-117429640D01*
X97581343Y-117442576D01*
X97575469Y-117454996D01*
X97568406Y-117466780D01*
X97560221Y-117477815D01*
X97550995Y-117487995D01*
X97540815Y-117497221D01*
X97529780Y-117505406D01*
X97517996Y-117512469D01*
X97505576Y-117518343D01*
X97492640Y-117522972D01*
X97479313Y-117526310D01*
X97465722Y-117528326D01*
X97452000Y-117529000D01*
X97112000Y-117529000D01*
X97098278Y-117528326D01*
X97084687Y-117526310D01*
X97071360Y-117522972D01*
X97058424Y-117518343D01*
X97046004Y-117512469D01*
X97034220Y-117505406D01*
X97023185Y-117497221D01*
X97013005Y-117487995D01*
X97003779Y-117477815D01*
X96995594Y-117466780D01*
X96988531Y-117454996D01*
X96982657Y-117442576D01*
X96978028Y-117429640D01*
X96974690Y-117416313D01*
X96972674Y-117402722D01*
X96972000Y-117389000D01*
X96972000Y-117109000D01*
X96972674Y-117095278D01*
X96974690Y-117081687D01*
X96978028Y-117068360D01*
X96982657Y-117055424D01*
X96988531Y-117043004D01*
X96995594Y-117031220D01*
X97003779Y-117020185D01*
X97013005Y-117010005D01*
X97023185Y-117000779D01*
X97034220Y-116992594D01*
X97046004Y-116985531D01*
X97058424Y-116979657D01*
X97071360Y-116975028D01*
X97084687Y-116971690D01*
X97098278Y-116969674D01*
X97112000Y-116969000D01*
X97452000Y-116969000D01*
X97465722Y-116969674D01*
G37*
G04 #@! TD.AperFunction*
G04 #@! TA.AperFunction,SMDPad,CuDef*
G36*
X102418722Y-123263674D02*
G01*
X102432313Y-123265690D01*
X102445640Y-123269028D01*
X102458576Y-123273657D01*
X102470996Y-123279531D01*
X102482780Y-123286594D01*
X102493815Y-123294779D01*
X102503995Y-123304005D01*
X102513221Y-123314185D01*
X102521406Y-123325220D01*
X102528469Y-123337004D01*
X102534343Y-123349424D01*
X102538972Y-123362360D01*
X102542310Y-123375687D01*
X102544326Y-123389278D01*
X102545000Y-123403000D01*
X102545000Y-123683000D01*
X102544326Y-123696722D01*
X102542310Y-123710313D01*
X102538972Y-123723640D01*
X102534343Y-123736576D01*
X102528469Y-123748996D01*
X102521406Y-123760780D01*
X102513221Y-123771815D01*
X102503995Y-123781995D01*
X102493815Y-123791221D01*
X102482780Y-123799406D01*
X102470996Y-123806469D01*
X102458576Y-123812343D01*
X102445640Y-123816972D01*
X102432313Y-123820310D01*
X102418722Y-123822326D01*
X102405000Y-123823000D01*
X102065000Y-123823000D01*
X102051278Y-123822326D01*
X102037687Y-123820310D01*
X102024360Y-123816972D01*
X102011424Y-123812343D01*
X101999004Y-123806469D01*
X101987220Y-123799406D01*
X101976185Y-123791221D01*
X101966005Y-123781995D01*
X101956779Y-123771815D01*
X101948594Y-123760780D01*
X101941531Y-123748996D01*
X101935657Y-123736576D01*
X101931028Y-123723640D01*
X101927690Y-123710313D01*
X101925674Y-123696722D01*
X101925000Y-123683000D01*
X101925000Y-123403000D01*
X101925674Y-123389278D01*
X101927690Y-123375687D01*
X101931028Y-123362360D01*
X101935657Y-123349424D01*
X101941531Y-123337004D01*
X101948594Y-123325220D01*
X101956779Y-123314185D01*
X101966005Y-123304005D01*
X101976185Y-123294779D01*
X101987220Y-123286594D01*
X101999004Y-123279531D01*
X102011424Y-123273657D01*
X102024360Y-123269028D01*
X102037687Y-123265690D01*
X102051278Y-123263674D01*
X102065000Y-123263000D01*
X102405000Y-123263000D01*
X102418722Y-123263674D01*
G37*
G04 #@! TD.AperFunction*
G04 #@! TA.AperFunction,SMDPad,CuDef*
G36*
X102418722Y-122303674D02*
G01*
X102432313Y-122305690D01*
X102445640Y-122309028D01*
X102458576Y-122313657D01*
X102470996Y-122319531D01*
X102482780Y-122326594D01*
X102493815Y-122334779D01*
X102503995Y-122344005D01*
X102513221Y-122354185D01*
X102521406Y-122365220D01*
X102528469Y-122377004D01*
X102534343Y-122389424D01*
X102538972Y-122402360D01*
X102542310Y-122415687D01*
X102544326Y-122429278D01*
X102545000Y-122443000D01*
X102545000Y-122723000D01*
X102544326Y-122736722D01*
X102542310Y-122750313D01*
X102538972Y-122763640D01*
X102534343Y-122776576D01*
X102528469Y-122788996D01*
X102521406Y-122800780D01*
X102513221Y-122811815D01*
X102503995Y-122821995D01*
X102493815Y-122831221D01*
X102482780Y-122839406D01*
X102470996Y-122846469D01*
X102458576Y-122852343D01*
X102445640Y-122856972D01*
X102432313Y-122860310D01*
X102418722Y-122862326D01*
X102405000Y-122863000D01*
X102065000Y-122863000D01*
X102051278Y-122862326D01*
X102037687Y-122860310D01*
X102024360Y-122856972D01*
X102011424Y-122852343D01*
X101999004Y-122846469D01*
X101987220Y-122839406D01*
X101976185Y-122831221D01*
X101966005Y-122821995D01*
X101956779Y-122811815D01*
X101948594Y-122800780D01*
X101941531Y-122788996D01*
X101935657Y-122776576D01*
X101931028Y-122763640D01*
X101927690Y-122750313D01*
X101925674Y-122736722D01*
X101925000Y-122723000D01*
X101925000Y-122443000D01*
X101925674Y-122429278D01*
X101927690Y-122415687D01*
X101931028Y-122402360D01*
X101935657Y-122389424D01*
X101941531Y-122377004D01*
X101948594Y-122365220D01*
X101956779Y-122354185D01*
X101966005Y-122344005D01*
X101976185Y-122334779D01*
X101987220Y-122326594D01*
X101999004Y-122319531D01*
X102011424Y-122313657D01*
X102024360Y-122309028D01*
X102037687Y-122305690D01*
X102051278Y-122303674D01*
X102065000Y-122303000D01*
X102405000Y-122303000D01*
X102418722Y-122303674D01*
G37*
G04 #@! TD.AperFunction*
D15*
X103251000Y-89347000D03*
X104140000Y-116078000D03*
X97028000Y-123162000D03*
X99852685Y-123748796D03*
X105156000Y-125730000D03*
X97028000Y-120015000D03*
X101727000Y-120023000D03*
X97790000Y-112903000D03*
X97282000Y-118237000D03*
X105765420Y-121090698D03*
X102616000Y-117695002D03*
X100838000Y-117884998D03*
X104521000Y-85979000D03*
X100330000Y-91313000D03*
X102754000Y-113342648D03*
X101092000Y-115951000D03*
X100683000Y-113284000D03*
X103251000Y-91247000D03*
X98635000Y-121920000D03*
X97028000Y-122202000D03*
X101981000Y-93086803D03*
X104140000Y-116939000D03*
X106172000Y-117094000D03*
X104394000Y-120523000D03*
X106680000Y-121031000D03*
X106903639Y-125019539D03*
X97282000Y-117221000D03*
X101349267Y-110944128D03*
X101254000Y-122548000D03*
X99802591Y-118764409D03*
X100076000Y-120523000D03*
X101854000Y-113256000D03*
X105835000Y-121920000D03*
X100330000Y-89474000D03*
X102508286Y-120387133D03*
X102616000Y-124333000D03*
X103251000Y-125730000D03*
X103632000Y-120523000D03*
X104013000Y-123063000D03*
X100584000Y-112395000D03*
X99348228Y-115401873D03*
X103483195Y-96012000D03*
X103378000Y-95377000D03*
X107144000Y-106426000D03*
X100584000Y-97782000D03*
X102683175Y-102362000D03*
X100076000Y-100322000D03*
X103083185Y-99822000D03*
X99441000Y-102870000D03*
X103483195Y-97282000D03*
X99187000Y-104902000D03*
X103883205Y-94742000D03*
X106743990Y-119507000D03*
X104383205Y-92586803D03*
X99441000Y-117983000D03*
X97917000Y-113919000D03*
X97917000Y-111506000D03*
X106807000Y-88138000D03*
D16*
X104027000Y-88571000D02*
X103251000Y-89347000D01*
X104027000Y-86766000D02*
X104027000Y-88571000D01*
X101820199Y-117983000D02*
X101767016Y-118036183D01*
X101854000Y-117983000D02*
X101820199Y-117983000D01*
D17*
X99187000Y-123543000D02*
X100203000Y-123543000D01*
X100203000Y-123543000D02*
X101219000Y-123543000D01*
X101219000Y-123543000D02*
X102235000Y-123543000D01*
X97409000Y-123543000D02*
X99187000Y-123543000D01*
X97028000Y-123162000D02*
X97409000Y-123543000D01*
D18*
X99646889Y-123543000D02*
X99852685Y-123748796D01*
X99187000Y-123543000D02*
X99646889Y-123543000D01*
X102235000Y-123543000D02*
X102334000Y-123543000D01*
X106934000Y-122174000D02*
X107061000Y-122301000D01*
X106934000Y-122146000D02*
X106934000Y-122174000D01*
X97028000Y-120043000D02*
X97028000Y-120015000D01*
X101727000Y-118110000D02*
X101854000Y-117983000D01*
X101727000Y-120023000D02*
X101727000Y-118110000D01*
D16*
X101727000Y-119710000D02*
X101727000Y-119922990D01*
X101854000Y-119583000D02*
X101727000Y-119710000D01*
X101854000Y-117983000D02*
X101854000Y-119583000D01*
D18*
X102854000Y-114545500D02*
X102854000Y-115173000D01*
X103759000Y-116078000D02*
X104140000Y-116078000D01*
X102854000Y-115173000D02*
X103759000Y-116078000D01*
X106934000Y-122226832D02*
X106991510Y-122284342D01*
X106934000Y-122146000D02*
X106934000Y-122226832D01*
X97282000Y-118209000D02*
X97282000Y-118237000D01*
X106820722Y-122146000D02*
X105765420Y-121090698D01*
X106934000Y-122146000D02*
X106820722Y-122146000D01*
X102328002Y-117983000D02*
X102616000Y-117695002D01*
X101854000Y-117983000D02*
X102328002Y-117983000D01*
X100936002Y-117983000D02*
X100838000Y-117884998D01*
X101854000Y-117983000D02*
X100936002Y-117983000D01*
D16*
X104027000Y-86473000D02*
X104521000Y-85979000D01*
X104027000Y-86766000D02*
X104027000Y-86473000D01*
D18*
X102454000Y-113642648D02*
X102754000Y-113342648D01*
X102454000Y-114545500D02*
X102454000Y-113642648D01*
X102454000Y-114545500D02*
X102454000Y-115351000D01*
X102454000Y-115351000D02*
X101762000Y-115351000D01*
X101291999Y-115751001D02*
X101092000Y-115951000D01*
X101723311Y-115319689D02*
X101291999Y-115751001D01*
X101730689Y-115319689D02*
X101723311Y-115319689D01*
X101762000Y-115351000D02*
X101730689Y-115319689D01*
X101254000Y-121420500D02*
X101254000Y-122548000D01*
X99254000Y-122516000D02*
X99187000Y-122583000D01*
X99254000Y-121420500D02*
X99254000Y-122516000D01*
X99654000Y-121420500D02*
X99254000Y-121420500D01*
D16*
X101727000Y-89723000D02*
X103251000Y-91247000D01*
X101727000Y-86766000D02*
X101727000Y-89723000D01*
D18*
X98416500Y-116983000D02*
X97548000Y-116983000D01*
X97448000Y-120583000D02*
X97028000Y-121003000D01*
X98416500Y-120583000D02*
X97448000Y-120583000D01*
X98416500Y-120583000D02*
X99254000Y-121420500D01*
X99134500Y-121420500D02*
X98635000Y-121920000D01*
X99254000Y-121420500D02*
X99134500Y-121420500D01*
D17*
X97028000Y-122202000D02*
X97028000Y-121003000D01*
X101960197Y-93066000D02*
X101981000Y-93086803D01*
X101727000Y-93066000D02*
X101960197Y-93066000D01*
D18*
X104184000Y-116983000D02*
X104140000Y-116939000D01*
X105291500Y-116983000D02*
X104184000Y-116983000D01*
X101654000Y-113796002D02*
X101183001Y-113325003D01*
X101654000Y-114545500D02*
X101654000Y-113796002D01*
X106061000Y-116983000D02*
X106172000Y-117094000D01*
X105291500Y-116983000D02*
X106061000Y-116983000D01*
X104454000Y-120583000D02*
X104394000Y-120523000D01*
X105291500Y-120583000D02*
X104454000Y-120583000D01*
X106835000Y-121186000D02*
X106680000Y-121031000D01*
X106934000Y-121186000D02*
X106835000Y-121186000D01*
D16*
X106934000Y-124989178D02*
X106903639Y-125019539D01*
X106934000Y-124051000D02*
X106934000Y-124989178D01*
D18*
X97282000Y-117249000D02*
X97282000Y-117221000D01*
X97548000Y-116983000D02*
X97282000Y-117221000D01*
X101183001Y-111110394D02*
X101349267Y-110944128D01*
X101183001Y-113325003D02*
X101183001Y-111110394D01*
X101654000Y-121420500D02*
X101254000Y-121420500D01*
X101219000Y-122583000D02*
X101254000Y-122548000D01*
D16*
X98635000Y-121241000D02*
X98425000Y-121031000D01*
X98635000Y-121920000D02*
X98635000Y-121241000D01*
D18*
X98416500Y-120583000D02*
X98425000Y-121031000D01*
D16*
X98353000Y-122202000D02*
X98635000Y-121920000D01*
X97028000Y-122202000D02*
X98353000Y-122202000D01*
X97718000Y-121003000D02*
X98635000Y-121920000D01*
X97028000Y-121003000D02*
X97718000Y-121003000D01*
X99187000Y-122472000D02*
X98635000Y-121920000D01*
X99187000Y-122583000D02*
X99187000Y-122472000D01*
D18*
X100054000Y-122434000D02*
X100054000Y-121420500D01*
X100203000Y-122583000D02*
X100054000Y-122434000D01*
X102054000Y-122402000D02*
X102235000Y-122583000D01*
X102054000Y-121420500D02*
X102054000Y-122402000D01*
X100054000Y-120545000D02*
X100054000Y-121420500D01*
X100076000Y-120523000D02*
X100054000Y-120545000D01*
X100076000Y-120523000D02*
X101854000Y-120523000D01*
X101854000Y-120523000D02*
X101981000Y-120523000D01*
X102054000Y-120596000D02*
X101981000Y-120523000D01*
X102054000Y-121420500D02*
X102054000Y-120596000D01*
X99949000Y-116348074D02*
X99949000Y-118618000D01*
X99991719Y-116305355D02*
X99949000Y-116348074D01*
X99991719Y-115716010D02*
X99991719Y-116305355D01*
X100024709Y-115683020D02*
X99991719Y-115716010D01*
X100522679Y-115683020D02*
X100024709Y-115683020D01*
X100800350Y-115405349D02*
X100522679Y-115683020D01*
X99949000Y-118618000D02*
X99802591Y-118764409D01*
X101002651Y-115405349D02*
X100800350Y-115405349D01*
X101254000Y-115154000D02*
X101002651Y-115405349D01*
X101254000Y-114545500D02*
X101254000Y-115154000D01*
X102054000Y-113456000D02*
X101854000Y-113256000D01*
X102054000Y-114545500D02*
X102054000Y-113456000D01*
X105335500Y-121420500D02*
X105835000Y-121920000D01*
X104454000Y-121420500D02*
X105335500Y-121420500D01*
X107033000Y-123091000D02*
X107061000Y-123063000D01*
X106934000Y-123091000D02*
X107033000Y-123091000D01*
X105835000Y-121992000D02*
X105835000Y-121920000D01*
X106934000Y-123091000D02*
X105835000Y-121992000D01*
D16*
X99427000Y-88571000D02*
X100330000Y-89474000D01*
X99427000Y-86766000D02*
X99427000Y-88571000D01*
D18*
X102454000Y-121420500D02*
X102454000Y-120441419D01*
X102454000Y-120441419D02*
X102508286Y-120387133D01*
X102854000Y-124095000D02*
X102616000Y-124333000D01*
X102854000Y-121420500D02*
X102854000Y-124095000D01*
X103254000Y-121420500D02*
X103254000Y-122558000D01*
X103254000Y-125727000D02*
X103251000Y-125730000D01*
X103254000Y-122558000D02*
X103254000Y-125727000D01*
X103654000Y-120545000D02*
X103632000Y-120523000D01*
X103654000Y-121420500D02*
X103654000Y-120545000D01*
X104054000Y-123022000D02*
X104013000Y-123063000D01*
X104054000Y-121420500D02*
X104054000Y-123022000D01*
X100384001Y-112594999D02*
X100584000Y-112395000D01*
X100182999Y-112796001D02*
X100384001Y-112594999D01*
X100182999Y-113524001D02*
X100182999Y-112796001D01*
X100442999Y-113784001D02*
X100182999Y-113524001D01*
X100703001Y-113784001D02*
X100442999Y-113784001D01*
X100854000Y-113935000D02*
X100703001Y-113784001D01*
X100854000Y-114545500D02*
X100854000Y-113935000D01*
X100454000Y-114545500D02*
X100454000Y-115186000D01*
X100356990Y-115283010D02*
X99859020Y-115283010D01*
X100454000Y-115186000D02*
X100356990Y-115283010D01*
X99826030Y-115316000D02*
X99441000Y-115316000D01*
X99859020Y-115283010D02*
X99826030Y-115316000D01*
X103583185Y-96111990D02*
X103483195Y-96012000D01*
X103505000Y-96774000D02*
X103583185Y-96695815D01*
X102983194Y-97041999D02*
X103251193Y-96774000D01*
X103183175Y-99127825D02*
X103183175Y-98365825D01*
X103116001Y-99194999D02*
X103183175Y-99127825D01*
X103183175Y-98365825D02*
X102983194Y-98165844D01*
X103654000Y-114545500D02*
X103654000Y-112959495D01*
X103654000Y-112959495D02*
X102383155Y-111688649D01*
X102383155Y-111688649D02*
X102383155Y-102870000D01*
X103251193Y-96774000D02*
X103505000Y-96774000D01*
X102183174Y-102670019D02*
X102183174Y-102121999D01*
X102383155Y-102870000D02*
X102183174Y-102670019D01*
X102983194Y-98165844D02*
X102983194Y-97041999D01*
X103116001Y-99321999D02*
X103116001Y-99194999D01*
X102183174Y-102121999D02*
X102451173Y-101854000D01*
X102451173Y-101854000D02*
X102743000Y-101854000D01*
X102743000Y-101854000D02*
X102783165Y-101813835D01*
X102783165Y-100261982D02*
X102583184Y-100062001D01*
X102583184Y-99581999D02*
X102843184Y-99321999D01*
X103583185Y-96695815D02*
X103583185Y-96111990D01*
X102583184Y-100062001D02*
X102583184Y-99581999D01*
X102783165Y-101813835D02*
X102783165Y-100261982D01*
X102843184Y-99321999D02*
X103116001Y-99321999D01*
X96661000Y-107428000D02*
X97895000Y-107428000D01*
X96464010Y-107624990D02*
X96661000Y-107428000D01*
X96464010Y-118999000D02*
X96464010Y-107624990D01*
X96848010Y-119383000D02*
X96464010Y-118999000D01*
X98416500Y-119383000D02*
X96848010Y-119383000D01*
X103254000Y-114545500D02*
X103254000Y-113125193D01*
X103254000Y-113125193D02*
X101983145Y-111854338D01*
X101983145Y-111854338D02*
X101983145Y-110998000D01*
X101983145Y-110998000D02*
X101983145Y-103124000D01*
X101983145Y-103035689D02*
X101783164Y-102835708D01*
X101983145Y-103124000D02*
X101983145Y-103035689D01*
X101783164Y-101956310D02*
X102017485Y-101721989D01*
X101783164Y-102835708D02*
X101783164Y-101956310D01*
X102017485Y-101721989D02*
X102285483Y-101453992D01*
X102183174Y-99416310D02*
X102677495Y-98921989D01*
X102183174Y-100227690D02*
X102183174Y-99416310D01*
X102285483Y-100329999D02*
X102183174Y-100227690D01*
X102285483Y-101453992D02*
X102285483Y-100329999D01*
X102754011Y-98921989D02*
X102783165Y-98892835D01*
X102677495Y-98921989D02*
X102754011Y-98921989D01*
X102783165Y-98531514D02*
X102583184Y-98331533D01*
X102783165Y-98892835D02*
X102783165Y-98531514D01*
X102583184Y-98331533D02*
X102583184Y-96876310D01*
X102583184Y-96876310D02*
X102851183Y-96608311D01*
X103095344Y-96364151D02*
X102983194Y-96252001D01*
X102851183Y-96608311D02*
X103095344Y-96364151D01*
X102983194Y-95771999D02*
X103243194Y-95511999D01*
X102983194Y-96252001D02*
X102983194Y-95771999D01*
X103243194Y-95511806D02*
X103378000Y-95377000D01*
X103243194Y-95511999D02*
X103243194Y-95511806D01*
X105291500Y-120183000D02*
X106948990Y-120183000D01*
X107020000Y-120183000D02*
X107243990Y-119959010D01*
X106948990Y-120183000D02*
X107020000Y-120183000D01*
X107243990Y-106326010D02*
X107144000Y-106426000D01*
X107243990Y-119959010D02*
X107243990Y-106326010D01*
X99654000Y-114545500D02*
X99654000Y-113071000D01*
X99654000Y-113071000D02*
X99654000Y-111847096D01*
X99654000Y-111847096D02*
X100203000Y-111298096D01*
X100203000Y-111298096D02*
X100203000Y-110744000D01*
X100203000Y-110617000D02*
X100195031Y-110609031D01*
X100203000Y-110744000D02*
X100203000Y-110617000D01*
X100195031Y-110609031D02*
X100195031Y-105969068D01*
X100487021Y-105677078D02*
X100487021Y-104330622D01*
X100195031Y-105969068D02*
X100487021Y-105677078D01*
X100487021Y-104330622D02*
X100476010Y-104319611D01*
X100476010Y-104319611D02*
X100476010Y-100661992D01*
X100584000Y-100554002D02*
X100584000Y-97782000D01*
X100476010Y-100661992D02*
X100584000Y-100554002D01*
X104054000Y-114545500D02*
X104054000Y-114005000D01*
X104054000Y-114005000D02*
X104828980Y-113230020D01*
X104828980Y-112829980D02*
X104724040Y-112725040D01*
X104828980Y-113230020D02*
X104828980Y-112829980D01*
X103985244Y-112725040D02*
X103505000Y-112244795D01*
X104724040Y-112725040D02*
X103985244Y-112725040D01*
X103505000Y-112244795D02*
X102783165Y-111522960D01*
X102783165Y-111522960D02*
X102783165Y-110617000D01*
X102783165Y-110617000D02*
X102783165Y-103759000D01*
X102783165Y-102461990D02*
X102683175Y-102362000D01*
X102783165Y-103759000D02*
X102783165Y-102461990D01*
X99254000Y-113859000D02*
X99254000Y-111681397D01*
X99254000Y-114545500D02*
X99254000Y-113859000D01*
X99254000Y-113859000D02*
X99254000Y-113097000D01*
X99254000Y-111681397D02*
X99795021Y-111140377D01*
X100087011Y-105511389D02*
X100087011Y-104496311D01*
X99795021Y-105803378D02*
X100087011Y-105511389D01*
X99795021Y-111140377D02*
X99795021Y-105803378D01*
X100076000Y-104485300D02*
X100076000Y-100322000D01*
X100087011Y-104496311D02*
X100076000Y-104485300D01*
X104454000Y-114545500D02*
X105110490Y-114545500D01*
X105110490Y-114545500D02*
X105228990Y-114427000D01*
X105228990Y-112340990D02*
X105213030Y-112325030D01*
X105228990Y-114427000D02*
X105228990Y-112340990D01*
X104150933Y-112325030D02*
X103183175Y-111357272D01*
X105213030Y-112325030D02*
X104150933Y-112325030D01*
X103183175Y-111357272D02*
X103183175Y-103748874D01*
X103183175Y-103748874D02*
X103183175Y-100203000D01*
X103183175Y-99921990D02*
X103083185Y-99822000D01*
X103183175Y-100203000D02*
X103183175Y-99921990D01*
X98516500Y-115283000D02*
X98516500Y-114843500D01*
X98416500Y-115383000D02*
X98516500Y-115283000D01*
X98516500Y-114843500D02*
X98853990Y-114506010D01*
X98853990Y-114506010D02*
X98853990Y-113157000D01*
X98853990Y-113157000D02*
X98853990Y-111515708D01*
X98853990Y-111515708D02*
X99395011Y-110974688D01*
X99395011Y-110974688D02*
X99395011Y-107061000D01*
X99687001Y-104661999D02*
X99419002Y-104394000D01*
X99687001Y-105345700D02*
X99687001Y-104661999D01*
X99395011Y-105637690D02*
X99687001Y-105345700D01*
X99395011Y-107061000D02*
X99395011Y-105637690D01*
X99419002Y-102891998D02*
X99441000Y-102870000D01*
X99419002Y-104394000D02*
X99419002Y-102891998D01*
X105291500Y-115383000D02*
X105291500Y-115272500D01*
X105291500Y-115272500D02*
X105629000Y-114935000D01*
X105629000Y-114935000D02*
X105629000Y-111925020D01*
X104316622Y-111925020D02*
X103583185Y-111191583D01*
X105629000Y-111925020D02*
X104316622Y-111925020D01*
X103583185Y-111191583D02*
X103583185Y-110617000D01*
X103583185Y-110617000D02*
X103583185Y-103583185D01*
X103583185Y-103583185D02*
X103583185Y-98298000D01*
X103583185Y-98298000D02*
X103583185Y-97917000D01*
X103583185Y-97381990D02*
X103483195Y-97282000D01*
X103583185Y-97917000D02*
X103583185Y-97381990D01*
X97678990Y-115188020D02*
X97884020Y-114982990D01*
X97678990Y-115585990D02*
X97678990Y-115188020D01*
X97876000Y-115783000D02*
X97678990Y-115585990D01*
X98416500Y-115783000D02*
X97876000Y-115783000D01*
X97884020Y-114982990D02*
X98116490Y-114982990D01*
X98116490Y-114677811D02*
X98367302Y-114427000D01*
X98116490Y-114982990D02*
X98116490Y-114677811D01*
X98367302Y-114427000D02*
X98453980Y-114340322D01*
X98453980Y-114340322D02*
X98453980Y-113157000D01*
X98453980Y-113157000D02*
X98453980Y-111350020D01*
X98995001Y-110808999D02*
X98995001Y-105472001D01*
X98453980Y-111350020D02*
X98995001Y-110808999D01*
X99187000Y-105280002D02*
X99187000Y-104902000D01*
X98995001Y-105472001D02*
X99187000Y-105280002D01*
X103983195Y-94841990D02*
X103883205Y-94742000D01*
X103983195Y-111025894D02*
X103983195Y-94841990D01*
X104482311Y-111525010D02*
X103983195Y-111025894D01*
X106029010Y-111525010D02*
X104482311Y-111525010D01*
X106029010Y-115712990D02*
X106029010Y-111525010D01*
X105959000Y-115783000D02*
X106029010Y-115712990D01*
X105291500Y-115783000D02*
X105959000Y-115783000D01*
X105291500Y-119783000D02*
X106785000Y-119783000D01*
X106785000Y-119783000D02*
X106843980Y-119724020D01*
X106785000Y-119548010D02*
X106743990Y-119507000D01*
X106785000Y-119783000D02*
X106785000Y-119548010D01*
X104383205Y-110860205D02*
X104383205Y-92586803D01*
X104648000Y-111125000D02*
X104383205Y-110860205D01*
X106329030Y-111125000D02*
X104648000Y-111125000D01*
X106429020Y-111224990D02*
X106329030Y-111125000D01*
X106429020Y-115878679D02*
X106429020Y-111224990D01*
X106124698Y-116183000D02*
X106429020Y-115878679D01*
X105291500Y-116183000D02*
X106124698Y-116183000D01*
X98416500Y-118983000D02*
X99076000Y-118983000D01*
X99302590Y-118756410D02*
X99302590Y-118248410D01*
X99076000Y-118983000D02*
X99302590Y-118756410D01*
X99441000Y-118110000D02*
X99441000Y-117983000D01*
X99302590Y-118248410D02*
X99441000Y-118110000D01*
X97289999Y-112133001D02*
X97917000Y-111506000D01*
X97289999Y-113291999D02*
X97289999Y-112133001D01*
X97917000Y-113919000D02*
X97289999Y-113291999D01*
X106290399Y-116583000D02*
X105291500Y-116583000D01*
X106829030Y-116044368D02*
X106290399Y-116583000D01*
X106843980Y-106897020D02*
X106829030Y-106911970D01*
X106643999Y-106185999D02*
X106643999Y-106666001D01*
X106643999Y-106666001D02*
X106843980Y-106865982D01*
X107243990Y-105586008D02*
X106643999Y-106185999D01*
X106843980Y-106865982D02*
X106843980Y-106897020D01*
X107243990Y-88574990D02*
X107243990Y-105586008D01*
X106829030Y-106911970D02*
X106829030Y-116044368D01*
X106807000Y-88138000D02*
X107243990Y-88574990D01*
M02*
