M48
; DRILL file {KiCad 5.1.5+dfsg1-2build2} date Sat 25 Feb 2023 19:10:49 GMT
; FORMAT={-:-/ absolute / inch / decimal}
; #@! TF.CreationDate,2023-02-25T19:10:49+00:00
; #@! TF.GenerationSoftware,Kicad,Pcbnew,5.1.5+dfsg1-2build2
; #@! TF.FileFunction,Plated,1,4,PTH
FMAT,2
INCH
T1C0.0118
T2C0.0315
%
G90
G05
T1
X3.82Y-4.725
X3.82Y-4.8111
X3.82Y-4.8489
X3.83Y-4.615
X3.83Y-4.655
X3.85Y-4.445
X3.855Y-4.39
X3.855Y-4.485
X3.8833Y-4.8
X3.905Y-4.13
X3.9113Y-4.5434
X3.915Y-4.05
X3.915Y-4.645
X3.9292Y-4.6758
X3.9312Y-4.872
X3.94Y-3.9497
X3.94Y-4.745
X3.95Y-3.5226
X3.95Y-3.595
X3.96Y-3.8497
X3.96Y-4.425
X3.9639Y-4.46
X3.97Y-4.6411
X3.98Y-4.565
X3.9864Y-4.8247
X3.9901Y-4.3679
X4.005Y-4.7253
X4.01Y-4.4589
X4.015Y-3.6648
X4.0358Y-4.7397
X4.04Y-4.6337
X4.04Y-4.895
X4.0426Y-4.03
X4.0454Y-4.4623
X4.0584Y-3.93
X4.065Y-3.5176
X4.065Y-3.5924
X4.065Y-4.95
X4.07Y-3.755
X4.0741Y-3.78
X4.0741Y-3.83
X4.08Y-4.745
X4.0899Y-3.73
X4.095Y-4.845
X4.1Y-4.57
X4.1Y-4.6039
X4.1096Y-3.6451
X4.11Y-4.745
X4.115Y-3.385
X4.14Y-4.95
X4.164Y-4.7674
X4.1667Y-4.8
X4.18Y-4.61
X4.2Y-4.765
X4.2025Y-4.705
X4.205Y-3.47
X4.2088Y-4.922
X4.2183Y-4.19
T2
X3.8541Y-3.5294
X3.8541Y-3.6294
X3.8541Y-3.7294
X3.8541Y-3.8294
X3.8541Y-3.9294
X3.8541Y-4.0294
X3.8541Y-4.1294
X3.8541Y-4.2294
X3.8541Y-4.3294
X4.1541Y-3.5294
X4.1541Y-3.6294
X4.1541Y-3.7294
X4.1541Y-3.8294
X4.1541Y-3.9294
X4.1541Y-4.0294
X4.1541Y-4.1294
X4.1541Y-4.2294
X4.1541Y-4.3294
T0
M30
