G04 #@! TF.GenerationSoftware,KiCad,Pcbnew,5.1.5+dfsg1-2build2*
G04 #@! TF.CreationDate,2023-02-25T19:10:51+00:00*
G04 #@! TF.ProjectId,video-ram-replacement,76696465-6f2d-4726-916d-2d7265706c61,rev?*
G04 #@! TF.SameCoordinates,Original*
G04 #@! TF.FileFunction,Soldermask,Bot*
G04 #@! TF.FilePolarity,Negative*
%FSLAX46Y46*%
G04 Gerber Fmt 4.6, Leading zero omitted, Abs format (unit mm)*
G04 Created by KiCad (PCBNEW 5.1.5+dfsg1-2build2) date 2023-02-25 19:10:51*
%MOMM*%
%LPD*%
G04 APERTURE LIST*
%ADD10C,0.150000*%
G04 APERTURE END LIST*
D10*
G36*
X106594928Y-125381764D02*
G01*
X106616009Y-125388160D01*
X106635445Y-125398548D01*
X106652476Y-125412524D01*
X106666452Y-125429555D01*
X106676840Y-125448991D01*
X106683236Y-125470072D01*
X106686000Y-125498140D01*
X106686000Y-125961860D01*
X106683236Y-125989928D01*
X106676840Y-126011009D01*
X106666452Y-126030445D01*
X106652476Y-126047476D01*
X106635445Y-126061452D01*
X106616009Y-126071840D01*
X106594928Y-126078236D01*
X106566860Y-126081000D01*
X105103140Y-126081000D01*
X105075072Y-126078236D01*
X105053991Y-126071840D01*
X105034555Y-126061452D01*
X105017524Y-126047476D01*
X105003548Y-126030445D01*
X104993160Y-126011009D01*
X104986764Y-125989928D01*
X104984000Y-125961860D01*
X104984000Y-125498140D01*
X104986764Y-125470072D01*
X104993160Y-125448991D01*
X105003548Y-125429555D01*
X105017524Y-125412524D01*
X105034555Y-125398548D01*
X105053991Y-125388160D01*
X105075072Y-125381764D01*
X105103140Y-125379000D01*
X106566860Y-125379000D01*
X106594928Y-125381764D01*
G37*
G36*
X99394928Y-125381764D02*
G01*
X99416009Y-125388160D01*
X99435445Y-125398548D01*
X99452476Y-125412524D01*
X99466452Y-125429555D01*
X99476840Y-125448991D01*
X99483236Y-125470072D01*
X99486000Y-125498140D01*
X99486000Y-125961860D01*
X99483236Y-125989928D01*
X99476840Y-126011009D01*
X99466452Y-126030445D01*
X99452476Y-126047476D01*
X99435445Y-126061452D01*
X99416009Y-126071840D01*
X99394928Y-126078236D01*
X99366860Y-126081000D01*
X97903140Y-126081000D01*
X97875072Y-126078236D01*
X97853991Y-126071840D01*
X97834555Y-126061452D01*
X97817524Y-126047476D01*
X97803548Y-126030445D01*
X97793160Y-126011009D01*
X97786764Y-125989928D01*
X97784000Y-125961860D01*
X97784000Y-125498140D01*
X97786764Y-125470072D01*
X97793160Y-125448991D01*
X97803548Y-125429555D01*
X97817524Y-125412524D01*
X97834555Y-125398548D01*
X97853991Y-125388160D01*
X97875072Y-125381764D01*
X97903140Y-125379000D01*
X99366860Y-125379000D01*
X99394928Y-125381764D01*
G37*
G36*
X106594928Y-124111764D02*
G01*
X106616009Y-124118160D01*
X106635445Y-124128548D01*
X106652476Y-124142524D01*
X106666452Y-124159555D01*
X106676840Y-124178991D01*
X106683236Y-124200072D01*
X106686000Y-124228140D01*
X106686000Y-124691860D01*
X106683236Y-124719928D01*
X106676840Y-124741009D01*
X106666452Y-124760445D01*
X106652476Y-124777476D01*
X106635445Y-124791452D01*
X106616009Y-124801840D01*
X106594928Y-124808236D01*
X106566860Y-124811000D01*
X105103140Y-124811000D01*
X105075072Y-124808236D01*
X105053991Y-124801840D01*
X105034555Y-124791452D01*
X105017524Y-124777476D01*
X105003548Y-124760445D01*
X104993160Y-124741009D01*
X104986764Y-124719928D01*
X104984000Y-124691860D01*
X104984000Y-124228140D01*
X104986764Y-124200072D01*
X104993160Y-124178991D01*
X105003548Y-124159555D01*
X105017524Y-124142524D01*
X105034555Y-124128548D01*
X105053991Y-124118160D01*
X105075072Y-124111764D01*
X105103140Y-124109000D01*
X106566860Y-124109000D01*
X106594928Y-124111764D01*
G37*
G36*
X99394928Y-124111764D02*
G01*
X99416009Y-124118160D01*
X99435445Y-124128548D01*
X99452476Y-124142524D01*
X99466452Y-124159555D01*
X99476840Y-124178991D01*
X99483236Y-124200072D01*
X99486000Y-124228140D01*
X99486000Y-124691860D01*
X99483236Y-124719928D01*
X99476840Y-124741009D01*
X99466452Y-124760445D01*
X99452476Y-124777476D01*
X99435445Y-124791452D01*
X99416009Y-124801840D01*
X99394928Y-124808236D01*
X99366860Y-124811000D01*
X97903140Y-124811000D01*
X97875072Y-124808236D01*
X97853991Y-124801840D01*
X97834555Y-124791452D01*
X97817524Y-124777476D01*
X97803548Y-124760445D01*
X97793160Y-124741009D01*
X97786764Y-124719928D01*
X97784000Y-124691860D01*
X97784000Y-124228140D01*
X97786764Y-124200072D01*
X97793160Y-124178991D01*
X97803548Y-124159555D01*
X97817524Y-124142524D01*
X97834555Y-124128548D01*
X97853991Y-124118160D01*
X97875072Y-124111764D01*
X97903140Y-124109000D01*
X99366860Y-124109000D01*
X99394928Y-124111764D01*
G37*
G36*
X99394928Y-122841764D02*
G01*
X99416009Y-122848160D01*
X99435445Y-122858548D01*
X99452476Y-122872524D01*
X99466452Y-122889555D01*
X99476840Y-122908991D01*
X99483236Y-122930072D01*
X99486000Y-122958140D01*
X99486000Y-123421860D01*
X99483236Y-123449928D01*
X99476840Y-123471009D01*
X99466452Y-123490445D01*
X99452476Y-123507476D01*
X99435445Y-123521452D01*
X99416009Y-123531840D01*
X99394928Y-123538236D01*
X99366860Y-123541000D01*
X97903140Y-123541000D01*
X97875072Y-123538236D01*
X97853991Y-123531840D01*
X97834555Y-123521452D01*
X97817524Y-123507476D01*
X97803548Y-123490445D01*
X97793160Y-123471009D01*
X97786764Y-123449928D01*
X97784000Y-123421860D01*
X97784000Y-122958140D01*
X97786764Y-122930072D01*
X97793160Y-122908991D01*
X97803548Y-122889555D01*
X97817524Y-122872524D01*
X97834555Y-122858548D01*
X97853991Y-122848160D01*
X97875072Y-122841764D01*
X97903140Y-122839000D01*
X99366860Y-122839000D01*
X99394928Y-122841764D01*
G37*
G36*
X106594928Y-122841764D02*
G01*
X106616009Y-122848160D01*
X106635445Y-122858548D01*
X106652476Y-122872524D01*
X106666452Y-122889555D01*
X106676840Y-122908991D01*
X106683236Y-122930072D01*
X106686000Y-122958140D01*
X106686000Y-123421860D01*
X106683236Y-123449928D01*
X106676840Y-123471009D01*
X106666452Y-123490445D01*
X106652476Y-123507476D01*
X106635445Y-123521452D01*
X106616009Y-123531840D01*
X106594928Y-123538236D01*
X106566860Y-123541000D01*
X105103140Y-123541000D01*
X105075072Y-123538236D01*
X105053991Y-123531840D01*
X105034555Y-123521452D01*
X105017524Y-123507476D01*
X105003548Y-123490445D01*
X104993160Y-123471009D01*
X104986764Y-123449928D01*
X104984000Y-123421860D01*
X104984000Y-122958140D01*
X104986764Y-122930072D01*
X104993160Y-122908991D01*
X105003548Y-122889555D01*
X105017524Y-122872524D01*
X105034555Y-122858548D01*
X105053991Y-122848160D01*
X105075072Y-122841764D01*
X105103140Y-122839000D01*
X106566860Y-122839000D01*
X106594928Y-122841764D01*
G37*
G36*
X106594928Y-121571764D02*
G01*
X106616009Y-121578160D01*
X106635445Y-121588548D01*
X106652476Y-121602524D01*
X106666452Y-121619555D01*
X106676840Y-121638991D01*
X106683236Y-121660072D01*
X106686000Y-121688140D01*
X106686000Y-122151860D01*
X106683236Y-122179928D01*
X106676840Y-122201009D01*
X106666452Y-122220445D01*
X106652476Y-122237476D01*
X106635445Y-122251452D01*
X106616009Y-122261840D01*
X106594928Y-122268236D01*
X106566860Y-122271000D01*
X105103140Y-122271000D01*
X105075072Y-122268236D01*
X105053991Y-122261840D01*
X105034555Y-122251452D01*
X105017524Y-122237476D01*
X105003548Y-122220445D01*
X104993160Y-122201009D01*
X104986764Y-122179928D01*
X104984000Y-122151860D01*
X104984000Y-121688140D01*
X104986764Y-121660072D01*
X104993160Y-121638991D01*
X105003548Y-121619555D01*
X105017524Y-121602524D01*
X105034555Y-121588548D01*
X105053991Y-121578160D01*
X105075072Y-121571764D01*
X105103140Y-121569000D01*
X106566860Y-121569000D01*
X106594928Y-121571764D01*
G37*
G36*
X99394928Y-121571764D02*
G01*
X99416009Y-121578160D01*
X99435445Y-121588548D01*
X99452476Y-121602524D01*
X99466452Y-121619555D01*
X99476840Y-121638991D01*
X99483236Y-121660072D01*
X99486000Y-121688140D01*
X99486000Y-122151860D01*
X99483236Y-122179928D01*
X99476840Y-122201009D01*
X99466452Y-122220445D01*
X99452476Y-122237476D01*
X99435445Y-122251452D01*
X99416009Y-122261840D01*
X99394928Y-122268236D01*
X99366860Y-122271000D01*
X97903140Y-122271000D01*
X97875072Y-122268236D01*
X97853991Y-122261840D01*
X97834555Y-122251452D01*
X97817524Y-122237476D01*
X97803548Y-122220445D01*
X97793160Y-122201009D01*
X97786764Y-122179928D01*
X97784000Y-122151860D01*
X97784000Y-121688140D01*
X97786764Y-121660072D01*
X97793160Y-121638991D01*
X97803548Y-121619555D01*
X97817524Y-121602524D01*
X97834555Y-121588548D01*
X97853991Y-121578160D01*
X97875072Y-121571764D01*
X97903140Y-121569000D01*
X99366860Y-121569000D01*
X99394928Y-121571764D01*
G37*
G36*
X101311976Y-119910572D02*
G01*
X101331181Y-119916398D01*
X101348893Y-119925865D01*
X101364405Y-119938595D01*
X101377135Y-119954107D01*
X101386602Y-119971819D01*
X101392428Y-119991024D01*
X101395000Y-120017140D01*
X101395000Y-120520860D01*
X101392428Y-120546976D01*
X101386602Y-120566181D01*
X101377135Y-120583893D01*
X101364405Y-120599405D01*
X101348893Y-120612135D01*
X101331181Y-120621602D01*
X101311976Y-120627428D01*
X101285860Y-120630000D01*
X100842140Y-120630000D01*
X100816024Y-120627428D01*
X100796819Y-120621602D01*
X100779107Y-120612135D01*
X100763595Y-120599405D01*
X100750865Y-120583893D01*
X100741398Y-120566181D01*
X100735572Y-120546976D01*
X100733000Y-120520860D01*
X100733000Y-120017140D01*
X100735572Y-119991024D01*
X100741398Y-119971819D01*
X100750865Y-119954107D01*
X100763595Y-119938595D01*
X100779107Y-119925865D01*
X100796819Y-119916398D01*
X100816024Y-119910572D01*
X100842140Y-119908000D01*
X101285860Y-119908000D01*
X101311976Y-119910572D01*
G37*
G36*
X100351976Y-119910572D02*
G01*
X100371181Y-119916398D01*
X100388893Y-119925865D01*
X100404405Y-119938595D01*
X100417135Y-119954107D01*
X100426602Y-119971819D01*
X100432428Y-119991024D01*
X100435000Y-120017140D01*
X100435000Y-120520860D01*
X100432428Y-120546976D01*
X100426602Y-120566181D01*
X100417135Y-120583893D01*
X100404405Y-120599405D01*
X100388893Y-120612135D01*
X100371181Y-120621602D01*
X100351976Y-120627428D01*
X100325860Y-120630000D01*
X99882140Y-120630000D01*
X99856024Y-120627428D01*
X99836819Y-120621602D01*
X99819107Y-120612135D01*
X99803595Y-120599405D01*
X99790865Y-120583893D01*
X99781398Y-120566181D01*
X99775572Y-120546976D01*
X99773000Y-120520860D01*
X99773000Y-120017140D01*
X99775572Y-119991024D01*
X99781398Y-119971819D01*
X99790865Y-119954107D01*
X99803595Y-119938595D01*
X99819107Y-119925865D01*
X99836819Y-119916398D01*
X99856024Y-119910572D01*
X99882140Y-119908000D01*
X100325860Y-119908000D01*
X100351976Y-119910572D01*
G37*
G36*
X103223000Y-119646000D02*
G01*
X102021000Y-119646000D01*
X102021000Y-118244000D01*
X103223000Y-118244000D01*
X103223000Y-119646000D01*
G37*
G36*
X101423000Y-119636000D02*
G01*
X100221000Y-119636000D01*
X100221000Y-118234000D01*
X101423000Y-118234000D01*
X101423000Y-119636000D01*
G37*
G36*
X103223000Y-117346000D02*
G01*
X102021000Y-117346000D01*
X102021000Y-115944000D01*
X103223000Y-115944000D01*
X103223000Y-117346000D01*
G37*
G36*
X101433000Y-117336000D02*
G01*
X100231000Y-117336000D01*
X100231000Y-115934000D01*
X101433000Y-115934000D01*
X101433000Y-117336000D01*
G37*
G36*
X104417976Y-116610572D02*
G01*
X104437181Y-116616398D01*
X104454893Y-116625865D01*
X104470405Y-116638595D01*
X104483135Y-116654107D01*
X104492602Y-116671819D01*
X104498428Y-116691024D01*
X104501000Y-116717140D01*
X104501000Y-117160860D01*
X104498428Y-117186976D01*
X104492602Y-117206181D01*
X104483135Y-117223893D01*
X104470405Y-117239405D01*
X104454893Y-117252135D01*
X104437181Y-117261602D01*
X104417976Y-117267428D01*
X104391860Y-117270000D01*
X103888140Y-117270000D01*
X103862024Y-117267428D01*
X103842819Y-117261602D01*
X103825107Y-117252135D01*
X103809595Y-117239405D01*
X103796865Y-117223893D01*
X103787398Y-117206181D01*
X103781572Y-117186976D01*
X103779000Y-117160860D01*
X103779000Y-116717140D01*
X103781572Y-116691024D01*
X103787398Y-116671819D01*
X103796865Y-116654107D01*
X103809595Y-116638595D01*
X103825107Y-116625865D01*
X103842819Y-116616398D01*
X103862024Y-116610572D01*
X103888140Y-116608000D01*
X104391860Y-116608000D01*
X104417976Y-116610572D01*
G37*
G36*
X97153434Y-114269686D02*
G01*
X97193284Y-114281774D01*
X97229999Y-114301399D01*
X97262186Y-114327814D01*
X97288601Y-114360001D01*
X97308226Y-114396716D01*
X97320314Y-114436566D01*
X97325000Y-114484141D01*
X97325000Y-116147859D01*
X97320314Y-116195434D01*
X97308226Y-116235284D01*
X97288601Y-116271999D01*
X97262186Y-116304186D01*
X97229999Y-116330601D01*
X97193284Y-116350226D01*
X97153434Y-116362314D01*
X97105859Y-116367000D01*
X96442141Y-116367000D01*
X96394566Y-116362314D01*
X96354716Y-116350226D01*
X96318001Y-116330601D01*
X96285814Y-116304186D01*
X96259399Y-116271999D01*
X96239774Y-116235284D01*
X96227686Y-116195434D01*
X96223000Y-116147859D01*
X96223000Y-114484141D01*
X96227686Y-114436566D01*
X96239774Y-114396716D01*
X96259399Y-114360001D01*
X96285814Y-114327814D01*
X96318001Y-114301399D01*
X96354716Y-114281774D01*
X96394566Y-114269686D01*
X96442141Y-114265000D01*
X97105859Y-114265000D01*
X97153434Y-114269686D01*
G37*
G36*
X104417976Y-115650572D02*
G01*
X104437181Y-115656398D01*
X104454893Y-115665865D01*
X104470405Y-115678595D01*
X104483135Y-115694107D01*
X104492602Y-115711819D01*
X104498428Y-115731024D01*
X104501000Y-115757140D01*
X104501000Y-116200860D01*
X104498428Y-116226976D01*
X104492602Y-116246181D01*
X104483135Y-116263893D01*
X104470405Y-116279405D01*
X104454893Y-116292135D01*
X104437181Y-116301602D01*
X104417976Y-116307428D01*
X104391860Y-116310000D01*
X103888140Y-116310000D01*
X103862024Y-116307428D01*
X103842819Y-116301602D01*
X103825107Y-116292135D01*
X103809595Y-116279405D01*
X103796865Y-116263893D01*
X103787398Y-116246181D01*
X103781572Y-116226976D01*
X103779000Y-116200860D01*
X103779000Y-115757140D01*
X103781572Y-115731024D01*
X103787398Y-115711819D01*
X103796865Y-115694107D01*
X103809595Y-115678595D01*
X103825107Y-115665865D01*
X103842819Y-115656398D01*
X103862024Y-115650572D01*
X103888140Y-115648000D01*
X104391860Y-115648000D01*
X104417976Y-115650572D01*
G37*
G36*
X97153434Y-111729686D02*
G01*
X97193284Y-111741774D01*
X97229999Y-111761399D01*
X97262186Y-111787814D01*
X97288601Y-111820001D01*
X97308226Y-111856716D01*
X97320314Y-111896566D01*
X97325000Y-111944141D01*
X97325000Y-113607859D01*
X97320314Y-113655434D01*
X97308226Y-113695284D01*
X97288601Y-113731999D01*
X97262186Y-113764186D01*
X97229999Y-113790601D01*
X97193284Y-113810226D01*
X97153434Y-113822314D01*
X97105859Y-113827000D01*
X96442141Y-113827000D01*
X96394566Y-113822314D01*
X96354716Y-113810226D01*
X96318001Y-113790601D01*
X96285814Y-113764186D01*
X96259399Y-113731999D01*
X96239774Y-113695284D01*
X96227686Y-113655434D01*
X96223000Y-113607859D01*
X96223000Y-111944141D01*
X96227686Y-111896566D01*
X96239774Y-111856716D01*
X96259399Y-111820001D01*
X96285814Y-111787814D01*
X96318001Y-111761399D01*
X96354716Y-111741774D01*
X96394566Y-111729686D01*
X96442141Y-111725000D01*
X97105859Y-111725000D01*
X97153434Y-111729686D01*
G37*
G36*
X100930976Y-112925572D02*
G01*
X100950181Y-112931398D01*
X100967893Y-112940865D01*
X100983405Y-112953595D01*
X100996135Y-112969107D01*
X101005602Y-112986819D01*
X101011428Y-113006024D01*
X101014000Y-113032140D01*
X101014000Y-113535860D01*
X101011428Y-113561976D01*
X101005602Y-113581181D01*
X100996135Y-113598893D01*
X100983405Y-113614405D01*
X100967893Y-113627135D01*
X100950181Y-113636602D01*
X100930976Y-113642428D01*
X100904860Y-113645000D01*
X100461140Y-113645000D01*
X100435024Y-113642428D01*
X100415819Y-113636602D01*
X100398107Y-113627135D01*
X100382595Y-113614405D01*
X100369865Y-113598893D01*
X100360398Y-113581181D01*
X100354572Y-113561976D01*
X100352000Y-113535860D01*
X100352000Y-113032140D01*
X100354572Y-113006024D01*
X100360398Y-112986819D01*
X100369865Y-112969107D01*
X100382595Y-112953595D01*
X100398107Y-112940865D01*
X100415819Y-112931398D01*
X100435024Y-112925572D01*
X100461140Y-112923000D01*
X100904860Y-112923000D01*
X100930976Y-112925572D01*
G37*
G36*
X99970976Y-112925572D02*
G01*
X99990181Y-112931398D01*
X100007893Y-112940865D01*
X100023405Y-112953595D01*
X100036135Y-112969107D01*
X100045602Y-112986819D01*
X100051428Y-113006024D01*
X100054000Y-113032140D01*
X100054000Y-113535860D01*
X100051428Y-113561976D01*
X100045602Y-113581181D01*
X100036135Y-113598893D01*
X100023405Y-113614405D01*
X100007893Y-113627135D01*
X99990181Y-113636602D01*
X99970976Y-113642428D01*
X99944860Y-113645000D01*
X99501140Y-113645000D01*
X99475024Y-113642428D01*
X99455819Y-113636602D01*
X99438107Y-113627135D01*
X99422595Y-113614405D01*
X99409865Y-113598893D01*
X99400398Y-113581181D01*
X99394572Y-113561976D01*
X99392000Y-113535860D01*
X99392000Y-113032140D01*
X99394572Y-113006024D01*
X99400398Y-112986819D01*
X99409865Y-112969107D01*
X99422595Y-112953595D01*
X99438107Y-112940865D01*
X99455819Y-112931398D01*
X99475024Y-112925572D01*
X99501140Y-112923000D01*
X99944860Y-112923000D01*
X99970976Y-112925572D01*
G37*
G36*
X103145976Y-112925572D02*
G01*
X103165181Y-112931398D01*
X103182893Y-112940865D01*
X103198405Y-112953595D01*
X103211135Y-112969107D01*
X103220602Y-112986819D01*
X103226428Y-113006024D01*
X103229000Y-113032140D01*
X103229000Y-113535860D01*
X103226428Y-113561976D01*
X103220602Y-113581181D01*
X103211135Y-113598893D01*
X103198405Y-113614405D01*
X103182893Y-113627135D01*
X103165181Y-113636602D01*
X103145976Y-113642428D01*
X103119860Y-113645000D01*
X102676140Y-113645000D01*
X102650024Y-113642428D01*
X102630819Y-113636602D01*
X102613107Y-113627135D01*
X102597595Y-113614405D01*
X102584865Y-113598893D01*
X102575398Y-113581181D01*
X102569572Y-113561976D01*
X102567000Y-113535860D01*
X102567000Y-113032140D01*
X102569572Y-113006024D01*
X102575398Y-112986819D01*
X102584865Y-112969107D01*
X102597595Y-112953595D01*
X102613107Y-112940865D01*
X102630819Y-112931398D01*
X102650024Y-112925572D01*
X102676140Y-112923000D01*
X103119860Y-112923000D01*
X103145976Y-112925572D01*
G37*
G36*
X104105976Y-112925572D02*
G01*
X104125181Y-112931398D01*
X104142893Y-112940865D01*
X104158405Y-112953595D01*
X104171135Y-112969107D01*
X104180602Y-112986819D01*
X104186428Y-113006024D01*
X104189000Y-113032140D01*
X104189000Y-113535860D01*
X104186428Y-113561976D01*
X104180602Y-113581181D01*
X104171135Y-113598893D01*
X104158405Y-113614405D01*
X104142893Y-113627135D01*
X104125181Y-113636602D01*
X104105976Y-113642428D01*
X104079860Y-113645000D01*
X103636140Y-113645000D01*
X103610024Y-113642428D01*
X103590819Y-113636602D01*
X103573107Y-113627135D01*
X103557595Y-113614405D01*
X103544865Y-113598893D01*
X103535398Y-113581181D01*
X103529572Y-113561976D01*
X103527000Y-113535860D01*
X103527000Y-113032140D01*
X103529572Y-113006024D01*
X103535398Y-112986819D01*
X103544865Y-112969107D01*
X103557595Y-112953595D01*
X103573107Y-112940865D01*
X103590819Y-112931398D01*
X103610024Y-112925572D01*
X103636140Y-112923000D01*
X104079860Y-112923000D01*
X104105976Y-112925572D01*
G37*
G36*
X102131976Y-112927572D02*
G01*
X102151181Y-112933398D01*
X102168893Y-112942865D01*
X102184405Y-112955595D01*
X102197135Y-112971107D01*
X102206602Y-112988819D01*
X102212428Y-113008024D01*
X102215000Y-113034140D01*
X102215000Y-113477860D01*
X102212428Y-113503976D01*
X102206602Y-113523181D01*
X102197135Y-113540893D01*
X102184405Y-113556405D01*
X102168893Y-113569135D01*
X102151181Y-113578602D01*
X102131976Y-113584428D01*
X102105860Y-113587000D01*
X101602140Y-113587000D01*
X101576024Y-113584428D01*
X101556819Y-113578602D01*
X101539107Y-113569135D01*
X101523595Y-113556405D01*
X101510865Y-113540893D01*
X101501398Y-113523181D01*
X101495572Y-113503976D01*
X101493000Y-113477860D01*
X101493000Y-113034140D01*
X101495572Y-113008024D01*
X101501398Y-112988819D01*
X101510865Y-112971107D01*
X101523595Y-112955595D01*
X101539107Y-112942865D01*
X101556819Y-112933398D01*
X101576024Y-112927572D01*
X101602140Y-112925000D01*
X102105860Y-112925000D01*
X102131976Y-112927572D01*
G37*
G36*
X102131976Y-111967572D02*
G01*
X102151181Y-111973398D01*
X102168893Y-111982865D01*
X102184405Y-111995595D01*
X102197135Y-112011107D01*
X102206602Y-112028819D01*
X102212428Y-112048024D01*
X102215000Y-112074140D01*
X102215000Y-112517860D01*
X102212428Y-112543976D01*
X102206602Y-112563181D01*
X102197135Y-112580893D01*
X102184405Y-112596405D01*
X102168893Y-112609135D01*
X102151181Y-112618602D01*
X102131976Y-112624428D01*
X102105860Y-112627000D01*
X101602140Y-112627000D01*
X101576024Y-112624428D01*
X101556819Y-112618602D01*
X101539107Y-112609135D01*
X101523595Y-112596405D01*
X101510865Y-112580893D01*
X101501398Y-112563181D01*
X101495572Y-112543976D01*
X101493000Y-112517860D01*
X101493000Y-112074140D01*
X101495572Y-112048024D01*
X101501398Y-112028819D01*
X101510865Y-112011107D01*
X101523595Y-111995595D01*
X101539107Y-111982865D01*
X101556819Y-111973398D01*
X101576024Y-111967572D01*
X101602140Y-111965000D01*
X102105860Y-111965000D01*
X102131976Y-111967572D01*
G37*
G36*
X105763228Y-109149703D02*
G01*
X105918100Y-109213853D01*
X106057481Y-109306985D01*
X106176015Y-109425519D01*
X106269147Y-109564900D01*
X106333297Y-109719772D01*
X106366000Y-109884184D01*
X106366000Y-110051816D01*
X106333297Y-110216228D01*
X106269147Y-110371100D01*
X106176015Y-110510481D01*
X106057481Y-110629015D01*
X105918100Y-110722147D01*
X105763228Y-110786297D01*
X105598816Y-110819000D01*
X105431184Y-110819000D01*
X105266772Y-110786297D01*
X105111900Y-110722147D01*
X104972519Y-110629015D01*
X104853985Y-110510481D01*
X104760853Y-110371100D01*
X104696703Y-110216228D01*
X104664000Y-110051816D01*
X104664000Y-109884184D01*
X104696703Y-109719772D01*
X104760853Y-109564900D01*
X104853985Y-109425519D01*
X104972519Y-109306985D01*
X105111900Y-109213853D01*
X105266772Y-109149703D01*
X105431184Y-109117000D01*
X105598816Y-109117000D01*
X105763228Y-109149703D01*
G37*
G36*
X98143228Y-109149703D02*
G01*
X98298100Y-109213853D01*
X98437481Y-109306985D01*
X98556015Y-109425519D01*
X98649147Y-109564900D01*
X98713297Y-109719772D01*
X98746000Y-109884184D01*
X98746000Y-110051816D01*
X98713297Y-110216228D01*
X98649147Y-110371100D01*
X98556015Y-110510481D01*
X98437481Y-110629015D01*
X98298100Y-110722147D01*
X98143228Y-110786297D01*
X97978816Y-110819000D01*
X97811184Y-110819000D01*
X97646772Y-110786297D01*
X97491900Y-110722147D01*
X97352519Y-110629015D01*
X97233985Y-110510481D01*
X97140853Y-110371100D01*
X97076703Y-110216228D01*
X97044000Y-110051816D01*
X97044000Y-109884184D01*
X97076703Y-109719772D01*
X97140853Y-109564900D01*
X97233985Y-109425519D01*
X97352519Y-109306985D01*
X97491900Y-109213853D01*
X97646772Y-109149703D01*
X97811184Y-109117000D01*
X97978816Y-109117000D01*
X98143228Y-109149703D01*
G37*
G36*
X105763228Y-106609703D02*
G01*
X105918100Y-106673853D01*
X106057481Y-106766985D01*
X106176015Y-106885519D01*
X106269147Y-107024900D01*
X106333297Y-107179772D01*
X106366000Y-107344184D01*
X106366000Y-107511816D01*
X106333297Y-107676228D01*
X106269147Y-107831100D01*
X106176015Y-107970481D01*
X106057481Y-108089015D01*
X105918100Y-108182147D01*
X105763228Y-108246297D01*
X105598816Y-108279000D01*
X105431184Y-108279000D01*
X105266772Y-108246297D01*
X105111900Y-108182147D01*
X104972519Y-108089015D01*
X104853985Y-107970481D01*
X104760853Y-107831100D01*
X104696703Y-107676228D01*
X104664000Y-107511816D01*
X104664000Y-107344184D01*
X104696703Y-107179772D01*
X104760853Y-107024900D01*
X104853985Y-106885519D01*
X104972519Y-106766985D01*
X105111900Y-106673853D01*
X105266772Y-106609703D01*
X105431184Y-106577000D01*
X105598816Y-106577000D01*
X105763228Y-106609703D01*
G37*
G36*
X98143228Y-106609703D02*
G01*
X98298100Y-106673853D01*
X98437481Y-106766985D01*
X98556015Y-106885519D01*
X98649147Y-107024900D01*
X98713297Y-107179772D01*
X98746000Y-107344184D01*
X98746000Y-107511816D01*
X98713297Y-107676228D01*
X98649147Y-107831100D01*
X98556015Y-107970481D01*
X98437481Y-108089015D01*
X98298100Y-108182147D01*
X98143228Y-108246297D01*
X97978816Y-108279000D01*
X97811184Y-108279000D01*
X97646772Y-108246297D01*
X97491900Y-108182147D01*
X97352519Y-108089015D01*
X97233985Y-107970481D01*
X97140853Y-107831100D01*
X97076703Y-107676228D01*
X97044000Y-107511816D01*
X97044000Y-107344184D01*
X97076703Y-107179772D01*
X97140853Y-107024900D01*
X97233985Y-106885519D01*
X97352519Y-106766985D01*
X97491900Y-106673853D01*
X97646772Y-106609703D01*
X97811184Y-106577000D01*
X97978816Y-106577000D01*
X98143228Y-106609703D01*
G37*
G36*
X105763228Y-104069703D02*
G01*
X105918100Y-104133853D01*
X106057481Y-104226985D01*
X106176015Y-104345519D01*
X106269147Y-104484900D01*
X106333297Y-104639772D01*
X106366000Y-104804184D01*
X106366000Y-104971816D01*
X106333297Y-105136228D01*
X106269147Y-105291100D01*
X106176015Y-105430481D01*
X106057481Y-105549015D01*
X105918100Y-105642147D01*
X105763228Y-105706297D01*
X105598816Y-105739000D01*
X105431184Y-105739000D01*
X105266772Y-105706297D01*
X105111900Y-105642147D01*
X104972519Y-105549015D01*
X104853985Y-105430481D01*
X104760853Y-105291100D01*
X104696703Y-105136228D01*
X104664000Y-104971816D01*
X104664000Y-104804184D01*
X104696703Y-104639772D01*
X104760853Y-104484900D01*
X104853985Y-104345519D01*
X104972519Y-104226985D01*
X105111900Y-104133853D01*
X105266772Y-104069703D01*
X105431184Y-104037000D01*
X105598816Y-104037000D01*
X105763228Y-104069703D01*
G37*
G36*
X98143228Y-104069703D02*
G01*
X98298100Y-104133853D01*
X98437481Y-104226985D01*
X98556015Y-104345519D01*
X98649147Y-104484900D01*
X98713297Y-104639772D01*
X98746000Y-104804184D01*
X98746000Y-104971816D01*
X98713297Y-105136228D01*
X98649147Y-105291100D01*
X98556015Y-105430481D01*
X98437481Y-105549015D01*
X98298100Y-105642147D01*
X98143228Y-105706297D01*
X97978816Y-105739000D01*
X97811184Y-105739000D01*
X97646772Y-105706297D01*
X97491900Y-105642147D01*
X97352519Y-105549015D01*
X97233985Y-105430481D01*
X97140853Y-105291100D01*
X97076703Y-105136228D01*
X97044000Y-104971816D01*
X97044000Y-104804184D01*
X97076703Y-104639772D01*
X97140853Y-104484900D01*
X97233985Y-104345519D01*
X97352519Y-104226985D01*
X97491900Y-104133853D01*
X97646772Y-104069703D01*
X97811184Y-104037000D01*
X97978816Y-104037000D01*
X98143228Y-104069703D01*
G37*
G36*
X98143228Y-101529703D02*
G01*
X98298100Y-101593853D01*
X98437481Y-101686985D01*
X98556015Y-101805519D01*
X98649147Y-101944900D01*
X98713297Y-102099772D01*
X98746000Y-102264184D01*
X98746000Y-102431816D01*
X98713297Y-102596228D01*
X98649147Y-102751100D01*
X98556015Y-102890481D01*
X98437481Y-103009015D01*
X98298100Y-103102147D01*
X98143228Y-103166297D01*
X97978816Y-103199000D01*
X97811184Y-103199000D01*
X97646772Y-103166297D01*
X97491900Y-103102147D01*
X97352519Y-103009015D01*
X97233985Y-102890481D01*
X97140853Y-102751100D01*
X97076703Y-102596228D01*
X97044000Y-102431816D01*
X97044000Y-102264184D01*
X97076703Y-102099772D01*
X97140853Y-101944900D01*
X97233985Y-101805519D01*
X97352519Y-101686985D01*
X97491900Y-101593853D01*
X97646772Y-101529703D01*
X97811184Y-101497000D01*
X97978816Y-101497000D01*
X98143228Y-101529703D01*
G37*
G36*
X105763228Y-101529703D02*
G01*
X105918100Y-101593853D01*
X106057481Y-101686985D01*
X106176015Y-101805519D01*
X106269147Y-101944900D01*
X106333297Y-102099772D01*
X106366000Y-102264184D01*
X106366000Y-102431816D01*
X106333297Y-102596228D01*
X106269147Y-102751100D01*
X106176015Y-102890481D01*
X106057481Y-103009015D01*
X105918100Y-103102147D01*
X105763228Y-103166297D01*
X105598816Y-103199000D01*
X105431184Y-103199000D01*
X105266772Y-103166297D01*
X105111900Y-103102147D01*
X104972519Y-103009015D01*
X104853985Y-102890481D01*
X104760853Y-102751100D01*
X104696703Y-102596228D01*
X104664000Y-102431816D01*
X104664000Y-102264184D01*
X104696703Y-102099772D01*
X104760853Y-101944900D01*
X104853985Y-101805519D01*
X104972519Y-101686985D01*
X105111900Y-101593853D01*
X105266772Y-101529703D01*
X105431184Y-101497000D01*
X105598816Y-101497000D01*
X105763228Y-101529703D01*
G37*
G36*
X105763228Y-98989703D02*
G01*
X105918100Y-99053853D01*
X106057481Y-99146985D01*
X106176015Y-99265519D01*
X106269147Y-99404900D01*
X106333297Y-99559772D01*
X106366000Y-99724184D01*
X106366000Y-99891816D01*
X106333297Y-100056228D01*
X106269147Y-100211100D01*
X106176015Y-100350481D01*
X106057481Y-100469015D01*
X105918100Y-100562147D01*
X105763228Y-100626297D01*
X105598816Y-100659000D01*
X105431184Y-100659000D01*
X105266772Y-100626297D01*
X105111900Y-100562147D01*
X104972519Y-100469015D01*
X104853985Y-100350481D01*
X104760853Y-100211100D01*
X104696703Y-100056228D01*
X104664000Y-99891816D01*
X104664000Y-99724184D01*
X104696703Y-99559772D01*
X104760853Y-99404900D01*
X104853985Y-99265519D01*
X104972519Y-99146985D01*
X105111900Y-99053853D01*
X105266772Y-98989703D01*
X105431184Y-98957000D01*
X105598816Y-98957000D01*
X105763228Y-98989703D01*
G37*
G36*
X98143228Y-98989703D02*
G01*
X98298100Y-99053853D01*
X98437481Y-99146985D01*
X98556015Y-99265519D01*
X98649147Y-99404900D01*
X98713297Y-99559772D01*
X98746000Y-99724184D01*
X98746000Y-99891816D01*
X98713297Y-100056228D01*
X98649147Y-100211100D01*
X98556015Y-100350481D01*
X98437481Y-100469015D01*
X98298100Y-100562147D01*
X98143228Y-100626297D01*
X97978816Y-100659000D01*
X97811184Y-100659000D01*
X97646772Y-100626297D01*
X97491900Y-100562147D01*
X97352519Y-100469015D01*
X97233985Y-100350481D01*
X97140853Y-100211100D01*
X97076703Y-100056228D01*
X97044000Y-99891816D01*
X97044000Y-99724184D01*
X97076703Y-99559772D01*
X97140853Y-99404900D01*
X97233985Y-99265519D01*
X97352519Y-99146985D01*
X97491900Y-99053853D01*
X97646772Y-98989703D01*
X97811184Y-98957000D01*
X97978816Y-98957000D01*
X98143228Y-98989703D01*
G37*
G36*
X105763228Y-96449703D02*
G01*
X105918100Y-96513853D01*
X106057481Y-96606985D01*
X106176015Y-96725519D01*
X106269147Y-96864900D01*
X106333297Y-97019772D01*
X106366000Y-97184184D01*
X106366000Y-97351816D01*
X106333297Y-97516228D01*
X106269147Y-97671100D01*
X106176015Y-97810481D01*
X106057481Y-97929015D01*
X105918100Y-98022147D01*
X105763228Y-98086297D01*
X105598816Y-98119000D01*
X105431184Y-98119000D01*
X105266772Y-98086297D01*
X105111900Y-98022147D01*
X104972519Y-97929015D01*
X104853985Y-97810481D01*
X104760853Y-97671100D01*
X104696703Y-97516228D01*
X104664000Y-97351816D01*
X104664000Y-97184184D01*
X104696703Y-97019772D01*
X104760853Y-96864900D01*
X104853985Y-96725519D01*
X104972519Y-96606985D01*
X105111900Y-96513853D01*
X105266772Y-96449703D01*
X105431184Y-96417000D01*
X105598816Y-96417000D01*
X105763228Y-96449703D01*
G37*
G36*
X98143228Y-96449703D02*
G01*
X98298100Y-96513853D01*
X98437481Y-96606985D01*
X98556015Y-96725519D01*
X98649147Y-96864900D01*
X98713297Y-97019772D01*
X98746000Y-97184184D01*
X98746000Y-97351816D01*
X98713297Y-97516228D01*
X98649147Y-97671100D01*
X98556015Y-97810481D01*
X98437481Y-97929015D01*
X98298100Y-98022147D01*
X98143228Y-98086297D01*
X97978816Y-98119000D01*
X97811184Y-98119000D01*
X97646772Y-98086297D01*
X97491900Y-98022147D01*
X97352519Y-97929015D01*
X97233985Y-97810481D01*
X97140853Y-97671100D01*
X97076703Y-97516228D01*
X97044000Y-97351816D01*
X97044000Y-97184184D01*
X97076703Y-97019772D01*
X97140853Y-96864900D01*
X97233985Y-96725519D01*
X97352519Y-96606985D01*
X97491900Y-96513853D01*
X97646772Y-96449703D01*
X97811184Y-96417000D01*
X97978816Y-96417000D01*
X98143228Y-96449703D01*
G37*
G36*
X105763228Y-93909703D02*
G01*
X105918100Y-93973853D01*
X106057481Y-94066985D01*
X106176015Y-94185519D01*
X106269147Y-94324900D01*
X106333297Y-94479772D01*
X106366000Y-94644184D01*
X106366000Y-94811816D01*
X106333297Y-94976228D01*
X106269147Y-95131100D01*
X106176015Y-95270481D01*
X106057481Y-95389015D01*
X105918100Y-95482147D01*
X105763228Y-95546297D01*
X105598816Y-95579000D01*
X105431184Y-95579000D01*
X105266772Y-95546297D01*
X105111900Y-95482147D01*
X104972519Y-95389015D01*
X104853985Y-95270481D01*
X104760853Y-95131100D01*
X104696703Y-94976228D01*
X104664000Y-94811816D01*
X104664000Y-94644184D01*
X104696703Y-94479772D01*
X104760853Y-94324900D01*
X104853985Y-94185519D01*
X104972519Y-94066985D01*
X105111900Y-93973853D01*
X105266772Y-93909703D01*
X105431184Y-93877000D01*
X105598816Y-93877000D01*
X105763228Y-93909703D01*
G37*
G36*
X98143228Y-93909703D02*
G01*
X98298100Y-93973853D01*
X98437481Y-94066985D01*
X98556015Y-94185519D01*
X98649147Y-94324900D01*
X98713297Y-94479772D01*
X98746000Y-94644184D01*
X98746000Y-94811816D01*
X98713297Y-94976228D01*
X98649147Y-95131100D01*
X98556015Y-95270481D01*
X98437481Y-95389015D01*
X98298100Y-95482147D01*
X98143228Y-95546297D01*
X97978816Y-95579000D01*
X97811184Y-95579000D01*
X97646772Y-95546297D01*
X97491900Y-95482147D01*
X97352519Y-95389015D01*
X97233985Y-95270481D01*
X97140853Y-95131100D01*
X97076703Y-94976228D01*
X97044000Y-94811816D01*
X97044000Y-94644184D01*
X97076703Y-94479772D01*
X97140853Y-94324900D01*
X97233985Y-94185519D01*
X97352519Y-94066985D01*
X97491900Y-93973853D01*
X97646772Y-93909703D01*
X97811184Y-93877000D01*
X97978816Y-93877000D01*
X98143228Y-93909703D01*
G37*
G36*
X105763228Y-91369703D02*
G01*
X105918100Y-91433853D01*
X106057481Y-91526985D01*
X106176015Y-91645519D01*
X106269147Y-91784900D01*
X106333297Y-91939772D01*
X106366000Y-92104184D01*
X106366000Y-92271816D01*
X106333297Y-92436228D01*
X106269147Y-92591100D01*
X106176015Y-92730481D01*
X106057481Y-92849015D01*
X105918100Y-92942147D01*
X105763228Y-93006297D01*
X105598816Y-93039000D01*
X105431184Y-93039000D01*
X105266772Y-93006297D01*
X105111900Y-92942147D01*
X104972519Y-92849015D01*
X104853985Y-92730481D01*
X104760853Y-92591100D01*
X104696703Y-92436228D01*
X104664000Y-92271816D01*
X104664000Y-92104184D01*
X104696703Y-91939772D01*
X104760853Y-91784900D01*
X104853985Y-91645519D01*
X104972519Y-91526985D01*
X105111900Y-91433853D01*
X105266772Y-91369703D01*
X105431184Y-91337000D01*
X105598816Y-91337000D01*
X105763228Y-91369703D01*
G37*
G36*
X98143228Y-91369703D02*
G01*
X98298100Y-91433853D01*
X98437481Y-91526985D01*
X98556015Y-91645519D01*
X98649147Y-91784900D01*
X98713297Y-91939772D01*
X98746000Y-92104184D01*
X98746000Y-92271816D01*
X98713297Y-92436228D01*
X98649147Y-92591100D01*
X98556015Y-92730481D01*
X98437481Y-92849015D01*
X98298100Y-92942147D01*
X98143228Y-93006297D01*
X97978816Y-93039000D01*
X97811184Y-93039000D01*
X97646772Y-93006297D01*
X97491900Y-92942147D01*
X97352519Y-92849015D01*
X97233985Y-92730481D01*
X97140853Y-92591100D01*
X97076703Y-92436228D01*
X97044000Y-92271816D01*
X97044000Y-92104184D01*
X97076703Y-91939772D01*
X97140853Y-91784900D01*
X97233985Y-91645519D01*
X97352519Y-91526985D01*
X97491900Y-91433853D01*
X97646772Y-91369703D01*
X97811184Y-91337000D01*
X97978816Y-91337000D01*
X98143228Y-91369703D01*
G37*
G36*
X100934434Y-90827686D02*
G01*
X100974284Y-90839774D01*
X101010999Y-90859399D01*
X101043186Y-90885814D01*
X101069601Y-90918001D01*
X101089226Y-90954716D01*
X101101314Y-90994566D01*
X101106000Y-91042141D01*
X101106000Y-91705859D01*
X101101314Y-91753434D01*
X101089226Y-91793284D01*
X101069601Y-91829999D01*
X101043186Y-91862186D01*
X101010999Y-91888601D01*
X100974284Y-91908226D01*
X100934434Y-91920314D01*
X100886859Y-91925000D01*
X99773141Y-91925000D01*
X99725566Y-91920314D01*
X99685716Y-91908226D01*
X99649001Y-91888601D01*
X99616814Y-91862186D01*
X99590399Y-91829999D01*
X99570774Y-91793284D01*
X99558686Y-91753434D01*
X99554000Y-91705859D01*
X99554000Y-91042141D01*
X99558686Y-90994566D01*
X99570774Y-90954716D01*
X99590399Y-90918001D01*
X99616814Y-90885814D01*
X99649001Y-90859399D01*
X99685716Y-90839774D01*
X99725566Y-90827686D01*
X99773141Y-90823000D01*
X100886859Y-90823000D01*
X100934434Y-90827686D01*
G37*
G36*
X103855434Y-90700686D02*
G01*
X103895284Y-90712774D01*
X103931999Y-90732399D01*
X103964186Y-90758814D01*
X103990601Y-90791001D01*
X104010226Y-90827716D01*
X104022314Y-90867566D01*
X104027000Y-90915141D01*
X104027000Y-91578859D01*
X104022314Y-91626434D01*
X104010226Y-91666284D01*
X103990601Y-91702999D01*
X103964186Y-91735186D01*
X103931999Y-91761601D01*
X103895284Y-91781226D01*
X103855434Y-91793314D01*
X103807859Y-91798000D01*
X102694141Y-91798000D01*
X102646566Y-91793314D01*
X102606716Y-91781226D01*
X102570001Y-91761601D01*
X102537814Y-91735186D01*
X102511399Y-91702999D01*
X102491774Y-91666284D01*
X102479686Y-91626434D01*
X102475000Y-91578859D01*
X102475000Y-90915141D01*
X102479686Y-90867566D01*
X102491774Y-90827716D01*
X102511399Y-90791001D01*
X102537814Y-90758814D01*
X102570001Y-90732399D01*
X102606716Y-90712774D01*
X102646566Y-90700686D01*
X102694141Y-90696000D01*
X103807859Y-90696000D01*
X103855434Y-90700686D01*
G37*
G36*
X105763228Y-88829703D02*
G01*
X105918100Y-88893853D01*
X106057481Y-88986985D01*
X106176015Y-89105519D01*
X106269147Y-89244900D01*
X106333297Y-89399772D01*
X106366000Y-89564184D01*
X106366000Y-89731816D01*
X106333297Y-89896228D01*
X106269147Y-90051100D01*
X106176015Y-90190481D01*
X106057481Y-90309015D01*
X105918100Y-90402147D01*
X105763228Y-90466297D01*
X105598816Y-90499000D01*
X105431184Y-90499000D01*
X105266772Y-90466297D01*
X105111900Y-90402147D01*
X104972519Y-90309015D01*
X104853985Y-90190481D01*
X104760853Y-90051100D01*
X104696703Y-89896228D01*
X104664000Y-89731816D01*
X104664000Y-89564184D01*
X104696703Y-89399772D01*
X104760853Y-89244900D01*
X104853985Y-89105519D01*
X104972519Y-88986985D01*
X105111900Y-88893853D01*
X105266772Y-88829703D01*
X105431184Y-88797000D01*
X105598816Y-88797000D01*
X105763228Y-88829703D01*
G37*
G36*
X98746000Y-90499000D02*
G01*
X97044000Y-90499000D01*
X97044000Y-88797000D01*
X98746000Y-88797000D01*
X98746000Y-90499000D01*
G37*
G36*
X100934434Y-88927686D02*
G01*
X100974284Y-88939774D01*
X101010999Y-88959399D01*
X101043186Y-88985814D01*
X101069601Y-89018001D01*
X101089226Y-89054716D01*
X101101314Y-89094566D01*
X101106000Y-89142141D01*
X101106000Y-89805859D01*
X101101314Y-89853434D01*
X101089226Y-89893284D01*
X101069601Y-89929999D01*
X101043186Y-89962186D01*
X101010999Y-89988601D01*
X100974284Y-90008226D01*
X100934434Y-90020314D01*
X100886859Y-90025000D01*
X99773141Y-90025000D01*
X99725566Y-90020314D01*
X99685716Y-90008226D01*
X99649001Y-89988601D01*
X99616814Y-89962186D01*
X99590399Y-89929999D01*
X99570774Y-89893284D01*
X99558686Y-89853434D01*
X99554000Y-89805859D01*
X99554000Y-89142141D01*
X99558686Y-89094566D01*
X99570774Y-89054716D01*
X99590399Y-89018001D01*
X99616814Y-88985814D01*
X99649001Y-88959399D01*
X99685716Y-88939774D01*
X99725566Y-88927686D01*
X99773141Y-88923000D01*
X100886859Y-88923000D01*
X100934434Y-88927686D01*
G37*
G36*
X103855434Y-88800686D02*
G01*
X103895284Y-88812774D01*
X103931999Y-88832399D01*
X103964186Y-88858814D01*
X103990601Y-88891001D01*
X104010226Y-88927716D01*
X104022314Y-88967566D01*
X104027000Y-89015141D01*
X104027000Y-89678859D01*
X104022314Y-89726434D01*
X104010226Y-89766284D01*
X103990601Y-89802999D01*
X103964186Y-89835186D01*
X103931999Y-89861601D01*
X103895284Y-89881226D01*
X103855434Y-89893314D01*
X103807859Y-89898000D01*
X102694141Y-89898000D01*
X102646566Y-89893314D01*
X102606716Y-89881226D01*
X102570001Y-89861601D01*
X102537814Y-89835186D01*
X102511399Y-89802999D01*
X102491774Y-89766284D01*
X102479686Y-89726434D01*
X102475000Y-89678859D01*
X102475000Y-89015141D01*
X102479686Y-88967566D01*
X102491774Y-88927716D01*
X102511399Y-88891001D01*
X102537814Y-88858814D01*
X102570001Y-88832399D01*
X102606716Y-88812774D01*
X102646566Y-88800686D01*
X102694141Y-88796000D01*
X103807859Y-88796000D01*
X103855434Y-88800686D01*
G37*
M02*
