G04 #@! TF.GenerationSoftware,KiCad,Pcbnew,5.1.5+dfsg1-2build2*
G04 #@! TF.CreationDate,2023-02-25T19:10:51+00:00*
G04 #@! TF.ProjectId,video-ram-replacement,76696465-6f2d-4726-916d-2d7265706c61,rev?*
G04 #@! TF.SameCoordinates,Original*
G04 #@! TF.FileFunction,Copper,L3,Inr*
G04 #@! TF.FilePolarity,Positive*
%FSLAX46Y46*%
G04 Gerber Fmt 4.6, Leading zero omitted, Abs format (unit mm)*
G04 Created by KiCad (PCBNEW 5.1.5+dfsg1-2build2) date 2023-02-25 19:10:51*
%MOMM*%
%LPD*%
G04 APERTURE LIST*
%ADD10O,1.600000X1.600000*%
%ADD11R,1.600000X1.600000*%
%ADD12C,0.400000*%
%ADD13C,0.254000*%
G04 APERTURE END LIST*
D10*
X105515000Y-89648000D03*
X97895000Y-109968000D03*
X105515000Y-92188000D03*
X97895000Y-107428000D03*
X105515000Y-94728000D03*
X97895000Y-104888000D03*
X105515000Y-97268000D03*
X97895000Y-102348000D03*
X105515000Y-99808000D03*
X97895000Y-99808000D03*
X105515000Y-102348000D03*
X97895000Y-97268000D03*
X105515000Y-104888000D03*
X97895000Y-94728000D03*
X105515000Y-107428000D03*
X97895000Y-92188000D03*
X105515000Y-109968000D03*
D11*
X97895000Y-89648000D03*
D12*
X103251000Y-89347000D03*
X104140000Y-116078000D03*
X97028000Y-123162000D03*
X99852685Y-123748796D03*
X105156000Y-125730000D03*
X97028000Y-120015000D03*
X101727000Y-120023000D03*
X97790000Y-112903000D03*
X97282000Y-118237000D03*
X105765420Y-121090698D03*
X102616000Y-117695002D03*
X100838000Y-117884998D03*
X104521000Y-85979000D03*
X100330000Y-91313000D03*
X102754000Y-113342648D03*
X101092000Y-115951000D03*
X100683000Y-113284000D03*
X103251000Y-91247000D03*
X98635000Y-121920000D03*
X97028000Y-122202000D03*
X101981000Y-93086803D03*
X104140000Y-116939000D03*
X106172000Y-117094000D03*
X104394000Y-120523000D03*
X106680000Y-121031000D03*
X106903639Y-125019539D03*
X97282000Y-117221000D03*
X101349267Y-110944128D03*
X101254000Y-122548000D03*
X99802591Y-118764409D03*
X100076000Y-120523000D03*
X101854000Y-113256000D03*
X105835000Y-121920000D03*
X100330000Y-89474000D03*
X102508286Y-120387133D03*
X102616000Y-124333000D03*
X103251000Y-125730000D03*
X103632000Y-120523000D03*
X104013000Y-123063000D03*
X100584000Y-112395000D03*
X99348228Y-115401873D03*
X103483195Y-96012000D03*
X103378000Y-95377000D03*
X107144000Y-106426000D03*
X100584000Y-97782000D03*
X102683175Y-102362000D03*
X100076000Y-100322000D03*
X103083185Y-99822000D03*
X99441000Y-102870000D03*
X103483195Y-97282000D03*
X99187000Y-104902000D03*
X103883205Y-94742000D03*
X106743990Y-119507000D03*
X104383205Y-92586803D03*
X99441000Y-117983000D03*
X97917000Y-113919000D03*
X97917000Y-111506000D03*
X106807000Y-88138000D03*
D13*
G36*
X103781033Y-85583479D02*
G01*
X103718089Y-85735440D01*
X103686000Y-85896760D01*
X103686000Y-86061240D01*
X103718089Y-86222560D01*
X103781033Y-86374521D01*
X103872413Y-86511281D01*
X103988719Y-86627587D01*
X104125479Y-86718967D01*
X104277440Y-86781911D01*
X104438760Y-86814000D01*
X104603240Y-86814000D01*
X104764560Y-86781911D01*
X104916521Y-86718967D01*
X105053281Y-86627587D01*
X105169587Y-86511281D01*
X105260967Y-86374521D01*
X105323911Y-86222560D01*
X105356000Y-86061240D01*
X105356000Y-85896760D01*
X105323911Y-85735440D01*
X105260967Y-85583479D01*
X105202515Y-85496000D01*
X106909001Y-85496000D01*
X106909001Y-87306931D01*
X106889240Y-87303000D01*
X106724760Y-87303000D01*
X106563440Y-87335089D01*
X106411479Y-87398033D01*
X106274719Y-87489413D01*
X106158413Y-87605719D01*
X106067033Y-87742479D01*
X106004089Y-87894440D01*
X105972000Y-88055760D01*
X105972000Y-88220240D01*
X105985835Y-88289794D01*
X105933574Y-88268147D01*
X105656335Y-88213000D01*
X105373665Y-88213000D01*
X105096426Y-88268147D01*
X104835273Y-88376320D01*
X104600241Y-88533363D01*
X104400363Y-88733241D01*
X104243320Y-88968273D01*
X104135147Y-89229426D01*
X104080000Y-89506665D01*
X104080000Y-89789335D01*
X104135147Y-90066574D01*
X104243320Y-90327727D01*
X104400363Y-90562759D01*
X104600241Y-90762637D01*
X104832759Y-90918000D01*
X104600241Y-91073363D01*
X104400363Y-91273241D01*
X104243320Y-91508273D01*
X104135147Y-91769426D01*
X104131607Y-91787221D01*
X103987684Y-91846836D01*
X103850924Y-91938216D01*
X103734618Y-92054522D01*
X103643238Y-92191282D01*
X103580294Y-92343243D01*
X103548205Y-92504563D01*
X103548205Y-92669043D01*
X103580294Y-92830363D01*
X103643238Y-92982324D01*
X103734618Y-93119084D01*
X103850924Y-93235390D01*
X103987684Y-93326770D01*
X104139645Y-93389714D01*
X104300965Y-93421803D01*
X104465445Y-93421803D01*
X104626765Y-93389714D01*
X104690840Y-93363173D01*
X104832759Y-93458000D01*
X104600241Y-93613363D01*
X104400363Y-93813241D01*
X104275194Y-94000570D01*
X104126765Y-93939089D01*
X103965445Y-93907000D01*
X103800965Y-93907000D01*
X103639645Y-93939089D01*
X103487684Y-94002033D01*
X103350924Y-94093413D01*
X103234618Y-94209719D01*
X103143238Y-94346479D01*
X103080294Y-94498440D01*
X103059033Y-94605323D01*
X102982479Y-94637033D01*
X102845719Y-94728413D01*
X102729413Y-94844719D01*
X102638033Y-94981479D01*
X102575089Y-95133440D01*
X102543000Y-95294760D01*
X102543000Y-95459240D01*
X102575089Y-95620560D01*
X102638033Y-95772521D01*
X102669966Y-95820312D01*
X102648195Y-95929760D01*
X102648195Y-96094240D01*
X102680284Y-96255560D01*
X102743228Y-96407521D01*
X102834608Y-96544281D01*
X102937327Y-96647000D01*
X102834608Y-96749719D01*
X102743228Y-96886479D01*
X102680284Y-97038440D01*
X102648195Y-97199760D01*
X102648195Y-97364240D01*
X102680284Y-97525560D01*
X102743228Y-97677521D01*
X102834608Y-97814281D01*
X102950914Y-97930587D01*
X103087674Y-98021967D01*
X103239635Y-98084911D01*
X103400955Y-98117000D01*
X103565435Y-98117000D01*
X103726755Y-98084911D01*
X103878716Y-98021967D01*
X104015476Y-97930587D01*
X104131782Y-97814281D01*
X104166514Y-97762301D01*
X104243320Y-97947727D01*
X104400363Y-98182759D01*
X104600241Y-98382637D01*
X104832759Y-98538000D01*
X104600241Y-98693363D01*
X104400363Y-98893241D01*
X104243320Y-99128273D01*
X104135147Y-99389426D01*
X104080000Y-99666665D01*
X104080000Y-99949335D01*
X104135147Y-100226574D01*
X104243320Y-100487727D01*
X104400363Y-100722759D01*
X104600241Y-100922637D01*
X104832759Y-101078000D01*
X104600241Y-101233363D01*
X104400363Y-101433241D01*
X104243320Y-101668273D01*
X104135147Y-101929426D01*
X104080000Y-102206665D01*
X104080000Y-102489335D01*
X104135147Y-102766574D01*
X104243320Y-103027727D01*
X104400363Y-103262759D01*
X104600241Y-103462637D01*
X104832759Y-103618000D01*
X104600241Y-103773363D01*
X104400363Y-103973241D01*
X104243320Y-104208273D01*
X104135147Y-104469426D01*
X104080000Y-104746665D01*
X104080000Y-105029335D01*
X104135147Y-105306574D01*
X104243320Y-105567727D01*
X104400363Y-105802759D01*
X104600241Y-106002637D01*
X104832759Y-106158000D01*
X104600241Y-106313363D01*
X104400363Y-106513241D01*
X104243320Y-106748273D01*
X104135147Y-107009426D01*
X104080000Y-107286665D01*
X104080000Y-107569335D01*
X104135147Y-107846574D01*
X104243320Y-108107727D01*
X104400363Y-108342759D01*
X104600241Y-108542637D01*
X104832759Y-108698000D01*
X104600241Y-108853363D01*
X104400363Y-109053241D01*
X104243320Y-109288273D01*
X104135147Y-109549426D01*
X104080000Y-109826665D01*
X104080000Y-110109335D01*
X104135147Y-110386574D01*
X104243320Y-110647727D01*
X104400363Y-110882759D01*
X104600241Y-111082637D01*
X104835273Y-111239680D01*
X105096426Y-111347853D01*
X105373665Y-111403000D01*
X105656335Y-111403000D01*
X105933574Y-111347853D01*
X106194727Y-111239680D01*
X106429759Y-111082637D01*
X106629637Y-110882759D01*
X106786680Y-110647727D01*
X106894853Y-110386574D01*
X106909000Y-110315452D01*
X106909000Y-118688464D01*
X106826230Y-118672000D01*
X106661750Y-118672000D01*
X106500430Y-118704089D01*
X106348469Y-118767033D01*
X106211709Y-118858413D01*
X106095403Y-118974719D01*
X106004023Y-119111479D01*
X105941079Y-119263440D01*
X105908990Y-119424760D01*
X105908990Y-119589240D01*
X105941079Y-119750560D01*
X106004023Y-119902521D01*
X106095403Y-120039281D01*
X106211709Y-120155587D01*
X106348469Y-120246967D01*
X106500430Y-120309911D01*
X106661750Y-120342000D01*
X106826230Y-120342000D01*
X106909000Y-120325536D01*
X106909000Y-120363582D01*
X106909001Y-122725781D01*
X106909000Y-123995781D01*
X106909000Y-123995782D01*
X106909001Y-126340000D01*
X105726868Y-126340000D01*
X105804587Y-126262281D01*
X105895967Y-126125521D01*
X105958911Y-125973560D01*
X105991000Y-125812240D01*
X105991000Y-125647760D01*
X105958911Y-125486440D01*
X105895967Y-125334479D01*
X105804587Y-125197719D01*
X105688281Y-125081413D01*
X105551521Y-124990033D01*
X105399560Y-124927089D01*
X105238240Y-124895000D01*
X105073760Y-124895000D01*
X104912440Y-124927089D01*
X104760479Y-124990033D01*
X104623719Y-125081413D01*
X104507413Y-125197719D01*
X104416033Y-125334479D01*
X104353089Y-125486440D01*
X104321000Y-125647760D01*
X104321000Y-125812240D01*
X104353089Y-125973560D01*
X104416033Y-126125521D01*
X104507413Y-126262281D01*
X104585132Y-126340000D01*
X103821868Y-126340000D01*
X103899587Y-126262281D01*
X103990967Y-126125521D01*
X104053911Y-125973560D01*
X104086000Y-125812240D01*
X104086000Y-125647760D01*
X104053911Y-125486440D01*
X103990967Y-125334479D01*
X103899587Y-125197719D01*
X103783281Y-125081413D01*
X103646521Y-124990033D01*
X103494560Y-124927089D01*
X103333240Y-124895000D01*
X103234868Y-124895000D01*
X103264587Y-124865281D01*
X103355967Y-124728521D01*
X103418911Y-124576560D01*
X103451000Y-124415240D01*
X103451000Y-124250760D01*
X103418911Y-124089440D01*
X103355967Y-123937479D01*
X103264587Y-123800719D01*
X103148281Y-123684413D01*
X103011521Y-123593033D01*
X102859560Y-123530089D01*
X102698240Y-123498000D01*
X102533760Y-123498000D01*
X102372440Y-123530089D01*
X102220479Y-123593033D01*
X102083719Y-123684413D01*
X101967413Y-123800719D01*
X101876033Y-123937479D01*
X101813089Y-124089440D01*
X101781000Y-124250760D01*
X101781000Y-124415240D01*
X101813089Y-124576560D01*
X101876033Y-124728521D01*
X101967413Y-124865281D01*
X102083719Y-124981587D01*
X102220479Y-125072967D01*
X102372440Y-125135911D01*
X102533760Y-125168000D01*
X102632132Y-125168000D01*
X102602413Y-125197719D01*
X102511033Y-125334479D01*
X102448089Y-125486440D01*
X102416000Y-125647760D01*
X102416000Y-125812240D01*
X102448089Y-125973560D01*
X102511033Y-126125521D01*
X102602413Y-126262281D01*
X102680132Y-126340000D01*
X96799000Y-126340000D01*
X96799000Y-123967807D01*
X96945760Y-123997000D01*
X97110240Y-123997000D01*
X97271560Y-123964911D01*
X97423521Y-123901967D01*
X97560281Y-123810587D01*
X97676587Y-123694281D01*
X97695112Y-123666556D01*
X99017685Y-123666556D01*
X99017685Y-123831036D01*
X99049774Y-123992356D01*
X99112718Y-124144317D01*
X99204098Y-124281077D01*
X99320404Y-124397383D01*
X99457164Y-124488763D01*
X99609125Y-124551707D01*
X99770445Y-124583796D01*
X99934925Y-124583796D01*
X100096245Y-124551707D01*
X100248206Y-124488763D01*
X100384966Y-124397383D01*
X100501272Y-124281077D01*
X100592652Y-124144317D01*
X100655596Y-123992356D01*
X100687685Y-123831036D01*
X100687685Y-123666556D01*
X100655596Y-123505236D01*
X100592652Y-123353275D01*
X100501272Y-123216515D01*
X100384966Y-123100209D01*
X100248206Y-123008829D01*
X100180442Y-122980760D01*
X103178000Y-122980760D01*
X103178000Y-123145240D01*
X103210089Y-123306560D01*
X103273033Y-123458521D01*
X103364413Y-123595281D01*
X103480719Y-123711587D01*
X103617479Y-123802967D01*
X103769440Y-123865911D01*
X103930760Y-123898000D01*
X104095240Y-123898000D01*
X104256560Y-123865911D01*
X104408521Y-123802967D01*
X104545281Y-123711587D01*
X104661587Y-123595281D01*
X104752967Y-123458521D01*
X104815911Y-123306560D01*
X104848000Y-123145240D01*
X104848000Y-122980760D01*
X104815911Y-122819440D01*
X104752967Y-122667479D01*
X104661587Y-122530719D01*
X104545281Y-122414413D01*
X104408521Y-122323033D01*
X104256560Y-122260089D01*
X104095240Y-122228000D01*
X103930760Y-122228000D01*
X103769440Y-122260089D01*
X103617479Y-122323033D01*
X103480719Y-122414413D01*
X103364413Y-122530719D01*
X103273033Y-122667479D01*
X103210089Y-122819440D01*
X103178000Y-122980760D01*
X100180442Y-122980760D01*
X100096245Y-122945885D01*
X99934925Y-122913796D01*
X99770445Y-122913796D01*
X99609125Y-122945885D01*
X99457164Y-123008829D01*
X99320404Y-123100209D01*
X99204098Y-123216515D01*
X99112718Y-123353275D01*
X99049774Y-123505236D01*
X99017685Y-123666556D01*
X97695112Y-123666556D01*
X97767967Y-123557521D01*
X97830911Y-123405560D01*
X97863000Y-123244240D01*
X97863000Y-123079760D01*
X97830911Y-122918440D01*
X97767967Y-122766479D01*
X97676587Y-122629719D01*
X97560281Y-122513413D01*
X97423521Y-122422033D01*
X97271560Y-122359089D01*
X97110240Y-122327000D01*
X96945760Y-122327000D01*
X96799000Y-122356193D01*
X96799000Y-120820807D01*
X96945760Y-120850000D01*
X97110240Y-120850000D01*
X97271560Y-120817911D01*
X97423521Y-120754967D01*
X97560281Y-120663587D01*
X97676587Y-120547281D01*
X97747761Y-120440760D01*
X99241000Y-120440760D01*
X99241000Y-120605240D01*
X99273089Y-120766560D01*
X99336033Y-120918521D01*
X99427413Y-121055281D01*
X99543719Y-121171587D01*
X99680479Y-121262967D01*
X99832440Y-121325911D01*
X99993760Y-121358000D01*
X100158240Y-121358000D01*
X100319560Y-121325911D01*
X100471521Y-121262967D01*
X100608281Y-121171587D01*
X100724587Y-121055281D01*
X100815967Y-120918521D01*
X100878911Y-120766560D01*
X100911000Y-120605240D01*
X100911000Y-120440760D01*
X100878911Y-120279440D01*
X100815967Y-120127479D01*
X100724587Y-119990719D01*
X100674628Y-119940760D01*
X100892000Y-119940760D01*
X100892000Y-120105240D01*
X100924089Y-120266560D01*
X100987033Y-120418521D01*
X101078413Y-120555281D01*
X101194719Y-120671587D01*
X101331479Y-120762967D01*
X101483440Y-120825911D01*
X101644760Y-120858000D01*
X101809240Y-120858000D01*
X101817558Y-120856345D01*
X101859699Y-120919414D01*
X101976005Y-121035720D01*
X102112765Y-121127100D01*
X102264726Y-121190044D01*
X102426046Y-121222133D01*
X102590526Y-121222133D01*
X102751846Y-121190044D01*
X102903807Y-121127100D01*
X102994580Y-121066448D01*
X103099719Y-121171587D01*
X103236479Y-121262967D01*
X103388440Y-121325911D01*
X103549760Y-121358000D01*
X103714240Y-121358000D01*
X103875560Y-121325911D01*
X104027521Y-121262967D01*
X104164281Y-121171587D01*
X104280587Y-121055281D01*
X104311873Y-121008458D01*
X104930420Y-121008458D01*
X104930420Y-121172938D01*
X104962509Y-121334258D01*
X105025453Y-121486219D01*
X105078189Y-121565144D01*
X105032089Y-121676440D01*
X105000000Y-121837760D01*
X105000000Y-122002240D01*
X105032089Y-122163560D01*
X105095033Y-122315521D01*
X105186413Y-122452281D01*
X105302719Y-122568587D01*
X105439479Y-122659967D01*
X105591440Y-122722911D01*
X105752760Y-122755000D01*
X105917240Y-122755000D01*
X106078560Y-122722911D01*
X106230521Y-122659967D01*
X106367281Y-122568587D01*
X106483587Y-122452281D01*
X106574967Y-122315521D01*
X106637911Y-122163560D01*
X106670000Y-122002240D01*
X106670000Y-121837760D01*
X106637911Y-121676440D01*
X106574967Y-121524479D01*
X106522231Y-121445554D01*
X106568331Y-121334258D01*
X106600420Y-121172938D01*
X106600420Y-121008458D01*
X106568331Y-120847138D01*
X106505387Y-120695177D01*
X106414007Y-120558417D01*
X106297701Y-120442111D01*
X106160941Y-120350731D01*
X106008980Y-120287787D01*
X105847660Y-120255698D01*
X105683180Y-120255698D01*
X105521860Y-120287787D01*
X105369899Y-120350731D01*
X105233139Y-120442111D01*
X105116833Y-120558417D01*
X105025453Y-120695177D01*
X104962509Y-120847138D01*
X104930420Y-121008458D01*
X104311873Y-121008458D01*
X104371967Y-120918521D01*
X104434911Y-120766560D01*
X104467000Y-120605240D01*
X104467000Y-120440760D01*
X104434911Y-120279440D01*
X104371967Y-120127479D01*
X104280587Y-119990719D01*
X104164281Y-119874413D01*
X104027521Y-119783033D01*
X103875560Y-119720089D01*
X103714240Y-119688000D01*
X103549760Y-119688000D01*
X103388440Y-119720089D01*
X103236479Y-119783033D01*
X103145706Y-119843685D01*
X103040567Y-119738546D01*
X102903807Y-119647166D01*
X102751846Y-119584222D01*
X102590526Y-119552133D01*
X102426046Y-119552133D01*
X102417728Y-119553788D01*
X102375587Y-119490719D01*
X102259281Y-119374413D01*
X102122521Y-119283033D01*
X101970560Y-119220089D01*
X101809240Y-119188000D01*
X101644760Y-119188000D01*
X101483440Y-119220089D01*
X101331479Y-119283033D01*
X101194719Y-119374413D01*
X101078413Y-119490719D01*
X100987033Y-119627479D01*
X100924089Y-119779440D01*
X100892000Y-119940760D01*
X100674628Y-119940760D01*
X100608281Y-119874413D01*
X100471521Y-119783033D01*
X100319560Y-119720089D01*
X100158240Y-119688000D01*
X99993760Y-119688000D01*
X99832440Y-119720089D01*
X99680479Y-119783033D01*
X99543719Y-119874413D01*
X99427413Y-119990719D01*
X99336033Y-120127479D01*
X99273089Y-120279440D01*
X99241000Y-120440760D01*
X97747761Y-120440760D01*
X97767967Y-120410521D01*
X97830911Y-120258560D01*
X97863000Y-120097240D01*
X97863000Y-119932760D01*
X97830911Y-119771440D01*
X97767967Y-119619479D01*
X97676587Y-119482719D01*
X97560281Y-119366413D01*
X97423521Y-119275033D01*
X97271560Y-119212089D01*
X97110240Y-119180000D01*
X96945760Y-119180000D01*
X96799000Y-119209193D01*
X96799000Y-118918515D01*
X96886479Y-118976967D01*
X97038440Y-119039911D01*
X97199760Y-119072000D01*
X97364240Y-119072000D01*
X97525560Y-119039911D01*
X97677521Y-118976967D01*
X97814281Y-118885587D01*
X97930587Y-118769281D01*
X98021967Y-118632521D01*
X98084911Y-118480560D01*
X98117000Y-118319240D01*
X98117000Y-118154760D01*
X98084911Y-117993440D01*
X98046522Y-117900760D01*
X98606000Y-117900760D01*
X98606000Y-118065240D01*
X98638089Y-118226560D01*
X98701033Y-118378521D01*
X98792413Y-118515281D01*
X98908719Y-118631587D01*
X98969565Y-118672243D01*
X98967591Y-118682169D01*
X98967591Y-118846649D01*
X98999680Y-119007969D01*
X99062624Y-119159930D01*
X99154004Y-119296690D01*
X99270310Y-119412996D01*
X99407070Y-119504376D01*
X99559031Y-119567320D01*
X99720351Y-119599409D01*
X99884831Y-119599409D01*
X100046151Y-119567320D01*
X100198112Y-119504376D01*
X100334872Y-119412996D01*
X100451178Y-119296690D01*
X100542558Y-119159930D01*
X100605502Y-119007969D01*
X100637591Y-118846649D01*
X100637591Y-118696492D01*
X100755760Y-118719998D01*
X100920240Y-118719998D01*
X101081560Y-118687909D01*
X101233521Y-118624965D01*
X101370281Y-118533585D01*
X101486587Y-118417279D01*
X101577967Y-118280519D01*
X101640911Y-118128558D01*
X101673000Y-117967238D01*
X101673000Y-117802758D01*
X101640911Y-117641438D01*
X101629034Y-117612762D01*
X101781000Y-117612762D01*
X101781000Y-117777242D01*
X101813089Y-117938562D01*
X101876033Y-118090523D01*
X101967413Y-118227283D01*
X102083719Y-118343589D01*
X102220479Y-118434969D01*
X102372440Y-118497913D01*
X102533760Y-118530002D01*
X102698240Y-118530002D01*
X102859560Y-118497913D01*
X103011521Y-118434969D01*
X103148281Y-118343589D01*
X103264587Y-118227283D01*
X103355967Y-118090523D01*
X103418911Y-117938562D01*
X103451000Y-117777242D01*
X103451000Y-117612762D01*
X103418911Y-117451442D01*
X103355967Y-117299481D01*
X103264587Y-117162721D01*
X103148281Y-117046415D01*
X103011521Y-116955035D01*
X102859560Y-116892091D01*
X102698240Y-116860002D01*
X102533760Y-116860002D01*
X102372440Y-116892091D01*
X102220479Y-116955035D01*
X102083719Y-117046415D01*
X101967413Y-117162721D01*
X101876033Y-117299481D01*
X101813089Y-117451442D01*
X101781000Y-117612762D01*
X101629034Y-117612762D01*
X101577967Y-117489477D01*
X101486587Y-117352717D01*
X101370281Y-117236411D01*
X101233521Y-117145031D01*
X101081560Y-117082087D01*
X100920240Y-117049998D01*
X100755760Y-117049998D01*
X100594440Y-117082087D01*
X100442479Y-117145031D01*
X100305719Y-117236411D01*
X100189413Y-117352717D01*
X100106759Y-117476418D01*
X100089587Y-117450719D01*
X99973281Y-117334413D01*
X99836521Y-117243033D01*
X99684560Y-117180089D01*
X99523240Y-117148000D01*
X99358760Y-117148000D01*
X99197440Y-117180089D01*
X99045479Y-117243033D01*
X98908719Y-117334413D01*
X98792413Y-117450719D01*
X98701033Y-117587479D01*
X98638089Y-117739440D01*
X98606000Y-117900760D01*
X98046522Y-117900760D01*
X98021967Y-117841479D01*
X97930587Y-117704719D01*
X97814281Y-117588413D01*
X97677521Y-117497033D01*
X97525560Y-117434089D01*
X97364240Y-117402000D01*
X97199760Y-117402000D01*
X97038440Y-117434089D01*
X96886479Y-117497033D01*
X96799000Y-117555485D01*
X96799000Y-115319633D01*
X98513228Y-115319633D01*
X98513228Y-115484113D01*
X98545317Y-115645433D01*
X98608261Y-115797394D01*
X98699641Y-115934154D01*
X98815947Y-116050460D01*
X98952707Y-116141840D01*
X99104668Y-116204784D01*
X99265988Y-116236873D01*
X99430468Y-116236873D01*
X99591788Y-116204784D01*
X99743749Y-116141840D01*
X99880509Y-116050460D01*
X99996815Y-115934154D01*
X100040509Y-115868760D01*
X100257000Y-115868760D01*
X100257000Y-116033240D01*
X100289089Y-116194560D01*
X100352033Y-116346521D01*
X100443413Y-116483281D01*
X100559719Y-116599587D01*
X100696479Y-116690967D01*
X100848440Y-116753911D01*
X101009760Y-116786000D01*
X101174240Y-116786000D01*
X101335560Y-116753911D01*
X101487521Y-116690967D01*
X101624281Y-116599587D01*
X101740587Y-116483281D01*
X101831967Y-116346521D01*
X101894911Y-116194560D01*
X101927000Y-116033240D01*
X101927000Y-115995760D01*
X103305000Y-115995760D01*
X103305000Y-116160240D01*
X103337089Y-116321560D01*
X103400033Y-116473521D01*
X103491413Y-116610281D01*
X103607719Y-116726587D01*
X103744479Y-116817967D01*
X103896440Y-116880911D01*
X104057760Y-116913000D01*
X104222240Y-116913000D01*
X104383560Y-116880911D01*
X104535521Y-116817967D01*
X104672281Y-116726587D01*
X104788587Y-116610281D01*
X104879967Y-116473521D01*
X104942911Y-116321560D01*
X104975000Y-116160240D01*
X104975000Y-115995760D01*
X104942911Y-115834440D01*
X104879967Y-115682479D01*
X104788587Y-115545719D01*
X104672281Y-115429413D01*
X104535521Y-115338033D01*
X104383560Y-115275089D01*
X104222240Y-115243000D01*
X104057760Y-115243000D01*
X103896440Y-115275089D01*
X103744479Y-115338033D01*
X103607719Y-115429413D01*
X103491413Y-115545719D01*
X103400033Y-115682479D01*
X103337089Y-115834440D01*
X103305000Y-115995760D01*
X101927000Y-115995760D01*
X101927000Y-115868760D01*
X101894911Y-115707440D01*
X101831967Y-115555479D01*
X101740587Y-115418719D01*
X101624281Y-115302413D01*
X101487521Y-115211033D01*
X101335560Y-115148089D01*
X101174240Y-115116000D01*
X101009760Y-115116000D01*
X100848440Y-115148089D01*
X100696479Y-115211033D01*
X100559719Y-115302413D01*
X100443413Y-115418719D01*
X100352033Y-115555479D01*
X100289089Y-115707440D01*
X100257000Y-115868760D01*
X100040509Y-115868760D01*
X100088195Y-115797394D01*
X100151139Y-115645433D01*
X100183228Y-115484113D01*
X100183228Y-115319633D01*
X100151139Y-115158313D01*
X100088195Y-115006352D01*
X99996815Y-114869592D01*
X99880509Y-114753286D01*
X99743749Y-114661906D01*
X99591788Y-114598962D01*
X99430468Y-114566873D01*
X99265988Y-114566873D01*
X99104668Y-114598962D01*
X98952707Y-114661906D01*
X98815947Y-114753286D01*
X98699641Y-114869592D01*
X98608261Y-115006352D01*
X98545317Y-115158313D01*
X98513228Y-115319633D01*
X96799000Y-115319633D01*
X96799000Y-110901396D01*
X96980241Y-111082637D01*
X97143407Y-111191661D01*
X97114089Y-111262440D01*
X97082000Y-111423760D01*
X97082000Y-111588240D01*
X97114089Y-111749560D01*
X97177033Y-111901521D01*
X97268413Y-112038281D01*
X97384719Y-112154587D01*
X97396257Y-112162296D01*
X97394479Y-112163033D01*
X97257719Y-112254413D01*
X97141413Y-112370719D01*
X97050033Y-112507479D01*
X96987089Y-112659440D01*
X96955000Y-112820760D01*
X96955000Y-112985240D01*
X96987089Y-113146560D01*
X97050033Y-113298521D01*
X97141413Y-113435281D01*
X97198093Y-113491961D01*
X97177033Y-113523479D01*
X97114089Y-113675440D01*
X97082000Y-113836760D01*
X97082000Y-114001240D01*
X97114089Y-114162560D01*
X97177033Y-114314521D01*
X97268413Y-114451281D01*
X97384719Y-114567587D01*
X97521479Y-114658967D01*
X97673440Y-114721911D01*
X97834760Y-114754000D01*
X97999240Y-114754000D01*
X98160560Y-114721911D01*
X98312521Y-114658967D01*
X98449281Y-114567587D01*
X98565587Y-114451281D01*
X98656967Y-114314521D01*
X98719911Y-114162560D01*
X98752000Y-114001240D01*
X98752000Y-113836760D01*
X98719911Y-113675440D01*
X98656967Y-113523479D01*
X98565587Y-113386719D01*
X98508907Y-113330039D01*
X98529967Y-113298521D01*
X98592911Y-113146560D01*
X98625000Y-112985240D01*
X98625000Y-112820760D01*
X98592911Y-112659440D01*
X98529967Y-112507479D01*
X98438587Y-112370719D01*
X98380628Y-112312760D01*
X99749000Y-112312760D01*
X99749000Y-112477240D01*
X99781089Y-112638560D01*
X99844033Y-112790521D01*
X99930195Y-112919472D01*
X99880089Y-113040440D01*
X99848000Y-113201760D01*
X99848000Y-113366240D01*
X99880089Y-113527560D01*
X99943033Y-113679521D01*
X100034413Y-113816281D01*
X100150719Y-113932587D01*
X100287479Y-114023967D01*
X100439440Y-114086911D01*
X100600760Y-114119000D01*
X100765240Y-114119000D01*
X100926560Y-114086911D01*
X101078521Y-114023967D01*
X101215281Y-113932587D01*
X101282500Y-113865368D01*
X101321719Y-113904587D01*
X101458479Y-113995967D01*
X101610440Y-114058911D01*
X101771760Y-114091000D01*
X101936240Y-114091000D01*
X102097560Y-114058911D01*
X102236730Y-114001265D01*
X102358479Y-114082615D01*
X102510440Y-114145559D01*
X102671760Y-114177648D01*
X102836240Y-114177648D01*
X102997560Y-114145559D01*
X103149521Y-114082615D01*
X103286281Y-113991235D01*
X103402587Y-113874929D01*
X103493967Y-113738169D01*
X103556911Y-113586208D01*
X103589000Y-113424888D01*
X103589000Y-113260408D01*
X103556911Y-113099088D01*
X103493967Y-112947127D01*
X103402587Y-112810367D01*
X103286281Y-112694061D01*
X103149521Y-112602681D01*
X102997560Y-112539737D01*
X102836240Y-112507648D01*
X102671760Y-112507648D01*
X102510440Y-112539737D01*
X102371270Y-112597383D01*
X102249521Y-112516033D01*
X102097560Y-112453089D01*
X101936240Y-112421000D01*
X101771760Y-112421000D01*
X101610440Y-112453089D01*
X101458479Y-112516033D01*
X101404049Y-112552402D01*
X101419000Y-112477240D01*
X101419000Y-112312760D01*
X101386911Y-112151440D01*
X101323967Y-111999479D01*
X101232587Y-111862719D01*
X101116281Y-111746413D01*
X100979521Y-111655033D01*
X100827560Y-111592089D01*
X100666240Y-111560000D01*
X100501760Y-111560000D01*
X100340440Y-111592089D01*
X100188479Y-111655033D01*
X100051719Y-111746413D01*
X99935413Y-111862719D01*
X99844033Y-111999479D01*
X99781089Y-112151440D01*
X99749000Y-112312760D01*
X98380628Y-112312760D01*
X98322281Y-112254413D01*
X98310743Y-112246704D01*
X98312521Y-112245967D01*
X98449281Y-112154587D01*
X98565587Y-112038281D01*
X98656967Y-111901521D01*
X98719911Y-111749560D01*
X98752000Y-111588240D01*
X98752000Y-111423760D01*
X98719911Y-111262440D01*
X98681055Y-111168634D01*
X98809759Y-111082637D01*
X99009637Y-110882759D01*
X99166680Y-110647727D01*
X99274853Y-110386574D01*
X99330000Y-110109335D01*
X99330000Y-109826665D01*
X99274853Y-109549426D01*
X99166680Y-109288273D01*
X99009637Y-109053241D01*
X98809759Y-108853363D01*
X98577241Y-108698000D01*
X98809759Y-108542637D01*
X99009637Y-108342759D01*
X99166680Y-108107727D01*
X99274853Y-107846574D01*
X99330000Y-107569335D01*
X99330000Y-107286665D01*
X99274853Y-107009426D01*
X99166680Y-106748273D01*
X99009637Y-106513241D01*
X98809759Y-106313363D01*
X98577241Y-106158000D01*
X98809759Y-106002637D01*
X99009637Y-105802759D01*
X99059580Y-105728013D01*
X99104760Y-105737000D01*
X99269240Y-105737000D01*
X99430560Y-105704911D01*
X99582521Y-105641967D01*
X99719281Y-105550587D01*
X99835587Y-105434281D01*
X99926967Y-105297521D01*
X99989911Y-105145560D01*
X100022000Y-104984240D01*
X100022000Y-104819760D01*
X99989911Y-104658440D01*
X99926967Y-104506479D01*
X99835587Y-104369719D01*
X99719281Y-104253413D01*
X99582521Y-104162033D01*
X99430560Y-104099089D01*
X99269240Y-104067000D01*
X99104760Y-104067000D01*
X99076095Y-104072702D01*
X99009637Y-103973241D01*
X98809759Y-103773363D01*
X98577241Y-103618000D01*
X98809759Y-103462637D01*
X98831264Y-103441132D01*
X98908719Y-103518587D01*
X99045479Y-103609967D01*
X99197440Y-103672911D01*
X99358760Y-103705000D01*
X99523240Y-103705000D01*
X99684560Y-103672911D01*
X99836521Y-103609967D01*
X99973281Y-103518587D01*
X100089587Y-103402281D01*
X100180967Y-103265521D01*
X100243911Y-103113560D01*
X100276000Y-102952240D01*
X100276000Y-102787760D01*
X100243911Y-102626440D01*
X100180967Y-102474479D01*
X100089587Y-102337719D01*
X100031628Y-102279760D01*
X101848175Y-102279760D01*
X101848175Y-102444240D01*
X101880264Y-102605560D01*
X101943208Y-102757521D01*
X102034588Y-102894281D01*
X102150894Y-103010587D01*
X102287654Y-103101967D01*
X102439615Y-103164911D01*
X102600935Y-103197000D01*
X102765415Y-103197000D01*
X102926735Y-103164911D01*
X103078696Y-103101967D01*
X103215456Y-103010587D01*
X103331762Y-102894281D01*
X103423142Y-102757521D01*
X103486086Y-102605560D01*
X103518175Y-102444240D01*
X103518175Y-102279760D01*
X103486086Y-102118440D01*
X103423142Y-101966479D01*
X103331762Y-101829719D01*
X103215456Y-101713413D01*
X103078696Y-101622033D01*
X102926735Y-101559089D01*
X102765415Y-101527000D01*
X102600935Y-101527000D01*
X102439615Y-101559089D01*
X102287654Y-101622033D01*
X102150894Y-101713413D01*
X102034588Y-101829719D01*
X101943208Y-101966479D01*
X101880264Y-102118440D01*
X101848175Y-102279760D01*
X100031628Y-102279760D01*
X99973281Y-102221413D01*
X99836521Y-102130033D01*
X99684560Y-102067089D01*
X99523240Y-102035000D01*
X99358760Y-102035000D01*
X99298248Y-102047037D01*
X99274853Y-101929426D01*
X99166680Y-101668273D01*
X99009637Y-101433241D01*
X98809759Y-101233363D01*
X98577241Y-101078000D01*
X98809759Y-100922637D01*
X99009637Y-100722759D01*
X99166680Y-100487727D01*
X99241000Y-100308302D01*
X99241000Y-100404240D01*
X99273089Y-100565560D01*
X99336033Y-100717521D01*
X99427413Y-100854281D01*
X99543719Y-100970587D01*
X99680479Y-101061967D01*
X99832440Y-101124911D01*
X99993760Y-101157000D01*
X100158240Y-101157000D01*
X100319560Y-101124911D01*
X100471521Y-101061967D01*
X100608281Y-100970587D01*
X100724587Y-100854281D01*
X100815967Y-100717521D01*
X100878911Y-100565560D01*
X100911000Y-100404240D01*
X100911000Y-100239760D01*
X100878911Y-100078440D01*
X100815967Y-99926479D01*
X100724587Y-99789719D01*
X100674628Y-99739760D01*
X102248185Y-99739760D01*
X102248185Y-99904240D01*
X102280274Y-100065560D01*
X102343218Y-100217521D01*
X102434598Y-100354281D01*
X102550904Y-100470587D01*
X102687664Y-100561967D01*
X102839625Y-100624911D01*
X103000945Y-100657000D01*
X103165425Y-100657000D01*
X103326745Y-100624911D01*
X103478706Y-100561967D01*
X103615466Y-100470587D01*
X103731772Y-100354281D01*
X103823152Y-100217521D01*
X103886096Y-100065560D01*
X103918185Y-99904240D01*
X103918185Y-99739760D01*
X103886096Y-99578440D01*
X103823152Y-99426479D01*
X103731772Y-99289719D01*
X103615466Y-99173413D01*
X103478706Y-99082033D01*
X103326745Y-99019089D01*
X103165425Y-98987000D01*
X103000945Y-98987000D01*
X102839625Y-99019089D01*
X102687664Y-99082033D01*
X102550904Y-99173413D01*
X102434598Y-99289719D01*
X102343218Y-99426479D01*
X102280274Y-99578440D01*
X102248185Y-99739760D01*
X100674628Y-99739760D01*
X100608281Y-99673413D01*
X100471521Y-99582033D01*
X100319560Y-99519089D01*
X100158240Y-99487000D01*
X99993760Y-99487000D01*
X99832440Y-99519089D01*
X99680479Y-99582033D01*
X99543719Y-99673413D01*
X99427413Y-99789719D01*
X99336033Y-99926479D01*
X99330000Y-99941044D01*
X99330000Y-99666665D01*
X99274853Y-99389426D01*
X99166680Y-99128273D01*
X99009637Y-98893241D01*
X98809759Y-98693363D01*
X98577241Y-98538000D01*
X98809759Y-98382637D01*
X99009637Y-98182759D01*
X99166680Y-97947727D01*
X99269391Y-97699760D01*
X99749000Y-97699760D01*
X99749000Y-97864240D01*
X99781089Y-98025560D01*
X99844033Y-98177521D01*
X99935413Y-98314281D01*
X100051719Y-98430587D01*
X100188479Y-98521967D01*
X100340440Y-98584911D01*
X100501760Y-98617000D01*
X100666240Y-98617000D01*
X100827560Y-98584911D01*
X100979521Y-98521967D01*
X101116281Y-98430587D01*
X101232587Y-98314281D01*
X101323967Y-98177521D01*
X101386911Y-98025560D01*
X101419000Y-97864240D01*
X101419000Y-97699760D01*
X101386911Y-97538440D01*
X101323967Y-97386479D01*
X101232587Y-97249719D01*
X101116281Y-97133413D01*
X100979521Y-97042033D01*
X100827560Y-96979089D01*
X100666240Y-96947000D01*
X100501760Y-96947000D01*
X100340440Y-96979089D01*
X100188479Y-97042033D01*
X100051719Y-97133413D01*
X99935413Y-97249719D01*
X99844033Y-97386479D01*
X99781089Y-97538440D01*
X99749000Y-97699760D01*
X99269391Y-97699760D01*
X99274853Y-97686574D01*
X99330000Y-97409335D01*
X99330000Y-97126665D01*
X99274853Y-96849426D01*
X99166680Y-96588273D01*
X99009637Y-96353241D01*
X98809759Y-96153363D01*
X98577241Y-95998000D01*
X98809759Y-95842637D01*
X99009637Y-95642759D01*
X99166680Y-95407727D01*
X99274853Y-95146574D01*
X99330000Y-94869335D01*
X99330000Y-94586665D01*
X99274853Y-94309426D01*
X99166680Y-94048273D01*
X99009637Y-93813241D01*
X98809759Y-93613363D01*
X98577241Y-93458000D01*
X98809759Y-93302637D01*
X99009637Y-93102759D01*
X99166680Y-92867727D01*
X99274853Y-92606574D01*
X99330000Y-92329335D01*
X99330000Y-92046665D01*
X99274853Y-91769426D01*
X99166680Y-91508273D01*
X99009637Y-91273241D01*
X98967156Y-91230760D01*
X99495000Y-91230760D01*
X99495000Y-91395240D01*
X99527089Y-91556560D01*
X99590033Y-91708521D01*
X99681413Y-91845281D01*
X99797719Y-91961587D01*
X99934479Y-92052967D01*
X100086440Y-92115911D01*
X100247760Y-92148000D01*
X100412240Y-92148000D01*
X100573560Y-92115911D01*
X100725521Y-92052967D01*
X100862281Y-91961587D01*
X100978587Y-91845281D01*
X101069967Y-91708521D01*
X101132911Y-91556560D01*
X101165000Y-91395240D01*
X101165000Y-91230760D01*
X101132911Y-91069440D01*
X101069967Y-90917479D01*
X100978587Y-90780719D01*
X100862281Y-90664413D01*
X100725521Y-90573033D01*
X100573560Y-90510089D01*
X100412240Y-90478000D01*
X100247760Y-90478000D01*
X100086440Y-90510089D01*
X99934479Y-90573033D01*
X99797719Y-90664413D01*
X99681413Y-90780719D01*
X99590033Y-90917479D01*
X99527089Y-91069440D01*
X99495000Y-91230760D01*
X98967156Y-91230760D01*
X98811039Y-91074643D01*
X98819482Y-91073812D01*
X98939180Y-91037502D01*
X99049494Y-90978537D01*
X99146185Y-90899185D01*
X99225537Y-90802494D01*
X99284502Y-90692180D01*
X99320812Y-90572482D01*
X99333072Y-90448000D01*
X99333072Y-89391760D01*
X99495000Y-89391760D01*
X99495000Y-89556240D01*
X99527089Y-89717560D01*
X99590033Y-89869521D01*
X99681413Y-90006281D01*
X99797719Y-90122587D01*
X99934479Y-90213967D01*
X100086440Y-90276911D01*
X100247760Y-90309000D01*
X100412240Y-90309000D01*
X100573560Y-90276911D01*
X100725521Y-90213967D01*
X100862281Y-90122587D01*
X100978587Y-90006281D01*
X101069967Y-89869521D01*
X101132911Y-89717560D01*
X101165000Y-89556240D01*
X101165000Y-89391760D01*
X101139738Y-89264760D01*
X102416000Y-89264760D01*
X102416000Y-89429240D01*
X102448089Y-89590560D01*
X102511033Y-89742521D01*
X102602413Y-89879281D01*
X102718719Y-89995587D01*
X102855479Y-90086967D01*
X103007440Y-90149911D01*
X103168760Y-90182000D01*
X103333240Y-90182000D01*
X103494560Y-90149911D01*
X103646521Y-90086967D01*
X103783281Y-89995587D01*
X103899587Y-89879281D01*
X103990967Y-89742521D01*
X104053911Y-89590560D01*
X104086000Y-89429240D01*
X104086000Y-89264760D01*
X104053911Y-89103440D01*
X103990967Y-88951479D01*
X103899587Y-88814719D01*
X103783281Y-88698413D01*
X103646521Y-88607033D01*
X103494560Y-88544089D01*
X103333240Y-88512000D01*
X103168760Y-88512000D01*
X103007440Y-88544089D01*
X102855479Y-88607033D01*
X102718719Y-88698413D01*
X102602413Y-88814719D01*
X102511033Y-88951479D01*
X102448089Y-89103440D01*
X102416000Y-89264760D01*
X101139738Y-89264760D01*
X101132911Y-89230440D01*
X101069967Y-89078479D01*
X100978587Y-88941719D01*
X100862281Y-88825413D01*
X100725521Y-88734033D01*
X100573560Y-88671089D01*
X100412240Y-88639000D01*
X100247760Y-88639000D01*
X100086440Y-88671089D01*
X99934479Y-88734033D01*
X99797719Y-88825413D01*
X99681413Y-88941719D01*
X99590033Y-89078479D01*
X99527089Y-89230440D01*
X99495000Y-89391760D01*
X99333072Y-89391760D01*
X99333072Y-88848000D01*
X99320812Y-88723518D01*
X99284502Y-88603820D01*
X99225537Y-88493506D01*
X99146185Y-88396815D01*
X99049494Y-88317463D01*
X98939180Y-88258498D01*
X98819482Y-88222188D01*
X98695000Y-88209928D01*
X97095000Y-88209928D01*
X96970518Y-88222188D01*
X96850820Y-88258498D01*
X96799000Y-88286197D01*
X96799000Y-85496000D01*
X103839485Y-85496000D01*
X103781033Y-85583479D01*
G37*
X103781033Y-85583479D02*
X103718089Y-85735440D01*
X103686000Y-85896760D01*
X103686000Y-86061240D01*
X103718089Y-86222560D01*
X103781033Y-86374521D01*
X103872413Y-86511281D01*
X103988719Y-86627587D01*
X104125479Y-86718967D01*
X104277440Y-86781911D01*
X104438760Y-86814000D01*
X104603240Y-86814000D01*
X104764560Y-86781911D01*
X104916521Y-86718967D01*
X105053281Y-86627587D01*
X105169587Y-86511281D01*
X105260967Y-86374521D01*
X105323911Y-86222560D01*
X105356000Y-86061240D01*
X105356000Y-85896760D01*
X105323911Y-85735440D01*
X105260967Y-85583479D01*
X105202515Y-85496000D01*
X106909001Y-85496000D01*
X106909001Y-87306931D01*
X106889240Y-87303000D01*
X106724760Y-87303000D01*
X106563440Y-87335089D01*
X106411479Y-87398033D01*
X106274719Y-87489413D01*
X106158413Y-87605719D01*
X106067033Y-87742479D01*
X106004089Y-87894440D01*
X105972000Y-88055760D01*
X105972000Y-88220240D01*
X105985835Y-88289794D01*
X105933574Y-88268147D01*
X105656335Y-88213000D01*
X105373665Y-88213000D01*
X105096426Y-88268147D01*
X104835273Y-88376320D01*
X104600241Y-88533363D01*
X104400363Y-88733241D01*
X104243320Y-88968273D01*
X104135147Y-89229426D01*
X104080000Y-89506665D01*
X104080000Y-89789335D01*
X104135147Y-90066574D01*
X104243320Y-90327727D01*
X104400363Y-90562759D01*
X104600241Y-90762637D01*
X104832759Y-90918000D01*
X104600241Y-91073363D01*
X104400363Y-91273241D01*
X104243320Y-91508273D01*
X104135147Y-91769426D01*
X104131607Y-91787221D01*
X103987684Y-91846836D01*
X103850924Y-91938216D01*
X103734618Y-92054522D01*
X103643238Y-92191282D01*
X103580294Y-92343243D01*
X103548205Y-92504563D01*
X103548205Y-92669043D01*
X103580294Y-92830363D01*
X103643238Y-92982324D01*
X103734618Y-93119084D01*
X103850924Y-93235390D01*
X103987684Y-93326770D01*
X104139645Y-93389714D01*
X104300965Y-93421803D01*
X104465445Y-93421803D01*
X104626765Y-93389714D01*
X104690840Y-93363173D01*
X104832759Y-93458000D01*
X104600241Y-93613363D01*
X104400363Y-93813241D01*
X104275194Y-94000570D01*
X104126765Y-93939089D01*
X103965445Y-93907000D01*
X103800965Y-93907000D01*
X103639645Y-93939089D01*
X103487684Y-94002033D01*
X103350924Y-94093413D01*
X103234618Y-94209719D01*
X103143238Y-94346479D01*
X103080294Y-94498440D01*
X103059033Y-94605323D01*
X102982479Y-94637033D01*
X102845719Y-94728413D01*
X102729413Y-94844719D01*
X102638033Y-94981479D01*
X102575089Y-95133440D01*
X102543000Y-95294760D01*
X102543000Y-95459240D01*
X102575089Y-95620560D01*
X102638033Y-95772521D01*
X102669966Y-95820312D01*
X102648195Y-95929760D01*
X102648195Y-96094240D01*
X102680284Y-96255560D01*
X102743228Y-96407521D01*
X102834608Y-96544281D01*
X102937327Y-96647000D01*
X102834608Y-96749719D01*
X102743228Y-96886479D01*
X102680284Y-97038440D01*
X102648195Y-97199760D01*
X102648195Y-97364240D01*
X102680284Y-97525560D01*
X102743228Y-97677521D01*
X102834608Y-97814281D01*
X102950914Y-97930587D01*
X103087674Y-98021967D01*
X103239635Y-98084911D01*
X103400955Y-98117000D01*
X103565435Y-98117000D01*
X103726755Y-98084911D01*
X103878716Y-98021967D01*
X104015476Y-97930587D01*
X104131782Y-97814281D01*
X104166514Y-97762301D01*
X104243320Y-97947727D01*
X104400363Y-98182759D01*
X104600241Y-98382637D01*
X104832759Y-98538000D01*
X104600241Y-98693363D01*
X104400363Y-98893241D01*
X104243320Y-99128273D01*
X104135147Y-99389426D01*
X104080000Y-99666665D01*
X104080000Y-99949335D01*
X104135147Y-100226574D01*
X104243320Y-100487727D01*
X104400363Y-100722759D01*
X104600241Y-100922637D01*
X104832759Y-101078000D01*
X104600241Y-101233363D01*
X104400363Y-101433241D01*
X104243320Y-101668273D01*
X104135147Y-101929426D01*
X104080000Y-102206665D01*
X104080000Y-102489335D01*
X104135147Y-102766574D01*
X104243320Y-103027727D01*
X104400363Y-103262759D01*
X104600241Y-103462637D01*
X104832759Y-103618000D01*
X104600241Y-103773363D01*
X104400363Y-103973241D01*
X104243320Y-104208273D01*
X104135147Y-104469426D01*
X104080000Y-104746665D01*
X104080000Y-105029335D01*
X104135147Y-105306574D01*
X104243320Y-105567727D01*
X104400363Y-105802759D01*
X104600241Y-106002637D01*
X104832759Y-106158000D01*
X104600241Y-106313363D01*
X104400363Y-106513241D01*
X104243320Y-106748273D01*
X104135147Y-107009426D01*
X104080000Y-107286665D01*
X104080000Y-107569335D01*
X104135147Y-107846574D01*
X104243320Y-108107727D01*
X104400363Y-108342759D01*
X104600241Y-108542637D01*
X104832759Y-108698000D01*
X104600241Y-108853363D01*
X104400363Y-109053241D01*
X104243320Y-109288273D01*
X104135147Y-109549426D01*
X104080000Y-109826665D01*
X104080000Y-110109335D01*
X104135147Y-110386574D01*
X104243320Y-110647727D01*
X104400363Y-110882759D01*
X104600241Y-111082637D01*
X104835273Y-111239680D01*
X105096426Y-111347853D01*
X105373665Y-111403000D01*
X105656335Y-111403000D01*
X105933574Y-111347853D01*
X106194727Y-111239680D01*
X106429759Y-111082637D01*
X106629637Y-110882759D01*
X106786680Y-110647727D01*
X106894853Y-110386574D01*
X106909000Y-110315452D01*
X106909000Y-118688464D01*
X106826230Y-118672000D01*
X106661750Y-118672000D01*
X106500430Y-118704089D01*
X106348469Y-118767033D01*
X106211709Y-118858413D01*
X106095403Y-118974719D01*
X106004023Y-119111479D01*
X105941079Y-119263440D01*
X105908990Y-119424760D01*
X105908990Y-119589240D01*
X105941079Y-119750560D01*
X106004023Y-119902521D01*
X106095403Y-120039281D01*
X106211709Y-120155587D01*
X106348469Y-120246967D01*
X106500430Y-120309911D01*
X106661750Y-120342000D01*
X106826230Y-120342000D01*
X106909000Y-120325536D01*
X106909000Y-120363582D01*
X106909001Y-122725781D01*
X106909000Y-123995781D01*
X106909000Y-123995782D01*
X106909001Y-126340000D01*
X105726868Y-126340000D01*
X105804587Y-126262281D01*
X105895967Y-126125521D01*
X105958911Y-125973560D01*
X105991000Y-125812240D01*
X105991000Y-125647760D01*
X105958911Y-125486440D01*
X105895967Y-125334479D01*
X105804587Y-125197719D01*
X105688281Y-125081413D01*
X105551521Y-124990033D01*
X105399560Y-124927089D01*
X105238240Y-124895000D01*
X105073760Y-124895000D01*
X104912440Y-124927089D01*
X104760479Y-124990033D01*
X104623719Y-125081413D01*
X104507413Y-125197719D01*
X104416033Y-125334479D01*
X104353089Y-125486440D01*
X104321000Y-125647760D01*
X104321000Y-125812240D01*
X104353089Y-125973560D01*
X104416033Y-126125521D01*
X104507413Y-126262281D01*
X104585132Y-126340000D01*
X103821868Y-126340000D01*
X103899587Y-126262281D01*
X103990967Y-126125521D01*
X104053911Y-125973560D01*
X104086000Y-125812240D01*
X104086000Y-125647760D01*
X104053911Y-125486440D01*
X103990967Y-125334479D01*
X103899587Y-125197719D01*
X103783281Y-125081413D01*
X103646521Y-124990033D01*
X103494560Y-124927089D01*
X103333240Y-124895000D01*
X103234868Y-124895000D01*
X103264587Y-124865281D01*
X103355967Y-124728521D01*
X103418911Y-124576560D01*
X103451000Y-124415240D01*
X103451000Y-124250760D01*
X103418911Y-124089440D01*
X103355967Y-123937479D01*
X103264587Y-123800719D01*
X103148281Y-123684413D01*
X103011521Y-123593033D01*
X102859560Y-123530089D01*
X102698240Y-123498000D01*
X102533760Y-123498000D01*
X102372440Y-123530089D01*
X102220479Y-123593033D01*
X102083719Y-123684413D01*
X101967413Y-123800719D01*
X101876033Y-123937479D01*
X101813089Y-124089440D01*
X101781000Y-124250760D01*
X101781000Y-124415240D01*
X101813089Y-124576560D01*
X101876033Y-124728521D01*
X101967413Y-124865281D01*
X102083719Y-124981587D01*
X102220479Y-125072967D01*
X102372440Y-125135911D01*
X102533760Y-125168000D01*
X102632132Y-125168000D01*
X102602413Y-125197719D01*
X102511033Y-125334479D01*
X102448089Y-125486440D01*
X102416000Y-125647760D01*
X102416000Y-125812240D01*
X102448089Y-125973560D01*
X102511033Y-126125521D01*
X102602413Y-126262281D01*
X102680132Y-126340000D01*
X96799000Y-126340000D01*
X96799000Y-123967807D01*
X96945760Y-123997000D01*
X97110240Y-123997000D01*
X97271560Y-123964911D01*
X97423521Y-123901967D01*
X97560281Y-123810587D01*
X97676587Y-123694281D01*
X97695112Y-123666556D01*
X99017685Y-123666556D01*
X99017685Y-123831036D01*
X99049774Y-123992356D01*
X99112718Y-124144317D01*
X99204098Y-124281077D01*
X99320404Y-124397383D01*
X99457164Y-124488763D01*
X99609125Y-124551707D01*
X99770445Y-124583796D01*
X99934925Y-124583796D01*
X100096245Y-124551707D01*
X100248206Y-124488763D01*
X100384966Y-124397383D01*
X100501272Y-124281077D01*
X100592652Y-124144317D01*
X100655596Y-123992356D01*
X100687685Y-123831036D01*
X100687685Y-123666556D01*
X100655596Y-123505236D01*
X100592652Y-123353275D01*
X100501272Y-123216515D01*
X100384966Y-123100209D01*
X100248206Y-123008829D01*
X100180442Y-122980760D01*
X103178000Y-122980760D01*
X103178000Y-123145240D01*
X103210089Y-123306560D01*
X103273033Y-123458521D01*
X103364413Y-123595281D01*
X103480719Y-123711587D01*
X103617479Y-123802967D01*
X103769440Y-123865911D01*
X103930760Y-123898000D01*
X104095240Y-123898000D01*
X104256560Y-123865911D01*
X104408521Y-123802967D01*
X104545281Y-123711587D01*
X104661587Y-123595281D01*
X104752967Y-123458521D01*
X104815911Y-123306560D01*
X104848000Y-123145240D01*
X104848000Y-122980760D01*
X104815911Y-122819440D01*
X104752967Y-122667479D01*
X104661587Y-122530719D01*
X104545281Y-122414413D01*
X104408521Y-122323033D01*
X104256560Y-122260089D01*
X104095240Y-122228000D01*
X103930760Y-122228000D01*
X103769440Y-122260089D01*
X103617479Y-122323033D01*
X103480719Y-122414413D01*
X103364413Y-122530719D01*
X103273033Y-122667479D01*
X103210089Y-122819440D01*
X103178000Y-122980760D01*
X100180442Y-122980760D01*
X100096245Y-122945885D01*
X99934925Y-122913796D01*
X99770445Y-122913796D01*
X99609125Y-122945885D01*
X99457164Y-123008829D01*
X99320404Y-123100209D01*
X99204098Y-123216515D01*
X99112718Y-123353275D01*
X99049774Y-123505236D01*
X99017685Y-123666556D01*
X97695112Y-123666556D01*
X97767967Y-123557521D01*
X97830911Y-123405560D01*
X97863000Y-123244240D01*
X97863000Y-123079760D01*
X97830911Y-122918440D01*
X97767967Y-122766479D01*
X97676587Y-122629719D01*
X97560281Y-122513413D01*
X97423521Y-122422033D01*
X97271560Y-122359089D01*
X97110240Y-122327000D01*
X96945760Y-122327000D01*
X96799000Y-122356193D01*
X96799000Y-120820807D01*
X96945760Y-120850000D01*
X97110240Y-120850000D01*
X97271560Y-120817911D01*
X97423521Y-120754967D01*
X97560281Y-120663587D01*
X97676587Y-120547281D01*
X97747761Y-120440760D01*
X99241000Y-120440760D01*
X99241000Y-120605240D01*
X99273089Y-120766560D01*
X99336033Y-120918521D01*
X99427413Y-121055281D01*
X99543719Y-121171587D01*
X99680479Y-121262967D01*
X99832440Y-121325911D01*
X99993760Y-121358000D01*
X100158240Y-121358000D01*
X100319560Y-121325911D01*
X100471521Y-121262967D01*
X100608281Y-121171587D01*
X100724587Y-121055281D01*
X100815967Y-120918521D01*
X100878911Y-120766560D01*
X100911000Y-120605240D01*
X100911000Y-120440760D01*
X100878911Y-120279440D01*
X100815967Y-120127479D01*
X100724587Y-119990719D01*
X100674628Y-119940760D01*
X100892000Y-119940760D01*
X100892000Y-120105240D01*
X100924089Y-120266560D01*
X100987033Y-120418521D01*
X101078413Y-120555281D01*
X101194719Y-120671587D01*
X101331479Y-120762967D01*
X101483440Y-120825911D01*
X101644760Y-120858000D01*
X101809240Y-120858000D01*
X101817558Y-120856345D01*
X101859699Y-120919414D01*
X101976005Y-121035720D01*
X102112765Y-121127100D01*
X102264726Y-121190044D01*
X102426046Y-121222133D01*
X102590526Y-121222133D01*
X102751846Y-121190044D01*
X102903807Y-121127100D01*
X102994580Y-121066448D01*
X103099719Y-121171587D01*
X103236479Y-121262967D01*
X103388440Y-121325911D01*
X103549760Y-121358000D01*
X103714240Y-121358000D01*
X103875560Y-121325911D01*
X104027521Y-121262967D01*
X104164281Y-121171587D01*
X104280587Y-121055281D01*
X104311873Y-121008458D01*
X104930420Y-121008458D01*
X104930420Y-121172938D01*
X104962509Y-121334258D01*
X105025453Y-121486219D01*
X105078189Y-121565144D01*
X105032089Y-121676440D01*
X105000000Y-121837760D01*
X105000000Y-122002240D01*
X105032089Y-122163560D01*
X105095033Y-122315521D01*
X105186413Y-122452281D01*
X105302719Y-122568587D01*
X105439479Y-122659967D01*
X105591440Y-122722911D01*
X105752760Y-122755000D01*
X105917240Y-122755000D01*
X106078560Y-122722911D01*
X106230521Y-122659967D01*
X106367281Y-122568587D01*
X106483587Y-122452281D01*
X106574967Y-122315521D01*
X106637911Y-122163560D01*
X106670000Y-122002240D01*
X106670000Y-121837760D01*
X106637911Y-121676440D01*
X106574967Y-121524479D01*
X106522231Y-121445554D01*
X106568331Y-121334258D01*
X106600420Y-121172938D01*
X106600420Y-121008458D01*
X106568331Y-120847138D01*
X106505387Y-120695177D01*
X106414007Y-120558417D01*
X106297701Y-120442111D01*
X106160941Y-120350731D01*
X106008980Y-120287787D01*
X105847660Y-120255698D01*
X105683180Y-120255698D01*
X105521860Y-120287787D01*
X105369899Y-120350731D01*
X105233139Y-120442111D01*
X105116833Y-120558417D01*
X105025453Y-120695177D01*
X104962509Y-120847138D01*
X104930420Y-121008458D01*
X104311873Y-121008458D01*
X104371967Y-120918521D01*
X104434911Y-120766560D01*
X104467000Y-120605240D01*
X104467000Y-120440760D01*
X104434911Y-120279440D01*
X104371967Y-120127479D01*
X104280587Y-119990719D01*
X104164281Y-119874413D01*
X104027521Y-119783033D01*
X103875560Y-119720089D01*
X103714240Y-119688000D01*
X103549760Y-119688000D01*
X103388440Y-119720089D01*
X103236479Y-119783033D01*
X103145706Y-119843685D01*
X103040567Y-119738546D01*
X102903807Y-119647166D01*
X102751846Y-119584222D01*
X102590526Y-119552133D01*
X102426046Y-119552133D01*
X102417728Y-119553788D01*
X102375587Y-119490719D01*
X102259281Y-119374413D01*
X102122521Y-119283033D01*
X101970560Y-119220089D01*
X101809240Y-119188000D01*
X101644760Y-119188000D01*
X101483440Y-119220089D01*
X101331479Y-119283033D01*
X101194719Y-119374413D01*
X101078413Y-119490719D01*
X100987033Y-119627479D01*
X100924089Y-119779440D01*
X100892000Y-119940760D01*
X100674628Y-119940760D01*
X100608281Y-119874413D01*
X100471521Y-119783033D01*
X100319560Y-119720089D01*
X100158240Y-119688000D01*
X99993760Y-119688000D01*
X99832440Y-119720089D01*
X99680479Y-119783033D01*
X99543719Y-119874413D01*
X99427413Y-119990719D01*
X99336033Y-120127479D01*
X99273089Y-120279440D01*
X99241000Y-120440760D01*
X97747761Y-120440760D01*
X97767967Y-120410521D01*
X97830911Y-120258560D01*
X97863000Y-120097240D01*
X97863000Y-119932760D01*
X97830911Y-119771440D01*
X97767967Y-119619479D01*
X97676587Y-119482719D01*
X97560281Y-119366413D01*
X97423521Y-119275033D01*
X97271560Y-119212089D01*
X97110240Y-119180000D01*
X96945760Y-119180000D01*
X96799000Y-119209193D01*
X96799000Y-118918515D01*
X96886479Y-118976967D01*
X97038440Y-119039911D01*
X97199760Y-119072000D01*
X97364240Y-119072000D01*
X97525560Y-119039911D01*
X97677521Y-118976967D01*
X97814281Y-118885587D01*
X97930587Y-118769281D01*
X98021967Y-118632521D01*
X98084911Y-118480560D01*
X98117000Y-118319240D01*
X98117000Y-118154760D01*
X98084911Y-117993440D01*
X98046522Y-117900760D01*
X98606000Y-117900760D01*
X98606000Y-118065240D01*
X98638089Y-118226560D01*
X98701033Y-118378521D01*
X98792413Y-118515281D01*
X98908719Y-118631587D01*
X98969565Y-118672243D01*
X98967591Y-118682169D01*
X98967591Y-118846649D01*
X98999680Y-119007969D01*
X99062624Y-119159930D01*
X99154004Y-119296690D01*
X99270310Y-119412996D01*
X99407070Y-119504376D01*
X99559031Y-119567320D01*
X99720351Y-119599409D01*
X99884831Y-119599409D01*
X100046151Y-119567320D01*
X100198112Y-119504376D01*
X100334872Y-119412996D01*
X100451178Y-119296690D01*
X100542558Y-119159930D01*
X100605502Y-119007969D01*
X100637591Y-118846649D01*
X100637591Y-118696492D01*
X100755760Y-118719998D01*
X100920240Y-118719998D01*
X101081560Y-118687909D01*
X101233521Y-118624965D01*
X101370281Y-118533585D01*
X101486587Y-118417279D01*
X101577967Y-118280519D01*
X101640911Y-118128558D01*
X101673000Y-117967238D01*
X101673000Y-117802758D01*
X101640911Y-117641438D01*
X101629034Y-117612762D01*
X101781000Y-117612762D01*
X101781000Y-117777242D01*
X101813089Y-117938562D01*
X101876033Y-118090523D01*
X101967413Y-118227283D01*
X102083719Y-118343589D01*
X102220479Y-118434969D01*
X102372440Y-118497913D01*
X102533760Y-118530002D01*
X102698240Y-118530002D01*
X102859560Y-118497913D01*
X103011521Y-118434969D01*
X103148281Y-118343589D01*
X103264587Y-118227283D01*
X103355967Y-118090523D01*
X103418911Y-117938562D01*
X103451000Y-117777242D01*
X103451000Y-117612762D01*
X103418911Y-117451442D01*
X103355967Y-117299481D01*
X103264587Y-117162721D01*
X103148281Y-117046415D01*
X103011521Y-116955035D01*
X102859560Y-116892091D01*
X102698240Y-116860002D01*
X102533760Y-116860002D01*
X102372440Y-116892091D01*
X102220479Y-116955035D01*
X102083719Y-117046415D01*
X101967413Y-117162721D01*
X101876033Y-117299481D01*
X101813089Y-117451442D01*
X101781000Y-117612762D01*
X101629034Y-117612762D01*
X101577967Y-117489477D01*
X101486587Y-117352717D01*
X101370281Y-117236411D01*
X101233521Y-117145031D01*
X101081560Y-117082087D01*
X100920240Y-117049998D01*
X100755760Y-117049998D01*
X100594440Y-117082087D01*
X100442479Y-117145031D01*
X100305719Y-117236411D01*
X100189413Y-117352717D01*
X100106759Y-117476418D01*
X100089587Y-117450719D01*
X99973281Y-117334413D01*
X99836521Y-117243033D01*
X99684560Y-117180089D01*
X99523240Y-117148000D01*
X99358760Y-117148000D01*
X99197440Y-117180089D01*
X99045479Y-117243033D01*
X98908719Y-117334413D01*
X98792413Y-117450719D01*
X98701033Y-117587479D01*
X98638089Y-117739440D01*
X98606000Y-117900760D01*
X98046522Y-117900760D01*
X98021967Y-117841479D01*
X97930587Y-117704719D01*
X97814281Y-117588413D01*
X97677521Y-117497033D01*
X97525560Y-117434089D01*
X97364240Y-117402000D01*
X97199760Y-117402000D01*
X97038440Y-117434089D01*
X96886479Y-117497033D01*
X96799000Y-117555485D01*
X96799000Y-115319633D01*
X98513228Y-115319633D01*
X98513228Y-115484113D01*
X98545317Y-115645433D01*
X98608261Y-115797394D01*
X98699641Y-115934154D01*
X98815947Y-116050460D01*
X98952707Y-116141840D01*
X99104668Y-116204784D01*
X99265988Y-116236873D01*
X99430468Y-116236873D01*
X99591788Y-116204784D01*
X99743749Y-116141840D01*
X99880509Y-116050460D01*
X99996815Y-115934154D01*
X100040509Y-115868760D01*
X100257000Y-115868760D01*
X100257000Y-116033240D01*
X100289089Y-116194560D01*
X100352033Y-116346521D01*
X100443413Y-116483281D01*
X100559719Y-116599587D01*
X100696479Y-116690967D01*
X100848440Y-116753911D01*
X101009760Y-116786000D01*
X101174240Y-116786000D01*
X101335560Y-116753911D01*
X101487521Y-116690967D01*
X101624281Y-116599587D01*
X101740587Y-116483281D01*
X101831967Y-116346521D01*
X101894911Y-116194560D01*
X101927000Y-116033240D01*
X101927000Y-115995760D01*
X103305000Y-115995760D01*
X103305000Y-116160240D01*
X103337089Y-116321560D01*
X103400033Y-116473521D01*
X103491413Y-116610281D01*
X103607719Y-116726587D01*
X103744479Y-116817967D01*
X103896440Y-116880911D01*
X104057760Y-116913000D01*
X104222240Y-116913000D01*
X104383560Y-116880911D01*
X104535521Y-116817967D01*
X104672281Y-116726587D01*
X104788587Y-116610281D01*
X104879967Y-116473521D01*
X104942911Y-116321560D01*
X104975000Y-116160240D01*
X104975000Y-115995760D01*
X104942911Y-115834440D01*
X104879967Y-115682479D01*
X104788587Y-115545719D01*
X104672281Y-115429413D01*
X104535521Y-115338033D01*
X104383560Y-115275089D01*
X104222240Y-115243000D01*
X104057760Y-115243000D01*
X103896440Y-115275089D01*
X103744479Y-115338033D01*
X103607719Y-115429413D01*
X103491413Y-115545719D01*
X103400033Y-115682479D01*
X103337089Y-115834440D01*
X103305000Y-115995760D01*
X101927000Y-115995760D01*
X101927000Y-115868760D01*
X101894911Y-115707440D01*
X101831967Y-115555479D01*
X101740587Y-115418719D01*
X101624281Y-115302413D01*
X101487521Y-115211033D01*
X101335560Y-115148089D01*
X101174240Y-115116000D01*
X101009760Y-115116000D01*
X100848440Y-115148089D01*
X100696479Y-115211033D01*
X100559719Y-115302413D01*
X100443413Y-115418719D01*
X100352033Y-115555479D01*
X100289089Y-115707440D01*
X100257000Y-115868760D01*
X100040509Y-115868760D01*
X100088195Y-115797394D01*
X100151139Y-115645433D01*
X100183228Y-115484113D01*
X100183228Y-115319633D01*
X100151139Y-115158313D01*
X100088195Y-115006352D01*
X99996815Y-114869592D01*
X99880509Y-114753286D01*
X99743749Y-114661906D01*
X99591788Y-114598962D01*
X99430468Y-114566873D01*
X99265988Y-114566873D01*
X99104668Y-114598962D01*
X98952707Y-114661906D01*
X98815947Y-114753286D01*
X98699641Y-114869592D01*
X98608261Y-115006352D01*
X98545317Y-115158313D01*
X98513228Y-115319633D01*
X96799000Y-115319633D01*
X96799000Y-110901396D01*
X96980241Y-111082637D01*
X97143407Y-111191661D01*
X97114089Y-111262440D01*
X97082000Y-111423760D01*
X97082000Y-111588240D01*
X97114089Y-111749560D01*
X97177033Y-111901521D01*
X97268413Y-112038281D01*
X97384719Y-112154587D01*
X97396257Y-112162296D01*
X97394479Y-112163033D01*
X97257719Y-112254413D01*
X97141413Y-112370719D01*
X97050033Y-112507479D01*
X96987089Y-112659440D01*
X96955000Y-112820760D01*
X96955000Y-112985240D01*
X96987089Y-113146560D01*
X97050033Y-113298521D01*
X97141413Y-113435281D01*
X97198093Y-113491961D01*
X97177033Y-113523479D01*
X97114089Y-113675440D01*
X97082000Y-113836760D01*
X97082000Y-114001240D01*
X97114089Y-114162560D01*
X97177033Y-114314521D01*
X97268413Y-114451281D01*
X97384719Y-114567587D01*
X97521479Y-114658967D01*
X97673440Y-114721911D01*
X97834760Y-114754000D01*
X97999240Y-114754000D01*
X98160560Y-114721911D01*
X98312521Y-114658967D01*
X98449281Y-114567587D01*
X98565587Y-114451281D01*
X98656967Y-114314521D01*
X98719911Y-114162560D01*
X98752000Y-114001240D01*
X98752000Y-113836760D01*
X98719911Y-113675440D01*
X98656967Y-113523479D01*
X98565587Y-113386719D01*
X98508907Y-113330039D01*
X98529967Y-113298521D01*
X98592911Y-113146560D01*
X98625000Y-112985240D01*
X98625000Y-112820760D01*
X98592911Y-112659440D01*
X98529967Y-112507479D01*
X98438587Y-112370719D01*
X98380628Y-112312760D01*
X99749000Y-112312760D01*
X99749000Y-112477240D01*
X99781089Y-112638560D01*
X99844033Y-112790521D01*
X99930195Y-112919472D01*
X99880089Y-113040440D01*
X99848000Y-113201760D01*
X99848000Y-113366240D01*
X99880089Y-113527560D01*
X99943033Y-113679521D01*
X100034413Y-113816281D01*
X100150719Y-113932587D01*
X100287479Y-114023967D01*
X100439440Y-114086911D01*
X100600760Y-114119000D01*
X100765240Y-114119000D01*
X100926560Y-114086911D01*
X101078521Y-114023967D01*
X101215281Y-113932587D01*
X101282500Y-113865368D01*
X101321719Y-113904587D01*
X101458479Y-113995967D01*
X101610440Y-114058911D01*
X101771760Y-114091000D01*
X101936240Y-114091000D01*
X102097560Y-114058911D01*
X102236730Y-114001265D01*
X102358479Y-114082615D01*
X102510440Y-114145559D01*
X102671760Y-114177648D01*
X102836240Y-114177648D01*
X102997560Y-114145559D01*
X103149521Y-114082615D01*
X103286281Y-113991235D01*
X103402587Y-113874929D01*
X103493967Y-113738169D01*
X103556911Y-113586208D01*
X103589000Y-113424888D01*
X103589000Y-113260408D01*
X103556911Y-113099088D01*
X103493967Y-112947127D01*
X103402587Y-112810367D01*
X103286281Y-112694061D01*
X103149521Y-112602681D01*
X102997560Y-112539737D01*
X102836240Y-112507648D01*
X102671760Y-112507648D01*
X102510440Y-112539737D01*
X102371270Y-112597383D01*
X102249521Y-112516033D01*
X102097560Y-112453089D01*
X101936240Y-112421000D01*
X101771760Y-112421000D01*
X101610440Y-112453089D01*
X101458479Y-112516033D01*
X101404049Y-112552402D01*
X101419000Y-112477240D01*
X101419000Y-112312760D01*
X101386911Y-112151440D01*
X101323967Y-111999479D01*
X101232587Y-111862719D01*
X101116281Y-111746413D01*
X100979521Y-111655033D01*
X100827560Y-111592089D01*
X100666240Y-111560000D01*
X100501760Y-111560000D01*
X100340440Y-111592089D01*
X100188479Y-111655033D01*
X100051719Y-111746413D01*
X99935413Y-111862719D01*
X99844033Y-111999479D01*
X99781089Y-112151440D01*
X99749000Y-112312760D01*
X98380628Y-112312760D01*
X98322281Y-112254413D01*
X98310743Y-112246704D01*
X98312521Y-112245967D01*
X98449281Y-112154587D01*
X98565587Y-112038281D01*
X98656967Y-111901521D01*
X98719911Y-111749560D01*
X98752000Y-111588240D01*
X98752000Y-111423760D01*
X98719911Y-111262440D01*
X98681055Y-111168634D01*
X98809759Y-111082637D01*
X99009637Y-110882759D01*
X99166680Y-110647727D01*
X99274853Y-110386574D01*
X99330000Y-110109335D01*
X99330000Y-109826665D01*
X99274853Y-109549426D01*
X99166680Y-109288273D01*
X99009637Y-109053241D01*
X98809759Y-108853363D01*
X98577241Y-108698000D01*
X98809759Y-108542637D01*
X99009637Y-108342759D01*
X99166680Y-108107727D01*
X99274853Y-107846574D01*
X99330000Y-107569335D01*
X99330000Y-107286665D01*
X99274853Y-107009426D01*
X99166680Y-106748273D01*
X99009637Y-106513241D01*
X98809759Y-106313363D01*
X98577241Y-106158000D01*
X98809759Y-106002637D01*
X99009637Y-105802759D01*
X99059580Y-105728013D01*
X99104760Y-105737000D01*
X99269240Y-105737000D01*
X99430560Y-105704911D01*
X99582521Y-105641967D01*
X99719281Y-105550587D01*
X99835587Y-105434281D01*
X99926967Y-105297521D01*
X99989911Y-105145560D01*
X100022000Y-104984240D01*
X100022000Y-104819760D01*
X99989911Y-104658440D01*
X99926967Y-104506479D01*
X99835587Y-104369719D01*
X99719281Y-104253413D01*
X99582521Y-104162033D01*
X99430560Y-104099089D01*
X99269240Y-104067000D01*
X99104760Y-104067000D01*
X99076095Y-104072702D01*
X99009637Y-103973241D01*
X98809759Y-103773363D01*
X98577241Y-103618000D01*
X98809759Y-103462637D01*
X98831264Y-103441132D01*
X98908719Y-103518587D01*
X99045479Y-103609967D01*
X99197440Y-103672911D01*
X99358760Y-103705000D01*
X99523240Y-103705000D01*
X99684560Y-103672911D01*
X99836521Y-103609967D01*
X99973281Y-103518587D01*
X100089587Y-103402281D01*
X100180967Y-103265521D01*
X100243911Y-103113560D01*
X100276000Y-102952240D01*
X100276000Y-102787760D01*
X100243911Y-102626440D01*
X100180967Y-102474479D01*
X100089587Y-102337719D01*
X100031628Y-102279760D01*
X101848175Y-102279760D01*
X101848175Y-102444240D01*
X101880264Y-102605560D01*
X101943208Y-102757521D01*
X102034588Y-102894281D01*
X102150894Y-103010587D01*
X102287654Y-103101967D01*
X102439615Y-103164911D01*
X102600935Y-103197000D01*
X102765415Y-103197000D01*
X102926735Y-103164911D01*
X103078696Y-103101967D01*
X103215456Y-103010587D01*
X103331762Y-102894281D01*
X103423142Y-102757521D01*
X103486086Y-102605560D01*
X103518175Y-102444240D01*
X103518175Y-102279760D01*
X103486086Y-102118440D01*
X103423142Y-101966479D01*
X103331762Y-101829719D01*
X103215456Y-101713413D01*
X103078696Y-101622033D01*
X102926735Y-101559089D01*
X102765415Y-101527000D01*
X102600935Y-101527000D01*
X102439615Y-101559089D01*
X102287654Y-101622033D01*
X102150894Y-101713413D01*
X102034588Y-101829719D01*
X101943208Y-101966479D01*
X101880264Y-102118440D01*
X101848175Y-102279760D01*
X100031628Y-102279760D01*
X99973281Y-102221413D01*
X99836521Y-102130033D01*
X99684560Y-102067089D01*
X99523240Y-102035000D01*
X99358760Y-102035000D01*
X99298248Y-102047037D01*
X99274853Y-101929426D01*
X99166680Y-101668273D01*
X99009637Y-101433241D01*
X98809759Y-101233363D01*
X98577241Y-101078000D01*
X98809759Y-100922637D01*
X99009637Y-100722759D01*
X99166680Y-100487727D01*
X99241000Y-100308302D01*
X99241000Y-100404240D01*
X99273089Y-100565560D01*
X99336033Y-100717521D01*
X99427413Y-100854281D01*
X99543719Y-100970587D01*
X99680479Y-101061967D01*
X99832440Y-101124911D01*
X99993760Y-101157000D01*
X100158240Y-101157000D01*
X100319560Y-101124911D01*
X100471521Y-101061967D01*
X100608281Y-100970587D01*
X100724587Y-100854281D01*
X100815967Y-100717521D01*
X100878911Y-100565560D01*
X100911000Y-100404240D01*
X100911000Y-100239760D01*
X100878911Y-100078440D01*
X100815967Y-99926479D01*
X100724587Y-99789719D01*
X100674628Y-99739760D01*
X102248185Y-99739760D01*
X102248185Y-99904240D01*
X102280274Y-100065560D01*
X102343218Y-100217521D01*
X102434598Y-100354281D01*
X102550904Y-100470587D01*
X102687664Y-100561967D01*
X102839625Y-100624911D01*
X103000945Y-100657000D01*
X103165425Y-100657000D01*
X103326745Y-100624911D01*
X103478706Y-100561967D01*
X103615466Y-100470587D01*
X103731772Y-100354281D01*
X103823152Y-100217521D01*
X103886096Y-100065560D01*
X103918185Y-99904240D01*
X103918185Y-99739760D01*
X103886096Y-99578440D01*
X103823152Y-99426479D01*
X103731772Y-99289719D01*
X103615466Y-99173413D01*
X103478706Y-99082033D01*
X103326745Y-99019089D01*
X103165425Y-98987000D01*
X103000945Y-98987000D01*
X102839625Y-99019089D01*
X102687664Y-99082033D01*
X102550904Y-99173413D01*
X102434598Y-99289719D01*
X102343218Y-99426479D01*
X102280274Y-99578440D01*
X102248185Y-99739760D01*
X100674628Y-99739760D01*
X100608281Y-99673413D01*
X100471521Y-99582033D01*
X100319560Y-99519089D01*
X100158240Y-99487000D01*
X99993760Y-99487000D01*
X99832440Y-99519089D01*
X99680479Y-99582033D01*
X99543719Y-99673413D01*
X99427413Y-99789719D01*
X99336033Y-99926479D01*
X99330000Y-99941044D01*
X99330000Y-99666665D01*
X99274853Y-99389426D01*
X99166680Y-99128273D01*
X99009637Y-98893241D01*
X98809759Y-98693363D01*
X98577241Y-98538000D01*
X98809759Y-98382637D01*
X99009637Y-98182759D01*
X99166680Y-97947727D01*
X99269391Y-97699760D01*
X99749000Y-97699760D01*
X99749000Y-97864240D01*
X99781089Y-98025560D01*
X99844033Y-98177521D01*
X99935413Y-98314281D01*
X100051719Y-98430587D01*
X100188479Y-98521967D01*
X100340440Y-98584911D01*
X100501760Y-98617000D01*
X100666240Y-98617000D01*
X100827560Y-98584911D01*
X100979521Y-98521967D01*
X101116281Y-98430587D01*
X101232587Y-98314281D01*
X101323967Y-98177521D01*
X101386911Y-98025560D01*
X101419000Y-97864240D01*
X101419000Y-97699760D01*
X101386911Y-97538440D01*
X101323967Y-97386479D01*
X101232587Y-97249719D01*
X101116281Y-97133413D01*
X100979521Y-97042033D01*
X100827560Y-96979089D01*
X100666240Y-96947000D01*
X100501760Y-96947000D01*
X100340440Y-96979089D01*
X100188479Y-97042033D01*
X100051719Y-97133413D01*
X99935413Y-97249719D01*
X99844033Y-97386479D01*
X99781089Y-97538440D01*
X99749000Y-97699760D01*
X99269391Y-97699760D01*
X99274853Y-97686574D01*
X99330000Y-97409335D01*
X99330000Y-97126665D01*
X99274853Y-96849426D01*
X99166680Y-96588273D01*
X99009637Y-96353241D01*
X98809759Y-96153363D01*
X98577241Y-95998000D01*
X98809759Y-95842637D01*
X99009637Y-95642759D01*
X99166680Y-95407727D01*
X99274853Y-95146574D01*
X99330000Y-94869335D01*
X99330000Y-94586665D01*
X99274853Y-94309426D01*
X99166680Y-94048273D01*
X99009637Y-93813241D01*
X98809759Y-93613363D01*
X98577241Y-93458000D01*
X98809759Y-93302637D01*
X99009637Y-93102759D01*
X99166680Y-92867727D01*
X99274853Y-92606574D01*
X99330000Y-92329335D01*
X99330000Y-92046665D01*
X99274853Y-91769426D01*
X99166680Y-91508273D01*
X99009637Y-91273241D01*
X98967156Y-91230760D01*
X99495000Y-91230760D01*
X99495000Y-91395240D01*
X99527089Y-91556560D01*
X99590033Y-91708521D01*
X99681413Y-91845281D01*
X99797719Y-91961587D01*
X99934479Y-92052967D01*
X100086440Y-92115911D01*
X100247760Y-92148000D01*
X100412240Y-92148000D01*
X100573560Y-92115911D01*
X100725521Y-92052967D01*
X100862281Y-91961587D01*
X100978587Y-91845281D01*
X101069967Y-91708521D01*
X101132911Y-91556560D01*
X101165000Y-91395240D01*
X101165000Y-91230760D01*
X101132911Y-91069440D01*
X101069967Y-90917479D01*
X100978587Y-90780719D01*
X100862281Y-90664413D01*
X100725521Y-90573033D01*
X100573560Y-90510089D01*
X100412240Y-90478000D01*
X100247760Y-90478000D01*
X100086440Y-90510089D01*
X99934479Y-90573033D01*
X99797719Y-90664413D01*
X99681413Y-90780719D01*
X99590033Y-90917479D01*
X99527089Y-91069440D01*
X99495000Y-91230760D01*
X98967156Y-91230760D01*
X98811039Y-91074643D01*
X98819482Y-91073812D01*
X98939180Y-91037502D01*
X99049494Y-90978537D01*
X99146185Y-90899185D01*
X99225537Y-90802494D01*
X99284502Y-90692180D01*
X99320812Y-90572482D01*
X99333072Y-90448000D01*
X99333072Y-89391760D01*
X99495000Y-89391760D01*
X99495000Y-89556240D01*
X99527089Y-89717560D01*
X99590033Y-89869521D01*
X99681413Y-90006281D01*
X99797719Y-90122587D01*
X99934479Y-90213967D01*
X100086440Y-90276911D01*
X100247760Y-90309000D01*
X100412240Y-90309000D01*
X100573560Y-90276911D01*
X100725521Y-90213967D01*
X100862281Y-90122587D01*
X100978587Y-90006281D01*
X101069967Y-89869521D01*
X101132911Y-89717560D01*
X101165000Y-89556240D01*
X101165000Y-89391760D01*
X101139738Y-89264760D01*
X102416000Y-89264760D01*
X102416000Y-89429240D01*
X102448089Y-89590560D01*
X102511033Y-89742521D01*
X102602413Y-89879281D01*
X102718719Y-89995587D01*
X102855479Y-90086967D01*
X103007440Y-90149911D01*
X103168760Y-90182000D01*
X103333240Y-90182000D01*
X103494560Y-90149911D01*
X103646521Y-90086967D01*
X103783281Y-89995587D01*
X103899587Y-89879281D01*
X103990967Y-89742521D01*
X104053911Y-89590560D01*
X104086000Y-89429240D01*
X104086000Y-89264760D01*
X104053911Y-89103440D01*
X103990967Y-88951479D01*
X103899587Y-88814719D01*
X103783281Y-88698413D01*
X103646521Y-88607033D01*
X103494560Y-88544089D01*
X103333240Y-88512000D01*
X103168760Y-88512000D01*
X103007440Y-88544089D01*
X102855479Y-88607033D01*
X102718719Y-88698413D01*
X102602413Y-88814719D01*
X102511033Y-88951479D01*
X102448089Y-89103440D01*
X102416000Y-89264760D01*
X101139738Y-89264760D01*
X101132911Y-89230440D01*
X101069967Y-89078479D01*
X100978587Y-88941719D01*
X100862281Y-88825413D01*
X100725521Y-88734033D01*
X100573560Y-88671089D01*
X100412240Y-88639000D01*
X100247760Y-88639000D01*
X100086440Y-88671089D01*
X99934479Y-88734033D01*
X99797719Y-88825413D01*
X99681413Y-88941719D01*
X99590033Y-89078479D01*
X99527089Y-89230440D01*
X99495000Y-89391760D01*
X99333072Y-89391760D01*
X99333072Y-88848000D01*
X99320812Y-88723518D01*
X99284502Y-88603820D01*
X99225537Y-88493506D01*
X99146185Y-88396815D01*
X99049494Y-88317463D01*
X98939180Y-88258498D01*
X98819482Y-88222188D01*
X98695000Y-88209928D01*
X97095000Y-88209928D01*
X96970518Y-88222188D01*
X96850820Y-88258498D01*
X96799000Y-88286197D01*
X96799000Y-85496000D01*
X103839485Y-85496000D01*
X103781033Y-85583479D01*
M02*
